<svg width="822" height="1103" xmlns="http://www.w3.org/2000/svg">
<g transform="scale(0.015625)">
<g id="278104257" order="11" parent_id="" graphic_group_label_id="265297119" graphic_group_label="Atlas - Human" sub_image_id="102291546" transform=" scale(7.0, 7.0)"><path id="278104258" parent_id="278104257" order="1426" structure_id="9219" d="
			M6651.432,6495.077c-8.503-10.464-16.521-14.82-29.347-11.554c-17.942,4.57-35.858,15.257-52.149,23.717
			c-18.692,9.708-38.904,19.582-56.635,30.99c-34.746,22.355-72.175,43.391-108.292,63.648
			c-18.919,10.61-36.616,21.746-55.287,32.869c-40.289,24.002-79.131,47.861-123.478,63.965
			c-21.228,7.708-41.502,17.264-63.754,23.762c-37.942,11.082-79.385,16.367-118.939,20.24c-44.859,4.394-88.613,8.821-134.727,8.79
			c-40.752-0.027-78.963-5.111-118.803-10.774c-63.537-9.031-127.471-30.561-186.752-54.926
			c-26.279-10.801-52.857-21.958-77.54-35.544c-23.177-12.756-45.607-27.857-69.749-38.228
			c-23.476-10.083-46.79-16.936-70.483-28.311c-11.646-5.592-23.806-9.557-35.421-15.322
			c-38.891-19.306-72.758-41.402-104.524-71.129c-17.215-16.11-34.705-31.932-51.593-48.389
			c-15.104-14.718-29.789-29.913-43.239-46.172c-8.369-10.117-17.917-19.271-25.951-29.665
			c-7.167-9.271-10.646-20.212-17.214-30.066c-21.127-31.706-37.239-66.37-53.558-100.87
			c-16.071-33.979-29.638-67.144-35.976-104.069c-5.916-34.47,0.094-75.584,15.639-106.972
			c18.112-36.573,43.091-69.677,70.153-100.293c12.95-14.65,26.772-26.5,41.269-39.696c30.582-27.838,66.19-51.618,104.087-67.458
			c19.094-7.98,36.544-10.782,55.809-15.139c38.118-8.619,76.903-10.472,116.515-7.986c12.908,0.81,25.152,2.327,38.006,3
			c37.527,1.965,75.009,9.149,112.861,13.846c25.346,3.145,50.793,2.913,76.363,2.909c20.85-0.003,42.322,1.867,62.769-3.303
			c8.046-2.035,20.968-2.947,24.841-11.348c5.826-12.637-9.074-25.867-18.856-31.609c-23.84-13.995-45.462-30.335-71.073-41.499
			c-25.073-10.93-51.191-18.996-76.99-27.969c-49.694-17.283-99.303-32.321-147.08-53.971
			c-28.849-13.072-57.39-25.368-83.387-43.813c-21.449-15.219-41.241-32.132-63.537-46.63
			c-17.949-11.672-35.424-25.989-50.303-41.369c-49.215-50.871-81.802-129.484-52.094-197.103
			c11.469-26.106,25.337-58.094,44.532-79.887c17.433-19.793,35.74-39.156,56.061-56.025c33.143-27.514,71.86-47.105,111.941-62.371
			c39.331-14.98,82.372-30.966,123.753-38.977c24.709-4.784,49.794-10.109,74.693-14.794c20.563-3.869,41.594-5.701,62.494-8.845
			c68.693-10.332,141.207-16.092,210.644-11.291c47.728,3.32,96.753,16.249,143.724,25.295
			c83.258,16.035,166.958,27.031,250.579,40.823c35.592,5.87,71.815,14.818,107.595,19.891
			c41.495,5.883,82.287,15.641,123.179,24.648c20.488,4.514,41.018,8.871,61.693,12.446c21.368,3.696,59.161,19.062,68.809-11.02
			c5.869-18.302-3.703-42.714-15.445-56.968c-9.365-11.369-19.938-25.103-30.896-34.826c-14.319-12.707-33.535-22.331-49.354-33.251
			c-16.399-11.321-32.48-19.892-49.459-30.044c-44.604-26.669-95.053-46.134-143.537-64.028
			c-51.226-18.906-106.688-31.787-158.943-43.455c-42.214-9.426-84.37-16.429-126.557-23.678
			c-23.807-4.091-47.719-7.564-71.679-10.632c-31.019-3.971-62.127-7.221-93.281-9.923c-68.729-5.961-136.787-12.87-204.818-22.447
			c-25.893-3.645-51.918-10.352-78.308-14.532c-35.199-5.577-72.228-8.257-106.171-18.95c-27.447-8.646-54.718-15.973-83.26-20.28
			c-38.521-5.813-77.364-7.11-115.969-13.276c-25.598-4.088-52.536-1.434-78.537-2.742c-38.311-1.927-76.396-7.1-115.055-9.004
			c-34.354-1.692-68.303-7.889-102.655-9.622c-30.178-1.522-62.19-1.075-92.235-5.776c-32.984-5.161-66.155-7.096-98.207-17.062
			c-32.816-10.204-63.985-25.178-94.13-41.558c-35.637-19.365-69.491-43.738-92.729-77.556
			c-23.793-34.627-35.99-76.595-35.986-118.544c0.002-19.434,1.166-39.227,5.411-58.229c7.683-34.39,27.54-62.945,46.61-91.914
			c22.723-34.516,46.645-68.125,75.68-97.673c28.957-29.468,62.042-56.536,89.522-86.348c29.839-32.371,57.194-67.18,78.868-105.594
			c12.665-22.448,23.367-45.982,31.911-70.3c40.375-114.911,54.225-226.838,60.98-351.98c3.764-69.718,3.683-139.396,7.089-207.884
			c1.561-31.382,2.874-62.776,4.437-94.159c1.337-26.856,2.886-53.705,5.013-80.511c7.614-95.998,25.792-189.065,57.468-280.097
			c32.649-93.83,84.274-173.324,172.418-223.58c36.454-20.784,79.802-37.06,122.083-39.39c30.568-1.685,57.611-0.289,86.358,11.337
			c36.917,14.931,69.86,38.421,102.003,61.537c54.969,39.53,103.701,80.849,147.311,134.585
			c55.584,68.491,107.505,139.831,158.361,211.872c52.041,73.719,108.782,131.954,145.625,213.956
			c40.447,90.023,96.754,172.671,135.788,264.224c29.234,68.571,40.043,113.686,36.209,188.363
			c-5.812,113.269,108.8,167.828,203.032,188.699c63.568,14.08,144.848,50.708,209.69,15.838
			c78.955-42.459,49.222-119.886,28.519-190.815c-21.194-72.609-54.922-142.788-96.301-206.027
			c-39.754-60.756-81.887-124.619-126.646-181.895c-78.298-100.191-177.429-193.438-279.354-269.005
			c-85.334-63.266-173.879-125.396-242.979-206.84c-57.484-67.752-109.796-126.441-146.633-207.809
			c-37.301-82.391-73.149-170.615-145.496-229.078c-117.924-95.294-269.466-83.759-399.945-20.163
			c-164.022,79.944-278.92,215.856-334.945,389.129c-15.09,46.67-24.543,94.875-33.46,143.031
			c-8.829,47.682-20.018,95.397-25.177,143.649c-3.542,33.12-4.139,66.489-7.837,99.602c-4.449,39.846-10.66,79.497-12.611,119.588
			c-1.464,30.08-5.004,60.198-7.978,90.001c-3.423,34.296-10.735,68.011-20.948,100.912
			c-24.158,77.825-58.528,168.583-119.807,225.085c-22.03,20.313-42.734,39.27-67.271,56.995
			c-26.808,19.365-54.96,33.139-85.02,47.809c-15.16,7.398-32.658,12.706-48.954,17.974c-22.881,7.395-49.871,10.375-73.761,13.266
			c-89.285,10.802-177.092-33.195-246.245-86.324c-17.941-13.784-35.058-28.585-51.032-44.614
			c-18.22-18.282-34.438-38.607-48.376-60.307c-15.653-24.37-29.696-49.728-42.038-75.929c-21.568-45.79-37.36-94.305-47.032-143.98
			c-10.031-51.521-20.192-104.836-25.579-157.027c-2.973-28.806-3.6-58.202-4.453-87.036c-0.963-32.525-2.93-65.114-0.514-97.624
			c3.687-49.607,5.27-99.24,9.835-148.824c7.823-84.909,11.032-171.737,6.949-256.921c-1.131-23.596-5.529-47.159-9.083-70.482
			c-8.105-53.194-8.109-103.793-33.478-152.971c-12.612-24.451-27.735-48.65-44.689-70.388c-25.11-32.194-57.5-58.048-81.692-90.741
			c-25.771-34.827-43.29-76.335-60.598-115.838c-22.879-52.217-32.179-107.808-41.206-164.085
			c-14.114-87.993-15.188-180.745-5.004-269.071c6.533-56.666,20.864-114.826,40.498-168.327
			c21.48-58.531,32.762-125.382,35.863-187.526c2.532-50.734-3.199-103.955-29.066-148.65
			c-15.099-26.089-36.557-47.813-61.837-64.135c-43.037-27.784-114.332-30.644-159.383-5.681
			c-15.301,8.478-30.218,20.275-40.689,34.341c-43.629,58.612-17.892,140.179-19.197,206.918
			c-0.595,30.409,0.076,61.569-2.871,92.028c-10.364,107.138-9.767,210.189-39.308,315.193
			c-6.272,22.295-11.326,44.902-17.223,67.295c-21.818,82.85-55.945,162.722-99.075,236.688
			c-11.186,19.184-23.682,37.505-36.988,55.273c-42.364,56.572-94.352,107.585-160.453,135.255
			c-67.41,28.217-137.936,35.759-209.723,32.377c-38.827-1.829-76.77-12.248-112.588-26.931
			c-42.041-17.233-83.485-42.517-118.607-71.316c-16.917-13.872-31.72-30.055-49.444-42.971
			c-18.653-13.593-38.517-25.412-55.919-40.687c-16.083-14.116-32.802-26.521-49.238-39.77
			c-23.808-19.192-47.185-38.027-71.79-56.173c-34.967-25.787-69.326-52.778-99.619-84.036
			c-26.579-27.425-43.387-58.098-63.404-90.275c-14.357-23.079-23.624-50.921-34.214-76.529
			c-22.068-53.361-35.754-112.023-44.986-169.17c-2.669-16.525-4.166-33.361-5.706-50.065c-7.341-79.545-0.192-160.764-5.519-241.04
			c-1.495-22.53-1.721-45.122-1.684-67.694c0.048-29.057-0.541-58.098-1.618-87.134c-1.03-27.774-3.017-55.626-6.501-83.202
			c-10.26-81.203-34.271-177.488-102.054-230.504c-46.968-36.735-108.361-59.931-159.621-87.522
			c-67.63-36.403-140.447-57.26-214.152-77.486c-41.986-11.521-83.738-23.871-127.083-29.241
			c-29.419-3.645-59.145-6.333-88.813-4.944c-27.224,1.274-55.175,5.115-81.949,10.137c-34.116,6.4-69.392,18.96-97.161,40.24
			c-22.213,17.023-36.901,41.281-32.643,69.954c4.211,28.349,26.691,50.96,46.76,69.681
			c40.892,38.144,82.445,75.803,118.349,117.742c19.869,23.208,39.755,44.687,54.572,71.571
			c15.358,27.866,26.954,60.48,34.369,91.344c9.01,37.499,9.12,74.846,8.685,113.098c-0.86,75.522-31.018,134.823-75.485,193.662
			c-12.538,16.59-25.021,33.309-38.349,49.274c-24.052,28.813-50.077,55.974-81.375,76.979
			c-32.604,21.881-71.052,31.892-105.742,49.802c-36.152,18.665-69.758,44.939-92.313,79.191
			c-24.66,37.45-28.541,78.926-25.909,122.654c1.833,30.467,6.736,60.635,13.159,90.45c8.456,39.258,31.146,73.824,59.26,102.731
			c27.399,28.171,61.842,46.681,93.757,67.478c12.378,8.065,23.911,17.087,35.994,25.579c21.311,14.977,40.903,31.899,62.493,46.577
			c63.435,43.126,122.47,94.727,178.02,147.619c16.13,15.358,30.228,37.231,40.521,56.847
			c19.31,36.798,28.793,80.265,35.627,120.983c6.996,41.687,4.417,86.213-14.337,124.903
			c-32.242,66.516-108.965,103.957-175.094,127.489c-38.05,13.541-78.161,30.384-114.329,48.4
			c-77.753,38.731-132.62,129.068-119.626,216.317c4.617,30.999,15.431,60.594,24.216,90.551
			c5.581,19.029,11.133,30.264,25.658,43.734c14.938,13.853,33.667,22.009,52.952,27.874
			c51.364,15.619,107.82,20.829,160.906,12.902c11.257-1.681,22.245-3.544,33.219-5.222c24-3.67,48.311-6.661,72.277-10.805
			c20.542-3.552,40.969-6.584,61.32-10.917c37.722-8.032,76.894-5.567,113.984,4.504c29.04,7.884,55.611,22.193,82.999,34.293
			c26.32,11.627,50.381,25.259,72.293,44.097c54.301,46.684,97.814,109.405,127.861,174.033
			c22.867,49.184,42.275,97.29,57.125,149.433c9.234,32.426,6.827,65.196,6.11,98.397c-1.245,57.682,16.438,117.599,31.756,172.665
			c13.236,47.581,37.252,98.095,74.301,132.309c12.51,11.553,24.369,23.253,36.771,35.259
			c18.507,17.916,33.613,39.987,55.068,54.691c27.33,18.73,63.457,24.659,92.725,40.825c37.694,20.82,65.039,56.655,82.938,95.659
			c9.688,21.113,16.711,38.506,20.481,61.492c3.693,22.515,4.938,45.399,4.204,68.193c-1.478,45.949-10.889,91.492-25.336,135.053
			c-13.152,39.656-24.462,76.875-49.021,111.349c-21.147,29.685-46.985,55.717-73.206,80.888
			c-59.86,57.461-121.67,99.161-201.676,123.522c-66.455,20.23-137.377,28.093-206.633,29.135
			c-100.288,1.509-197.955-12.016-294.533-38.602c-24.704-6.801-49.14-14.68-72.932-24.212
			c-21.094-8.452-41.706-18.185-61.318-29.683c-26.065-15.282-53.703-35.237-75.24-56.381
			c-17.415-17.098-28.366-38.353-40.17-59.433c-19.998-35.712-44.207-69.156-71.905-99.307
			c-15.404-16.768-33.609-34.598-55.266-42.907c-43.051-16.519-46.285,63.612-47.554,89.199
			c-0.919,18.512-0.396,36.831,0.245,55.384c2.19,63.406,3.838,129.188,13.396,191.957c2.212,14.532,5.707,28.852,7.563,43.441
			c1.941,15.256,0.913,30.704,3.23,45.932c2.376,15.621,6.789,30.862,8.964,46.523c5.452,39.256,12.764,79.863,20.898,118.664
			c6.443,30.734,5.221,65.577,6.374,96.9c1.98,53.81-0.201,107.572-1.109,161.38c-1.406,83.323-0.222,169.169-16.208,251.293
			c-8.836,45.394-8.498,91.563-12.999,137.978c-2.154,22.206-7.87,43.314-10.034,65.524c-2.085,21.4-5.331,41.948-4.451,63.516
			c3.418,83.856,21.129,165.418,45.398,245.919c4.695,15.571,11.891,29.296,16.516,45.049c5.669,19.312,13.148,38.136,22.541,55.943
			c11.47,21.746,29.495,48.138,49.75,63.313c55.241,41.392,115.036,83.513,155.669,140.803
			c12.113,17.079,22.152,35.584,29.645,55.144c43.191,112.75,58.404,252.453-3.244,361.989
			c-15.026,26.695-33.531,51.264-53.662,74.299c-77.207,88.346-170.888,161.173-257.395,239.883
			c-32.794,29.84-65.821,59.422-98.621,89.255c-22.416,20.389-86.741,79.862-60.035,114.536
			c13.826,17.951,42.423,16.511,61.833,10.636c34.729-10.518,71.524-19.855,105.245-34.804
			c39.13-17.347,75.514-40.194,110.429-64.812c34.535-24.35,69.886-47.708,103.995-72.661c23.966-17.532,47.955-36.17,71.194-54.508
			c48.979-38.648,92.751-85.168,141.805-121.958c7.366-5.524,14.152-11.876,21.381-17.528c13.762-10.76,29.25-20.09,44.476-28.547
			c30.773-17.093,63.58-38.219,97.434-48.326c36.569-10.918,75.071-17.55,112.458-25.098c29.938-6.043,57.58-14.717,88.48-15.858
			c25.776-0.953,51.194-0.816,76.683,1.555c9.121,0.849,18.24,1.927,27.448,2.805c26.246,2.506,46.203,12.63,70.642,21.552
			c45.923,16.766,102.677,55.632,121.97,102.109c15.775,38.003,32.24,72.703,40.669,113.177
			c8.729,41.913,11.911,85.371,0.835,127.182c-8.395,31.691-23.279,61.085-34.552,91.758c-9.856,26.819-14.599,53.702-27.491,79.688
			c-18.836,37.964-40.868,76.22-67.389,109.487c-10.968,13.759-23.158,22.813-36.642,33.301
			c-23.004,17.884-38.445,44.924-57.936,66.354c-19.914,21.896-42.516,43.372-62.294,64.067
			c-11.801,12.348-21.06,26.229-33.678,37.815c-14.057,12.909-27.48,26.488-41.677,39.267
			c-28.764,25.891-58.731,50.426-89.441,73.969c-24.797,19.011-49.95,38.379-73.981,58.279
			c-10.029,8.306-19.854,17.185-29.974,25.478c-8.973,7.353-16.858,16.38-26.691,22.64c-8.589,5.467-18.054,7.861-26.889,13.361
			c-21.758,13.545-44.844,24.802-66.659,38.251c-56.16,34.622-112.925,68.982-168.732,101.938
			c-27.956,16.509-58.115,33.4-83.792,52.5c-13.191,9.812-25.99,20.75-36.384,33.549c-10.812,13.312-13.074,25.682-17.818,41.159
			c-9.628,31.41-4.086,61.43,7.209,91.855c6.97,18.773,15.928,39.208,14.938,59.657c-0.803,16.562-6.689,32.678-10.938,48.561
			c-9.473,35.409-24.92,70.353-40.019,104.229c-7.924,17.777-13.477,36.961-21.69,54.268c-10.082,21.243-21.417,39.105-33.186,59.09
			c-38.252,64.957-73.004,134.842-88.137,208.805c-4.431,21.655-6.237,43.737-9.231,65.611c-3.916,28.609-7.983,57.401-7.977,86.992
			c0.013,62.091,4.312,124.011,13.224,185.513c4.813,33.216,10.304,68.341,19.039,100.728c5.197,19.27,7.826,36.702,16.746,54.773
			c15.392,31.184,33.808,64.478,62.491,86.376c9.536,7.28,22.243,21.999,35.925,20.798c16.69-1.468,12.547-24.813,12.06-36.606
			c-0.96-23.259-3.947-46.373-7.079-69.421c-5.294-38.966-9.608-77.213-6.733-116.604c2.09-28.635,6.966-56.959,13.101-84.982
			c20.894-95.457,53.067-189.915,101.978-274.8c21.762-37.799,40.289-77.431,65.427-113.223
			c44.534-63.406,98.249-113.477,155.995-164.527c35.691-31.553,72.239-62.22,110.958-90.018
			c30.263-21.728,57.363-47.278,88.317-68.267c20.317-13.775,42.225-26.271,64.354-36.877
			c23.931-11.469,49.761-21.034,75.257-28.329c45.445-13.001,93.854-15.638,139.182-0.652
			c56.038,18.526,118.247,68.245,146.881,120.205c36.087,65.483,37.942,147.128,23.692,218.881
			c-8.151,41.045-23.292,81.36-40.322,119.537c-17.692,39.661-38.391,78.09-60.737,114.475
			c-11.271,18.354-23.396,37.365-36.151,55.557c-6.505,9.277-12.251,19.005-18.854,28.473c-14.47,20.747-28.56,41.894-41.595,63.573
			c-23.088,38.397-42.197,79.973-53.052,123.573c-4.381,17.599-11.068,46.616,2.927,62.283
			c20.875,23.369,61.164-26.269,74.753-36.826c48.129-37.393,92.098-79.385,133.982-123.612
			c17.557-18.539,35.96-38.76,52.015-59.039c50.192-63.399,101.242-126.493,149.059-191.888
			c13.607-18.608,27.032-37.35,40.309-56.195c28.482-40.429,51.505-87.015,65.945-134.355c10.076-33.034,12.839-65.9,15.909-100.041
			c3.24-36.034-0.671-72.326,2.676-108.386c4.566-49.183,4.875-98.464,9.321-147.589c3.664-40.482,11.231-79.459,17.083-119.082
			c3.842-26.014,7.091-48.85,19.773-72.031c17.947-32.809,32.093-67.135,51.161-99.392c10.958-18.538,23.609-37.381,38.173-52.958
			c41.907-44.824,98.784-77.969,157.078-96.331c23.819-7.503,48.344-12.636,72.819-17.472
			c89.164-17.616,180.502-25.455,270.91-13.006c31.317,4.313,62.941,7.08,94.008,11.729c86.454,12.935,174.336,2.564,260.49,16.01
			c39.51,6.166,79.083,11.958,118.455,18.971c34.545,6.154,68.84,8.037,103.475,14.323c27.932,5.069,55.935,9.738,83.872,14.783
			c25.928,4.682,49.924,14.36,75.152,21.681c25.495,7.397,49.994,14.5,76.549,13.488c27.244-1.038,37.56-14.906,32.477-41.682
			c-7.083-37.318-40.611-48.16-70.852-61.649c-34.061-15.193-66.446-33.899-99.62-50.88
			c-48.323-24.735-97.414-52.187-142.786-83.303c-78.296-53.696-139.239-119.5-196.755-194.641
			c-16.114-21.047-30.968-43.191-44.889-65.739c-41.429-67.104-71.8-139.649-82.78-218.124c-5.591-39.962-8.714-76.988-1.79-116.931
			c8.075-46.586,24.526-91.539,48.36-132.369c62.932-107.809,163.498-187.739,280.683-229.538
			c83.794-29.889,173.98-31.332,259.251-6.634c20.561,5.956,37.489,10.995,56.668,21.054c13.577,7.12,26.625,14.546,39.755,22.481
			c28.34,17.126,55.874,34.157,83.072,53.022c26.672,18.499,56.622,32.735,83.222,50.719c33.52,22.663,56.816,53.63,84.271,82.148
			c14.194,14.744,28.095,29.772,41.692,45.068c27.214,30.609,53.229,62.297,77.787,95.077
			c37.328,49.824,76.503,99.746,107.943,152.95c42.278,71.541,79.971,150.219,136.288,212.144
			c17.467,19.208,38.756,30.261,61.005,42.12c30.417,16.211,66.499,27.554,101.014,32.328c35.304,4.885,70.683-1.712,103.59-14.721
			c22.457-8.878,43.811-20.379,64.381-32.98c26.533-16.254,52.74-32.17,78.905-48.791c25.818-16.399,54.88-31.046,85.868-33.364
			c30.439-2.277,60.165,5.998,89.032,15.493c31.131,10.239,63.293,18.182,93.272,31.625c25.721,11.533,58.34,27.49,79.189,46.66
			c10.409,9.57,20.478,18.389,31.002,27.997c22.306,20.363,51.217,36.86,78.777,48.213c19.306,7.951,40.074,7.808,59.943,11.369
			c14.168,2.54,27.425-4.002,38.424-12.364c22.244-16.912,36.947-43.177,54.313-64.696c18.913-23.438,38.223-46.51,53.778-72.383
			c15.472-25.732,29.913-52.073,46.581-77.075c19.246-28.869,43.689-56.385,67.853-81.199
			c93.043-95.551,213.853-138.641,342.569-160.621c39.509-6.747,77.27-17.143,116.984-23.033
			c25.786-3.824,51.86-8.286,77.525-12.461c36.114-5.875,88.469-6.792,108.729-43.532c17.381-31.518,4.961-58.864-7.102-89.456
			c-12.805-32.475-27.117-64.548-35.618-98.517c-11.908-47.588-14.813-93.919-0.963-142.006
			c3.811-13.229,8.799-24.558,15.719-37.032c11.709-21.109,25.843-37.652,41.83-55.532c11.988-13.408,23.494-26.255,36.949-38.562
			c18.998-17.376,37.007-36.447,53.872-55.891c15.758-18.168,30.53-36.031,44.894-54.763
			C6658.658,6533.662,6667.492,6514.843,6651.432,6495.077z M2017.733,5705.09c-5.398,43.568-15.205,86.51-28.211,128.422
			c-11.276,36.338-36.474,62.13-68.522,80.74c-21.644,12.567-58.425,31.571-83.464,20.472c-26.258-11.64-38.37-43.652-47.389-68.785
			c-11.578-32.26-16.01-63.938-9.622-97.889c7.096-37.704,15.963-75.456,36.945-108.117c18.663-29.05,44.291-52.735,70.21-75.185
			c21.895-18.964,42.117-37.998,72.727-37.402c25.323,0.494,48.868,11.938,56.085,38.17
			C2027.58,5625.824,2022.826,5663.988,2017.733,5705.09z" style="stroke:black;fill:#f2f1f0"/></g>
<g id="278104259" order="12" parent_id="" graphic_group_label_id="266932194" graphic_group_label="Atlas - Human Gyri" sub_image_id="102291546" transform=" scale(7.0, 7.0)"><path id="278104262" parent_id="278104259" order="6" structure_id="4054" d="
			M3411.866,7046.396c-23.834,40.83-40.286,85.783-48.36,132.369c-6.924,39.942-3.801,76.969,1.79,116.931
			c10.979,78.475,41.351,151.02,82.78,218.124c13.92,22.548,28.775,44.692,44.889,65.739
			c57.516,75.141,118.459,140.944,196.755,194.641c45.372,31.116,94.462,58.567,142.786,83.303
			c33.174,16.98,65.56,35.687,99.62,50.88c30.24,13.489,63.769,24.331,70.852,61.649c5.083,26.775-5.232,40.644-32.477,41.682
			c-26.555,1.012-51.054-6.091-76.549-13.488c-25.229-7.32-49.225-16.999-75.152-21.681c-27.937-5.045-55.939-9.714-83.872-14.783
			c-34.635-6.286-68.93-8.169-103.475-14.323c-39.372-7.013-78.945-12.805-118.455-18.971
			c-86.154-13.445-174.036-3.075-260.49-16.01c-31.067-4.648-62.691-7.416-94.008-11.729c-90.408-12.449-181.746-4.61-270.91,13.006
			c-24.475,4.836-49,9.969-72.819,17.472c-45.999,14.489-91.108,38.189-128.683,69.563l185.677,268.743
			c7.142-2.139,18.005,0.955,23.255,2.143c33.688,7.625,65.845,24.17,97.359,37.842c34.867,15.128,70.577,17.605,106.063,30.105
			c54.933,19.35,107.771,46.921,161.321,69.659c30.828,13.091,58.443,32.44,90.513,42.272
			c32.701,10.026,67.391,14.42,101.544,14.387c37.855-0.036,76.596,4.411,114.368,0.078c26.554-3.045,52.342-10.895,78.658-12.384
			c26.542-1.503,49.666-10.249,75.123-15.626c26.567-5.613,54.72-6.821,81.619-11.02c54.132-8.448,109.818-19.97,163.416-33.694
			c30.229-7.74,61.831-13.06,91.656-21.767c13.211-3.857,27.334-7.708,41.227-12.084c37.347-11.764,76.622-30.941,110.94-49.602
			c24.764-13.465,45.931-32.201,67.467-50.869c14.319-12.41,24.792-28.195,35.971-43.309c11.018-14.897,25.524-27.074,36.043-42.184
			c12.866-18.483,29.45-42.428,31.264-65.604c5.014-64.072-18.368-120.335-40.064-178.82c-8.262-22.271-17.412-43.722-26.261-65.738
			c-5.434-13.52-10.156-27.534-16.278-40.308c-28.963-60.429-60.831-119.316-105.499-170.694
			c-15.586-17.927-32.153-34.902-48.917-51.797c-38.635-38.935-87.271-68.004-132.665-97.824
			c-68.401-44.934-134.277-100.165-195.277-153.157c-36.383-31.606-71.879-64.47-101.833-102.218
			c-14.636-18.444-29.265-37.588-44.344-55.591c-3.98-4.753-19.464-17.32-8.86-18.968c0.367-0.057,0.729-0.08,1.091-0.101
			l-162.059-236.336C3465.042,6968.62,3435.74,7005.496,3411.866,7046.396z" style="stroke:black;fill:#e8bf59"/><path id="278104266" parent_id="278104259" order="21" structure_id="4048" d="
			M775.957,8522.576c-5.287,27.063-17.416,48.327-27.437,73.363c-13.676,34.167-23.33,69.279-33.018,104.736
			c-20.6,75.398-39.285,156.303-35.31,237.698c1.592,32.591,8.206,64.405,12.349,96.681c4.197,32.691,5.11,65.966,14.018,97.887
			c6.253,22.406,16.59,44.568,24.692,66.438c15.984,43.145,35.053,85.526,43.83,130.167c3.083,15.68,11.46,27.853,14.888,43.532
			c3.574,16.347,3.018,33.689,9.105,49.467c11.193,29.008,27.356,54.953,36.782,84.262c6.035,18.766,21.765,34.744,30.771,52.799
			c13.255,26.573,23.068,55.731,38.577,80.805c18.351,29.668,40.237,57.022,61.505,84.607c9.207,11.94,16.285,24.654,25.521,36.209
			c32.136,40.202,64.005,76.383,108.09,103.375c33.291,20.383,71.298,38.174,110.843,40.389
			c38.469,2.154,71.661-5.342,109.602-11.094c74.796-11.34,161.25-38.814,215.958-92.73c12.718-12.533,28.584-20.947,42.496-31.961
			c12.141-9.613,19.014-21.852,28.954-33.575c13.627-16.071,25.791-27.722,19.439-50.069c-5.155-18.137-18.683-32.937-28.642-48.517
			c-23.028-36.026-46.845-72.252-60.626-113.048c-17.185-50.877-15.71-100.361-2.317-152.003
			c10.776-41.552,24.326-84.261,38.929-124.612c9.811-27.111,11.919-58.637,24.002-85.777
			c13.438-30.185,21.755-62.268,35.309-92.609c16.028-35.88,36.19-69.705,58.124-102.256c21.327-31.65,45.611-58.786,68.944-88.593
			c16.089-20.554,26.967-42.403,39.563-64.641c15.457-27.286,40.584-45.431,58.143-71.014c11.14-16.231,22.746-32.919,34.948-48.28
			c7.301-9.191,19.493-27.142,32.834-26.865c0.542,0.012,1.039,0.051,1.511,0.105l42.11-253.539
			c-15.134,1.79-30.163,4.904-44.88,9.115c-25.496,7.295-51.326,16.86-75.257,28.329c-22.129,10.605-44.037,23.102-64.354,36.877
			c-30.955,20.988-58.054,46.539-88.317,68.267c-38.719,27.798-75.267,58.465-110.958,90.018
			c-57.746,51.051-111.461,101.121-155.995,164.527c-25.139,35.792-43.666,75.424-65.427,113.223
			c-48.911,84.885-81.084,179.343-101.978,274.8c-6.134,28.023-11.011,56.348-13.101,84.982
			c-2.875,39.392,1.438,77.639,6.733,116.604c3.131,23.048,6.119,46.162,7.079,69.421c0.487,11.793,4.63,35.139-12.06,36.606
			c-13.682,1.201-26.39-13.518-35.925-20.798c-28.683-21.898-47.099-55.192-62.491-86.376c-8.92-18.071-11.549-35.504-16.746-54.773
			c-8.735-32.387-14.225-67.512-19.039-100.728c-8.913-61.502-13.211-123.422-13.224-185.513
			c-0.007-29.591,4.061-58.383,7.977-86.992c2.994-21.874,4.801-43.956,9.231-65.611c15.133-73.963,49.885-143.848,88.137-208.805
			c11.769-19.984,23.104-37.847,33.186-59.09c8.214-17.307,13.767-36.49,21.69-54.268c15.099-33.876,30.546-68.819,40.019-104.229
			c3.233-12.086,7.409-24.309,9.577-36.758l-528.282,14.051C787.482,8478.568,780.32,8500.244,775.957,8522.576z" style="stroke:black;fill:#e8c459"/><path id="278104269" parent_id="278104259" order="30" structure_id="4045" d="
			M7016.332,6759.016c8.016-21.814,20.76-40.898,29.745-62.112c23.528-55.557,36.461-121.749,47.772-180.898
			c8.333-43.569,9.264-89.729,13.578-134.982c11.367-119.184,4.896-260.894-64.873-362.968
			c-14.774-21.615-36.617-46.949-60.002-59.607c-75.828-41.048-144.396-28.213-221.932-0.765
			c-21.188,7.501-42.873,19.452-63.136,30.052c-23.219,12.146-47.796,22.022-70.692,34.835
			c-73.969,41.388-151.291,59.055-231.814,82.097c-44.514,12.74-88.267,24.745-133.132,36.553
			c-27.222,7.164-53.109,17.211-80.111,24.801c-64.937,18.251-133.476,21.753-200.414,25.573
			c-12.986,0.741-28.47,1.694-44.855,3.142c-54.524,4.818-109.278,7.235-163.589,7.235c-32.019,0-63.934-3.065-95.937-3.623
			c-12.915-0.226-26.45-3.189-39.177-1.732c-12.374,1.418-24.169,6.585-36.754,6.486c-21.896-0.171-43.899-6.563-65.12-11.307
			c-23.646-5.286-47.188-13.506-70.56-17.758c-23.127-4.208-47.794,0.092-71.64-0.536c-13.021-0.344-25.781-1.384-39.044-2.125
			c-5.667-0.318-20.802,0.444-21.633-7.693c-0.017-0.161-0.017-0.316-0.021-0.473l-310.063-2.422
			c7.24,28.103,18.363,54.462,31.067,81.322c16.318,34.5,32.431,69.164,53.558,100.87c6.567,9.854,10.047,20.795,17.214,30.066
			c8.034,10.394,17.582,19.548,25.951,29.665c13.45,16.259,28.135,31.454,43.239,46.172c16.888,16.457,34.378,32.278,51.593,48.389
			c31.767,29.727,65.634,51.823,104.524,71.129c11.615,5.766,23.774,9.73,35.421,15.322c23.693,11.375,47.008,18.228,70.483,28.311
			c24.142,10.37,46.572,25.472,69.749,38.228c24.683,13.586,51.261,24.743,77.54,35.544
			c59.281,24.365,123.215,45.895,186.752,54.926c39.84,5.663,78.051,10.747,118.803,10.774c46.113,0.031,89.867-4.396,134.727-8.79
			c39.555-3.873,80.997-9.158,118.939-20.24c22.252-6.498,42.526-16.054,63.754-23.762c44.347-16.104,83.188-39.963,123.478-63.965
			c18.671-11.123,36.368-22.259,55.287-32.869c36.117-20.258,73.546-41.293,108.292-63.648c17.73-11.408,37.942-21.282,56.635-30.99
			c16.291-8.46,34.207-19.146,52.149-23.717c12.825-3.267,20.844,1.09,29.347,11.554c16.061,19.766,7.227,38.585-6.615,56.637
			c-14.363,18.731-29.136,36.595-44.894,54.763c-16.865,19.443-34.874,38.515-53.872,55.891
			c-13.455,12.307-24.961,25.153-36.949,38.562c-15.987,17.88-30.121,34.423-41.83,55.532c-6.92,12.475-11.908,23.804-15.719,37.032
			c-3.959,13.745-6.543,27.347-7.945,40.875l571.051-70.521C7015.189,6762.229,7015.743,6760.618,7016.332,6759.016z" style="stroke:black;fill:#e8c659"/><path id="278104267" parent_id="278104259" order="36" structure_id="4901" d="
			M2274.72,7169.384c-8.43-40.474-24.895-75.174-40.669-113.177c-13.239-31.893-44.118-60.199-77.031-80.242l-212.576,275.016
			c5.583,2.069,5.843,11.479-0.688,18.878c-11.565,13.101-26.811,22.208-38.821,34.837c-11.696,12.299-16.607,29.503-32.186,38.165
			c-20.723,11.521-40.036,19.021-59.149,33.811c-21.905,16.949-44.108,33.51-66.516,49.787
			c-45.724,33.214-92.316,65.214-139.198,96.767c-104.415,70.272-211.598,136.351-317.807,203.851
			c-18.873,11.994-39.095,22.69-54.959,38.747c-13.842,14.01-29.331,22.723-45.943,33.359c-3.052,1.954-7.024,4.847-11.623,8.196
			c-16.173,11.78-30.811,21.868-42.376,24.664c-4.45,2.021-9.306,3.728-13.146,5.343c-29.046,12.217-55.931,32.27-82.723,48.854
			c-31.137,19.273-62.486,38.277-95.063,55.041c-38,19.555-72.22,43.895-107.651,67.516c-31.747,21.164-47.665,44.748-67.413,77.994
			c-44.445,74.826-37.931,173.908-21.356,257.692c6.262,31.653,23.245,61.827,34.094,92.121c2.419,6.755,3.673,13.478,4.118,20.19
			l528.282-14.051c0.681-3.911,1.169-7.844,1.361-11.803c0.991-20.449-7.968-40.884-14.938-59.657
			c-11.295-30.426-16.837-60.445-7.209-91.855c4.745-15.478,7.007-27.848,17.818-41.159c10.394-12.799,23.192-23.737,36.384-33.549
			c25.677-19.1,55.836-35.991,83.792-52.5c55.808-32.956,112.572-67.316,168.732-101.938c21.815-13.449,44.901-24.706,66.659-38.251
			c8.834-5.5,18.299-7.895,26.889-13.361c9.833-6.26,17.719-15.287,26.691-22.64c10.119-8.293,19.944-17.172,29.974-25.478
			c24.032-19.9,49.184-39.269,73.981-58.279c30.709-23.543,60.677-48.078,89.441-73.969c14.197-12.778,27.62-26.357,41.677-39.267
			c12.619-11.587,21.877-25.468,33.678-37.815c19.779-20.695,42.38-42.172,62.294-64.067c19.491-21.431,34.932-48.471,57.936-66.354
			c13.484-10.487,25.674-19.542,36.642-33.301c26.521-33.268,48.553-71.523,67.389-109.487
			c12.892-25.985,17.635-52.868,27.491-79.688c11.272-30.673,26.157-60.066,34.552-91.758
			C2286.63,7254.755,2283.449,7211.297,2274.72,7169.384z" style="stroke:black;fill:#e8c859"/><path id="278104268" parent_id="278104259" order="39" structure_id="4060" d="
			M7014.658,6763.847l-571.051,70.521c-3.503,33.801,0.404,67.146,8.908,101.131c8.501,33.969,22.813,66.042,35.618,98.517
			c12.063,30.592,24.482,57.938,7.102,89.456c-20.261,36.74-72.615,37.657-108.729,43.532c-25.665,4.175-51.739,8.637-77.525,12.461
			c-39.715,5.891-77.476,16.286-116.984,23.033c-128.717,21.98-249.526,65.07-342.569,160.621
			c-24.163,24.814-48.606,52.33-67.853,81.199c-16.668,25.002-31.109,51.343-46.581,77.075
			c-15.556,25.873-34.865,48.944-53.778,72.383c-17.365,21.52-32.068,47.784-54.313,64.696
			c-10.999,8.362-24.256,14.904-38.424,12.364c-19.869-3.562-40.638-3.418-59.943-11.369c-27.561-11.353-56.472-27.85-78.777-48.213
			c-10.524-9.608-20.593-18.427-31.002-27.997c-20.85-19.17-53.469-35.127-79.189-46.66c-29.979-13.443-62.142-21.386-93.272-31.625
			c-28.867-9.495-58.593-17.771-89.032-15.493c-30.988,2.318-60.05,16.965-85.868,33.364
			c-26.165,16.621-52.372,32.537-78.905,48.791c-20.57,12.602-41.924,24.103-64.381,32.98
			c-32.907,13.009-68.286,19.605-103.59,14.721c-34.515-4.774-70.597-16.117-101.014-32.328
			c-22.249-11.859-43.538-22.912-61.005-42.12c-56.317-61.925-94.01-140.603-136.288-212.144
			c-31.44-53.204-70.615-103.126-107.943-152.95c-24.559-32.78-50.573-64.468-77.787-95.077
			c-13.598-15.296-27.498-30.324-41.692-45.068c-27.455-28.519-50.752-59.485-84.271-82.148c-26.6-17.983-56.55-32.22-83.222-50.719
			c-27.198-18.865-54.732-35.896-83.072-53.022c-13.13-7.936-26.178-15.361-39.755-22.481
			c-19.179-10.059-36.107-15.098-56.668-21.054c-85.271-24.698-175.457-23.255-259.251,6.634
			c-72.729,25.941-139.045,66.582-193.947,119.448l162.059,236.336c14.644-0.849,25.3,27.166,32.425,36.32
			c20.457,26.282,42.857,50.25,65.63,74.542c23.753,25.338,49.58,53.302,79.907,69.903c16.07,8.798,27.359,22.958,40.505,35.276
			c12.771,11.966,25.956,22.754,38.499,35.489c27.729,28.154,61.466,53.489,94.454,75.159
			c19.836,13.031,41.621,20.064,61.647,31.926c8.24,4.88,15.846,9.959,23.722,15.469c8.301,5.808,16.054,11.475,23.771,18.031
			c21.975,18.67,37.076,43.811,57.716,63.361c22.127,20.961,43.021,47.273,60.995,71.886c19.443,26.623,34.663,55.234,49.039,84.989
			c12.305,25.467,25.739,51.487,35.64,78.008c6.325,16.944,13.835,32.533,22.006,48.412c17.168,33.365,30.616,72.107,39.339,108.607
			c8.43,35.271-1.393,77.211,41.863,90.32c43.918,13.31,96.363,11.141,141.876,12.085c74.628,1.536,149.29,3.718,223.349-5.955
			c16.48-2.152,33.387-4.774,49.162-7.868c58.104-11.395,119.248-38.824,178.826-38.664c26.519,0.071,40.724-12.379,64.162-19.821
			c43.256-13.734,97.918-15.351,138.539,7.319c18.019,10.055,28.819,25.219,48.621,34.393
			c34.026,15.763,72.48,23.375,109.015,31.918c33.94,7.937,68.479,13.144,103.134,16.73c43.826,4.537,87.998,6.072,130.46-3.064
			c44.134-9.498,88.642-14.904,132.813-23.977c42.581-8.744,79.91-20.422,119.392-39.013c21.007-9.892,40.02-23.33,59.574-35.717
			c16.453-10.423,35.2-17.823,50.919-29.157c37.476-27.023,80.075-63.746,127.554-65.885c56.092-2.525,108.544-21.16,163.68-29.801
			c49.41-7.743,93.741-19.2,141.41-34.072c29.636-9.246,53.952-25.49,81.514-39.336c14.289-7.178,29.266-10.703,42.209-20.107
			c14.751-10.719,28.779-23.348,43.262-34.642c37.75-29.44,78.951-57.048,110.111-93.678c11.951-14.049,28.513-21.209,41.998-33.377
			c24.958-22.521,51.953-44.315,75.683-67.992c17.13-17.093,26.247-38.384,40.449-57.456c16.794-22.552,31.718-46.22,46.647-70.027
			c20.13-32.104,38.047-57.1,47.801-94.645c11.749-45.223,28.479-87.227,35.521-133.994c4.553-30.233,11.982-58.523,17.984-88.552
			c2.869-14.356,3.831-28.046,6.088-42.632c8.646-55.889,8.652-114.238,9.652-170.749
			C7010.188,6878.008,6997.169,6817.083,7014.658,6763.847z" style="stroke:black;fill:#e8ca59"/><path id="278104263" parent_id="278104259" order="42" structure_id="4051" d="
			M2657.691,8027.537c-14.563,15.577-27.214,34.42-38.173,52.958c-19.068,32.257-33.214,66.583-51.161,99.392
			c-12.682,23.182-15.931,46.018-19.773,72.031c-5.851,39.623-13.418,78.6-17.083,119.082c-4.446,49.125-4.755,98.406-9.321,147.589
			c-3.347,36.06,0.564,72.352-2.676,108.386c-3.07,34.141-5.833,67.007-15.909,100.041c-14.44,47.341-37.463,93.927-65.945,134.355
			c-13.277,18.846-26.702,37.587-40.309,56.195c-47.817,65.395-98.867,128.488-149.059,191.888
			c-16.055,20.279-34.458,40.5-52.015,59.039c-41.885,44.228-85.854,86.22-133.982,123.612
			c-13.589,10.558-53.877,60.195-74.753,36.826c-13.995-15.667-7.308-44.685-2.927-62.283
			c10.855-43.601,29.964-85.176,53.052-123.573c13.036-21.68,27.125-42.826,41.595-63.573c6.603-9.468,12.348-19.195,18.854-28.473
			c12.755-18.191,24.88-37.203,36.151-55.557c22.347-36.385,43.045-74.813,60.737-114.475
			c17.03-38.177,32.171-78.492,40.322-119.537c14.25-71.753,12.396-153.397-23.692-218.881
			c-28.634-51.96-90.843-101.679-146.881-120.205c-30.648-10.133-62.704-12.199-94.301-8.463l-42.11,253.539
			c18.896,2.17-17.593,37.959-22.885,42.824c-46.479,42.729-95.528,92.31-122.5,150.539
			c-27.45,59.261-61.833,115.673-91.758,173.749c-15.112,29.328-25.909,62.437-41.971,91.183
			c-15.062,26.957-33.188,51.209-41.672,81.198c-19.004,67.182-19.358,140.542-7.885,209.199
			c11.817,70.715,27.39,140.943,63.166,203.979c23.238,40.945,71.419,52.948,115.109,56.395c51.377,4.052,112.3,5.371,162.182-7.654
			c27.769-7.251,56.804-10.883,83.331-22.326c27.606-11.91,54.875-23.415,83.232-33.938c32.175-11.94,64.514-30.199,95.667-46.131
			c33.708-17.238,61.581-42.488,91.555-65.129c18.618-14.063,35.736-28.548,55.841-39.895c20.648-11.652,39.463-26.52,53.429-45.61
			c13.671-18.687,31.084-29.114,50.064-42.835c9.728-7.032,19.282-15.915,28.502-23.956c27.325-23.829,55.378-46.819,82.639-70.719
			c15.788-13.841,27.43-31.612,43.179-45.585c14.364-12.744,32.31-22.154,46.079-35.277c20.668-19.698,42.325-41.101,62.015-61.822
			c28.756-30.263,56.149-64.491,80.634-98.275c36.902-50.918,72.795-107.17,95.226-166.125
			c22.234-58.437,31.34-121.678,41.713-183.294c3.469-20.606,5.541-42.399,4.404-64.57c-0.884-17.238-7.02-33.73-7.761-51.044
			c-0.758-17.697,1.267-35.024-4.195-52.412c-5.494-17.488-6.889-35.983-10.566-54.038c-6.714-32.961-16.476-65.843-24.258-98.89
			c-3.915-16.624-9.742-31.887-13.2-48.045c-2.059-9.619-15.723-36.348-11.713-44.77c1.169-2.457,3.261-3.896,5.829-4.666
			l-185.677-268.743C2676.042,8009.154,2666.53,8018.083,2657.691,8027.537z" style="stroke:black;fill:#e8cb59"/><path id="278104260" parent_id="278104259" order="45" structure_id="4029" d="
			M7183.926,4209.332c-0.924-28.223,1.165-60.067-6.612-87.45c-3.944-13.887-9.17-26.782-12.261-41.37
			c-7.328-34.583-14.932-69.109-21.695-103.809c-2.367-12.145-7.854-19.717-11.172-30.346c-2.981-9.553-1.191-19.907-2.26-29.705
			c-1.432-13.1-4.861-25.27-7.358-38.255c-2.393-12.445-5.101-24.521-9.511-36.373c-5.477-14.714-15.02-27.666-20.553-42.313
			c-7.114-18.828-10.538-39.388-16.541-58.627c-8.655-27.74-18.024-57.753-28.721-84.622c-5.883-14.777-13.096-29.291-18.141-44.312
			c-17.887-53.271-35.559-107.868-56.496-161.337c-16.28-41.574-29.687-84.195-45.372-125.988
			c-12.899-34.369-25.452-72.412-53.019-98.155c-20.01-18.68-35.085-41.858-49.734-64.766
			c-13.233-20.692-24.014-47.704-40.246-65.702c-6.922-7.674-13.301-8.253-20.371-13.434
			c-16.383-12.019-23.458-31.875-37.823-45.699c-14.903-14.342-36.816-18.182-54.241-29.382
			c-18.167-11.677-37.576-33.657-50.718-50.61c-31.062-40.075-64.085-76.542-99.343-112.871
			c-14.542-14.984-24.782-31.46-42.08-43.585c-17.806-12.479-29.474-32.308-47.601-45.335
			c-35.269-25.348-81.807-46.803-126.269-39.217c-29.731,5.072-58.305-9.343-76.236-34.942
			c-16.87-24.087-27.412-53.633-41.178-79.944c-14.602-27.908-33.618-52.882-50.655-79.493
			c-17.744-27.715-30.94-56.38-42.616-86.364c-6.573-16.883-13.681-33.962-24.252-48.797c-9.842-13.813-21.852-19.459-34.072-29.659
			c-30.931-25.817-51.464-67.408-78.668-97.266c-25.675-28.179-44.514-62.185-71.681-89.051
			c-12.586-12.446-26.048-20.631-37.923-34.201c-12.907-14.75-26.272-29.12-40.623-42.482
			c-20.732-19.306-47.104-30.131-66.127-50.623c-22.834-24.6-43.756-48.175-72.714-65.426
			c-28.074-16.724-58.729-20.363-88.268-33.324c-33.95-14.898-69.382-26.858-103.631-41.55
			c-43.714-18.752-87.79-37.271-135.965-39.598c-34.264-1.655-61.71,6.289-94.469,14.85c-45.44,11.875-91.262,27.915-136.436,43.368
			c-22.293,7.625-45.056,13.509-66.786,21.222c-29.536,10.484-59.212,17.156-87.03,31.944
			c-28.711,15.263-55.726,33.627-80.94,54.134c-59.829,48.658-110.14,106.295-164.756,160.385
			c-43.568,43.149-82.707,92.322-117.42,142.233c-6.377,9.168-12.022,19.873-19.33,28.282c-6.094,7.013-9.574,13.767-14.202,21.862
			c-5.404,9.454-11.589,18.509-17.172,27.867c-6.869,11.514-13.149,22.868-20.014,34.39c-6.563,11.016-13.245,22.978-20.576,33.387
			c-15.44,21.927-26.651,48.257-38.482,72.318c-12.361,25.141-23.995,50.665-34.131,76.79
			c-16.629,42.862-33.522,82.426-50.212,117.593c-27.145,57.198-44.985,121.12-62.239,182.938l-0.428,1.533
			c-11.113,39.806-17.03,77.93-19.061,119.053c-1.301,26.35-6.127,51.878-9.048,78.002c-1.509,13.488-2.25,26.358-2.926,40
			c-0.738,14.892-3.53,28.707-2.841,43.644c0.944,20.452,0.769,40.919,2.076,61.375c1.657,25.921,14.119,48.423,18.97,72.982
			c4.058,20.543,7.773,43.369,7.775,64.512c0.002,21.629-6.472,39.277-9.94,58.975c-3.973,22.558-3.732,46.444-7.298,69.296
			c-2.238,14.35-5.749,28.466-8.059,42.805c-0.358,2.227-0.594,4.473-0.785,6.72c-0.365,4.279-0.564,8.571-0.916,12.852
			c-0.166,2.021-0.364,4.04-0.652,6.047c-0.132,0.918-0.283,1.833-0.465,2.743c-0.14,0.705-0.265,2.025-1.271,1.964
			c-2.533-0.153-2.792-4.092-3.208-5.976c-0.354-1.604-0.614-3.229-0.79-4.861c-0.344-3.189-0.356-6.406-0.159-9.606
			c0.197-3.213,0.603-6.41,1.075-9.593c0.475-3.203,1.017-6.396,1.493-9.599c0.479-3.224,0.89-6.46,1.105-9.713
			c1.102-16.592,2.631-32.897,4.365-49.567c3.422-32.899-4.277-61.569-7.722-93.776c-3.151-29.466-6.771-60.651-6.776-91.231
			c-0.003-15.464,1.121-29.926,2.01-44.986c1.44-24.44,0.984-48.982,0.987-73.507c0.005-37.458,3.107-75.033,4.999-112.504
			c2.813-55.713,18.253-113.527,33.206-167.125l0.428-1.533c17.3-61.979,35.188-126.069,62.479-183.577
			c16.647-35.079,33.503-74.553,50.097-117.324c11.869-30.594,25.77-60.366,40.52-89.666c14.497-28.797,32.239-56.624,45.197-86.099
			c7.013-15.95,11.756-32.862,19.951-48.296c10.147-19.11,16.684-39.808,25.98-59.3c3.88-8.134,10.202-14.664,14.33-22.946
			c4.948-9.928,9.303-20.141,13.567-30.376c7.211-17.31,14.483-33.966,20.733-51.747c3.786-10.772,3.321-21.148,5.078-32.141
			c1.726-10.79,5.184-21.698,7.287-32.51c4.596-23.627,8.355-47.404,12.479-71.116c2.358-13.564,4.832-27.111,7.642-40.59
			c5.129-24.599,9.802-49.111,13.581-73.153c3.99-25.388,6.042-58.589,3.25-83.835c-2.337-21.129-14.519-41.653-21.109-61.675
			c-17.464-53.063-41.554-106.203-59.954-159.041c-9.974-28.639-19.237-57.755-27.143-87.686
			c-13.448-50.916-28.987-99.902-55.867-145.118c-22.528-37.897-47.24-73.721-73.921-108.369
			c-25.605-33.25-55.203-62.628-83.531-93.452c-26.044-28.337-60.535-48.671-88.205-75.999
			c-26.815-26.484-55.021-53.44-83.968-77.624c-66.786-55.796-142.247-110.45-219.029-149.998
			c-80.723-41.579-160.143-81.203-245.963-110.372c-79.065-26.875-166.161-43.512-249.776-42.63
			c-45.607,0.481-91.771-1.688-137.217,2.609c-38.255,3.617-77.207,3.872-114.74,12.922c-37.894,9.138-76.19,20.529-113.285,32.599
			c-33.578,10.925-66.947,22.87-98.629,38.57c-22.856,11.327-49.528,17.804-66.783,37.691c-15.361,17.706-24.517,40.9-32.402,62.668
			c-13.412,37.024-44.722,69.816-46.628,109.539c-1.166,24.291,2.433,45.758,5.903,68.967
			c8.084,54.055,6.719,107.231,22.246,160.511c15.862,54.43,29.41,109.306,32.161,167.66c1.508,31.994,3.94,62.584,9.833,93.328
			c6.346,33.115,15.503,68.797,25.521,100.632c10.852,34.488,6.308,66.168-2.785,100.674
			c-10.126,38.427-15.418,77.935-19.371,117.415c-3.154,31.501-4.352,63.865-7.529,95.255c-2.265,22.381,2.926,45.592-2.05,67.761
			c-1.596,7.104-9.281,20.448-18.225,16.042c-0.756-0.372-1.412-0.999-1.986-1.812l-88.259,356.432
			c69.876,2.741,138.51-5.121,204.187-32.611c66.101-27.669,118.088-78.683,160.453-135.255
			c13.306-17.769,25.802-36.09,36.988-55.273c43.129-73.965,77.256-153.838,99.075-236.688c5.897-22.393,10.95-45,17.223-67.295
			c29.541-105.004,28.943-208.056,39.308-315.193c2.947-30.459,2.276-61.619,2.871-92.028
			c1.305-66.739-24.432-148.306,19.197-206.918c10.471-14.066,25.388-25.863,40.689-34.341
			c45.051-24.962,116.346-22.103,159.383,5.681c25.281,16.321,46.738,38.045,61.837,64.135
			c25.867,44.695,31.598,97.916,29.066,148.65c-3.102,62.145-14.383,128.995-35.863,187.526
			c-19.634,53.501-33.965,111.661-40.498,168.327c-10.184,88.326-9.11,181.078,5.004,269.071
			c9.027,56.277,18.327,111.868,41.206,164.085c17.308,39.503,34.828,81.011,60.598,115.838
			c24.192,32.693,56.582,58.547,81.692,90.741c16.954,21.737,32.077,45.937,44.689,70.388
			c25.368,49.178,25.372,99.776,33.478,152.971c3.554,23.323,7.952,46.887,9.083,70.482c4.083,85.184,0.874,172.012-6.949,256.921
			c-4.565,49.584-6.148,99.217-9.835,148.824c-2.416,32.51-0.449,65.099,0.514,97.624c0.854,28.834,1.48,58.229,4.453,87.036
			c5.387,52.191,15.548,105.506,25.579,157.027c9.672,49.675,25.464,98.19,47.032,143.98c12.342,26.202,26.385,51.56,42.038,75.929
			c13.938,21.7,30.156,42.025,48.376,60.307c15.975,16.029,33.091,30.83,51.032,44.614c69.153,53.129,156.96,97.126,246.245,86.324
			c23.89-2.89,50.88-5.871,73.761-13.266c16.296-5.268,33.794-10.575,48.954-17.974c30.06-14.669,58.212-28.443,85.02-47.809
			c24.537-17.726,45.241-36.682,67.271-56.995c61.278-56.501,95.648-147.26,119.807-225.085
			c10.213-32.901,17.525-66.615,20.948-100.912c2.974-29.804,6.514-59.921,7.978-90.001c1.951-40.091,8.162-79.742,12.611-119.588
			c3.698-33.113,4.295-66.481,7.837-99.602c5.159-48.251,16.348-95.967,25.177-143.649c8.917-48.156,18.37-96.361,33.46-143.031
			c56.025-173.273,170.923-309.185,334.945-389.129c130.479-63.596,282.021-75.131,399.945,20.163
			c72.347,58.463,108.195,146.688,145.496,229.078c36.837,81.367,89.148,140.056,146.633,207.809
			c69.1,81.444,157.645,143.574,242.979,206.84c101.926,75.568,201.057,168.814,279.354,269.005
			c44.759,57.275,86.892,121.139,126.646,181.895c41.379,63.239,75.106,133.418,96.301,206.027
			c20.703,70.929,50.437,148.355-28.519,190.815c-64.843,34.87-146.122-1.759-209.69-15.838
			c-94.232-20.871-208.844-75.431-203.032-188.699c3.834-74.678-6.975-119.792-36.209-188.363
			c-39.034-91.553-95.341-174.201-135.788-264.224c-36.843-82.001-93.584-140.237-145.625-213.956
			c-50.856-72.041-102.777-143.38-158.361-211.872c-43.609-53.737-92.342-95.055-147.311-134.585
			c-32.143-23.115-65.086-46.605-102.003-61.537c-28.747-11.626-55.79-13.022-86.358-11.337
			c-42.281,2.33-85.629,18.605-122.083,39.39c-88.144,50.255-139.769,129.75-172.418,223.58
			c-31.676,91.032-49.854,184.099-57.468,280.097c-2.127,26.807-3.676,53.655-5.013,80.511c-1.563,31.382-2.876,62.776-4.437,94.159
			c-3.406,68.488-3.325,138.167-7.089,207.884c-6.756,125.143-20.605,237.07-60.98,351.98c-8.544,24.318-19.246,47.852-31.911,70.3
			c-21.674,38.415-49.029,73.224-78.868,105.594c-27.48,29.812-60.565,56.88-89.522,86.348
			c-29.035,29.548-52.957,63.157-75.68,97.673c-19.07,28.969-38.928,57.524-46.61,91.914c-4.245,19.003-5.409,38.795-5.411,58.229
			c-0.004,41.949,12.193,83.917,35.986,118.544c23.237,33.817,57.092,58.191,92.729,77.556c30.145,16.38,61.313,31.354,94.13,41.558
			c32.052,9.966,65.223,11.901,98.207,17.062c30.045,4.701,62.058,4.254,92.235,5.776c34.353,1.732,68.302,7.93,102.655,9.622
			c38.658,1.904,76.744,7.077,115.055,9.004c26.001,1.308,52.939-1.346,78.537,2.742c38.604,6.166,77.447,7.463,115.969,13.276
			c28.542,4.307,55.813,11.633,83.26,20.28c33.943,10.693,70.972,13.373,106.171,18.95c26.39,4.181,52.415,10.887,78.308,14.532
			c68.031,9.577,136.089,16.486,204.818,22.447c31.154,2.702,62.263,5.952,93.281,9.923c23.96,3.067,47.872,6.541,71.679,10.632
			c42.187,7.249,84.343,14.252,126.557,23.678c52.256,11.668,107.718,24.549,158.943,43.455
			c48.484,17.895,98.934,37.359,143.537,64.028c16.979,10.152,33.06,18.723,49.459,30.044c15.818,10.92,35.034,20.544,49.354,33.251
			c10.957,9.724,21.53,23.457,30.896,34.826c11.742,14.254,21.314,38.666,15.445,56.968c-9.647,30.081-47.44,14.716-68.809,11.02
			c-20.676-3.575-41.205-7.933-61.693-12.446c-40.892-9.008-81.684-18.766-123.179-24.648
			c-35.779-5.072-72.003-14.021-107.595-19.891c-83.621-13.792-167.321-24.788-250.579-40.823
			c-46.971-9.046-95.996-21.975-143.724-25.295c-69.437-4.801-141.95,0.959-210.644,11.291c-20.9,3.144-41.931,4.976-62.494,8.845
			c-24.899,4.685-49.984,10.01-74.693,14.794c-41.381,8.011-84.422,23.996-123.753,38.977
			c-40.081,15.266-78.799,34.857-111.941,62.371c-20.32,16.869-38.628,36.232-56.061,56.025
			c-19.195,21.793-33.063,53.78-44.532,79.887c-29.708,67.618,2.879,146.231,52.094,197.103
			c14.879,15.38,32.354,29.697,50.303,41.369c22.296,14.498,42.088,31.411,63.537,46.63c25.997,18.444,54.538,30.74,83.387,43.813
			c47.777,21.649,97.386,36.688,147.08,53.971c25.799,8.973,51.917,17.039,76.99,27.969c25.611,11.164,47.233,27.504,71.073,41.499
			c9.782,5.742,24.683,18.973,18.856,31.609c-3.873,8.4-16.795,9.313-24.841,11.348c-20.446,5.17-41.919,3.3-62.769,3.303
			c-25.57,0.004-51.018,0.235-76.363-2.909c-37.853-4.696-75.334-11.881-112.861-13.846c-12.854-0.673-25.098-2.19-38.006-3
			c-39.611-2.485-78.396-0.633-116.515,7.986c-19.265,4.356-36.715,7.158-55.809,15.139c-37.896,15.84-73.505,39.62-104.087,67.458
			c-14.496,13.196-28.318,25.046-41.269,39.696c-27.063,30.616-52.041,63.72-70.153,100.293
			c-15.545,31.388-21.555,72.502-15.639,106.972c1.328,7.735,2.989,15.299,4.908,22.747l310.063,2.422
			c-0.242-7.78,13.589-9.962,19.042-11.082c18.456-3.793,37.47-1.338,56.095-3.187c27.387-2.718,55.738,2.91,83.34,4.192
			c53.733,2.497,101.975,26.439,154.252,34.264c15.582,2.332,32.354,2.786,47.93,4.313c81.021,7.941,161.11,6.228,242.464-0.959
			c17.352-1.533,34.341-3.236,51.513-5.451c23.103-2.979,46.123-6.834,69.07-10.097c26.499-3.768,53.012-7.435,79.485-11.376
			c19.808-2.949,38.268-4.518,57.894-9.32c83.323-20.391,163.765-50.42,244.064-80.229c9.829-3.649,17.869-5.887,27.92-7.248
			c10.489-1.42,19.974-7.798,29.621-11.712c10.904-4.423,21.648-10.188,32.434-15.566c13.333-6.65,25.296-14.454,38.217-21.777
			c22.749-12.893,44.927-26.941,65.367-43.293c11.529-9.223,20.364-19.938,29.92-31.313c14.086-16.767,23.12-35.092,31.716-55.035
			c6.641-15.407,14.264-30.384,19.512-46.328c5.411-16.441,9.663-33.279,14.748-49.826c8.584-27.936,24.104-67.468,2.935-93.073
			c-12.737-15.407-35.425-16.512-53.292-21.468c-21.595-5.991-43.952-13.086-64.2-21.115c-20.648-8.188-42.188-12.327-63.805-18.848
			c-8.656-2.611-18.33-4.978-26.318-9.251c-7.257-3.882-14.267-5.274-22.078-8.172c-5.402-2.005-10.927-3.943-16.303-6.085
			c-9.282-3.698-19.179-9.065-28.851-11.852c-9.972-2.871-20.413-0.366-30.236,1.122c-35.729,5.416-75.239-6.478-108.958-17.258
			c-29.104-9.306-59.418-19.527-87.338-31.863c-17.318-7.652-35.711-14.603-53.983-19.464c-9.185-2.443-18.091-5.617-27.333-8.502
			c-12.73-3.975-24.799-8.64-37.664-12.287c-17.699-5.017-35.332-10.319-52.613-16.646c-18.996-6.954-38.236-12.067-57.723-17.938
			c-19.667-5.925-40.429-9.878-59.368-16.625c-17.292-6.16-35.104-12.366-52.782-18.519c-9.222-3.209-18.239-4.898-27.019-9.001
			c-16.443-7.683-35.119-11.147-52.077-17.768c-19.494-7.609-39.518-13.784-58.925-21.624
			c-22.731-9.183-47.177-16.077-70.604-23.254c-15.146-4.64-27.423-15.228-42.051-21.006c-11.266-4.45-25.143-5.007-37.145-4.402
			c-3.979,0.201-8.925,2.068-12.751,1.165c-5.727-1.354-10.347-9.61-15.729-13.207c-4.401-2.941-25.668-5.178-22.975-12.617
			c1.955-5.4,14.654-4.399,18.915-4.416c11.545-0.045,22.059,2.77,33.281,4.53c19.256,3.021,36.414,9.188,54.515,15.968
			c17.225,6.454,33.593,14.753,50.59,21.383c5.176,2.019,10.881,3.854,16.264,5.652c15.785,5.27,32.746,8.193,48.13,14.493
			c12.323,5.047,25.439,7.024,38.546,9.123c35.998,5.765,68.131,19.283,102.412,31.589c13.798,4.953,28.205,9.381,42.463,12.723
			c14.633,3.429,27.923,9.547,42.273,13.872c14.736,4.44,28.412,8.969,42.982,14.712c23.249,9.164,47.078,18.614,71.197,25.585
			c25.053,7.24,50.336,11.653,74.874,20.685c24.622,9.063,51.468,15.051,77.262,20.37c19.43,4.007,38.207,8.353,57.956,11.449
			c20.406,3.199,40.771,6.894,60.644,12.612c33.695,9.697,66.945,14.727,99.538,26.45c41.485,14.922,78.412,37.631,120.232,51.25
			c16.162,5.264,31.382,13.371,47.906,18.328c13.687,4.106,27.143,8.939,40.775,12.669c16.459,4.503,32.051,10.421,49.361,7.512
			c16.988-2.855,32.375-11.756,47.701-19.133c25.085-12.074,49.151-25.778,69.981-44.454c11.751-10.535,23.763-20.489,35.798-30.924
			c24.102-20.894,48.693-38.778,66.936-65.75c10.105-14.939,15.155-32.121,24.006-48.21
			c55.582-101.034,69.503-224.263,77.022-337.376c1.541-23.182,3.305-46.903,2.448-70.14c-1.696-46.123,2.839-82.495-11.153-127.729
			c-5.636-18.222-7.448-37.531-12.849-55.3c-8.396-27.624-24.171-52.245-41.691-74.925c-16.936-21.921-34.897-45.568-55.182-64.47
			c-14.497-13.509-34.434-18.086-52.109-25.867c-19.259-8.477-36.465-20.939-56.763-27.164
			c-21.938-6.728-43.079-15.688-64.09-24.847c-35.771-15.593-73.165-31.799-110.312-44.848
			c-28.678-10.075-57.497-20.193-87.27-26.571c-29.099-6.233-59.229-7.144-87.881-15.518c-20.927-6.117-43.49-8.237-64.957-13.157
			c-11.28-2.584-23.109-3.554-34.7-5.959c-29.539-6.13-59.314-9.56-89.001-15.205c-15.648-2.976-32.088-3.332-47.961-4.112
			c-11.635-0.572-22.654-2.75-34.372-3.36c-12.606-0.656-25.653-0.03-38.122-2.085c-11.711-1.93-23.296-5.399-35.171-7.249
			c-19.88-3.096-39.405-4.759-59.415-5.695c-39.444-1.845-78.781-11.505-120.183-11.98c-43.226-0.496-85.905-7.776-128.574-13.955
			c-41.808-6.055-82.265-6.66-124.184-8.546c-57.327-2.579-117.058-9.5-171.02-29.636c-82.19-30.67-169.211-34.606-254.138-52.354
			c-31.311-6.543-57.778-4.115-89.938-1.971c-48.34,3.223-95.739,4.773-143.38,14.908c-35.44,7.539-70.827,9.847-106.476,19.21
			c-16.807,4.414-47.415,22.361-68.088,21.646c-5.52-0.191-8.023-6.523-4.05-10.358c17.327-16.72,64.038-24.787,81.812-29.004
			c45.729-10.852,92.965-23.583,137.347-41.904c13.107-5.411,25.415-12.78,38.257-19.509
			c56.544-29.633,104.231-80.364,143.325-130.015c19.963-25.354,40.605-51.571,55.658-79.893
			c15.938-31.877,32.484-63.327,47.264-95.787c19.03-41.797,33.869-83.389,46.62-127.446c9.417-32.541,19.704-62.781,26.171-96.666
			c6.15-32.223,9.368-62.815,20.521-93.778c11.439-31.758,9.145-71.312,9.141-105.409c-0.004-33.129-2.466-66.968-9.035-98.996
			c-6.734-32.829-5.779-67.296-11.813-100.378c-7.185-39.392-26.923-76.529-37.71-115.169c-4.423-15.84-5.902-31.667-12.65-46.517
			c-7.066-15.552-16.612-30.28-25.163-45.044c-13.353-23.055-25.531-46.243-40.125-68.493c-8.841-13.478-18.881-26.39-25.79-41.034
			c-5.958-12.629-13.447-39.878,5.56-20.374c29.837,30.617,60.087,71.861,75.337,111.918
			c22.525,59.199,46.694,116.721,62.629,178.098c13.754,52.977,13.354,108.111,20.503,162.084
			c6.95,52.481,13.723,104.982,11.64,158.149c-2.607,66.511-26.516,132.237-43.376,195.792
			c-7.777,29.316-22.095,57.61-32.673,86.935c-5.475,15.18-10.702,28.563-18.188,42.854c-27.449,52.4-49.436,108.652-81.481,158.36
			c-8.091,12.549-16.998,25.028-25.645,37.336c-4.436,6.313-8.352,12.823-12.525,19.314c-9.769,15.195-19.836,24.03-24.262,42.477
			c-4.338,18.078-3.821,37.437,4.308,54.405c15.007,31.326,51.557,34.714,79.71,45.272c59.233,22.213,120.692,28.989,181.244,44.719
			c18.054,4.69,36.843,13.711,55.38,19.527c19.717,6.187,39.918,6.481,60.125,9.77c18.659,3.037,37.137,5.599,56.253,7.436
			c45.655,4.387,91.779,7.725,137.579,7.728c14.51,0,28.852-0.783,43.322-0.001c13.448,0.726,26.875,2.136,40.354,2.159
			c12.348,0.021,22.436-5.425,34.489-7.426c15.24-2.529,29.603,3.039,43.814,7.674c58.476,19.074,114.779,31.371,175.856,34.828
			c15.69,0.888,31.319,2.723,46.811,5.358c15.142,2.576,30.476,8.123,45.663,9.674c30.552,3.123,61.945,7.518,92.188,13.7
			c16.08,3.287,32.697,4.646,48.967,6.935c62.252,8.759,125.412,27.929,186.036,44.343c25.114,6.8,49.899,14.774,74.454,23.366
			c38.348,13.418,78.307,21.795,116.785,35.021c24.92,8.566,51.189,18.583,77.625,25.044
			c52.665,12.872,115.919,18.038,169.407,6.035c21.729-4.876,44.313-11.152,63.827-22.123
			c22.261-12.514,26.152-30.623,32.983-54.287c9.253-32.056,21.922-66.135,37.474-95.289c14.855-27.848,14.668-57.24,14.888-87.878
			c0.195-27.204,11.917-52.193,13.41-78.782C7185.951,4290.94,7185.236,4249.351,7183.926,4209.332z" style="stroke:black;fill:#e8cd59"/><path id="278104261" parent_id="278104259" order="82" structure_id="4022" d="
			M2876.966,2046.62c-0.281-46.419,9.955-93.202,10.124-140.035c0.107-29.943-11.821-47.591-21.783-74.283
			c-19.251-51.583-7.547-108.833,7.5-159.873c10.234-34.716,13.781-60.523,6.314-97.168c-7.744-38.003-11.063-74.806-14.936-114.062
			c-1.859-18.837-2.084-37.566-2.991-56.985c-1.684-36.072-5.7-73.302-10.89-109.102c-6.396-44.125-17-87.462-23.667-132.403
			c-2.811-18.946-7.956-37.977-8.27-57.054c-0.287-17.421,0.863-35.303-8.02-51.324c-8.684-15.661-16.182-28.264-22.745-45.957
			c-9.622-25.932-19.54-54.687-27.691-81.833c-3.821-12.727-6.327-26.077-12.393-38.247c-16.823-33.75-41.222-67.215-62.237-98.59
			c-10.901-16.276-21.516-32.703-33.379-48.525c-11.757-15.68-26.73-29.205-35.704-46.725c-7.907-15.437-16.336-28.245-27.63-42.022
			c-17.921-21.861-37.942-42.487-59.664-61.005c-31.036-26.458-61.165-52.183-93.005-77.35
			c-27.263-21.54-56.979-38.567-85.485-58.384c-10.443-7.26-20.932-16.443-32.243-23c-29.798-17.272-55.752-35.12-87.629-49.895
			c-22.65-10.497-45.621-21.223-68.439-31.471c-19.031-8.548-39.775-12.737-58.621-21.725c-19.452-9.276-35.371-7.614-56.063-12.822
			c-31.604-7.955-63.355-22.747-95.234-31.13c-64.265-16.9-129.378-31.558-195.137-40.919
			c-50.204-7.146-100.55-13.243-150.893-19.327c-36.747-4.441-72.048-15.889-109.061-19.517
			c-29.406-2.883-58.421-6.348-87.121-10.577c-29.335-4.324-59.302-5.284-88.51-8.853c-40.639-4.967-80.628-14.63-121.454-17.838
			c-39.503-3.104-80.603-1.533-119.246-0.288c-37.825,1.219-76.86-1.439-114.386,4.174c-14.644,2.19-29.986,6.491-44.646,7.854
			c-38.47,3.578-73.72,7.144-111.57,16.295c-28.865,6.978-58.731,13.681-85.193,27.616c-26.393,13.902-50.825,32.194-71.695,53.482
			c-19.72,20.116-36.346,38.742-52.138,61.603c-19.269,27.893-38.114,54.141-51.795,85.069
			c-9.418,21.291-19.612,41.785-25.16,64.061c-22.989,92.302-39.667,185.812-30.292,284.72c3.175,33.497,8.971,66.42,16.101,99.285
			c8.619,39.738,19.719,77.227,29.611,116.614c12.324,49.071,27.403,96.636,46.143,143.753
			c17.758,44.649-9.909,105.908-20.399,149.705c-8.467,35.351-19.103,72.716-22.893,108.904c-3.288,31.403-12.475,61-16.935,92.513
			c-4.281,30.253-5.412,60.914-8.764,91.274c-5.071,45.933-7.361,94.476-16.863,139.506c-4.756,22.538-5.864,44.58-7.04,67.872
			c-4.522,89.558-10.621,184.264-1.59,274.064c3.851,38.291,4.028,80.272,13.614,117.624c6.458,25.165,11.551,49.244,24.971,71.813
			c13.921,23.411,39.825,35.876,53.71,59.535c9.251,15.769,2.49,31.006-5.024,44.619c-7.58,13.73-9.798,22.627-8.827,38.769
			c1.083,18.017-2.306,35.164-7.779,52.416c-5.292,16.681-3.714,32.182-4.673,50.225c-1.885,35.453-4.301,70.442-6.01,104.993
			c-0.898,18.159,0.033,36.591,0.017,54.776c-0.054,59.369,0.366,119.148,3.038,178.844c3.282,73.341-0.447,147.344,2.972,220.872
			c1.642,35.294,0.964,71.88,4.479,106.492c4.88,48.065,8.635,98.35,18.333,145.494c4.344,21.113,3.836,44.244,6.021,65.667
			c3.919,38.433,2.944,77.577,8.701,115.816c5.208,34.595,10.364,69.96,16.326,104.374c5.875,33.906,11.819,68.27,19.571,101.191
			c7.116,30.223,14.49,60.98,26.033,90.022c4.905,12.342,5.78,24.697,10.769,37.006c4.977,12.278,10.051,24.511,15.249,36.697
			c5.181,12.147,7.533,24.257,13.28,36.148c5.786,11.97,14.854,23.75,21.013,35.53c3.083,5.895,6.564,11.524,9.872,17.289
			c6.146,10.712,9.544,16.988,22.339,19.628c4.605,0.951,9.302,1.325,13.996,1.468c10.024,0.306,20.14,0.034,30.144-0.632
			c10.452-0.695,20.823-2.193,31.156-3.875c10.082-1.641,20.126-3.5,30.104-5.691c9.132-2.005,18.214-4.232,27.29-6.477
			c1.009-0.25,2.02-0.494,3.028-0.75c38.113-9.672,75.758-9.56,114.714-13.043c41.741-3.732,91.529-2.144,133.248,1.96
			c45.713,4.498,85.45,17.255,128.021,33.755c38.571,14.95,77.521,30.215,114.5,47.882c24.486,11.706,48.688,21.186,67.404,40.937
			c18.794,19.832,32.929,42.12,49.454,63.75c16.599,21.726,35.156,41.611,52.272,62.901c34.502,42.916,63.434,88.717,91.913,135.358
			c42.03,68.835,75.358,131.52,148.82,169.857c22.734,11.869,44.909,25.068,68.212,35.327c10.675,4.7,21.478,2.6,32.344,4.949
			c13.4,2.896,26.816,10.291,39.658,15.088c4.378,1.636,16.355,1.716,19.639,4.265c6.481,5.029,6.753,8.064,3.672,10.259
			l224.093,244.773c24.368-17.275,47.547-36.934,70.437-58.906c26.221-25.171,52.059-51.203,73.206-80.888
			c24.559-34.474,35.869-71.693,49.021-111.349c14.447-43.561,23.858-89.104,25.336-135.053c0.733-22.793-0.511-45.678-4.204-68.193
			c-3.77-22.985-10.792-40.379-20.481-61.492c-17.899-39.003-45.243-74.838-82.938-95.659
			c-29.268-16.166-65.396-22.095-92.725-40.825c-21.455-14.704-36.561-36.776-55.068-54.691
			c-12.403-12.006-24.261-23.707-36.771-35.259c-37.048-34.213-61.064-84.728-74.301-132.309
			c-15.318-55.066-33-114.983-31.756-172.665c0.717-33.201,3.124-65.972-6.11-98.397c-14.849-52.143-34.258-100.249-57.125-149.433
			c-30.047-64.627-73.56-127.349-127.861-174.033c-21.912-18.838-45.974-32.47-72.293-44.097
			c-27.388-12.1-53.959-26.409-82.999-34.293c-37.09-10.071-76.262-12.536-113.984-4.504c-20.351,4.333-40.779,7.366-61.32,10.917
			c-23.966,4.145-48.277,7.135-72.277,10.805c-10.974,1.678-21.962,3.542-33.219,5.222c-53.086,7.927-109.542,2.717-160.906-12.902
			c-19.285-5.864-38.015-14.021-52.952-27.874c-14.525-13.47-20.077-24.705-25.658-43.734c-8.786-29.957-19.6-59.552-24.216-90.551
			c-12.994-87.249,41.873-177.586,119.626-216.317c36.168-18.017,76.279-34.86,114.329-48.4
			c66.129-23.532,142.852-60.974,175.094-127.489c18.754-38.69,21.333-83.217,14.337-124.903
			c-6.833-40.718-16.317-84.185-35.627-120.983c-10.293-19.616-24.391-41.489-40.521-56.847
			c-55.55-52.893-114.584-104.493-178.02-147.619c-21.59-14.678-41.182-31.601-62.493-46.577
			c-12.083-8.492-23.615-17.514-35.994-25.579c-31.916-20.797-66.358-39.307-93.757-67.478
			c-28.114-28.907-50.804-63.473-59.26-102.731c-6.423-29.815-11.326-59.983-13.159-90.45
			c-2.632-43.729,1.249-85.204,25.909-122.654c22.555-34.252,56.16-60.526,92.313-79.191c34.69-17.91,73.138-27.921,105.742-49.802
			c31.298-21.005,57.323-48.165,81.375-76.979c13.329-15.966,25.812-32.685,38.349-49.274
			c44.467-58.839,74.625-118.14,75.485-193.662c0.436-38.251,0.325-75.599-8.685-113.098c-7.415-30.864-19.011-63.479-34.369-91.344
			c-14.817-26.884-34.703-48.363-54.572-71.571c-35.904-41.938-77.457-79.598-118.349-117.742
			c-20.069-18.72-42.549-41.332-46.76-69.681c-4.259-28.673,10.429-52.931,32.643-69.954c27.769-21.28,63.045-33.84,97.161-40.24
			c26.774-5.022,54.725-8.863,81.949-10.137c29.667-1.388,59.394,1.3,88.813,4.944c43.345,5.371,85.097,17.72,127.083,29.241
			c73.706,20.226,146.522,41.083,214.152,77.486c51.26,27.592,112.653,50.787,159.621,87.522
			c67.783,53.016,91.793,149.301,102.054,230.504c3.484,27.576,5.471,55.428,6.501,83.202c1.077,29.036,1.666,58.077,1.618,87.134
			c-0.037,22.572,0.188,45.164,1.684,67.694c5.327,80.276-1.822,161.495,5.519,241.04c1.54,16.704,3.036,33.54,5.706,50.065
			c9.231,57.146,22.917,115.809,44.986,169.17c10.59,25.608,19.857,53.45,34.214,76.529c20.017,32.178,36.825,62.851,63.404,90.275
			c30.292,31.258,64.651,58.25,99.619,84.036c24.605,18.146,47.981,36.981,71.79,56.173c16.436,13.249,33.155,25.654,49.238,39.77
			c17.402,15.274,37.266,27.094,55.919,40.687c17.725,12.916,32.528,29.1,49.444,42.971c35.122,28.799,76.566,54.083,118.607,71.316
			c35.819,14.683,73.761,25.102,112.588,26.931c1.847,0.087,3.692,0.162,5.537,0.234l88.259-356.432
			C2876.618,2068.208,2876.997,2051.61,2876.966,2046.62z" style="stroke:black;fill:#e8d959"/><path id="278104265" parent_id="278104259" order="101" structure_id="4222" d="
			M2112.08,6954.098c-24.439-8.922-44.396-19.046-70.642-21.552c-9.208-0.878-18.327-1.956-27.448-2.805
			c-25.489-2.371-50.906-2.508-76.683-1.555c-30.9,1.142-58.543,9.815-88.48,15.858c-37.387,7.548-75.888,14.18-112.458,25.098
			c-33.854,10.107-66.661,31.233-97.434,48.326c-15.227,8.457-30.714,17.787-44.476,28.547
			c-7.229,5.652-14.015,12.004-21.381,17.528c-49.054,36.79-92.825,83.31-141.805,121.958
			c-23.239,18.338-47.228,36.976-71.194,54.508c-34.109,24.953-69.459,48.312-103.995,72.661
			c-34.915,24.617-71.299,47.465-110.429,64.812c-33.721,14.948-70.517,24.286-105.245,34.804
			c-19.41,5.875-48.007,7.315-61.833-10.636c-26.706-34.674,37.619-94.147,60.035-114.536c32.8-29.833,65.827-59.415,98.621-89.255
			c86.507-78.71,180.188-151.537,257.395-239.883c20.131-23.035,38.636-47.604,53.662-74.299
			c61.647-109.536,46.435-249.239,3.244-361.989c-7.493-19.56-17.532-38.064-29.645-55.144
			c-40.633-57.29-100.428-99.411-155.669-140.803c-20.255-15.176-38.28-41.567-49.75-63.313
			c-9.393-17.808-16.872-36.632-22.541-55.943c-4.625-15.753-11.821-29.478-16.516-45.049
			c-24.27-80.501-41.98-162.063-45.398-245.919c-0.879-21.567,2.366-42.115,4.451-63.516c2.164-22.21,7.88-43.318,10.034-65.524
			c4.501-46.414,4.163-92.584,12.999-137.978c15.986-82.124,14.802-167.97,16.208-251.293c0.908-53.808,3.089-107.57,1.109-161.38
			c-1.153-31.323,0.07-66.166-6.374-96.9c-8.135-38.801-15.447-79.408-20.898-118.664c-2.176-15.662-6.588-30.902-8.964-46.523
			c-2.317-15.228-1.289-30.675-3.23-45.932c-1.856-14.589-5.351-28.909-7.563-43.441c-9.558-62.769-11.205-128.551-13.396-191.957
			c-0.641-18.553-1.164-36.872-0.245-55.384c1.269-25.587,4.503-105.718,47.554-89.199c21.656,8.31,39.862,26.14,55.266,42.907
			c27.698,30.15,51.907,63.595,71.905,99.307c11.804,21.08,22.755,42.335,40.17,59.433c21.537,21.144,49.175,41.099,75.24,56.381
			c19.612,11.499,40.224,21.231,61.318,29.683c23.792,9.533,48.228,17.412,72.932,24.212
			c96.578,26.586,194.245,40.111,294.533,38.602c69.255-1.042,140.178-8.905,206.633-29.135
			c49.413-15.046,91.881-36.715,131.24-64.617l-224.093-244.773c-1.532,1.091-3.889,1.976-6.731,2.793
			c-14.885,4.28-41.806-9.373-55.863-14.456c-28.071-10.151-56.663-18.788-84.631-29.23c-25.666-9.583-51.075-20.355-74.406-34.837
			c-17.722-11-40.281-22.644-53.471-38.946c-26.475-32.722-28.773-78.858-47.863-114.552c-17.161-32.087-48.518-61.43-74.549-86.612
			c-62.247-60.217-119.12-120.332-188.318-173.348c-69.031-52.888-144.389-93.324-228.321-108.623
			c-48.086-8.765-91.968-9.33-140.953-9.369c-32.662-0.026-72.538-0.514-103.543,10.386c-26.573,9.342-57.837,14.212-82.215,27.697
			c-25.18,13.927-47.738,34.932-64.345,58.37c-13.237,18.687-26.047,40.37-36.011,61.379c-9.411,19.842-23.321,39.262-30.043,59.985
			c-12.922,39.841-16.279,86.599-18.26,128.671c-2.17,46.085-19.722,89.241-15.018,136.347c2.602,26.054,9.78,51.436,12.128,77.525
			c2.171,24.126-3.917,45.368-6.181,68.862c-1.729,17.949-4.821,35.136-7.498,53.239c-9.938,67.188-22.639,137.382-35.953,205.455
			c-9.754,49.87-26.986,98.043-34.803,148.323c-7.694,49.494-12.05,100.325-17.746,150.194
			c-8.679,75.985-18.897,147.742-22.507,224.235c-1.726,36.563-2.479,72.574,1.56,108.712c2.465,22.051,3.318,44.256,5.983,66.285
			c2.11,17.449,9.029,35.397,7.475,53.002c-1.476,16.722-4.369,31.834-6.023,47.972c-2.841,27.714-13.169,54.032-10.408,81.694
			c2.796,28.012,2.994,56.63,7.419,84.83c4.789,30.52,8.93,61.105,12.354,92.232c6.038,54.896,9.626,111.52,20.693,165.688
			c11.554,56.551,16.599,115.732,22.426,173.232c7.573,74.719,41.147,143.286,54.154,216.677
			c5.191,29.284,21.089,59.659,29.95,88.338c10.449,33.822,21.938,67.348,35.513,100.054c14.136,34.061,39.032,66.817,61.535,96.321
			c11.218,14.707,27.24,25.26,43.878,32.695c22.399,10.01,45.641,26.82,71.51,28.614c17.598,1.221,23.923-4.533,39.219-9.619
			c17.343-5.766,35.505,0.082,52.96,0.657c16.029,0.529,33.576-3.955,48.263,5.007c20.388,12.44-16.596,22.142-26.061,23.307
			c-8.656,1.065-14.333-0.104-23.173,2.537c-9.469,2.828-16.078,8.325-26.636,5.355c-21.587-6.072-39.698-4.479-61.232,1.998
			c-21.031,6.327-37.646,14.408-52.364,30.641c-18.95,20.899-33.777,16.367-57.072,26.379c-20.358,8.75-25.498,32.604-38.548,48.967
			c-18.27,22.908-40.6,41.952-63.997,59.414c-22.506,16.796-41.594,35.656-63.079,53.603
			c-42.694,35.662-51.123,69.654-42.795,125.07c9.441,62.819-5.004,125.143,10.469,186.729c5.84,23.242,13.264,44.273,17.707,66.766
			c4.18,21.164,8.181,43.053,9.838,64.49c2.181,28.203,9.606,56.174,14.458,83.992c5.723,32.812,17.286,66.36,25.449,98.238
			c8.727,34.081,20.575,70.327,31.476,105.058c10.776,34.334,24.032,68.913,45.083,98.388
			c14.898,20.858,35.233,39.892,56.614,53.652c5.729,2.399,37.371-23.379,42.777-26.842c19.135-12.256,40.602-17.443,62.582-24.044
			c25.843-7.76,52.947-6.636,79.464-9.972c25.728-3.238,51.373-12.751,75.854-21.18c16.492-5.678,33.623-9.582,49.758-16.281
			c15.271-6.342,28.273-16.013,42.419-24.071c0.549,0.433,1.061,0.856,1.552,1.274c-0.638-0.543,58.594-27.789,63.057-30.224
			c14.229-7.763,23.156-22.502,36.24-31.416c16.503-11.243,35.138-20.053,52.07-30.786c53.635-34,102.147-75.476,156.098-109.158
			c22.286-13.914,44.135-26.303,66.072-40.286c11.317-7.214,23.6-13.37,35.234-20.332c19.129-11.447,37.097-25.863,56.187-37.697
			c37.825-23.448,73.827-49.46,111.153-73.831c6.892-4.5,13.894-8.848,20.537-13.665c13.968-10.128,27.646-21.179,41.516-31.868
			c24.646-18.992,51.701-35.311,75.891-55.089c18.308-14.969,43.688-31.131,56.998-50.397c6.932-10.034,11.722-24.565,22.357-31.148
			c4.375-2.708,7.843-3.205,10.291-2.297l212.576-275.016C2141.968,6966.798,2126.491,6959.358,2112.08,6954.098z" style="stroke:black;fill:#7f5b33"/><path id="278104264" parent_id="278104259" order="101" structure_id="4222" d="
			M1960.406,5547.346c-30.61-0.596-50.832,18.438-72.727,37.402c-25.919,22.449-51.547,46.135-70.21,75.185
			c-20.982,32.661-29.85,70.413-36.945,108.117c-6.389,33.95-1.956,65.629,9.622,97.889c9.02,25.133,21.131,57.146,47.389,68.785
			c25.039,11.1,61.82-7.904,83.464-20.472c32.049-18.61,57.246-44.402,68.522-80.74c13.007-41.912,22.813-84.854,28.211-128.422
			c5.093-41.102,9.847-79.266-1.242-119.574C2009.274,5559.283,1985.729,5547.84,1960.406,5547.346z" style="stroke:black;fill:#7f5b33"/></g>
<g id="278104279" order="13" parent_id="" graphic_group_label_id="266932197" graphic_group_label="Atlas - Human Hotspots" sub_image_id="102291546" transform=" scale(7.0, 7.0)"><path id="278104284" parent_id="278104279" order="1466" structure_id="9241" d="M1671.854,6622.188
			l-37.023-21.375c-1.076-0.623-2.82-0.623-3.896,0l-37.023,21.375c-1.076,0.621-1.947,2.133-1.947,3.375v42.75
			c0,1.244,0.871,2.754,1.947,3.375l37.023,21.375c1.076,0.619,2.82,0.619,3.896,0l37.023-21.375
			c1.076-0.621,1.949-2.131,1.949-3.375v-42.75C1673.803,6624.32,1672.93,6622.809,1671.854,6622.188z M1660.711,6626.92
			l-9.721,40.033c-0.195,0.807-1.025,1.459-1.854,1.459h-6.199c-0.828,0-1.674-0.648-1.887-1.449l-7.783-29.211
			c-0.213-0.801-0.559-0.801-0.771,0l-7.754,29.211c-0.213,0.801-1.057,1.449-1.885,1.449h-6.404c-0.828,0-1.656-0.654-1.85-1.459
			l-9.557-40.031c-0.191-0.805,0.324-1.457,1.152-1.457h5.877c0.828,0,1.643,0.654,1.82,1.465l5.832,26.57
			c0.178,0.807,0.494,0.816,0.707,0.016l7.08-26.604c0.213-0.801,1.059-1.447,1.887-1.447h7.313c0.828,0,1.662,0.65,1.863,1.453
			l6.801,27.09c0.201,0.805,0.51,0.799,0.688-0.01l5.947-27.068c0.178-0.811,0.993-1.465,1.822-1.465h5.73
			C1660.395,6625.465,1660.908,6626.115,1660.711,6626.92z" style="stroke:black;fill:#f2f1f0"/><path id="278104283" parent_id="278104279" order="1466" structure_id="9241" d="M1390.372,5020.251
			l-37.023-21.375c-1.076-0.623-2.82-0.623-3.896,0l-37.023,21.375c-1.076,0.621-1.947,2.133-1.947,3.375v42.75
			c0,1.244,0.871,2.754,1.947,3.375l37.023,21.375c1.076,0.619,2.82,0.619,3.896,0l37.023-21.375
			c1.076-0.621,1.949-2.131,1.949-3.375v-42.75C1392.321,5022.384,1391.448,5020.872,1390.372,5020.251z M1379.229,5024.983
			l-9.721,40.033c-0.195,0.807-1.025,1.459-1.854,1.459h-6.199c-0.828,0-1.674-0.648-1.887-1.449l-7.783-29.211
			c-0.213-0.801-0.559-0.801-0.771,0l-7.754,29.211c-0.213,0.801-1.057,1.449-1.885,1.449h-6.404c-0.828,0-1.656-0.654-1.85-1.459
			l-9.557-40.031c-0.191-0.805,0.324-1.457,1.152-1.457h5.877c0.828,0,1.643,0.654,1.82,1.465l5.832,26.57
			c0.178,0.807,0.494,0.816,0.707,0.016l7.08-26.604c0.213-0.801,1.059-1.447,1.887-1.447h7.313c0.828,0,1.662,0.65,1.863,1.453
			l6.801,27.09c0.201,0.805,0.51,0.799,0.688-0.01l5.947-27.068c0.178-0.811,0.993-1.465,1.822-1.465h5.73
			C1378.913,5023.528,1379.427,5024.179,1379.229,5024.983z" style="stroke:black;fill:#f2f1f0"/><path id="278104282" parent_id="278104279" order="1472" structure_id="265505050" d="M3187.094,3840.557
			l-37.023-21.375c-1.076-0.623-2.82-0.623-3.896,0l-37.023,21.375c-1.076,0.621-1.947,2.133-1.947,3.375v42.75
			c0,1.244,0.871,2.754,1.947,3.375l37.023,21.375c1.076,0.619,2.82,0.619,3.896,0l37.023-21.375
			c1.076-0.621,1.949-2.131,1.949-3.375v-42.75C3189.043,3842.689,3188.17,3841.178,3187.094,3840.557z M3175.952,3845.289
			l-9.721,40.033c-0.195,0.807-1.025,1.459-1.854,1.459h-6.199c-0.828,0-1.674-0.648-1.887-1.449l-7.783-29.211
			c-0.213-0.801-0.559-0.801-0.771,0l-7.754,29.211c-0.213,0.801-1.057,1.449-1.885,1.449h-6.404c-0.828,0-1.656-0.654-1.85-1.459
			l-9.557-40.031c-0.191-0.805,0.324-1.457,1.152-1.457h5.877c0.828,0,1.643,0.654,1.82,1.465l5.832,26.57
			c0.178,0.807,0.494,0.816,0.707,0.016l7.08-26.604c0.213-0.801,1.059-1.447,1.887-1.447h7.313c0.828,0,1.662,0.65,1.863,1.453
			l6.801,27.09c0.201,0.805,0.51,0.799,0.688-0.01l5.947-27.068c0.178-0.811,0.993-1.465,1.822-1.465h5.73
			C3175.635,3843.834,3176.149,3844.484,3175.952,3845.289z" style="stroke:black;fill:#f2f1f0"/><path id="278104287" parent_id="278104279" order="1550" structure_id="265505242" d="M2725.057,7796.902
			l-37.023-21.375c-1.076-0.623-2.82-0.623-3.896,0l-37.023,21.375c-1.076,0.621-1.947,2.133-1.947,3.375v42.75
			c0,1.244,0.871,2.754,1.947,3.375l37.023,21.375c1.076,0.619,2.82,0.619,3.896,0l37.023-21.375
			c1.076-0.621,1.949-2.131,1.949-3.375v-42.75C2727.006,7799.035,2726.133,7797.523,2725.057,7796.902z M2713.914,7801.635
			l-9.721,40.033c-0.195,0.807-1.025,1.459-1.854,1.459h-6.199c-0.828,0-1.674-0.648-1.887-1.449l-7.783-29.211
			c-0.213-0.801-0.559-0.801-0.771,0l-7.754,29.211c-0.213,0.801-1.057,1.449-1.885,1.449h-6.404c-0.828,0-1.656-0.654-1.85-1.459
			l-9.557-40.031c-0.191-0.805,0.324-1.457,1.152-1.457h5.877c0.828,0,1.643,0.654,1.82,1.465l5.832,26.57
			c0.178,0.807,0.494,0.816,0.707,0.016l7.08-26.604c0.213-0.801,1.059-1.447,1.887-1.447h7.313c0.828,0,1.662,0.65,1.863,1.453
			l6.801,27.09c0.201,0.805,0.51,0.799,0.688-0.01l5.947-27.068c0.178-0.811,0.993-1.465,1.822-1.465h5.73
			C2713.598,7800.18,2714.111,7800.83,2713.914,7801.635z" style="stroke:black;fill:#f2f1f0"/><path id="278104280" parent_id="278104279" order="1593" structure_id="9282" d="M1889.193,3036.359
			l-37.023-21.375c-1.076-0.624-2.82-0.624-3.896,0l-37.023,21.375c-1.076,0.621-1.947,2.133-1.947,3.375v42.75
			c0,1.243,0.871,2.753,1.947,3.375l37.023,21.375c1.076,0.618,2.82,0.618,3.896,0l37.023-21.375
			c1.076-0.621,1.949-2.131,1.949-3.375v-42.75C1891.142,3038.492,1890.269,3036.98,1889.193,3036.359z M1878.05,3041.091
			l-9.721,40.033c-0.195,0.807-1.025,1.459-1.854,1.459h-6.199c-0.828,0-1.674-0.648-1.887-1.449l-7.783-29.211
			c-0.213-0.801-0.559-0.801-0.771,0l-7.754,29.211c-0.213,0.801-1.057,1.449-1.885,1.449h-6.404c-0.828,0-1.656-0.655-1.85-1.459
			l-9.557-40.031c-0.191-0.805,0.324-1.457,1.152-1.457h5.877c0.828,0,1.643,0.654,1.82,1.465l5.832,26.57
			c0.178,0.806,0.494,0.816,0.707,0.016l7.08-26.603c0.213-0.801,1.059-1.448,1.887-1.448h7.313c0.828,0,1.662,0.65,1.863,1.453
			l6.801,27.09c0.201,0.805,0.51,0.798,0.688-0.01l5.947-27.068c0.178-0.811,0.993-1.465,1.822-1.465h5.73
			C1877.734,3039.636,1878.248,3040.287,1878.05,3041.091z" style="stroke:black;fill:#f2f1f0"/><path id="278104281" parent_id="278104279" order="1593" structure_id="9282" d="M4330.975,4909.68
			l-37.023-21.375c-1.076-0.623-2.82-0.623-3.896,0l-37.023,21.375c-1.076,0.621-1.947,2.133-1.947,3.375v42.75
			c0,1.244,0.871,2.754,1.947,3.375l37.023,21.375c1.076,0.619,2.82,0.619,3.896,0l37.023-21.375
			c1.076-0.621,1.949-2.131,1.949-3.375v-42.75C4332.924,4911.813,4332.051,4910.301,4330.975,4909.68z M4319.832,4914.412
			l-9.721,40.033c-0.195,0.807-1.025,1.459-1.854,1.459h-6.199c-0.828,0-1.674-0.648-1.887-1.449l-7.783-29.211
			c-0.213-0.801-0.559-0.801-0.771,0l-7.754,29.211c-0.213,0.801-1.057,1.449-1.885,1.449h-6.404c-0.828,0-1.656-0.654-1.85-1.459
			l-9.557-40.031c-0.191-0.805,0.324-1.457,1.152-1.457h5.877c0.828,0,1.643,0.654,1.82,1.465l5.832,26.57
			c0.178,0.807,0.494,0.816,0.707,0.016l7.08-26.604c0.213-0.801,1.059-1.447,1.887-1.447h7.313c0.828,0,1.662,0.65,1.863,1.453
			l6.801,27.09c0.201,0.805,0.51,0.799,0.688-0.01l5.947-27.068c0.178-0.811,0.993-1.465,1.822-1.465h5.73
			C4319.516,4912.957,4320.029,4913.607,4319.832,4914.412z" style="stroke:black;fill:#f2f1f0"/><path id="278104286" parent_id="278104279" order="1599" structure_id="9285" d="M4210.975,6773.68
			l-37.023-21.375c-1.076-0.623-2.82-0.623-3.896,0l-37.023,21.375c-1.076,0.621-1.947,2.133-1.947,3.375v42.75
			c0,1.244,0.871,2.754,1.947,3.375l37.023,21.375c1.076,0.619,2.82,0.619,3.896,0l37.023-21.375
			c1.076-0.621,1.949-2.131,1.949-3.375v-42.75C4212.924,6775.813,4212.051,6774.301,4210.975,6773.68z M4199.832,6778.412
			l-9.721,40.033c-0.195,0.807-1.025,1.459-1.854,1.459h-6.199c-0.828,0-1.674-0.648-1.887-1.449l-7.783-29.211
			c-0.213-0.801-0.559-0.801-0.771,0l-7.754,29.211c-0.213,0.801-1.057,1.449-1.885,1.449h-6.404c-0.828,0-1.656-0.654-1.85-1.459
			l-9.557-40.031c-0.191-0.805,0.324-1.457,1.152-1.457h5.877c0.828,0,1.643,0.654,1.82,1.465l5.832,26.57
			c0.178,0.807,0.494,0.816,0.707,0.016l7.08-26.604c0.213-0.801,1.059-1.447,1.887-1.447h7.313c0.828,0,1.662,0.65,1.863,1.453
			l6.801,27.09c0.201,0.805,0.51,0.799,0.688-0.01l5.947-27.068c0.178-0.811,0.993-1.465,1.822-1.465h5.73
			C4199.516,6776.957,4200.029,6777.607,4199.832,6778.412z" style="stroke:black;fill:#f2f1f0"/><path id="278104285" parent_id="278104279" order="1599" structure_id="9285" d="M3306.399,7166.689
			l-37.023-21.375c-1.076-0.623-2.82-0.623-3.896,0l-37.023,21.375c-1.076,0.621-1.947,2.133-1.947,3.375v42.75
			c0,1.244,0.871,2.754,1.947,3.375l37.023,21.375c1.076,0.619,2.82,0.619,3.896,0l37.023-21.375
			c1.076-0.621,1.949-2.131,1.949-3.375v-42.75C3308.349,7168.822,3307.476,7167.311,3306.399,7166.689z M3295.257,7171.422
			l-9.721,40.033c-0.195,0.807-1.025,1.459-1.854,1.459h-6.199c-0.828,0-1.674-0.648-1.887-1.449l-7.783-29.211
			c-0.213-0.801-0.559-0.801-0.771,0l-7.754,29.211c-0.213,0.801-1.057,1.449-1.885,1.449h-6.404c-0.828,0-1.656-0.654-1.85-1.459
			l-9.557-40.031c-0.191-0.805,0.324-1.457,1.152-1.457h5.877c0.828,0,1.643,0.654,1.82,1.465l5.832,26.57
			c0.178,0.807,0.494,0.816,0.707,0.016l7.08-26.604c0.213-0.801,1.059-1.447,1.887-1.447h7.313c0.828,0,1.662,0.65,1.863,1.453
			l6.801,27.09c0.201,0.805,0.51,0.799,0.688-0.01l5.947-27.068c0.178-0.811,0.993-1.465,1.822-1.465h5.73
			C3294.94,7169.967,3295.454,7170.617,3295.257,7171.422z" style="stroke:black;fill:#f2f1f0"/></g>
<g id="278104270" order="14" parent_id="" graphic_group_label_id="266932196" graphic_group_label="Atlas - Human Sulci" sub_image_id="102291546" transform=" scale(7.0, 7.0)"><path id="278104275" parent_id="278104270" order="1770" structure_id="9364" d="M562.779,4052.036c0.332,0.487,10.854-39.802,10.854-39.802
			s-21.542-34.875-21.103-35.458s94.434,24.715,94.302,25.49C646.699,4003.042,562.447,4051.549,562.779,4052.036z" style="stroke:black;fill:#6d6e70"/><path id="278104274" parent_id="278104270" order="1770" structure_id="9364" d="M610.962,8059.871c0.393,0.438,5.473-40.891,5.473-40.891
			s-25.983-31.705-25.625-32.342c0.358-0.636,96.879,11.955,96.852,12.741C687.632,8000.166,610.567,8059.433,610.962,8059.871z" style="stroke:black;fill:#6d6e70"/><path id="278104273" parent_id="278104270" order="1773" structure_id="9357" d="M6880.087,5733.612c-0.561-0.185,15.443,38.256,15.443,38.256
			s38.253,14.73,38.258,15.46c0.003,0.728-90.138,37.469-90.502,36.771C6842.924,5823.402,6880.646,5733.801,6880.087,5733.612z" style="stroke:black;fill:#6d6e70"/><path id="278104271" parent_id="278104270" order="1774" structure_id="9367" d="M568.803,8543.784c0.394,0.438,5.473-40.891,5.473-40.891
			s-25.983-31.705-25.625-32.342c0.358-0.636,96.88,11.955,96.852,12.741C645.473,8484.079,568.407,8543.346,568.803,8543.784z" style="stroke:black;fill:#6d6e70"/><path id="278104276" parent_id="278104270" order="1777" structure_id="9361" d="M1775.956,9841.814c0.367-0.46-41.231,1.397-41.231,1.397
			s-26.947,30.891-27.635,30.643c-0.687-0.247-4.308-97.519-3.528-97.623C1704.342,9776.131,1775.589,9842.276,1775.956,9841.814z" style="stroke:black;fill:#6d6e70"/><path id="278104277" parent_id="278104270" order="1778" structure_id="9360" d="M4513.684,8287.082c0.355-0.47-41.184,2.418-41.184,2.418
			s-26.176,31.548-26.869,31.317c-0.691-0.23-6.719-97.384-5.943-97.505C4440.465,8223.191,4513.328,8287.554,4513.684,8287.082z" style="stroke:black;fill:#6d6e70"/><path id="278104278" parent_id="278104270" order="1778" structure_id="9360" d="M3120.018,8492.371c0.223-0.545-39.165,12.966-39.165,12.966
			s-17.146,37.233-17.875,37.189c-0.729-0.044-31.625-92.35-30.906-92.668C3032.792,8449.541,3119.796,8492.919,3120.018,8492.371z" style="stroke:black;fill:#6d6e70"/><path id="278104272" parent_id="278104270" order="1782" structure_id="9356" d="M2811.344,732.511c-0.54,0.238,37.154,17.931,37.154,17.931
			s38.219-14.819,38.712-14.28c0.493,0.537-41.525,88.342-42.263,88.071C2844.209,823.959,2811.883,732.273,2811.344,732.511z" style="stroke:black;fill:#6d6e70"/></g>
</g>
</svg>