<svg width="894" height="1158" xmlns="http://www.w3.org/2000/svg">
<g transform="scale(0.015625)">
<g id="278104689" order="11" parent_id="" graphic_group_label_id="265297119" graphic_group_label="Atlas - Human" sub_image_id="102291571" transform=" scale(7.0, 7.0)"><path id="278104690" parent_id="278104689" order="1426" structure_id="9219" d="
			M7289.105,6922.897c-10.705-17.6-31.241-24.16-49.813-29.901c-22.576-6.979-44.762-17.17-68.253-20.568
			c-24.576-3.555-50.426-8.784-75.547-9.924c-54.796-2.484-108.809,3.426-163.475,5.997c-15.725,0.74-31.109,2.002-47.085,2.002
			c-79.028,0-159.166,2.832-238.14-0.78c-35.61-1.628-70.809-1.907-106.506-1.734c-24.927,0.121-49.626-1.119-74.602-0.571
			c-25.83,0.565-52.253,0.639-77.435-5.913c-22.392-5.824-43.625-10.466-66.556-11.617c-23.936-1.201-47.27,0.189-71.218,0.265
			c-24.556,0.076-43.904-8.62-67.294-13.89c-56.006-12.617-111.463-29.039-166.673-44.743
			c-91.126-25.92-180.798-56.472-270.542-86.746c-52.815-17.816-100.644-47.01-150.945-70.507
			c-25.786-12.044-50.037-27.622-71.967-45.718c-34.646-28.591-63.771-60.494-93.804-93.319
			c-17.651-19.291-38.036-35.021-55.449-54.685c-15.251-17.223-23.817-39.182-33.131-59.916
			c-10.073-22.425-18.325-45.772-30.69-67.182c-8.611-14.908-12.321-31.058-18.872-46.536
			c-13.421-31.709-23.343-64.449-29.095-98.393c-6.139-36.229-8.027-75.563-8.021-113.565c0.005-30.847,2.091-61.7,6.354-92.253
			c3.87-27.726,9.39-52.876,17.528-79.671c12.82-42.212,35.536-80.632,61.391-116.291c31.714-43.739,65.336-83.922,107.731-118.514
			c15.048-12.278,32.176-20.793,49.435-29.428c16.344-8.176,31.502-18.847,48.144-26.88c24.475-11.814,50.047-21.091,75.048-31.691
			c22.06-9.353,44.919-16.299,66.794-25.802c8.933-3.881,17.527-9.136,26.804-12.682c19.419-7.422,38.849-15.073,58.368-22.127
			c24.962-9.021,49.563-20.126,75.411-26.08c21.295-4.905,43.964-4.608,65.596-7.789c23.458-3.449,46.653-8.819,70.4-10.009
			c36.731-1.839,73.341-2.466,109.978-4.236c29.385-1.42,59.311,3.89,88.836,3.845c60.775-0.095,121.343-2.778,182.146-1.095
			c44.594,1.234,88.563,3.249,133.043,3.251c12.343,0.001,24.686-0.002,37.029-0.002c22.992,0.002,45.797-1.006,68.983-1.001
			c69.65,0.013,139.237,4.123,208.983-3.02c36.805-3.769,69.789-14.291,105.336-22.973c16.566-4.047,33.526-7.787,49.659-13.274
			c35.731-12.153,70.224-29.576,98.547-54.821c26.181-23.335,54.24-59.812,64.461-93.909c6.344-21.166,7.361-45.069-1.984-65.485
			c-22.596-49.361-68.28-81.527-115.669-103.862c-54.711-25.786-111.398-46.942-171.082-57.69
			c-37.875-6.821-76.443-10.243-114.844-12.439c-72.053-4.121-144.303-8.401-216.391-11.748
			c-25.735-1.194-51.646-5.043-77.574-3.825c-43.008,2.02-82.658-0.521-125.08-6.916c-22.357-3.37-43.311-9.985-64.626-17.783
			c-11.583-4.237-23.339-6.868-35.554-10.024c-14.609-3.774-29.055-10.095-43.49-14.622c-16.169-5.07-32.229-10.482-48.157-16.265
			c-30.618-11.116-59.043-22.554-88.051-37.347c-20.267-10.335-38.182-25.309-56.769-37.747
			c-58.594-39.208-101.865-95.7-138.7-155.211c-26.528-42.86-51.781-90.134-68.037-138.003
			c-11.899-35.043-24.566-72.094-32.699-107.976c-10.549-46.538-14.455-96.512-10.345-144.115
			c2.766-32.039,12.164-63.186,19.056-94.449c4.343-19.703,15.296-37.681,22.948-56.21c13.84-33.513,30.355-63.398,47.782-94.983
			c7.429-13.462,13.543-27.016,20.481-40.287c16.541-31.635,40.255-62.394,61.521-91.299c19.203-26.101,38.314-51.224,57.243-76.951
			c22.554-30.654,50.859-56.526,75.455-85.185c34.409-40.094,68.178-80.919,104.568-118.805
			c9.442-9.831,20.016-19.429,30.981-27.551c20.016-14.825,44.081-27.13,66.468-37.293c57.645-26.168,115.133-53.828,172.041-78.928
			c68.146-30.057,141.583-48.265,206.549-86.017c20.927-12.161,43.869-21.059,62.506-36.911
			c26.586-22.614,18.651-46.067,11.444-76.563c-5.649-23.907-34.412-33.837-55.214-39.275c-23.874-6.242-53.108-7.247-77.819-7.241
			c-37.452,0.01-73.186,2.554-109.966,4.003c-19.365,0.762-38.453,1.145-57.492,2.999c-8.703,0.848-17.609,0.8-26.5,1.225
			c-14.408,0.689-28.49,2.039-43,2.775c-14.751,0.748-30.01-0.819-45.006-0.999c-15.31-0.185-30.584,0.938-44.973-4.965
			c-13.143-5.392-24.619-13.829-37.014-20.606c-21.034-11.5-37.32-28.452-53.263-46.397c-15.092-16.988-30.507-35.255-38.516-57.02
			c-8.601-23.374-4.453-50.319-3.233-74.941c1.71-34.514,4.521-67.149,9.561-101.297c2.662-18.04,13.172-40.578,10.358-59.114
			c-1.392-9.164-6.442-17.245-4.652-27.191c1.621-9.01,5.42-17.286,5.833-26.433c0.98-21.753-3.197-41.047-7.033-61.559
			c-6.005-32.107-12.157-59.872-31.311-86.979c-18.281-25.873-45.604-1.401-60.146,16.341
			c-15.528,18.945-29.837,39.54-39.479,62.291c-23.624,55.74-32.952,114.955-51.129,172.195
			c-12.73,40.092-27.829,79.55-39.754,119.676c-13.577,45.688-25.625,89.426-46.505,132.227
			c-16.565,33.956-36.043,65.045-57.021,96.549c-9.456,14.2-18.716,28.322-28.468,42.498c-20.598,29.94-44.144,58.405-65.867,87.645
			c-14.411,19.398-30.619,39.756-47.889,56.564c-27.445,26.713-52.797,55.539-81.045,81.432
			c-11.778,10.796-23.748,21.54-37.181,30.332c-37.186,24.334-69.122,56.979-107.411,79.178
			c-39.502,22.902-74.831,51.236-117.222,69.558c-50.658,21.895-105.511,34.607-159.713,40.038
			c-39.715,3.979-79.198,8.037-118.9,9.951c-27.96,1.349-55.587,3.021-84.023,3.026c-38.224,0.008-73.597-10.952-110.892-15.96
			c-29.366-3.943-61.723-5.576-91.103-0.805c-66.27,10.764-131.041,35.425-155.976,103.795
			c-11.325,31.053-14.333,65.519-25.377,97.094c-11.163,31.917-31.213,61.086-51.654,87.728
			c-27.332,35.623-53.034,67.534-88.004,95.967c-10.568,8.594-22.758,12.353-34.006,19.393
			c-36.962,23.135-78.518,27.215-121.158,31.375c-32.853,3.205-61.677,8.229-95.007,5.058c-33.896-3.225-67.723-9.41-100.217-19.683
			c-68.457-21.643-109.286-91.086-141.938-152.242c-40.773-76.368-46.432-159.271-59.173-243.749
			c-8.015-53.14-13.621-110.91-18.854-164.177c-5.499-55.964-14.57-113.104-8.854-169.655c2.514-24.871,3.312-50.175,3.313-75.206
			c0.001-28.358,1.499-55.724,1.499-83.995c0.001-113.891,18.452-232.045,46.304-343.543
			c16.01-64.093,41.354-126.141,77.039-181.844c16.518-25.784,35.607-55.861,60.349-73.587
			c20.952-15.011,34.464-31.114,49.03-52.555c20.812-30.635,43.376-49.353,76.697-65.254
			c59.242-28.272,107.898,15.264,154.021,45.939c37.001,24.609,63.06,65.247,104.905,82.79
			c48.531,20.346,110.813,25.842,160.965,8.711c32.13-10.975,62.381-39.639,90.069-59.207
			c42.062-29.727,87.004-51.699,132.202-76.931c51.931-28.989,105.935-51.047,161.443-72.129
			c74.357-28.242,127.716-66.894,193.291-108.575c54.069-34.368,181.12-112.967,154.254-188.11
			c-8.817-24.661-28.462-39.026-54.346-41.071c-51.066-4.035-104.698,26.537-148.329,49.319
			c-26.391,13.78-49.336,33.932-76.973,46.938c-29.624,13.941-61.077,24.206-93.07,31.086
			c-66.002,14.193-131.885,22.56-199.729,17.33c-27.243-2.101-54.325-5.325-80.833-11.955
			c-22.456-5.616-38.889-20.589-60.246-28.471c-31.128-11.487-57.72-27.359-91.377-31.411
			c-37.762-4.548-76.379,0.841-111.541,15.295c-55.824,22.949-91.359,61.286-131.187,105.855
			c-22.052,24.677-40.975,58.134-73.264,69.246c-19.13,6.583-46.233,16.429-66.565,12.537c-12.65-2.422-21.188-12.464-31.658-19.651
			c-22.634-15.539-55.508-21.809-80.692-33.471c-32.539-15.069-59.784-42.827-76.378-74.433
			c-18.301-34.855-31.422-77.437-42.675-115.544c-11.964-40.515-21.732-79.622-29.691-120.984
			c-7.373-38.317-16.104-78.493-30.335-115.057c-7.828-20.111-14.453-42.46-39.291-43.721
			c-22.021-1.117-30.807,17.305-40.272,33.735c-20.253,35.154-24.496,80.147-35.243,118.883
			c-12.661,45.636-27.585,90.598-41.25,135.935c-8.661,28.736-19.013,57.32-26.655,86.469
			c-11.151,42.532-27.909,82.85-45.075,123.238c-20.755,48.835-39.171,98.52-64.127,145.453
			c-26.712,50.236-56.238,98.912-83.119,149.056c-24.166,45.08-46.701,90.851-76.124,132.853
			c-30.441,43.456-70.413,81.908-108.377,118.736c-37.578,36.453-100.681,51.436-148.487,61.466
			c-28.02,5.879-58.085,9.395-88.12,9.393c-56.123-0.005-117.474-0.695-168.025-28.206c-24.718-13.452-50.071-22.133-72.367-40.44
			c-21.25-17.449-40.211-39.037-59.303-57.722c-19.909-19.484-38.39-40.277-57.271-60.373
			c-25.045-26.654-57.393-48.985-77.66-80.221c-12.242-18.869-18.862-46.222-26.187-67.133
			c-9.793-27.959-14.905-57.198-22.011-85.883c-6.105-24.647-19.482-48.633-22.673-73.487
			c-7.904-61.562-5.981-127.381-5.975-190.494c0.002-27.851-3.567-55.296-1.599-83.045c1.827-25.769,9.385-46.43,18.596-70.367
			c8.693-22.593,9.402-40.918,10.147-64.186c1.827-57.045,1.379-110.097-10.679-166.395
			c-13.338-62.273-54.386-116.887-100.119-159.521c-21.287-19.845-39.268-30.836-64.499-44.871
			c-18.503-10.293-36.2-22.27-55.21-30.906c-53.575-24.341-99.321-45.5-134.912-96.14c-25.469-36.247-37.973-80.667-44.568-124.35
			c-2.942-19.484-1.604-40.651,0.387-60.162c3.737-36.616,8.824-72.962,11.993-109.426c5.271-60.651-2.283-119.142-19.55-177.013
			c-17.925-60.073-66.24-110.754-131.041-115.896c-63.078-5.004-122.15,50.171-148.196,103.011
			c-12.076,24.498-21.78,50.373-37.689,72.785c-22.728,32.018-40.067,68.183-67.062,97.057
			c-25.988,27.796-56.978,52.969-88.388,74.759c-45.479,31.55-101.17,50.417-154.616,59.212
			c-28.508,4.691-59.06,7.519-87.274,11.663c-34.538,5.072-73.446,16.715-104.749,32.289
			c-43.356,21.571-79.693,68.273-90.901,115.278c-2.925,12.271-4.856,27.175-2.179,39.651c5.958,27.759,26.375,38.018,50.024,48.248
			c15.241,6.594,31.395,8.757,46.841,15.344c31.658,13.498,67.586,20.899,100.493,27.812c76.2,16.005,157.056,8.358,231.95,31.152
			c59.754,18.187,113.81,47.025,167.946,77.524c52.46,29.554,87.593,81.94,118.369,132.088
			c32.624,53.159,54.262,112.564,78.425,169.072c21.252,49.701,47.978,107.974,52.224,162.325
			c4.626,59.223,2.528,122.382-1.498,181.624c-2.33,34.29-6.878,68.475-15.187,101.856c-10.114,40.63-22.146,79.91-31.312,120.764
			c-7.458,33.241-11.486,67.284-19.64,101.234c-16.564,68.961-41.254,131.98-70.861,196.426
			c-7.21,15.693-14.696,30.672-21.958,45.863c-16.344,34.177-35.79,66.996-57.173,98.197
			c-27.164,39.636-59.847,76.062-80.88,119.607c-18.838,39.002-36.772,98.828-20.668,140.954
			c11.546,30.204,32.363,43.394,55.903,62.896c20.187,16.724,40.534,27.531,65.766,35.2
			c60.833,18.501,119.786,41.167,182.172,54.435c28.571,6.077,56.002,15.197,85.005,20.046c28.637,4.788,58.267,8.909,85.705,16.98
			c39.678,11.672,78.509,25.964,117.895,38.55c35.757,11.426,73.175,18.155,108.278,31.46c26.031,9.867,49.512,25.023,73.913,38.207
			c24.773,13.385,52.927,21.396,76.882,36.126c17.604,10.826,37.521,22.424,55.679,34.044c31.47,20.141,57.325,41.377,85.593,65.573
			c15.424,13.203,31.37,25.256,46.309,39.014c27.326,25.165,54.094,58.224,77.483,87.107c19.476,24.051,32.71,52.671,44.486,81.077
			c39.774,95.938,70.61,205.638,28.246,306.237c-14.021,33.296-25.827,67.548-41.198,100.441
			c-17.466,37.378-37.546,69.146-58.533,104.551c-11.773,19.862-20.11,40.862-33.225,60.02
			c-13.458,19.658-29.667,37.283-42.505,57.391c-17.191,26.925-29.204,56.702-45.018,83.999
			c-15.642,26.999-40.43,56.352-64.214,76.529c-29.807,25.287-60.854,44.912-90.91,70.092
			c-27.272,22.848-64.552,45.121-100.164,48.383c-45.282,4.148-88.591,19.354-133.955,5.938
			c-32.16-9.511-62.244-24.83-93.148-37.614c-51.113-21.142-100.531-43.875-148.848-71.644
			c-34.466-19.808-75.607-41.47-113.389-53.853c-9.87-3.235-19.181-7.85-28.877-10.873c-5.471-1.705-11.545-1.549-17.292-2.917
			c-32.624-7.768-63.565-8.412-93.864-22.875c-29.92-14.281-63.707-20.417-96.622-22.169c-21.935-1.168-59.284,0.652-78.125,13.276
			c-28.927,19.382-43.33,55.28-49.931,88.071c-8.431,41.883-15.268,83.553-21.809,126.019
			c-11.583,75.197-32.497,145.13-68.782,212.359c-17.286,32.027-38.54,57.349-50.308,92.393
			c-7.942,23.65-12.646,49.435-9.646,74.392c4.381,36.438,31.087,59.028,59.561,77.078c13.292,8.427,26.929,18.455,42.094,24.288
			c27.794,10.69,49.932,26.326,76.858,38.409c28.25,12.676,58.676,23.078,87.941,33.136c9.762,3.354,19.871,4.667,29.238,8.947
			c30.788,14.069,62.966,36.204,88.42,58.401c34.776,30.327,58.125,74.996,82.063,113.793
			c32.099,52.024,61.537,106.281,74.598,166.499c11.54,53.201,3.812,103.876-21.072,152.41
			c-15.086,29.426-24.186,46.128-52.837,63.637c-49.457,30.224-98.135,52.435-154.496,64.477c-22.38,4.781-46.16,18.03-67.134,1.242
			c-7.302-5.845-12.019-14.813-16.54-22.439c-2.087-3.519-3.817-7.177-5.575-10.567c-16.805,16.12-51.919,33.233-60.426,39.907
			c-21.12,16.567-41.907,31.803-65.321,45.642c-47.201,27.897-87.546,69.35-136.218,95.747c-14.053,7.623-28.29,14.634-40.789,25.27
			c-6.103,5.192-12.462,12.398-14.513,20.506c-5.545,21.919,19.717,39.076,29.292,55.706c7.834,13.605,16.142,27.253,26.24,39.312
			c10.005,11.947,22.664,24.824,39.894,24.658c21.67-0.209,42.381-8.865,64.258-1.152c6.919,2.439,11.111,10.372,16.312,14.949
			c2.51,2.209,6.427,4.271,8.895,6.909c5.091-0.259,9.505-0.512,12.147-0.927c28.991-4.551,66.235-1.283,94.523,7.292
			c9.287,2.814,18.383,8.13,27.977,11.774c22.692,8.621,44.281,19.733,65.148,32.089c14.646,8.672,31.628,14.929,43.772,27.274
			c15.05,15.301,21.995,36.657,28.253,56.688c6.025,19.286,6.981,40.548-1.93,59.129c-12.077,25.179-29.958,46.856-48.908,67.142
			c-23.269,24.91-48.26,48.115-72.926,71.616c-20.189,19.235-43.143,35.298-63.904,53.906
			c-26.398,23.661-51.71,40.108-82.974,56.232c-15.568,8.03-31.043,14.736-47.501,21.152c-22.099,8.614-45.855,15.354-68.565,24.735
			c-18.398,7.601-35.734,19.34-28.464,41.548c7.963,24.317,33.152,37.236,54.33,48.179c26.738,13.814,52.628,29.504,81.701,38.07
			c17.994,5.303,36.947,3.826,55.312,6.729c17.64,2.787,36.958,10.761,53.404,17.747c33.278,14.137,64.777,30.344,96.308,48.493
			c28.344,16.316,59.648,33.69,82.198,57.966c19.347,20.827,38.1,42.403,54.122,65.933c18.387,27.004,37.413,54.966,46.447,86.736
			c9.244,32.51,6.017,67.751,2.22,100.844c-4.664,40.644-21.883,79.453-39.57,115.761c-12.346,25.344-23.53,46.921-41.245,69.063
			c-20.444,25.554-43.617,49.598-69.847,69.263c-26.345,19.751-53.667,39.21-81.372,56.951c-15.424,9.877-30.865,21.026-46.548,30.2
			c-46.437,27.164-93.711,54.036-137.514,86.008c-35.994,26.273-71.551,59.468-83.728,103.748c-7.58,27.563-6.47,56.768-3.04,84.877
			c3.173,25.997,6.062,47.911,24.068,68.641c34.191,39.363,87.275-6.385,117.754-27.743c37.455-26.247,76.849-49.937,113.007-77.787
			c11.713-9.022,23.283-17.589,34.999-26.966c23.794-19.043,48.003-38.952,73.74-55.19c17.699-11.167,34.634-23.69,49.764-38.184
			c14.682-14.063,30.35-28.292,44.086-43.208c10.562-11.47,20.601-23.428,31.826-34.271c18.066-17.454,37.013-30.674,58.588-43.635
			c23.45-14.087,48.594-23.238,72.996-35.529c25.668-12.93,52.816-24.669,80.943-32.949c66.497-19.576,143.519-35.932,208.204-2.553
			c12.385,6.391,24.406,12.772,36.131,20.041c23.437,14.528,43.108,28.325,60.968,49.898
			c34.944,42.211,58.106,98.531,70.989,150.416c5.468,22.021,11.116,42.506,9.68,65.418c-3.302,52.711-21.812,109.264-39.91,158.571
			c-14.529,39.585-27.039,79.906-42.632,119.102c-15.244,38.317-34.865,74.954-54.649,111.083
			c-19.113,34.902-46.146,63.79-70.758,94.738c-26.812,33.719-48.856,72.824-79.231,103.754
			c-34.714,35.345-69.588,70.53-106.467,103.497c-29.34,26.229-58.358,52.337-87.277,79.253
			c-52.321,48.697-102.774,103.891-144.967,161.497c-17.766,24.256-36.069,47.739-51.31,73.773
			c-8.454,14.441-16.446,29.855-23.707,45.283c-19.923,42.337-25.154,88.612-34.122,133.948
			c-4.346,21.971-8.605,44.633-14.101,65.701c-7.803,29.916-23.425,57.139-38.662,83.773c-15.29,26.727-26.247,52.386-37.383,80.743
			c-4.061,10.342-6.381,20.121-9.991,30.533c-6.63,19.127-11.47,38.895-18.241,58.249c-13.003,37.17-19.443,79.191-25.739,117.994
			c-10.531,64.906-13.91,127.65-4.825,192.986c3.168,22.785,7.721,43.917,15.308,64.979c7.25,20.127,13.052,43.769,27.507,60.277
			c9.896,11.301,25.846,20.909,40.014,25.593c10.24,3.387,25.027,4.166,33.964-3.012c12.712-10.211,5.932-30.098,5.274-43.847
			c-1.417-29.617-2.014-58.349-2.019-87.996c-0.002-13.397-1.006-26.138-1.003-39.493c0.005-25.954,1.59-50.938,3.972-75.463
			c4.86-50.049,15.656-97.211,31.054-143.99c7.333-22.279,14.795-44.877,26.892-65.088c11.988-20.027,19.812-42.748,33.093-61.967
			c13.669-19.778,26.71-40.601,41.485-59.936c29.576-38.704,58.985-76.732,91.588-113.041
			c30.876-34.389,60.12-69.196,93.681-101.241c23.044-22.003,45.052-45.229,68.667-66.257
			c43.368-38.617,89.844-71.551,132.601-110.76c23.484-21.535,50.055-37.662,77.175-53.971
			c54.543-32.8,118.952-45.958,181.317-51.82c20.692-1.945,41.429-4.047,62.237-3.973c19.913,0.07,38.691,5.214,58.329,6.092
			c10.815,0.482,22.328,3.602,32.843,6.951c18.617,5.932,32.2,20.064,45.658,35.361c13.476,15.318,25.16,32.039,36.702,48.828
			c9.009,13.105,20.16,24.785,28.019,38.676c7.735,13.672,12.15,29.02,17.791,43.609c13.94,36.061,21.941,76.594,19.856,115.366
			c-1.169,21.739-7.616,47.153-15.002,67.561c-8.937,24.689-19.345,49.232-30.302,73.705
			c-15.304,34.181-32.855,67.309-51.671,99.675c-17.354,29.854-32.463,60.294-50.735,89.412
			c-13.256,21.124-26.42,41.969-40.499,62.506c-29.437,42.938-57.773,86.195-88.528,128.276
			c-17.426,23.845-26.13,55.972-37.235,83.041c-4.831,11.776-10.365,28.792,5.275,35.708c25.065,11.086,50.09-12.718,68.686-25.971
			c17.663-12.588,35.487-23.71,53.474-35.785c27.8-18.663,55.922-37.02,81.751-58.396c11.146-9.226,23.525-17.701,33.981-27.355
			c12.223-11.288,21.803-25.387,33.541-37.19c16.113-16.203,32.855-30.878,48.105-48.104c37.22-42.042,72.997-87.149,105.425-132.95
			c16.328-23.061,32.539-46.452,50.026-68.75c16.64-21.219,31.362-44.17,43.37-68.248c14.404-28.883,31.411-57.043,46.62-85.757
			c15.213-28.722,34.512-57.067,54.409-82.63c9.271-11.911,18.37-24.745,28.612-36.382c20.957-23.812,44.733-47.411,70.245-66.228
			c27.58-20.342,58.077-36.116,87.937-52.751c30.03-16.729,58.167-35.901,86.612-55.038c29.299-19.713,58.563-39.977,86.837-60.818
			c28.627-21.104,59.41-39.57,85.106-64.397c26.008-25.129,46.361-52.401,44.537-90.474c-2.67-55.691-31.945-112.49-54.756-162.303
			c-23.947-52.288-44.229-110.366-52.764-167.326c-5.349-35.695-11.178-77.331-3.01-113.415
			c7.707-34.045,20.206-64.515,42.993-92.997c22.686-28.355,48.34-54.106,79.771-72.738c42.661-25.289,89.71-40.67,137.785-50.687
			c18.941-3.946,38.727-8.081,58.967-9.063c41.565-2.016,84.139,14.751,123.478,26.264c30.504,8.928,59.844,21.834,90.038,31.638
			c31.864,10.346,62.6,24.025,94.962,32.857c41.154,11.231,84.048,25.096,126.511,28.238c10.41,0.771,23.125,1.128,33.455,0.34
			c15.985-1.219,25.301-17.833,29.604-31.501c9.869-31.354-23.054-58.408-41.609-79.248c-27.22-30.57-60.361-54.846-92.711-79.604
			c-33.635-25.741-65.216-53.696-96.754-81.938c-17.836-15.972-37.712-29.484-55.492-45.526
			c-25.918-23.386-47.724-49.573-70.995-75.54c-14.842-16.563-27.724-34.264-39.943-52.877
			c-8.906-13.565-17.91-27.061-26.042-40.815c-15.224-25.752-28.63-52.232-43.766-78.301
			c-33.301-57.353-45.578-121.661-35.027-186.985c12.051-74.611,36.361-147.403,77.375-211.014
			c13.229-20.519,28.907-38.877,45.605-56.688c22.989-24.52,48.204-47.383,76.759-65.293c30.778-19.303,63.948-29.716,98.061-41.271
			c36.287-12.291,70.353-20.407,106.993-27.709c33.953-6.766,69.43-14.644,103.491-18.019c40.559-4.02,81.83-11.775,122.06-16.938
			c47.139-6.049,94.918-14.404,140.477-28.066c20.234-6.067,41.298-12.069,62.727-15.23c21.111-3.114,42.126-9.543,62.278-13.726
			c22.146-4.597,46.207-6.959,68.967-8.025c10.966-0.514,20.845-4.573,32.048-5.118c12.979-0.631,25.973,0.565,38.952,0.098
			c17.503-0.629,34.407-1.104,51.956-1.979c60.036-2.995,119.048-0.846,179.043,1.947c32.702,1.522,66.646,1.825,99.006,5.021
			c18.096,1.788,35.847,5.022,54.04,9.029c56.997,12.553,111.786,32.566,167.694,48.963c18.446,5.409,36.982,8.485,54.899,15.816
			c34.537,14.133,65.972,34.789,100.561,48.88c36.626,14.92,74.217,27.28,111.868,39.319c18.697,5.978,38.701,9.512,56.93,17.278
			c35.138,14.971,66.359,37.008,99.968,51.909c23.336,10.346,45.59,21.467,69.035,31.59c15.002,6.477,28.713,14.004,43.36,21.337
			c28.103,14.067,56.854,26.717,84.39,42.136c31.436,17.604,62.662,35.999,94.266,52.505c30.475,15.917,61.003,31.572,91.49,48.138
			c25.508,13.859,53.569,26.927,80.457,37.751c26.541,10.684,52.43,26.085,76.986,41.137c23.923,14.663,48.609,28.349,74.001,40.954
			c51.463,25.549,98.608,60.257,147.861,89.015c47.672,27.835,98.629,52.009,141.19,87.265
			c40.23,33.326,74.642,73.572,110.472,111.988c17.438,18.695,35.48,34.706,58.488,45.303c11.609,5.348,24.277,8.274,37.021,5.755
			c13.611-2.69,26.674,2.796,40.012,1.358c11.246-1.213,22.768-9.387,30.914-16.9c36.709-33.857,36.951-79.023,35.063-125.467
			c-0.87-21.377-12.6-33.721-25.254-50.026c-11.799-15.201-29.24-24.104-44.875-34.673c-16.482-11.141-32.396-23.045-49.127-33.844
			c-37.594-24.262-76.861-45.927-116.972-65.723c-41.225-20.346-74.312-50.137-111.001-77.495
			c-20.281-15.123-41.439-29.243-60.314-46.153c-21.98-19.692-43.586-40.786-65.011-61.168
			c-22.419-21.327-41.843-46.117-55.964-73.716c-16.573-32.395-9.587-71.981,3.1-104.002c14.911-37.635,33.531-69.445,61.699-98.447
			c54.752-56.374,130.366-93.649,207.992-104.941c58.802-8.553,119.502-5.59,178.745-4.862c37.282,0.458,74.858,1.88,111.752,5.75
			c38.335,4.021,74.873,9.385,113.454,9.239c15.086-0.057,32.987,1.305,47.734-0.93c12.48-1.892,26.561-4.388,36.598-13.491
			c15.178-13.768,13.154-24.986,14.588-43.718C7296.144,6949.149,7296.225,6934.604,7289.105,6922.897z" style="stroke:black;fill:#f2f1f0"/></g>
<g id="278104691" order="12" parent_id="" graphic_group_label_id="266932194" graphic_group_label="Atlas - Human Gyri" sub_image_id="102291571" transform=" scale(7.0, 7.0)"><path id="278104697" parent_id="278104691" order="6" structure_id="4054" d="
			M4771.682,7016.377c-18.348,1.304-37.086,3.527-54.629,7.169c-20.152,4.183-41.167,10.611-62.278,13.726
			c-21.429,3.161-42.492,9.163-62.727,15.23c-45.559,13.662-93.338,22.018-140.477,28.066
			c-40.229,5.162-81.501,12.918-122.06,16.938c-34.062,3.375-69.538,11.253-103.491,18.019
			c-36.641,7.302-70.706,15.418-106.993,27.709c-34.113,11.555-67.283,21.968-98.061,41.271
			c-28.556,17.91-53.77,40.773-76.759,65.293c-16.698,17.811-32.375,36.169-45.605,56.688
			c-41.013,63.61-65.323,136.402-77.375,211.014c-10.551,65.324,1.726,129.633,35.027,186.985
			c15.136,26.068,28.542,52.549,43.766,78.301c8.132,13.755,17.136,27.25,26.042,40.815c12.219,18.613,25.101,36.314,39.943,52.877
			c23.271,25.967,45.077,52.154,70.995,75.54c17.779,16.042,37.655,29.555,55.492,45.526c31.538,28.241,63.119,56.196,96.754,81.938
			c32.35,24.758,65.491,49.033,92.711,79.604c18.556,20.84,51.479,47.894,41.609,79.248c-4.303,13.668-13.618,30.282-29.604,31.501
			c-10.33,0.788-23.045,0.431-33.455-0.34c-42.463-3.143-85.356-17.007-126.511-28.238c-32.362-8.832-63.098-22.512-94.962-32.857
			c-30.193-9.804-59.533-22.71-90.038-31.638c-39.339-11.513-81.913-28.279-123.478-26.264c-20.24,0.982-40.025,5.117-58.967,9.063
			c-48.075,10.017-95.124,25.397-137.785,50.687c-31.43,18.632-57.085,44.383-79.771,72.738
			c-22.787,28.482-35.287,58.952-42.993,92.997c-8.168,36.084-2.339,77.72,3.01,113.415c8.535,56.96,28.816,115.038,52.764,167.326
			c22.811,49.813,52.086,106.611,54.756,162.303c0.303,6.321-0.018,12.339-0.862,18.104c13.505,5.413,26.941,10.974,39.614,17.874
			c39.097,21.286,72.176,60.717,106.327,89.896c79.563,67.979,157.337,138.37,237.211,206.072c1.413-0.969,2.881-1.86,4.434-2.632
			c10.809-5.369,23.307-9.673,34.758-13.823c24.333-8.819,47.131-20.717,71.609-29.008c7.067-2.394,14.071-4.932,21.024-7.033
			c11.537-3.488,22.602-7.02,33.688-11.385c22.786-8.971,46.771-12.835,68.993-22.244c30.312-12.835,61.605-22.086,92.148-33.844
			c24.913-9.591,49.985-19.839,73.884-31.821c23.552-11.81,46.425-23.26,68.609-37.814c10.177-6.677,22.47-11.002,33.326-16.883
			c7.05-3.819,14.077-7.207,21.391-10.469c16.226-7.234,32.438-15.235,47.466-24.174c15.087-8.974,29.803-18.897,44.181-29.015
			c13.842-9.74,29.655-17.285,42.184-29.132c5.262-4.975,10.022-10.283,15.779-14.342c11.009-7.761,19.452-19.151,23.372-32.189
			c2.104-6.999,4.501-14.785,5.661-22.002c2.568-15.981,2.057-32.119,4.523-47.994c2.815-18.124,5.084-36.157,9.516-53.999
			c3.436-13.832,6.536-29.555,11.449-42.667c13.22-35.282,26.311-71.015,35.697-107.515c2.602-10.117,4.044-20.535,5.596-30.989
			c2.352-15.842,5.11-30.759,5.893-46.819c0.861-17.688,1.069-35.339,1.943-53.01c1.717-34.741-5.402-67.359-8.615-100.666
			c-0.837-8.67-1.818-17.465-3.356-25.648c-5.453-29.012-3.432-51.763-1.971-81.354c1.307-26.46-7.105-51.391-11.026-77.014
			c-4.606-30.104-18.588-59.667-29.226-87.984c-11.318-30.128-26.093-59.59-40.639-88.547
			c-30.889-61.477-71.979-111.753-118.866-161.738c-29.388-31.325-64.206-51.001-100.271-73.969
			c-22.987-14.64-49.463-24.074-71.227-39.503c-17.945-12.721-35.188-26.476-50.999-42c-9.449-9.276-17.734-18.846-28.774-26.523
			c-5.15-3.582-10.095-7.451-14.928-11.448c-8.852-7.321-17.321-15.086-26.091-22.502c-7.897-6.679-16.044-12.71-24.339-18.932
			c-11.559-8.669-22.941-17.637-34.619-26.097c-5.531-4.008-10.443-8.771-15.481-13.363c-2.772-2.526-5.582-5.331-8.504-7.693
			c-1.897-1.533-3.634-3.146-5.459-4.757c-4.289-3.785-7.54-8.382-11.468-12.375c-4.437-4.511-8.75-9.055-12.64-14.061
			c-2.568-3.306-5.039-7.555-6.125-11.529c-0.472-1.726-0.953-4.344,0.421-5.797c3.388-3.583,10.586,4.17,13.119,6.194
			c3.606,2.881,7.2,5.778,10.854,8.6c3.634,2.806,7.675,5.023,11.372,7.739c4.723,3.468,8.979,7.514,13.069,11.697
			c3.022,3.092,7.294,5.121,9.928,8.484c2.639,3.371,5.592,6.016,8.613,9.115c3.024,3.104,5.78,5.704,9.664,7.875
			c7.397,4.135,14.806,9.058,21.747,13.777c6.788,4.615,14.151,8.143,20.903,12.903c3.271,2.307,6.847,4.322,9.979,6.757
			c2.91,2.264,5.76,4.688,8.708,6.943c4.422,3.384,7.669,7.766,12.121,11.173c4.872,3.728,9.985,7.133,15.19,10.376
			c5.964,3.716,12.329,6.792,18.538,10.035c8.241,4.305,17.078,7.289,25.746,10.59c8.199,3.121,16.065,7.855,23.46,12.632
			c5.275,3.408,9.915,7.729,15.424,10.809c1.424,0.796,2.691,1.885,4.003,2.693c2.974,1.83,5.728,3.614,8.595,5.685
			c15.298,11.043,32.435,21.176,47.225,32.754c40.011,31.322,79.118,53.714,130.782,32.749
			c53.2-21.59,80.816-70.221,111.479-115.479c5.871-8.666,8.925-17.828,15.238-26.272c12.443-16.646,20.572-36.086,28.966-54.955
			c8.679-19.514,18.776-38.931,28.364-58.185c8.214-16.495,15.625-33.017,23.552-49.592c5.547-11.599,13.866-32.896,27.51-37.761
			L4771.682,7016.377z" style="stroke:black;fill:#e8bf59"/><path id="278104693" parent_id="278104691" order="21" structure_id="4048" d="
			M2514.522,8985.455c-62.365,5.862-126.774,19.021-181.317,51.82c-27.12,16.309-53.691,32.436-77.175,53.971
			c-42.757,39.209-89.233,72.143-132.601,110.76c-23.615,21.028-45.624,44.254-68.667,66.257
			c-33.561,32.045-62.805,66.853-93.681,101.241c-32.603,36.309-62.012,74.337-91.588,113.041
			c-14.775,19.335-27.816,40.157-41.485,59.936c-13.282,19.219-21.105,41.939-33.093,61.967
			c-12.097,20.211-19.559,42.809-26.892,65.088c-15.398,46.779-26.194,93.941-31.054,143.99
			c-2.381,24.525-3.966,49.509-3.972,75.463c-0.002,13.355,1.001,26.096,1.003,39.493c0.005,29.647,0.601,58.379,2.019,87.996
			c0.658,13.749,7.438,33.636-5.274,43.847c-8.937,7.178-23.724,6.398-33.964,3.012c-14.168-4.684-30.117-14.292-40.014-25.593
			c-14.455-16.509-20.256-40.15-27.507-60.277c-7.587-21.063-12.14-42.194-15.308-64.979c-9.085-65.336-5.707-128.08,4.825-192.986
			c6.296-38.803,12.735-80.824,25.739-117.994c6.771-19.354,11.611-39.122,18.241-58.249c3.609-10.412,5.93-20.191,9.991-30.533
			c11.136-28.357,22.093-54.017,37.383-80.743c15.237-26.635,30.859-53.857,38.662-83.773c5.495-21.068,9.755-43.73,14.101-65.701
			c8.968-45.336,14.198-91.611,34.122-133.948c7.26-15.428,15.252-30.842,23.707-45.283c15.241-26.034,33.544-49.518,51.31-73.773
			c42.192-57.606,92.646-112.8,144.967-161.497c28.919-26.916,57.937-53.024,87.277-79.253
			c36.879-32.967,71.753-68.152,106.467-103.497c30.375-30.93,52.419-70.035,79.231-103.754
			c24.611-30.948,51.645-59.836,70.758-94.738c19.784-36.129,39.406-72.766,54.649-111.083
			c15.593-39.195,28.103-79.517,42.632-119.102c18.099-49.308,36.608-105.86,39.91-158.571c1.436-22.912-4.212-43.396-9.68-65.418
			c-12.882-51.885-36.044-108.205-70.989-150.416c-8.929-10.785-18.31-19.627-28.388-27.588l-179.149,256.604
			c-0.484,2.961-1.861,6.452-4.228,9.787c-7.308,10.296-17.082,14.572-26.255,22.735c-9.756,8.683-17.681,19.116-26.833,28.156
			c-20.132,19.886-41.775,37.817-61.891,57.619c-21.945,21.603-43.959,42.446-60.047,68.57
			c-8.813,14.313-20.052,28.372-30.962,41.138c-16.208,18.965-31.869,37.762-48.942,55.85
			c-17.632,18.659-36.708,35.947-54.821,54.254c-49.44,49.963-94.964,100.306-158.303,133.332
			c-29.281,15.268-59.627,28.352-89.404,42.597c-19.758,9.452-39.442,19.212-59.433,29.008
			c-43.764,21.446-89.001,40.448-132.128,63.257c-39.414,20.847-78.08,41.942-113.177,69.225
			c-39.287,30.539-70.108,71.026-91.548,115.519c-20.661,42.877-20.197,94.749-24.734,141.307
			c-4.24,43.462,3.741,88.492,7.996,132.456c3.721,38.441,8.671,77.879,8.994,117.002c0.159,19.286,2.224,34.939-3.438,54.374
			c-5.295,18.178-13.718,36.232-20.829,53.123c-10.392,24.685-17.747,50.391-26.727,75.112
			c-18.258,50.267-40.641,99.26-46.052,152.851c-6.251,61.909,11.269,122.139,23.698,182.044
			c6.131,29.553,18.696,57.732,26.596,87.001c8.308,30.777,20.517,59.163,30.746,88.966c11.994,34.941,25.017,68.81,37.82,103.359
			c6.392,17.246,15.106,34.117,20.067,51.633c2.297,8.109,7.351,17.66,10.795,25.682c3.003,6.996,5.871,14.605,8.514,21.504
			c5.115,13.352,11.966,27.439,19.654,39.679c15.485,24.653,28.832,51.044,46.323,74.372c7.397,9.867,14.67,20.938,24.627,28.455
			c7.728,5.834,15.833,13.707,24.21,18.494c7.697,4.398,14.563,9.162,22.604,12.406c18.455,7.443,35.808,14.883,54.764,20.949
			c37.511,12.004,77.125,15.674,116.634,17.471c42.501,1.934,84.707,2.672,125.302-5.496c35.662-7.176,71.832-18.83,106.68-29.125
			c17.552-5.186,35.624-10.43,54.013-11.318c12.738-0.616,26.343-3.56,37.018-10.957c9.198-6.375,18.899-11.887,28.667-17.402
			c11.217-6.332,21.974-15.168,32.476-22.992c21.649-16.131,49.288-34.049,60.517-60.021c7.511-17.374,3.431-37.936,5.324-56.647
			c0.495-4.89,1.077-9.93,1.319-14.687c1.503-29.818-4.536-59.316-6.017-88.992c-1.375-27.555,3.351-53.676,3.363-80.669
			c0.003-7.862,0.611-15.657,1.333-23.333c4.838-51.471,15.065-103.576,28.818-153.514c6.68-24.256,11.24-50.194,18.36-74.313
			c9.961-33.74,26.537-66.199,41.654-97.829c6.686-13.989,14.713-28.107,23.165-40.968c13.453-20.471,27.66-41.43,44.828-58.891
			c17.116-17.408,40.091-26.649,53.845-48.153c13.854-21.659,18.868-47.339,33.154-69.353c12.809-19.736,33.994-31.027,54.102-41.93
			c19.947-10.813,35.854-26.226,52.593-41.213c10.9-9.759,21.746-17.042,31.069-29.256c14.729-19.296,30.364-38.531,42.582-59.557
			c4.05-6.969,9.824-16.591,17.88-19.379c3.655-1.265,6.419-0.914,8.17,0.507l27.334-261.956
			C2532.537,8983.743,2523.525,8984.608,2514.522,8985.455z" style="stroke:black;fill:#e8c459"/><path id="278104700" parent_id="278104691" order="30" structure_id="4045" d="
			M5523.057,6588.548c21.93,18.096,46.181,33.674,71.967,45.718c50.302,23.497,98.13,52.69,150.945,70.507
			c89.744,30.274,179.416,60.826,270.542,86.746c55.21,15.704,110.667,32.126,166.673,44.743c23.39,5.27,42.738,13.966,67.294,13.89
			c23.948-0.075,47.282-1.466,71.218-0.265c22.931,1.151,44.164,5.793,66.556,11.617c25.182,6.552,51.604,6.479,77.435,5.913
			c24.976-0.548,49.675,0.692,74.602,0.571c35.697-0.173,70.896,0.106,106.506,1.734c78.974,3.612,159.111,0.78,238.14,0.78
			c15.976,0,31.36-1.262,47.085-2.002c54.666-2.571,108.679-8.481,163.475-5.997c25.121,1.14,50.971,6.369,75.547,9.924
			c23.491,3.398,45.677,13.59,68.253,20.568c18.572,5.741,39.108,12.302,49.813,29.901c7.119,11.706,7.038,26.252,6.029,39.451
			c-1.434,18.731,0.59,29.95-14.588,43.718c-10.037,9.104-24.117,11.6-36.598,13.491c-14.747,2.234-32.648,0.873-47.734,0.93
			c-38.581,0.146-75.119-5.218-113.454-9.239c-36.894-3.87-74.47-5.292-111.752-5.75c-59.243-0.728-119.943-3.69-178.745,4.862
			c-77.626,11.292-153.24,48.567-207.992,104.941c-27.418,28.229-45.779,59.138-60.489,95.471l319.849,57.473
			c-0.258-0.547-0.454-1.143-0.564-1.802c-2.776-16.687,52.666-3.434,60.976-2.188c25.571,3.835,51.143,7.672,76.714,11.508
			c6.082,0.912,12.163,1.824,18.244,2.736c0,0,124,25,150,27c0,0,66,16,74,20c24.098,4.144,48.412,7.256,72.71,9.938
			c43.747,4.829,91.389,11.151,135.332,5.816c72.111-8.755,128.378-62.604,171.842-116.454
			c13.898-17.219,27.474-34.847,38.105-54.319c16.676-30.541,24.155-61.958,31.981-94.984c2.431-10.253,5.608-20.187,8.268-29.971
			c4.837-17.8,9.923-33.221,12.761-52.025c2.095-13.874,3.756-27.833,5-42.001c2.912-33.176,3.611-67.097,1.397-100.544
			c-1.98-29.913-18.432-59.748-28.664-87.419c-9.579-25.903-17-57.271-32.41-80.372c-12.766-19.14-24.309-36.992-45.238-48.727
			c-10.344-5.796-22.047-8.75-33.06-12.945c-16.915-6.444-34.946-11.766-52.534-16.021c-14.347-3.471-28.898-6.482-43.493-9.945
			c-20.228-4.801-41.119-8.118-61.073-13.479c-8.096-2.175-16.789-3.552-25.14-5.311c-8.29-1.745-16.162-4.936-24.416-6.687
			c-4.64-0.979-9.46-0.276-14.163-0.461c-9.812-0.384-19.622-0.794-29.434-1.188c-19.572-0.786-39.146-1.568-58.721-2.333
			c-39.199-1.533-78.402-3.014-117.606-4.425c-22.063-0.794-44.127-1.567-66.191-2.315c-77.961-2.644-164.938-14.913-241.614-1.117
			c-27.873,5.016-54.568-3.682-82.162-2.349c-28.076,1.357-54.014,2.922-82.517,1.499c-49.517-2.473-99.614,0.767-148.488,0.832
			c-74.626,0.099-145.081-8.646-219.003-16.148c-28.79-2.922-57.741-2.267-85.547-7.575c-25.887-4.942-53.35-6.549-79.434-10.439
			c-31.233-4.658-63.938-7.577-94.483-13.854c-47.866-9.837-96.581-16.214-144.305-26.62l-425.887,49.981
			C5483.157,6552.732,5502.095,6571.249,5523.057,6588.548z" style="stroke:black;fill:#e8c659"/><path id="278104701" parent_id="278104691" order="33" structure_id="4039" d="
			M7773.177,6039.862c-0.28-11.722,0.86-18.14-6.229-28.018c-13.401-18.672-1.494-38.032-9.715-58.385
			c-2.618-6.48-6.375-11.225-8.053-18.229c-5.313-22.171-6.133-44.989-12.964-66.94c-3.564-11.454-9.614-22.12-15.989-32.791
			c-6.82-11.413-12.869-22.698-19.969-34.021c-11.376-18.139-30.283-35.846-49.284-45.719
			c-10.472-5.441-20.907-10.264-31.334-14.887c-8.761-3.885-14.703-11.546-23.207-15.724c-37.168-18.257-79.923,3.434-116.431,14.57
			c-20.209,6.165-40.808,8.479-61.252,13.327c-24.209,5.739-48.447,10.796-72.725,15.979c-19.352,4.132-37.883,9.035-57.525,10.975
			c-12.521,1.236-25.298,6.04-37.499,9.401c-19.626,5.405-39.129,10.612-58.663,16.096c-23.963,6.728-48.469,12.584-72.668,18.209
			c-29.271,6.804-58.66,13.11-88.168,18.804c-29.717,5.733-61.813,6.994-92.008,9.984c-20.186,1.999-41.125,1.992-60.971,4.046
			c-20.642,2.136-42.916,7.984-64.034,5.995c-13.179-1.242-25.765,2.998-39.124,2.96c-14.147-0.04-28.22-1.997-42.366-1.997
			c-24.559-0.001-49.476,1.239-73.999,0c-12.657-0.64-29.227-1.001-40-1c-10.463-0.471-20.925-0.96-31.387-1.438
			c-25.973-1.184-51.941-2.459-77.909-3.74c-33.599-1.657-67.2-3.351-100.789-5.198c-33.352-1.834-66.709-3.634-100.039-5.827
			c-28.524-1.877-56.994-3.941-85.462-6.554c-30.585-2.806-61.363-3.491-92.027-5.346c-39.033-2.36-78.09-5.29-116.912-10.036
			c-18.244-2.23-36.546-4.742-54.475-8.861c-5.204-0.872-10.602-1.773-15.867-2.649c-23.907-3.978-47.82-7.924-71.75-11.77
			c-16.102-2.588-32.754-7.586-48.907-7.58c-2.826,0.014-9.234,2.063-10.275-2.081c-1.169-4.649,9.381-7.327,12.34-8.105
			c0.034-0.009,0.067-0.014,0.103-0.023l-333.03-162.581c-15.956,8-31.677,16.143-45.612,27.514
			c-42.396,34.592-76.018,74.774-107.731,118.514c-25.854,35.659-48.57,74.079-61.391,116.291
			c-8.139,26.795-13.658,51.945-17.528,79.671c-4.264,30.553-6.35,61.406-6.354,92.253c-0.007,38.002,1.882,77.337,8.021,113.565
			c5.752,33.943,15.674,66.684,29.095,98.393c6.551,15.479,10.261,31.628,18.872,46.536c12.365,21.409,20.617,44.757,30.69,67.182
			c9.313,20.734,17.88,42.693,33.131,59.916c17.413,19.663,37.798,35.394,55.449,54.685c11.861,12.965,23.586,25.78,35.561,38.31
			l425.887-49.981c-6.075-1.324-12.137-2.705-18.176-4.176c-1.071-0.261-1.73-1.341-1.47-2.414c0.258-1.07,1.336-1.728,2.404-1.476
			c8.073,1.899,15.89-1.288,24.289-1.155c10.602,0.166,20.899,4.194,31.5,4.697c15.454,0.733,29.939-2.784,45.413-1.165
			c28.957,3.03,58.872,10.394,88.095,13.161c59.185,5.605,118.457,15.373,178.473,21.054
			c131.343,12.432,264.187,25.777,396.135,28.944c30.479,0.731,62.986,0.987,93.598-0.499c23.316-1.133,47.118-3.334,70.332,0.232
			c16.285,2.501,33.99,9.708,51.395,10.442c20.085,0.848,40.781-0.763,61.064-0.343c46.707,0.968,93.403,2.438,140.094,3.988
			c96.276,3.196,192.536,6.92,288.786,10.84c9.343,0.381,18.56-0.95,27.753-2.451c9.195-1.501,18.407-1.874,27.661-2.813
			c9.42-0.956,19.485-0.443,29.349-0.917c42.699-2.05,83.269-10.445,124.392-22.32c28.126-8.122,57.663-21.275,81.488-38.424
			c5.927-4.267,11.845-8.467,17.343-13.238c11.318-9.823,20.543-20.985,29.629-32.77c17.929-23.256,26.288-56.926,35.014-84.257
			c7.595-23.79,17.506-47.77,22.226-72.298c4.999-25.978,5.132-52.598,9.297-78.697c6.288-39.406,20.261-76.438,27.221-116.501
			c2.038-11.73,2.001-24.382,1.999-36.506C7775.998,6056.213,7773.375,6048.137,7773.177,6039.862z" style="stroke:black;fill:#e8c659"/><path id="278104702" parent_id="278104691" order="33" structure_id="4039" d="
			M6267.16,4142.352l-6.324,7.292c-2.409,2.774-4.85,5.527-7.29,8.279c-8.717,9.831-17.73,19.997-25.065,31.05
			c-1.82,2.745-3.772,5.521-5.66,8.206c-4.416,6.282-8.982,12.777-12.375,19.549c-3.572,7.131-8.018,16.006-10.692,25.008
			c-5.25,17.673-9.087,36.091-12.797,53.903c-0.505,2.424-1.009,4.845-1.517,7.263c-0.519,2.472-1.059,4.983-1.606,7.524
			c-3.54,16.445-7.202,33.45-7.165,49.402c0.033,15.17,1.396,29.554,6.08,43.93c1.633,5.015,3.961,10.285,7.441,14.307
			c3.811,4.403,9.274,5.915,13.484,9.766c5.423,4.958,8.599,10.078,10.263,17.013c1.421,5.92,3.543,11.034,7.313,15.884
			c7.383,9.498,18.018,15.951,28.05,22.274c14.59,9.197,30.419,16.334,46.393,22.754c16.119,6.479,31.056,14.096,47.054,20.995
			c39.67,17.107,76.304,19,118.619,20.471c43.74,1.521,89.309-5.614,133.098-7.761c50.89-2.495,100.587-12.386,150.675-21.906
			c61.56-11.7,124.085-19.579,184.669-29.667c65.382-10.888,129.631-26.914,194.853-38.095
			c43.486-7.455,87.29-12.826,130.925-19.306c29.588-4.394,60.516-3.365,90.417-2.012c38.136,1.726,80.019-3.733,114.244-22.073
			c41.681-22.333,31.031-85.931,21.964-123.344c-4.154-17.142-11.805-33.21-16.175-50.128c-3.769-14.591-10.704-24.427-17.69-37.925
			c-8.399-16.242-17.434-32.137-25.608-48.486c-14.958-29.913-35.001-57.078-54.918-83.943
			c-18.337-24.732-35.415-48.839-55.544-72.357c-23.994-28.034-45.799-57.334-78.282-76.125
			c-30.049-17.384-64.912-26.208-99.028-31.107c-39.889-5.729-81.051-6.234-120.457,3.031
			c-30.987,7.286-59.199,22.022-88.572,33.806c-21.94,8.802-45.046,13.999-68.305,17.888c-21.193,3.543-42.43,2.435-63.662,5.417
			c-20.815,2.924-42.779,4.854-63.967,6.706c-9.803,0.856-19.922,1.626-29.319,2.678c-5.729,0.642-11.647,1.464-17.312,2.023
			c-8.523,0.84-16.468,0.517-25.009,1.739c-9.847,1.409-19.704,3.581-29.693,3.557c-16.804-0.041-33.882-3.557-51.333-2.664
			c-16.274,0.833-35.125-0.087-50.275,6.894c-27.684,12.755-57.733,20.118-85.225,34.565c-28.559,15.008-55.252,33.431-80.13,53.933
			c-12.685,10.454-27.138,16.895-38.977,28.719C6303.096,4100.887,6285.641,4121.028,6267.16,4142.352z" style="stroke:black;fill:#e8c659"/><path id="278104699" parent_id="278104691" order="39" structure_id="4060" d="
			M7480.915,7525.091c-5.212-24.476-10.597-43.962-23.668-65.837c-4.249-7.112-8.833-14.558-14.28-20.475
			c-8.661-9.404-26.279-15.86-37.748-21.502c-63.418-31.196-130.118-50.094-200.219-61.777c0,0-134-32-176-45
			c-7.756-1.896-15.52-3.764-23.286-5.616c-33.22-7.922-66.502-15.65-99.952-22.542c-14.26-2.938-28.661-6.179-43.135-7.888
			c-5.141-0.607-16.171-0.24-18.996-6.209l-319.849-57.473c-0.402,0.993-0.813,1.975-1.21,2.977
			c-12.687,32.021-19.673,71.607-3.1,104.002c14.121,27.599,33.545,52.389,55.964,73.716c21.425,20.382,43.03,41.476,65.011,61.168
			c18.875,16.91,40.033,31.03,60.314,46.153c36.689,27.358,69.776,57.149,111.001,77.495c40.11,19.796,79.378,41.461,116.972,65.723
			c16.731,10.799,32.645,22.703,49.127,33.844c15.635,10.568,33.076,19.472,44.875,34.673
			c12.654,16.306,24.384,28.649,25.254,50.026c1.889,46.443,1.646,91.609-35.063,125.467c-8.146,7.514-19.668,15.688-30.914,16.9
			c-13.338,1.438-26.4-4.049-40.012-1.358c-12.743,2.52-25.411-0.407-37.021-5.755c-23.008-10.597-41.051-26.607-58.488-45.303
			c-35.83-38.416-70.241-78.662-110.472-111.988c-42.562-35.256-93.519-59.43-141.19-87.265
			c-49.253-28.758-96.398-63.466-147.861-89.015c-25.392-12.605-50.078-26.291-74.001-40.954
			c-24.557-15.052-50.445-30.453-76.986-41.137c-26.888-10.824-54.949-23.892-80.457-37.751
			c-30.487-16.565-61.016-32.221-91.49-48.138c-31.604-16.506-62.83-34.901-94.266-52.505
			c-27.535-15.419-56.287-28.068-84.39-42.136c-14.647-7.333-28.358-14.86-43.36-21.337c-23.445-10.123-45.699-21.244-69.035-31.59
			c-33.608-14.901-64.83-36.938-99.968-51.909c-18.229-7.767-38.232-11.301-56.93-17.278
			c-37.651-12.039-75.242-24.399-111.868-39.319c-34.589-14.091-66.023-34.747-100.561-48.88
			c-17.917-7.331-36.453-10.407-54.899-15.816c-23.091-6.771-45.991-14.158-68.935-21.384l-47.887,375.12
			c2.292,0.165,4.35,0.281,6.061,0.281c31.635,0.001,62.264,6.248,92.995,13.232c15.336,3.485,30.431,11.263,44.712,17.713
			c16.567,7.481,33.095,13.814,48.792,23.157c26.453,15.746,53.465,32.494,76.245,53.099c21.931,19.835,44.702,38.651,66.243,59.34
			c21.961,21.092,44.543,42.352,66.121,64.016c22.136,22.225,37.08,45.639,50.938,73.784c15.072,30.612,22.892,63.042,34.164,95.03
			c9.098,25.819,13.581,55.223,26.906,79.33c5.058,9.148,13.41,14.513,18.533,24.084c11.003,20.557,22.807,40.894,32.104,62.459
			c7.874,18.265,13.676,36.555,20.25,54.258c4.229,11.387,11.336,18.486,17.76,28.156c8.041,12.102,13.063,27.092,20.245,39.832
			c21.992,39.008,30.511,76.832,44.091,118.051c12.137,36.838,26.391,74.986,43.146,110.514
			c12.289,26.059,33.216,50.777,58.498,64.97c12.279,6.894,25.562,10.495,39.612,11.047c48.349,1.897,96.736,12.227,145.149,11.929
			c16.332-0.1,31.412-4.195,47.533-6.032c17.009-1.938,33.121-6.716,49.652-9.944c16.8-3.281,34.601-6.221,50.38-14.324
			c15.271-7.843,32.679-17.548,45.932-28.399c8.452-6.921,16.87-15.351,24.259-23.079c14.817-15.498,26.177-33.541,37.735-50.799
			c12.103-18.068,22.488-36.667,36.007-54.425c13.734-18.039,29.313-30.064,46.479-43.995c9.535-7.739,20.069-13.098,31.302-17.7
			c34.404-14.092,57.266,26.68,58.219,54.689c0.75,22.012,1,44.652-0.008,66.51c-1.049,22.727,0.008,45.747,0.008,68.504
			c-0.001,20.667-4.207,42.821,6.004,60.479c17.987,31.107,50.565,44.504,84.979,47.777c38.773,3.688,81.601,1.572,120.011-4.226
			c22.534-3.401,45.332-5.949,68.028-8.01c41.456-3.764,83.563-9.837,123.469-23.095c28.271-9.393,56.424-22.099,82.492-35.454
			c38.365-19.656,72.084-54.975,98.99-88.032c9.582-11.773,18.299-24.784,27.229-37.408c19.777-27.959,40.408-55.878,56.57-86.027
			c23.68-44.17,44.559-93.741,60.999-141.229c12.943-37.387,24.786-74.19,35.347-112.242c2.67-9.621,3.015-20.964,7.267-30.062
			c3.53-7.554,8.686-13.606,11.667-21.895c7.051-19.606,10.584-40.271,14.89-60.589c5.641-26.615,9.675-52.701,12.067-79.983
			c3.728-42.511,4.987-85.567,4.991-128.479C7487.004,7590.322,7487.584,7556.412,7480.915,7525.091z" style="stroke:black;fill:#e8ca59"/><path id="278104696" parent_id="278104691" order="42" structure_id="4051" d="
			M3761.612,8944.9c-34.151-29.18-67.23-68.61-106.327-89.896c-12.673-6.9-26.108-12.461-39.614-17.874
			c-4.241,28.959-21.985,51.413-43.675,72.369c-25.696,24.827-56.479,43.294-85.106,64.397
			c-28.273,20.842-57.538,41.105-86.837,60.818c-28.445,19.137-56.582,38.309-86.612,55.038
			c-29.86,16.635-60.357,32.409-87.937,52.751c-25.512,18.816-49.288,42.416-70.245,66.228
			c-10.242,11.637-19.342,24.471-28.612,36.382c-19.896,25.563-39.196,53.908-54.409,82.63
			c-15.208,28.714-32.216,56.874-46.62,85.757c-12.008,24.078-26.73,47.029-43.37,68.248c-17.487,22.298-33.698,45.689-50.026,68.75
			c-32.429,45.801-68.205,90.908-105.425,132.95c-15.25,17.226-31.992,31.9-48.105,48.104
			c-11.738,11.804-21.317,25.902-33.541,37.19c-10.456,9.654-22.834,18.13-33.981,27.355c-25.83,21.377-53.952,39.733-81.751,58.396
			c-17.987,12.075-35.811,23.197-53.474,35.785c-18.596,13.253-43.62,37.057-68.686,25.971c-15.64-6.916-10.105-23.932-5.275-35.708
			c11.105-27.069,19.809-59.196,37.235-83.041c30.754-42.081,59.091-85.339,88.528-128.276
			c14.079-20.537,27.242-41.382,40.499-62.506c18.272-29.118,33.38-59.559,50.735-89.412c18.816-32.366,36.368-65.494,51.671-99.675
			c10.957-24.473,21.366-49.016,30.302-73.705c7.387-20.407,13.833-45.821,15.002-67.561c2.084-38.772-5.916-79.306-19.856-115.366
			c-5.64-14.59-10.055-29.938-17.791-43.609c-7.859-13.891-19.01-25.57-28.019-38.676c-11.542-16.789-23.226-33.51-36.702-48.828
			c-13.458-15.297-27.041-29.43-45.658-35.361c-10.516-3.35-22.028-6.469-32.843-6.951c-19.638-0.878-38.417-6.021-58.329-6.092
			c-11.755-0.042-23.487,0.621-35.201,1.547l-27.334,261.956c2.334,1.896,2.859,5.704,1.226,10.196
			c-3.186,8.762-12.167,15.779-17.616,23.133c-3.126,4.22-6.262,8.393-9.673,12.338c-5.336,6.168-10.824,11.747-15.987,18.029
			c-12.79,15.561-26.397,30.492-36.956,47.694c-10.074,16.413-21.187,32.271-30.785,48.979
			c-11.615,20.218-19.406,42.493-30.845,62.757c-8.259,14.629-21.263,21.365-31.415,34.287
			c-5.587,7.111-13.271,12.688-19.885,19.025c-18.969,18.182-32.308,42.904-45.696,65.327c-8.694,14.56-18.364,27.763-27.926,41.732
			c-11.436,16.71-19.805,35.493-30.851,52.55c-5.416,8.363-10.902,16.706-15.962,25.305c-9.494,16.133-20.607,31.22-30.314,47.275
			c-6.346,10.496-11.137,22.875-18.441,32.664c-6.845,9.174-12.004,18.022-16.404,28.83c-9.293,22.822-14.686,46.938-20.685,70.766
			c-11.005,43.707-16.133,86.464-14.01,131.295c0.605,12.781,3.496,25.188,6,37.32c4.663,22.605,12.167,44.508,16.946,67.087
			c4.82,22.776,8.688,43.976,22.717,63.596c17.619,24.644,46.369,41.354,72.869,55.496c17.333,9.251,31.257,17.608,50.518,22.454
			c11.396,2.867,23.868,3.684,35.926,4.715c11.788,1.006,22.956,3.328,35.034,3.332c12.935,0.002,25.944-0.006,38.676,0.666
			c24.837,1.311,50.938-4.465,74.606-9.465c13.134-2.774,26.004-3.76,38.871-8.369c10.66-3.818,21.203-7.282,32.203-11.129
			c36.174-12.65,70.022-31.038,105.496-45.204c11.261-4.497,22.761-8.929,33.48-13.854c24.536-11.271,49.255-21.662,73.605-33.313
			c22.785-10.902,44.766-26.45,66.702-38.736c40.29-22.566,79.486-46.191,118.345-71.117c17.008-10.91,33.983-22.109,50.175-34.189
			c34.599-25.812,66.475-55.895,101.35-80.457c23.469-16.529,46.762-33.906,67.797-53.476c12.124-11.28,25.471-20.439,38.025-31.024
			c25.338-21.367,49.337-45.263,71.399-69.921c15.06-16.831,30.38-33.098,45.715-49.466c16.193-17.284,34.024-32.979,49.705-50.754
			c9.219-10.45,19.171-20.089,30.358-28.377c12-8.891,24.053-18.462,36.639-26.659c12.021-7.829,25.605-12.771,37.347-21.097
			c12.305-8.724,26.86-14.455,40.821-20.253c23.27-9.663,42.404-20.461,62.679-35.655c15.863-11.889,32.044-22.938,48.615-34.28
			c38.657-26.458,76.879-53.871,114.905-81.02c8.11-5.79,15.568-12.539,23.748-18.318c16.871-11.921,32.291-25.262,48.556-38.03
			c31.156-24.457,62.924-47.473,89.524-77.192c14.659-16.378,27.605-33.001,41.374-50.015c6.67-8.243,12.329-17.389,19.268-25.459
			c12.531-14.574,23.236-30.828,36.831-44.476c6.491-6.517,12.332-14.302,20-19.556
			C3918.949,9083.271,3841.175,9012.88,3761.612,8944.9z" style="stroke:black;fill:#e8cb59"/><path id="278104703" parent_id="278104691" order="45" structure_id="4029" d="
			M7706.523,5163.097c-0.154-17.489,0.855-35.022-0.023-52.596c-1.521-30.436-2.888-60.566-6.014-90.999
			c-1.914-18.646-4.138-37.521-8.239-55.753c-1.853-8.235-4.523-18.314-5.247-25.75c0,0-31-96.5-34.5-105.5
			c-5.334-13.119-10.666-26.238-16.009-39.354c-9.345-22.939-18.592-45.919-27.958-68.85c-7.558-18.5-15.471-35.038-25.785-52.21
			c-11.08-18.448-22.163-36.914-32.119-56.001c-5.666-10.862-10.82-21.678-20.353-29.786c-6.38-5.427-12.997-10.714-19.536-15.954
			c-17.078-13.686-34.283-27.444-52.508-39.589c-7.866-5.242-15.938-10.677-24.732-14.255c0,0-40.5-33.5-117.5-28
			c-25.676,0.623-51.924,1.244-77.783,1.846c-35.159,0.818-70.663,3.035-105.818,1.792c-37.524-1.328-76.137,3.286-112.911,10.471
			c-47.992,9.377-96.386,18.412-144.989,23.897c-18.871,2.13-38.259,4.961-57.25,7.741c-8.77,1.284-17.491,2.949-26.249,4.253
			c-17.195,2.56-34.774,4.625-52.111,6.389c-17.906,1.821-35.445,3.505-53.302,5.716c-22.128,2.741-43.326,8.265-65.079,10.395
			c-40.237,3.941-80.208,9.541-120.478,11.532c-17.518,0.866-34.802,1.682-52.529,0.971c-33.463-1.343-67.046-7.207-98.548-13.951
			c-12.692-2.718-22.464-7.149-33.448-13.342c-12.201-6.88-24.725-14.412-37.859-19.361c-7.419-2.796-13.311-4.929-20.284-9.155
			c-7.06-4.278-14.082-8.614-21.142-12.891c-16.629-10.073-29.698-21.751-37.968-39.303c-5.802-12.313-11.323-24.896-14.313-38.229
			c-2.86-12.755-6.555-25.683-8.44-38.649c0,0-0.031-0.215-0.031-0.215c-1.428-9.581-2.776-18.631-2.798-28.569
			c-0.038-16.382,3.67-33.601,7.255-50.253c0.546-2.534,1.085-5.039,1.603-7.503c0.507-2.416,1.011-4.835,1.515-7.257
			c3.727-17.893,7.581-36.394,12.879-54.227c2.774-9.34,7.308-18.39,10.95-25.661c3.525-7.038,8.179-13.657,12.679-20.058
			c1.872-2.664,3.809-5.417,5.6-8.118c7.489-11.286,16.598-21.558,25.406-31.492c2.431-2.742,4.862-5.484,7.263-8.248l6.32-7.289
			c18.529-21.38,36.031-41.574,55.767-61.284c6.248-6.24,11.957-12.885,17.852-19.466c7.503-8.377,14.38-17.115,21.952-25.42
			c17.851-19.579,39.311-35.585,57.51-54.929c14.463-15.372,22.3-36.827,40.517-48.602c25.578-16.532,54.495-26.404,83.38-35.418
			c29.199-9.113,57.482-20.263,87.604-26.104c18.018-3.493,36.196-6.096,54.181-9.764c38.168-7.785,76.831-14.359,115.496-19.638
			c72.629-9.915,144.816-25.348,213.838-58.307c39.484-18.854,76.215-43.273,109.455-71.688
			c11.295-9.655,23.328-18.369,33.302-29.446c16.118-17.902,37.405-32.393,48.68-53.459c13.71-25.618,20.869-54.374,28.61-82.188
			c3.107-11.164,5.251-21.255,7.118-33.362c7.725-50.173,5.577-108.473-7.386-157.543c-9.367-35.462-23.335-70.834-36.439-104.935
			c-10.697-27.836-26.16-58.608-42.384-84.046c-12.479-19.566-25.952-37.936-38.995-56.998
			c-18.174-26.559-39.875-48.499-58.268-74.829c-12.773-18.286-29.313-34.865-43.738-51.887
			c-18.205-21.481-47.455-38.969-69.675-56.286c-24.809-19.334-50.149-38.011-76.605-55.045c-42.384-27.289-80-50.57-127.788-67.511
			c-31.855-11.294-62.741,1.671-85.156-31.229c-27.375-40.188-29.78-89.998-46.694-134.372
			c-16.876-44.274-53.224-88.104-80.449-127.236c-11.288-16.226-24.055-33.264-40.093-45.765l0.745,0.757
			c-0.547-0.426-1.004-0.863-1.45-1.286c-0.834-0.64-1.67-1.278-2.523-1.894c1.058,0.514,1.775,1.184,2.523,1.894
			c0.234,0.179,0.474,0.348,0.705,0.529L6440,2416.5c-34.813-14.417-57.132-52.243-87.321-73.882
			c-28.847-20.676-56.784-39.972-88.572-56.114c-31.93-16.215-68.611-26.029-102.323-37.183
			c-87.118-28.823-181.153-13.572-266.516,17.455c-63.805,23.191-109.075,86.088-148.565,138.467
			c-15.281,20.268-30.613,40.498-45.969,60.711c-31.21,41.083-62.442,82.152-93.186,123.586
			c-19.203,25.881-36.089,53.32-50.62,82.02c-13.78,27.218-21.952,55.674-34.932,82.941c-21.559,45.29-45.676,90.611-63.78,138.063
			c-10.604,27.796-24.008,54.695-30.166,83.988c-4.429,21.067-5.402,42.399-11.048,63.262c-7.065,26.11-17.268,51.228-27.535,76.207
			c-15.704,38.205-39.871,72.836-75.42,94.905c-39.978,24.818-87.207,17.042-132.03,21.622
			c-48.707,4.977-94.017,13.952-144.041,13.93c-47.037-0.02-97.991,2.456-144.416,9.605c-24.24,3.733-45.911,7.379-69.522,12.485
			c-59.62,12.894-114.273,26.013-170.335,51.573c-55.598,25.35-108.398,58.234-157.702,94.357c-11.406,8.357-18.008,14.104-29,23
			c-19.813,16.033-43.911,33.561-62.341,51.167c-9.306,8.89-18.426,17.972-27.363,27.231
			c-11.647,12.067-18.589,25.282-30.371,37.155c-8.736,8.802-16.015,19.021-24.821,27.831
			c-13.504,13.509-24.631,29.219-35.563,44.815c-3.365,4.799-6.68,9.633-9.944,14.501c-15.013,22.387-28.957,45.498-41.599,69.307
			c-3.108,5.854-6.093,11.774-8.954,17.753c-2.855,5.965-5.589,11.99-8.201,18.066c-2.582,6.007-5.052,12.062-7.407,18.161
			c-2.354,6.095-4.602,12.231-6.739,18.405c-2.136,6.169-4.173,12.371-6.114,18.604c-1.943,6.238-3.788,12.506-5.556,18.796
			c-1.771,6.308-3.451,12.643-5.062,18.994c-1.613,6.363-3.151,12.744-4.627,19.14c-1.492,6.464-2.919,12.943-4.293,19.433
			c-0.924,4.363-1.729,8.817-2.816,13.139c-0.731,2.907-0.741,5.775-0.935,8.702c-0.063,0.973-0.148,1.952-0.286,2.941
			c-0.311,2.218-0.894,4.689-3.329,5.544c-3.171,1.113-4.027-1.908-4.673-4.436c-0.678-2.653-0.523-5.419,0.049-8.192
			c0.817-3.969,3.078-7.251,3.557-11.392c0.324-2.798,0.685-5.588,1.127-8.371c0.465-2.929,0.521-5.89,0.782-8.839
			c1.866-21.109,2.929-42.167,8.295-62.704c1.047-4.007,2.147-7.997,3.372-12.197c2.354-8.07,5.277-15.721,8.748-23.311
			c4.083-8.93,7.073-18.324,11.598-27.054c2.92-5.634,6.219-11.059,9.25-16.632c2.953-5.431,5.115-11.229,8.034-16.661
			c2.462-4.581,4.742-9.344,7.063-14.013c6.751-13.585,14.143-27.066,21.885-40.175c16.864-28.554,33.382-53.202,55.226-78.222
			c14.73-16.872,33.655-28.852,49.763-44.074c11.208-10.592,22.87-24.005,34.248-34.414c34.241-31.327,66.693-58.915,104.275-86.452
			c34.474-25.26,70.916-47.406,107.973-68.518c29.736-16.942,53.469-41.935,82.735-59.036
			c26.378-15.413,56.428-30.974,84.909-40.069c43.686-13.95,88.976-21.73,134.43-27.14c45.258-5.385,86.962-0.973,131.636-2.888
			c21.509-0.922,52.989-9.003,74.042-13.898c42.929-9.981,84.962-24.359,126-40c25.315-9.648,38.8-17.192,57.901-36.343
			c17.103-17.146,35.719-38.46,48.877-58.903c11.056-17.177,18.765-36.29,30.728-53.261c24.431-34.659,41.211-74.279,61.62-110.868
			c6.775-12.147,15.476-23.043,22.742-34.877c7.427-12.096,11.193-25.368,17.628-37.882c12.17-23.667,22.623-48.473,33.504-72.861
			c12.048-27.006,29.394-51.744,42.609-78.271c15.372-30.857,33.728-60.038,53.791-88.163
			c47.807-67.014,98.668-131.72,148.275-197.388c13.866-18.355,27.428-39.377,39.498-58.941
			c33.719-54.65,30.721-139.354,17.838-200.163c-4.901-23.138-10.007-47.063-17.466-69.521
			c-20.981-63.168-53.86-116.337-95.077-170.002c-37.912-49.357-91.596-86.962-139.366-125.549
			c-50.386-40.697-104.469-74.435-161.182-104.046c-28.219-14.733-61.237-20.832-91.695-29.165
			c-25.658-7.02-62.168-15.513-88.818-11.971c-45.824,6.09-93.574,5.878-137.923,20.705
			c-57.938,19.37-90.948,87.858-105.325,142.484c-3.011,11.438-1.435,29.269-6.446,39.745
			c-9.643,20.158-26.817-12.207-34.576-19.152c-13.529-12.111-29.544-26.605-46.853-32.915
			c-10.185-3.712-20.313-5.054-29.909-11.081c-29.214-18.348-62.105-36.924-93.373-51.612
			c-55.222-25.942-111.044-51.382-169.582-68.994c-55.8-16.789-116.122-20.098-174.352-17.232
			c-52.979,2.607-107.551,3.435-156.589,26.826c-17.426,8.312-31.086,18.044-49.937,1.858
			c-23.628-20.287-34.17-64.312-47.479-92.531c-27.54-58.389-68.087-101.975-116.566-143.432
			c-28.216-24.129-61.758-42.102-96.423-53.856c-33.517-11.365-65.58-30.988-101.225-34.87c-25.113-2.735-49.68,0.325-74.599,2.69
			c-26.968,2.559-52.453,14.784-78.246,23.541c-10.382,3.524-20.534,6.703-30.624,11.134c-4.781,2.1-9.461,3.936-14.125,6.365
			c-13.832,7.203-27.512,14.714-40.751,23.237c-9.901,6.375-20.387,13.41-28.751,21.764c-6.711,6.704-14.267,13.333-20.783,20.352
			c-6.748,7.269-13.174,14.831-19.407,22.544c-5.125,6.344-9.679,13.197-15.429,19.035c-2.096,2.127-16.784,16.048-21.138,21.361
			c-5.158,6.295-10.492,12.804-15.023,19.614c-9.903,14.883-18.217,30.75-27.652,49.995c-7.077,14.433-16.117,28.836-24.859,42.767
			c-2.033,3.239-4.055,6.459-6.037,9.658c-25.965,41.887-53.068,82.232-73.78,112.702c-5.348,7.867-10.863,15.763-16.196,23.398
			c-10.642,15.235-21.645,30.988-31.747,47.134c-9.469,15.135-19.735,30.322-29.664,45.01c-6.047,8.946-12.301,18.197-18.375,27.434
			c-6.639,10.095-12.965,20.537-19.083,30.636c-8.122,13.405-16.521,27.268-25.824,40.618c-3.84,5.511-7.676,11.272-11.386,16.843
			c-4.634,6.96-9.426,14.156-14.328,21.024c-1.827,2.559-26.224,48.064-28.043,51.786c-7.208,14.745-13.934,29.72-20.621,44.707
			c-6.135,13.748-11.094,27.201-16.88,40.883c-8.735,20.653-17.84,40.764-27.132,61.157c-5.458,11.978-11.7,23.834-16.853,35.855
			c-5.314,12.396-8.324,25.378-12.635,38.099c-7.409,21.865-12.86,43.509-18.13,65.151c-3.765,15.46-4.482,31.51-4.689,47.358
			c-0.195,14.903-1.74,29.434-1.025,44.38c0.641,13.405,2.319,26.605,2.472,39.999c0.081,7.106,0.15,14.025-1.116,20.768
			c-0.954,5.074-4.002,8.708-5.422,13.695c-3.637,12.771-2.58,28.549-3.962,41.78c-1.406,13.455-8.787,24.357-13.997,36.756
			c-5.34,12.71-8.039,25.207-9.254,38.961c-1.181,13.362-1.231,28.436-4.372,41.52c-2.833,11.805-6.029,23.382-7.391,35.517
			c-1.509,13.446-1.992,26.704-1.988,40.503c0.001,6.543,1.529,13.029,1.119,19.592c-0.164,2.623-2.276,12.356-6.29,12.641
			l-56.46,321.119c26.007,2.691,52.424,2.843,77.775,2.845c30.034,0.002,60.1-3.514,88.12-9.393
			c47.806-10.03,110.909-25.013,148.487-61.466c37.965-36.828,77.937-75.28,108.377-118.736
			c29.422-42.002,51.958-87.772,76.124-132.853c26.881-50.144,56.407-98.82,83.119-149.056
			c24.956-46.934,43.373-96.618,64.127-145.453c17.166-40.388,33.923-80.706,45.075-123.238
			c7.643-29.149,17.995-57.733,26.655-86.469c13.664-45.337,28.589-90.299,41.25-135.935
			c10.747-38.735,14.989-83.729,35.243-118.883c9.466-16.431,18.251-34.853,40.272-33.735c24.837,1.261,31.462,23.609,39.291,43.721
			c14.231,36.564,22.962,76.74,30.335,115.057c7.958,41.362,17.727,80.469,29.691,120.984
			c11.253,38.107,24.375,80.688,42.675,115.544c16.595,31.606,43.839,59.364,76.378,74.433
			c25.184,11.663,58.058,17.932,80.692,33.471c10.469,7.188,19.007,17.229,31.658,19.651c20.332,3.892,47.436-5.954,66.565-12.537
			c32.289-11.112,51.212-44.569,73.264-69.246c39.827-44.569,75.362-82.906,131.187-105.855
			c35.162-14.454,73.779-19.843,111.541-15.295c33.657,4.052,60.249,19.924,91.377,31.411c21.357,7.882,37.79,22.854,60.246,28.471
			c26.508,6.63,53.59,9.854,80.833,11.955c67.844,5.23,133.727-3.137,199.729-17.33c31.993-6.88,63.446-17.145,93.07-31.086
			c27.637-13.007,50.582-33.158,76.973-46.938c43.631-22.782,97.263-53.354,148.329-49.319c25.884,2.045,45.528,16.41,54.346,41.071
			c26.866,75.143-100.185,153.742-154.254,188.11c-65.575,41.681-118.934,80.333-193.291,108.575
			c-55.509,21.083-109.513,43.14-161.443,72.129c-45.198,25.231-90.141,47.204-132.202,76.931
			c-27.688,19.568-57.939,48.232-90.069,59.207c-50.151,17.131-112.434,11.635-160.965-8.711
			c-41.846-17.543-67.904-58.181-104.905-82.79c-46.122-30.676-94.778-74.212-154.021-45.939
			c-33.32,15.901-55.885,34.62-76.697,65.254c-14.566,21.441-28.078,37.544-49.03,52.555
			c-24.742,17.726-43.831,47.803-60.349,73.587c-35.685,55.703-61.028,117.751-77.039,181.844
			c-27.852,111.498-46.302,229.652-46.304,343.543c0,28.271-1.498,55.636-1.499,83.995c-0.001,25.031-0.799,50.335-3.313,75.206
			c-5.716,56.551,3.355,113.691,8.854,169.655c5.233,53.267,10.839,111.037,18.854,164.177
			c12.741,84.478,18.4,167.381,59.173,243.749c32.652,61.156,73.482,130.599,141.938,152.242
			c32.495,10.273,66.322,16.458,100.217,19.683c33.33,3.171,62.154-1.853,95.007-5.058c42.641-4.16,84.196-8.24,121.158-31.375
			c11.248-7.04,23.438-10.799,34.006-19.393c34.97-28.434,60.672-60.345,88.004-95.967c20.441-26.642,40.491-55.812,51.654-87.728
			c11.044-31.575,14.052-66.041,25.377-97.094c24.935-68.37,89.706-93.031,155.976-103.795c29.38-4.771,61.736-3.139,91.103,0.805
			c37.295,5.008,72.668,15.968,110.892,15.96c28.437-0.006,56.063-1.678,84.023-3.026c39.702-1.915,79.186-5.972,118.9-9.951
			c54.202-5.431,109.055-18.143,159.713-40.038c42.391-18.321,77.72-46.655,117.222-69.558
			c38.289-22.2,70.226-54.844,107.411-79.178c13.433-8.792,25.402-19.535,37.181-30.332c28.248-25.894,53.6-54.719,81.045-81.432
			c17.27-16.809,33.478-37.166,47.889-56.564c21.724-29.24,45.27-57.705,65.867-87.645c9.752-14.176,19.012-28.298,28.468-42.498
			c20.979-31.504,40.456-62.593,57.021-96.549c20.88-42.801,32.928-86.538,46.505-132.227
			c11.925-40.126,27.023-79.584,39.754-119.676c18.177-57.24,27.505-116.455,51.129-172.195
			c9.643-22.751,23.951-43.346,39.479-62.291c14.542-17.742,41.864-42.214,60.146-16.341c19.153,27.107,25.306,54.872,31.311,86.979
			c3.836,20.512,8.014,39.806,7.033,61.559c-0.413,9.147-4.212,17.423-5.833,26.433c-1.79,9.946,3.261,18.027,4.652,27.191
			c2.813,18.536-7.696,41.074-10.358,59.114c-5.039,34.147-7.851,66.783-9.561,101.297c-1.22,24.622-5.367,51.567,3.233,74.941
			c8.009,21.765,23.424,40.032,38.516,57.02c15.942,17.945,32.229,34.897,53.263,46.397c12.395,6.777,23.871,15.214,37.014,20.606
			c14.389,5.903,29.663,4.78,44.973,4.965c14.996,0.18,30.255,1.747,45.006,0.999c14.51-0.736,28.592-2.086,43-2.775
			c8.891-0.425,17.797-0.377,26.5-1.225c19.039-1.854,38.127-2.237,57.492-2.999c36.78-1.449,72.514-3.993,109.966-4.003
			c24.711-0.006,53.945,0.999,77.819,7.241c20.802,5.438,49.564,15.368,55.214,39.275c7.207,30.495,15.142,53.948-11.444,76.563
			c-18.637,15.852-41.579,24.75-62.506,36.911c-64.966,37.752-138.402,55.96-206.549,86.017
			c-56.908,25.1-114.396,52.759-172.041,78.928c-22.387,10.163-46.452,22.468-66.468,37.293
			c-10.966,8.122-21.539,17.72-30.981,27.551c-36.391,37.886-70.159,78.711-104.568,118.805
			c-24.596,28.659-52.901,54.531-75.455,85.185c-18.929,25.727-38.04,50.851-57.243,76.951
			c-21.266,28.905-44.979,59.664-61.521,91.299c-6.938,13.271-13.053,26.825-20.481,40.287
			c-17.427,31.584-33.942,61.47-47.782,94.983c-7.652,18.529-18.605,36.507-22.948,56.21c-6.892,31.263-16.29,62.41-19.056,94.449
			c-4.11,47.603-0.204,97.577,10.345,144.115c8.133,35.882,20.8,72.933,32.699,107.976c16.256,47.869,41.509,95.144,68.037,138.003
			c36.835,59.511,80.106,116.003,138.7,155.211c18.587,12.438,36.502,27.411,56.769,37.747
			c29.008,14.793,57.433,26.23,88.051,37.347c15.928,5.783,31.988,11.195,48.157,16.265c14.436,4.526,28.881,10.847,43.49,14.622
			c12.215,3.156,23.971,5.787,35.554,10.024c21.315,7.797,42.269,14.413,64.626,17.783c42.422,6.395,82.072,8.936,125.08,6.916
			c25.928-1.218,51.839,2.63,77.574,3.825c72.088,3.347,144.338,7.627,216.391,11.748c38.4,2.196,76.969,5.618,114.844,12.439
			c59.684,10.748,116.371,31.904,171.082,57.69c47.389,22.335,93.073,54.501,115.669,103.862
			c9.346,20.416,8.328,44.319,1.984,65.485c-10.221,34.098-38.28,70.574-64.461,93.909c-28.323,25.245-62.815,42.668-98.547,54.821
			c-16.133,5.487-33.093,9.228-49.659,13.274c-35.547,8.682-68.531,19.204-105.336,22.973c-69.746,7.143-139.333,3.032-208.983,3.02
			c-23.187-0.005-45.991,1.003-68.983,1.001c-12.344,0-24.687,0.003-37.029,0.002c-44.48-0.002-88.449-2.017-133.043-3.251
			c-60.804-1.684-121.371,1-182.146,1.095c-29.525,0.045-59.451-5.265-88.836-3.845c-36.637,1.771-73.246,2.397-109.978,4.236
			c-23.747,1.189-46.942,6.56-70.4,10.009c-21.632,3.181-44.301,2.884-65.596,7.789c-25.848,5.954-50.449,17.06-75.411,26.08
			c-19.52,7.054-38.949,14.705-58.368,22.127c-9.276,3.546-17.871,8.801-26.804,12.682c-21.875,9.503-44.734,16.449-66.794,25.802
			c-25.001,10.601-50.573,19.877-75.048,31.691c-16.642,8.033-31.8,18.704-48.144,26.88c-1.275,0.638-2.549,1.275-3.822,1.914
			l333.03,162.581c13.499-3.511,23.928,1.973,36.807,4.112c11.773,1.956,23.242,1.393,34.857-1.102
			c17.924-3.849,33.314-3.239,51.279,0.19c19.602,3.741,38.878,8.966,58.414,13.008c22.384,3.048,44.764,6.13,67.158,9.101
			c39.754,5.272,79.461,10.941,119.258,15.884c30.38,3.773,60.752,7.272,91.337,8.725c23.589,1.119,47.138,3.076,70.713,4.45
			c26.853,1.565,53.688,3.373,80.534,5.042c22.986,1.43,45.975,2.822,68.956,4.326c27.059,1.771,53.964,2.422,81.058,2.365
			c22.89-0.047,45.78-0.338,68.669-0.538c33.661-0.295,66.806-2.359,100.319-2.354c14.441,0.002,28.384-1.501,42.993-1.5
			c17.929,0.001,35.77-2.601,53.662-3.503c50.184-2.532,99.646-5.655,149.584-11.626c30.835-3.687,60.835-8.776,91.261-14.856
			c15.074-3.013,29.811-6.878,44.473-10.544c8.631-2.158,17.383-5.34,26.138-6.844c8.021-1.378,15.964-1.842,23.938-4.058
			c17.136-4.762,33.252-12.497,50.201-17.827c12.661-3.981,25.469-7.473,38.248-11.049c9.552-2.673,18.257-7.265,28-10.194
			c6.992-2.104,14.799-4.075,21.889-6.113c14.175-4.073,28.38-9.627,42.623-13.901c27.982-8.397,55.773-17.458,83.188-27.564
			c10.547-3.888,21.101-7.149,31.094-12.394c13.854-7.27,26.969-15.44,41.368-21.664c13.753-5.944,27.757-11.417,40.867-18.727
			c12.832-7.154,25.168-15.345,36.141-25.147c6.701-5.987,14.211-11.159,20.203-17.908c2.94-3.313,6.161-7.326,7.542-11.601
			c1.373-4.251-0.255-6.87-0.362-11.23c-0.071-2.845,2.426-6.357,3.708-8.754c8.459-15.806,13.909-32.681,20.365-49.371
			c8.633-22.313,15.299-46.937,19.875-70.135c5.377-27.261,11.733-54.241,16.013-81.744c3.721-23.915,5.518-48.203,9.098-72.137
			c3.129-20.916,3.814-41.188,5.892-62.109c0.899-9.055,0.671-18.411,2.018-27.225
			C7707.731,5199.027,7706.682,5180.972,7706.523,5163.097z" style="stroke:black;fill:#e8cd59"/><path id="278104698" parent_id="278104691" order="68" structure_id="4057" d="
			M5964.687,8394.203c-12.259-33.082-33.554-61.154-47.567-93.284c-4.105-9.415-7.249-17.828-10.117-27.474
			c-9.271-31.174-19.927-62.174-28.238-93.711c-4.717-17.902-10.59-36.193-17.262-53.73c-13.201-34.699-33.609-63.17-50.615-95.869
			c-9.403-18.081-21.021-34.804-30.446-52.81c-10.214-19.51-17.761-40.347-28.942-59.362c-18.504-31.467-35.572-63.104-56.98-92.778
			c-24.225-33.58-48.69-66.562-74.768-98.429c-8.74-10.681-18.01-21.347-28.001-31.002c-19.55-18.896-42.546-34.075-63.958-50.984
			c-13.811-10.904-26.829-22.929-40.844-33.42c-12.991-9.724-28.268-15.762-42.178-23.969c-21.271-12.549-42.867-24.33-64.771-35.88
			c-18.246-9.621-35.791-18.408-53.905-27.451c-6.565-3.276-12.255-7.538-18.583-11.077c-13.953-7.801-27.17-15.56-39.18-26.661
			c-11.822-10.929-22.244-25.607-23.409-42.238c-1.554-22.193,29.599-18.105,47.017-16.854l47.887-375.12
			c-32.607-10.27-65.303-20.211-98.76-27.579c-18.193-4.007-35.944-7.241-54.04-9.029c-32.359-3.196-66.304-3.499-99.006-5.021
			c-59.995-2.793-119.007-4.942-179.043-1.947c-17.549,0.875-34.453,1.35-51.956,1.979c-12.979,0.468-25.973-0.729-38.952-0.098
			c-11.203,0.545-21.082,4.604-32.048,5.118c-4.73,0.222-9.524,0.515-14.338,0.856l54.212,327.63
			c0.786-0.28,1.586-0.517,2.408-0.683c14.969-3.024,29.947,21.558,35.806,33.531c8.33,17.025,12.304,37.631,9.926,56.493
			c-2.396,18.997-11.668,36.212-17.565,54.207c-7.047,21.504-17.584,41.64-28.284,61.661c-10.668,19.962-20.52,40.371-29.184,61.289
			c-11.225,27.099-18.272,56.355-27.975,84.09c-10.367,29.635-19.542,59.708-26.76,90.271
			c-12.164,51.513-11.603,104.389-0.313,155.899c4.458,20.342,10.628,40.275,18.047,59.734c0,0,43.333,146.667,44,168
			c-2.345,40.585-5.33,81.97-5.334,122.666c-0.002,19.747-3.069,39.231-5.981,58.683c-1.32,8.82-2.347,17.734-3.334,26.655
			c-1.922,17.363-5.013,34.286-6.739,51.495c-1.014,10.103-3.265,19.712-4.606,29.755c-2.5,18.718-4.777,37.481-7.532,56.19
			c-1.104,7.492-2.096,15.09-2.473,22.655c-1.019,20.444-4.993,40.168-6,60.567c-1.435,29.066-3.863,58.068-5.98,87.09
			c-1.265,17.335-2.219,34.637-4.222,51.848c-1.495,12.846-4.155,26.349,0.035,38.973c4.402,13.261,7.977,26.977,13.683,39.902
			c4.536,10.275,11.291,19.754,20.629,26.695c10.081,7.492,24.305,9.691,35.868,14.67c10.742,4.623,22.532,7.444,33.825,11.655
			c6.423,2.395,13.345,4.767,19.979,6.68c15.132,4.364,27.626,4.461,43.182,4.463c10.644,0.001,22.034,0.712,32.85,0.844
			c21.169,0.257,43.744-2.214,65.497-2.304c22.923-0.096,45.773,1.93,68.673,0.817c21.766-1.058,42.975-3.603,64.65-4.668
			c12.451-0.612,24.649-2.162,36.663-3.318c6.231-0.6,12.061-1.943,18.476-2.014c15.413-0.169,31.896-5.329,47.016-8.255
			c17.299-3.347,34.57-6.83,51.828-10.377c33.047-6.791,64.687-12.33,98.165-18.739c24.146-4.623,46.784-13.853,70.522-20.133
			c20.593-5.448,39.737-14.344,59.989-19.131c54.058-12.775,105.386-37.292,154.756-61.734c14.767-7.31,29.47-14.786,43.589-23.296
			c26.683-16.08,52.2-33.933,77.935-51.667c12.417-8.556,25.589-15.845,36.927-25.491c5.087-4.328,10.663-9.067,15.482-13.825
			c9.799-9.673,18.774-19.593,27.821-30.147c18.288-21.338,36.284-44.712,51.346-68.535c12.216-19.321,23.327-46.678,26.679-69.341
			C5972.554,8429.632,5970.961,8411.136,5964.687,8394.203z" style="stroke:black;fill:#e8d459"/><path id="278104692" parent_id="278104691" order="82" structure_id="4022" d="
			M2993.048,2755.017c-4.891-4.494-3.235-22.055-5.057-26.024c-7.014-15.279-16.104-31.26-28.867-43.122
			c-6.064-5.635-17.596-10.107-18.634-18.633c-1.11-9.119,1.578-19.997,2.513-29.213c2.42-23.865,8.738-49.203,14.76-72.794
			c5.068-19.85,13.797-40.78,22.886-59.122c3.152-6.361,9.623-13.631,4.863-20.364c-2.392-3.383-5.217-4.527-6.01-8.767
			c-2.501-13.374,5.448-29.751,8.625-42.479c3.589-14.381,9.27-28.83,12.87-43.246c3.808-15.246,2.883-31.334,6.03-46.75
			c3.237-15.857,7.313-31.866,13.691-47.251c15.064-36.338,31.575-71.765,46.311-108.073
			c15.188-37.426,32.539-73.493,52.819-108.655c8.738-15.148,18.475-29.69,28.799-43.799c5.049-6.899,10.232-13.701,15.49-20.441
			c1.673-2.146,4.778-8.038,8.005-11.218c3.17-4.838,6.921-9.634,10.446-14.135c2.272-2.901,4.419-5.644,6.194-8.13
			c4.865-6.815,9.638-13.984,14.254-20.917c3.721-5.588,7.569-11.367,11.433-16.913c9.23-13.246,17.595-27.052,25.685-40.404
			c6.137-10.13,12.483-20.604,19.163-30.76c6.088-9.257,12.349-18.519,18.403-27.476c9.909-14.659,20.155-29.817,29.587-44.892
			c10.155-16.231,21.188-32.026,31.858-47.302c5.326-7.626,10.833-15.511,16.167-23.358c20.689-30.436,47.763-70.735,73.689-112.559
			c1.986-3.205,4.011-6.432,6.048-9.677c8.688-13.843,17.671-28.157,24.655-42.402c9.505-19.387,17.89-35.386,27.914-50.45
			c4.934-7.414,10.614-13.675,15.21-21.278c4.93-8.155,8.164-17.673,13.294-25.764c9.729-15.344,21.301-29.11,31.228-44.244
			c6.731-10.262,12.215-20.941,20.608-30.195c9.199-10.142,17.501-19.472,24.905-30.86c3.064-4.714,7.111-8.594,10.306-13.13
			c5.41-7.682,10.438-15.484,14.658-23.85c4.551-9.021,5.726-18.762,7.781-28.47c2.421-11.431,4.168-21.222,4.842-33.147
			c1.031-18.241,0.615-36.402-7.895-52.76c-14.97-28.774-35.007-55.525-54.965-80.98c-5.221-6.659-10.526-13.252-15.74-19.911
			c-14.965-19.114-32.223-36.141-47.989-54.592c-8.208-9.606-16.699-18.952-25.01-28.382c-10.436-11.84-23.077-20.68-33.909-31.783
			c-12.34-12.649-25.38-24.643-39.463-35.336c-39.454-29.949-77.65-60.573-121.512-82.508
			c-94.861-47.44-192.696-88.045-286.483-137.499c-19.901-10.493-41.943-19.835-60.961-31
			c-38.442-22.568-71.232-45.445-113.369-61.679c-33.199-12.79-66.293-25.83-99.629-37.336
			c-56.843-19.621-111.687-21.146-169.548-32.931c-60.503-12.323-121.887-10.2-183.996-19.556
			c-34.476-5.195-70.928-0.017-105.008-8.994c-54.88-14.458-118.519-16.125-175-19c-67.26-3.424-126.682-2.885-192.912,12.084
			c-30.37,6.864-63.296,8.948-94.058,11.934c-42.731,4.148-78.354,20.032-116.59,36.432
			c-64.642,27.724-129.698,62.717-195.991,87.99c-31.792,12.12-65.164,24.154-97.248,37.754
			c-44.254,18.759-83.151,45.357-126.997,64.167c-53.867,23.109-104.279,53.76-150.647,89.544
			c-15.565,12.013-30.672,24.61-45.242,37.814c-14.514,13.152-28.494,26.896-41.86,41.213
			c-38.245,40.967-75.587,83.663-108.3,129.213c-9.279,12.92-19.004,25.442-27.795,38.648
			c-39.792,59.771-74.791,122.67-107.182,186.713c-8.901,17.6-15.108,35.882-19.989,55.007
			c-4.518,17.705-9.265,35.453-13.169,52.804c-6.224,27.663-14.749,53.859-20.706,81.649c-3.577,16.688-6.038,33.179-9.325,49.337
			c-11.448,56.265-17.317,114.181-25.309,171.035c-2.784,19.806-3.989,39.495-6.011,59.329c-3.79,37.176-4.667,73.397-4.666,111.328
			c0.001,25.587,0.845,51.343,2,76.818c0.367,8.093,1.267,16.432,1.666,24.498c0.709,14.384,2.309,28.08,3.01,42.68
			c1.455,30.277,9.286,58.692,17.495,87.339c7.121,24.848,18.828,48.262,27.422,72.638c8.801,24.964,16.639,50.251,25.058,75.344
			c11.756,35.039,26.673,68.757,38.707,103.976c11.804,34.545,32.631,66.122,50.795,97.362
			c9.194,15.813,20.606,29.795,30.229,45.283c9.055,14.574,18.98,29.651,30.454,42.542c11.189,12.573,24.493,22.315,37.294,32.635
			c13.095,10.557,25.192,21.047,40.563,28.177c9.946,4.614,23.125,4.184,33.894,4.127c32.649-0.173,63.735-14.973,95.687-20.248
			c22.223-3.668,44.657-6.048,66.754-10.477c22.754-4.561,45.722-7.997,68.434-12.773c51.605-10.853,102.436-21.626,149.529-45.578
			c8.142-4.141,16.361-8.442,24.344-12.005c14.975-6.682,28.949-14.474,43.338-22.333c24.632-13.454,49.745-26.038,73.966-40.236
			c22.312-13.079,42.39-27.307,62.124-43.688c11.813-9.807,24.223-18.937,35.237-29.67c10.834-10.559,20.364-22.316,29.936-34.001
			c9.373-11.442,18.782-23.131,28.681-34.157c4.31-4.8,32.626-28.622,33.412-10.298c0.598,13.932-13.815,29.896-23.805,38.069
			c-14.386,11.771-30.178,21.06-44.233,33.401c-13.125,11.524-25.198,23.292-37.503,35.746
			c-24.124,24.417-47.928,49.494-75.467,69.806c-11.826,8.723-22.684,18.726-35.095,26.862
			c-13.254,8.689-27.33,16.015-40.914,24.155c-23.974,14.366-49.167,27.736-73.445,40.601
			c-20.893,11.071-40.944,22.891-62.25,33.916c-25.597,13.247-50.571,25.035-77.309,35.484c-7.091,2.772-14.021,5.701-21.192,8.19
			c-24.251,8.42-47.706,21.701-72.813,28.646c-21.762,6.021-43.139,12.845-64.916,18.613c-21.826,5.782-44.274,9.136-65.704,16.399
			c-29.529,10.009-59.28,14.332-85.706,31.489c-21.738,14.113-39.009,34.644-57.191,52.502
			c-29.199,28.681-47.526,65.177-60.158,103.514c-5.578,16.93-10.67,33.722-16.261,50.978c-11.296,34.865-19.948,68.556-22.219,105
			c-1.141,18.305-4.268,37.002-3.335,55.337c0.453,8.913,1.691,17.43,2.206,26c1.057,17.626,3.84,34.583,4.62,52.323
			c1.66,37.779,3.479,74.988,5.318,112.341c1.844,37.468,6.151,76.069,9.993,114.024c3.461,34.184,5.965,68.701,10.72,102.615
			c6.725,47.961,11.424,96.935,21.991,144.038c3.638,16.218,6.931,31.205,10.84,46.687c8.253,32.687,16.425,63.077,29.653,94.699
			c5.193,12.415,9.381,25.211,14.212,37.766c9.016,23.425,24.213,47.647,38.158,68.522c9.085,13.599,19.386,26.327,29.937,38.805
			c11.229,13.28,23.959,25.188,38.412,34.9c28.215,18.958,61.322,28.335,94.137,35.721c14.503,3.264,30.933,4.934,44.831,10.176
			c11.943,4.504,22.844,9.48,35.636,12.345c28.021,6.275,56.764,8.438,84.854,14.345c59.682,12.549,119.957,22.543,179.621,35.426
			c12.458,2.69,24.431,7.131,36.778,10.228c17.578,4.409,35.745,5.358,53.426,9.17c12.609,2.721,24.666,6.015,37.563,7.729
			c17.833,2.371,35.557,6.572,52.697,10.636c15.156,3.593,30.828,7.309,46.448,9.721c11.859,1.832,23.523,1.705,34.803,1.583
			c8.78-0.094,17.862-0.194,27.086,0.615c75.834,6.642,153.417,15.694,228.445,24.449c35.104,4.097,71.402,8.332,107.083,12.27
			l56.242,6.211c12.75,1.41,26.301,5.795,39.406,10.037c12.77,4.133,25.975,8.406,38.79,10.119
			c11.662,1.559,23.677,2.582,35.296,3.571c8.024,0.683,26.403-0.611,34.535,0.267c39.406,2.052,68.468,8.227,107.059,16.288
			c45.747,9.556,90.733,24.567,135.502,37.881c11.403,3.391,21.482,2.99,33.195,3.843c11.795,0.859,24.12,3.717,35.594,6.59
			c8.432,2.112,18.985,5.947,21.604,15.268c1.191,4.242,1.665,7.79,1.535,10.728c-0.164,3.704-1.294,6.43-3.146,8.362
			l260.886,222.708c2.133-4.273,4.235-8.604,6.297-13.018c15.372-32.894,27.177-67.146,41.198-100.441
			c42.364-100.6,11.528-210.299-28.246-306.237c-11.776-28.406-25.011-57.026-44.486-81.077
			c-23.389-28.883-50.158-61.942-77.483-87.107c-14.939-13.757-30.884-25.811-46.309-39.014
			c-28.268-24.196-54.123-45.432-85.593-65.573c-18.158-11.62-38.075-23.218-55.679-34.044
			c-23.955-14.73-52.108-22.741-76.882-36.126c-24.401-13.184-47.882-28.34-73.913-38.207
			c-35.104-13.306-72.521-20.034-108.278-31.46c-39.385-12.586-78.217-26.878-117.895-38.55
			c-27.438-8.071-57.067-12.192-85.705-16.98c-29.003-4.85-56.434-13.97-85.005-20.046
			c-62.386-13.268-121.338-35.934-182.172-54.435c-25.232-7.669-45.58-18.476-65.766-35.2
			c-23.54-19.502-44.357-32.691-55.903-62.896c-16.104-42.126,1.83-101.952,20.668-140.954
			c21.034-43.546,53.716-79.971,80.88-119.607c21.383-31.201,40.829-64.021,57.173-98.197c7.263-15.191,14.749-30.17,21.958-45.863
			c29.607-64.446,54.297-127.465,70.861-196.426c8.154-33.95,12.183-67.993,19.64-101.234
			c9.166-40.854,21.197-80.134,31.312-120.764c8.309-33.381,12.857-67.566,15.187-101.856c4.026-59.242,6.124-122.401,1.498-181.624
			c-4.246-54.352-30.972-112.624-52.224-162.325c-24.163-56.508-45.801-115.913-78.425-169.072
			c-30.776-50.147-65.909-102.534-118.369-132.088c-54.137-30.499-108.192-59.338-167.946-77.524
			c-74.894-22.794-155.75-15.147-231.95-31.152c-32.906-6.912-68.834-14.313-100.493-27.812c-15.446-6.587-31.6-8.75-46.841-15.344
			c-23.65-10.23-44.067-20.489-50.024-48.248c-2.677-12.477-0.746-27.381,2.179-39.651c11.208-47.005,47.545-93.707,90.901-115.278
			c31.303-15.574,70.211-27.217,104.749-32.289c28.215-4.145,58.767-6.972,87.274-11.663
			c53.446-8.795,109.137-27.663,154.616-59.212c31.41-21.791,62.399-46.963,88.388-74.759c26.995-28.875,44.334-65.04,67.062-97.057
			c15.909-22.412,25.613-48.287,37.689-72.785c26.046-52.84,85.118-108.015,148.196-103.011
			c64.8,5.142,113.116,55.823,131.041,115.896c17.268,57.871,24.821,116.362,19.55,177.013
			c-3.169,36.464-8.256,72.81-11.993,109.426c-1.991,19.51-3.329,40.677-0.387,60.162c6.596,43.682,19.1,88.103,44.568,124.35
			c35.591,50.64,81.337,71.799,134.912,96.14c19.011,8.637,36.708,20.613,55.21,30.906c25.231,14.035,43.212,25.026,64.499,44.871
			c45.733,42.634,86.781,97.248,100.119,159.521c12.058,56.298,12.506,109.35,10.679,166.395
			c-0.746,23.268-1.455,41.593-10.147,64.186c-9.21,23.938-16.769,44.599-18.596,70.367c-1.968,27.749,1.602,55.194,1.599,83.045
			c-0.006,63.112-1.929,128.932,5.975,190.494c3.191,24.854,16.568,48.839,22.673,73.487c7.105,28.685,12.218,57.924,22.011,85.883
			c7.325,20.911,13.945,48.264,26.187,67.133c20.267,31.236,52.615,53.566,77.66,80.221c18.881,20.096,37.363,40.889,57.271,60.373
			c19.091,18.685,38.052,40.273,59.303,57.722c22.296,18.308,47.649,26.989,72.367,40.44c27.717,15.084,58.682,22.096,90.25,25.361
			l56.46-321.119C2994.984,2756.293,2994.059,2755.945,2993.048,2755.017z" style="stroke:black;fill:#e8d959"/><path id="278104695" parent_id="278104691" order="101" structure_id="4222" d="
			M2545.799,4289.467c-5.914-5.369-12.202-10.338-17.989-15.901c-5.809-5.584-13.432-9.333-21.212-11.255
			c-10.263-2.536-20.382-6.399-30.635-9.324c-67.062-19.134-136.225-36.86-206.066-40.489l5.709,0.33
			c-8.1-0.875-22.213,0.08-30.234-0.603c-11.667-0.993-23.73-2.02-35.487-3.591c-13.173-1.761-26.552-6.091-39.491-10.278
			c-13.509-4.372-26.269-8.501-38.614-9.867l-56.241-6.211c-35.693-3.939-71.998-8.175-107.108-12.272
			c-75-8.751-152.554-17.801-228.33-24.438c-9.029-0.79-18.01-0.694-26.695-0.599c-11.442,0.123-23.273,0.252-35.456-1.63
			c-15.778-2.437-31.529-6.171-46.761-9.782c-17.043-4.041-34.667-8.219-52.301-10.563c-10.358-1.377-20.39-3.297-30.582-5.232
			c-31.497-5.982-64.205-9.846-96.309-8.262c-34.07,1.681-68.751,0.813-102.997-0.998c-11.612-0.614-23.703-0.086-35.002,0.997
			c-29.011,2.78-56.078,6.265-83.493,17.462c-31.909,13.031-62.031,32.151-89.515,52.801c-12.197,9.165-24.444,18.222-34.482,29.733
			c-9.275,10.636-17.077,22.965-27.01,32.459c-26.42,25.255-54.662,44.815-70.002,79.535c-6.856,15.519-14.839,32.866-18.279,49.231
			c-1.809,8.605-2.588,17.826-4.26,26.241c-4.988,25.117-10.975,49.055-14.754,74.531c-3.06,20.624-5.878,40.464-8.174,61.034
			c-4.847,43.41,2.036,85.332,1.973,128.488c-0.059,40.257,2.998,78.893,2.999,118.965c0,17.193-1.037,34.274-1.002,51.019
			c0.071,33.785-3.888,65.551-8.777,97.717c-5.215,34.303-9.225,68.317-15.205,102.315c-5.599,31.825-11.561,63.474-21.104,93.871
			c-15.381,48.988-31.806,99.315-43.878,149.18c-5.403,22.318-13.081,44.104-19.055,66.446
			c-5.675,21.225-9.497,42.213-15.017,63.438c-5.47,21.035-8.49,41.667-13.93,62.553c-10.864,41.717-13.222,87.97-19.014,130.938
			c-3.04,22.55-7.276,43.229-5.766,67.026c1.402,22.086,7.11,44.912,12.485,65.299c12.223,46.359,38.703,87.192,50.482,133.5
			c6.692,26.308,10.792,53.526,17.874,79.631c14.042,51.759,47.277,84.954,93.164,111.34c31.835,18.307,64.49,35.875,96.729,53.254
			c16.948,9.136,34.906,16.832,51.384,26.122c16.198,9.132,30.479,21.126,46.082,31.382c32.029,21.055,64.55,35.898,99.166,50.371
			c40.561,16.958,77.913,45.085,123.629,39.901c44.923-5.094,85.646-25.996,127.725-40.962
			c22.815-8.114,48.637-13.157,67.988-28.317c8.835-6.922,17.218-14.149,25.1-22.525c6.942-7.378,14.715-22.39,24.932-25.259
			c11.137-3.127,23.018,11.517,27.769,20.539c2.962,5.624-0.877,12.312-8.037,19.18c1.757,3.391,3.488,7.049,5.575,10.567
			c4.521,7.626,9.238,16.595,16.54,22.439c20.975,16.788,44.754,3.539,67.134-1.242c56.361-12.042,105.039-34.253,154.496-64.477
			c28.651-17.509,37.751-34.211,52.837-63.637c24.883-48.534,32.611-99.209,21.072-152.41
			c-13.062-60.218-42.5-114.475-74.598-166.499c-23.938-38.797-47.287-83.466-82.063-113.793
			c-25.454-22.197-57.633-44.332-88.42-58.401c-9.367-4.28-19.476-5.593-29.238-8.947c-29.265-10.058-59.691-20.46-87.941-33.136
			c-26.926-12.083-49.063-27.719-76.858-38.409c-15.165-5.833-28.802-15.861-42.094-24.288
			c-28.473-18.05-55.18-40.641-59.561-77.078c-2.999-24.957,1.705-50.741,9.646-74.392c11.768-35.044,33.021-60.365,50.308-92.393
			c36.286-67.229,57.199-137.162,68.782-212.359c6.541-42.466,13.378-84.136,21.809-126.019
			c6.601-32.792,21.004-68.689,49.931-88.071c18.841-12.625,56.19-14.444,78.125-13.276c32.915,1.753,66.702,7.888,96.622,22.169
			c30.299,14.462,61.24,15.106,93.864,22.875c5.746,1.368,11.82,1.212,17.292,2.917c9.696,3.023,19.007,7.638,28.877,10.873
			c37.782,12.383,78.923,34.045,113.389,53.853c48.316,27.768,97.735,50.501,148.848,71.644
			c30.905,12.785,60.988,28.103,93.148,37.614c45.364,13.416,88.672-1.79,133.955-5.938c35.612-3.263,72.892-25.535,100.164-48.383
			c30.056-25.18,61.104-44.805,90.91-70.092c23.784-20.178,48.573-49.531,64.214-76.529c15.814-27.297,27.827-57.074,45.018-83.999
			c12.838-20.107,29.048-37.733,42.505-57.391c13.115-19.158,21.451-40.158,33.225-60.02c18.508-31.224,36.309-59.624,52.235-91.533
			c0,0-260.885-222.707-260.886-222.708c0.677,0.578-6.078,3.475-7.039,3.595c-3.035,0.381-6.217-0.566-9.217-0.893
			c-6.608-0.719-12.982-2.285-19.344-4.324c-8.735-2.8-18.812-5.218-25.485-11.906
			C2548.975,4292.405,2547.401,4290.921,2545.799,4289.467z" style="stroke:black;fill:#7f5b33"/><path id="278104694" parent_id="278104691" order="122" structure_id="4063" d="
			M2356.285,7832.273c-11.726-7.269-23.746-13.65-36.131-20.041c-64.685-33.379-141.707-17.023-208.204,2.553
			c-28.127,8.28-55.275,20.02-80.943,32.949c-24.402,12.291-49.546,21.442-72.996,35.529
			c-21.575,12.961-40.522,26.181-58.588,43.635c-11.225,10.844-21.264,22.802-31.826,34.271
			c-13.736,14.916-29.404,29.145-44.086,43.208c-15.13,14.493-32.065,27.017-49.764,38.184
			c-25.736,16.238-49.946,36.147-73.74,55.19c-11.716,9.377-23.286,17.943-34.999,26.966
			c-36.158,27.851-75.552,51.54-113.007,77.787c-30.479,21.358-83.563,67.106-117.754,27.743
			c-18.006-20.729-20.895-42.644-24.068-68.641c-3.43-28.109-4.54-57.313,3.04-84.877c12.177-44.28,47.734-77.475,83.728-103.748
			c43.802-31.972,91.077-58.844,137.514-86.008c15.683-9.174,31.124-20.323,46.548-30.2c27.705-17.741,55.027-37.2,81.372-56.951
			c26.23-19.665,49.403-43.709,69.847-69.263c17.715-22.143,28.899-43.72,41.245-69.063c17.688-36.308,34.907-75.117,39.57-115.761
			c3.796-33.093,7.024-68.334-2.22-100.844c-9.034-31.771-28.06-59.732-46.447-86.736c-16.022-23.529-34.775-45.105-54.122-65.933
			c-22.55-24.275-53.854-41.649-82.198-57.966c-31.531-18.149-63.03-34.356-96.308-48.493c-16.446-6.986-35.765-14.96-53.404-17.747
			c-18.364-2.902-37.317-1.426-55.312-6.729c-29.073-8.566-54.963-24.256-81.701-38.07c-21.178-10.942-46.367-23.861-54.33-48.179
			c-7.271-22.208,10.065-33.947,28.464-41.548c22.71-9.381,46.466-16.121,68.565-24.735c16.458-6.416,31.933-13.122,47.501-21.152
			c31.264-16.124,56.575-32.571,82.974-56.232c20.762-18.608,43.715-34.671,63.904-53.906
			c24.667-23.501,49.658-46.706,72.926-71.616c18.949-20.285,36.831-41.963,48.908-67.142c8.912-18.581,7.955-39.843,1.93-59.129
			c-6.258-20.031-13.203-41.388-28.253-56.688c-12.144-12.346-29.126-18.603-43.772-27.274
			c-20.868-12.355-42.456-23.468-65.148-32.089c-9.594-3.645-18.689-8.96-27.977-11.774c-28.288-8.575-65.532-11.843-94.523-7.292
			c-2.642,0.415-7.056,0.668-12.147,0.927c2.28,2.438,3.324,5.366,0.866,9.361c-3.413,5.546-17.601,7.742-23.211,8.75
			c-37.798,6.788-72.861-5.472-105.953-22.251c-17.156-8.702-38.523-23.359-57.553-26.672c-19.486-3.391-34.892,9.06-50.244,18.839
			c-13.658,8.699-26.441,15.59-39.464,25.615c-13.304,10.241-28.509,18.897-42.319,28.861
			c-31.638,22.823-60.363,46.878-88.96,73.621c-30.724,28.732-63.56,54.136-93.498,83.991
			c-23.845,23.779-46.354,51.447-64.523,79.566c-8.854,13.703-20.472,30.162-24.222,45.686
			c-10.967,45.395,0.258,85.115,6.953,129.744c3.057,20.377,5.739,40.821,9.862,60.416c8.045,38.236,20.46,76.285,27.416,114.584
			c4.617,25.419,12.718,49.921,17.362,74.872c4.988,26.798,17.555,51.462,23.105,78.114c3.702,17.773,10.354,34.67,16.887,51.546
			c5.858,15.134,8.82,30.879,14.065,45.772c10.452,29.68,36.869,59.055,62.847,75.927c17.082,11.095,33.219,23.583,50.456,34.517
			c11.212,7.113,21.755,13.647,31.747,22.206c18.802,16.103,49.04,23.648,73.25,26.031c15.573,1.532,31.876,2.816,47.536,3.061
			c33.158,0.518,67.695-0.634,100.704-4.441c32.108-3.704,66.643-8.099,97.679-17.669c15.816-4.877,31.949-9.049,48.082-12.602
			c13.426-2.959,26.904-10.759,40.956-10.171c20.856,0.88,24.549,19.215,3.722,25.002c-13.282,3.69-27.379,2.207-40.967,2.903
			c-32.811,1.683-64.221,3.317-96.694,9.454c-32.772,6.193-66.953,12.765-100.24,15.862c-30.583,2.846-60.505,5.687-91.042,7.569
			c-23.348,1.44-40.938,19.905-56.393,35.58c-22.184,22.5-38.271,50.298-61.557,72.095c-22.582,21.136-40.146,47.41-64.054,67.707
			c-11.853,10.061-24.512,19.209-35.999,29.822c-25.423,23.489-49.628,49.157-66.226,79.801
			c-32.491,59.988-67.496,112.656-67.495,182.072c0,16.693,0.782,36.344,5.734,51.995c2.19,6.921,5.816,13.71,8.402,20.64
			c14.077,37.738,30.585,75.251,45.883,113.11c12.6,31.183,24.688,63.881,37.97,95.222c4.727,11.155,6.933,23.142,10.99,34.523
			c3.629,10.179,9.571,18.763,13.029,28.901c9.042,26.512,20.247,51.953,30.285,78.086c10.664,27.761,22.604,54.415,33.381,82.077
			c8.072,20.718,13.193,40.285,25.5,59.143c11.503,17.625,28.004,34.191,46.601,44.271c12.803,6.938,26.855,9.549,39.963,15.997
			c14.771,7.267,28.78,16.081,44.063,23.015c33.084,15.014,58.776,11.604,92.949,2.965c16.498-4.17,31.265-9.376,46.765-17.229
			c24.131-12.224,49.368-25.498,74.472-35.554c13.295-5.325,26.589-11.984,40.005-16.946c26.108-9.656,52.246-20.628,77.773-31.522
			c30.313-12.937,59.609-27.592,86.86-46.21c24.651-16.843,51.751-29.739,77.141-45.557c19.052-11.869,40.563-20.237,56.505-36.955
			c31.935-33.488,57.995-71.954,90.743-104.714c8.099-8.102,15.982-16.237,24.529-23.515
			c48.256-41.088,87.669-92.832,134.159-136.402c16.948-15.883,30.541-34.363,47.858-49.75
			c16.118-14.321,31.581-28.407,48.421-42.178c9.044-7.396,17.136-14.7,24.41-23.645c8.753-10.765,13.328-6.665,12.093,0.888
			l179.149-256.604C2378.784,7846.621,2368.005,7839.539,2356.285,7832.273z" style="stroke:black;fill:#7f5f33"/></g>
<g id="278104715" order="13" parent_id="" graphic_group_label_id="266932197" graphic_group_label="Atlas - Human Hotspots" sub_image_id="102291571" transform=" scale(7.0, 7.0)"><path id="278104724" parent_id="278104715" order="1431" structure_id="9223" d="M1700.02,6373.914
			l-37.023-21.375c-1.076-0.623-2.82-0.623-3.896,0l-37.023,21.375c-1.076,0.621-1.947,2.133-1.947,3.375v42.75
			c0,1.244,0.871,2.754,1.947,3.375l37.023,21.375c1.076,0.619,2.82,0.619,3.896,0l37.023-21.375
			c1.076-0.621,1.949-2.131,1.949-3.375v-42.75C1701.969,6376.047,1701.096,6374.535,1700.02,6373.914z M1688.877,6378.646
			l-9.721,40.033c-0.195,0.807-1.025,1.459-1.854,1.459h-6.199c-0.828,0-1.674-0.648-1.887-1.449l-7.783-29.211
			c-0.213-0.801-0.559-0.801-0.771,0l-7.754,29.211c-0.213,0.801-1.057,1.449-1.885,1.449h-6.404c-0.828,0-1.656-0.654-1.85-1.459
			l-9.557-40.031c-0.191-0.805,0.324-1.457,1.152-1.457h5.877c0.828,0,1.643,0.654,1.82,1.465l5.832,26.57
			c0.178,0.807,0.494,0.816,0.707,0.016l7.08-26.604c0.213-0.801,1.059-1.447,1.887-1.447h7.313c0.828,0,1.662,0.65,1.863,1.453
			l6.801,27.09c0.201,0.805,0.51,0.799,0.688-0.01l5.947-27.068c0.178-0.811,0.993-1.465,1.822-1.465h5.73
			C1688.561,6377.191,1689.075,6377.842,1688.877,6378.646z" style="stroke:black;fill:#f2f1f0"/><path id="278104722" parent_id="278104715" order="1466" structure_id="9241" d="M2057.313,7234.647
			l-37.023-21.375c-1.076-0.623-2.82-0.623-3.896,0l-37.023,21.375c-1.076,0.621-1.947,2.133-1.947,3.375v42.75
			c0,1.244,0.871,2.754,1.947,3.375l37.023,21.375c1.076,0.619,2.82,0.619,3.896,0l37.023-21.375
			c1.076-0.621,1.949-2.131,1.949-3.375v-42.75C2059.263,7236.78,2058.39,7235.269,2057.313,7234.647z M2046.171,7239.38
			l-9.721,40.033c-0.195,0.807-1.025,1.459-1.854,1.459h-6.199c-0.828,0-1.674-0.648-1.887-1.449l-7.783-29.211
			c-0.213-0.801-0.559-0.801-0.771,0l-7.754,29.211c-0.213,0.801-1.057,1.449-1.885,1.449h-6.404c-0.828,0-1.656-0.654-1.85-1.459
			l-9.557-40.031c-0.191-0.805,0.324-1.457,1.152-1.457h5.877c0.828,0,1.643,0.654,1.82,1.465l5.832,26.57
			c0.178,0.807,0.494,0.816,0.707,0.016l7.08-26.604c0.213-0.801,1.059-1.447,1.887-1.447h7.313c0.828,0,1.662,0.65,1.863,1.453
			l6.801,27.09c0.201,0.805,0.51,0.799,0.688-0.01l5.947-27.068c0.178-0.811,0.993-1.465,1.822-1.465h5.73
			C2045.854,7237.925,2046.368,7238.575,2046.171,7239.38z" style="stroke:black;fill:#f2f1f0"/><path id="278104721" parent_id="278104715" order="1466" structure_id="9241" d="M1878.177,5358.682
			l-37.023-21.375c-1.077-0.623-2.82-0.623-3.896,0l-37.023,21.375c-1.076,0.621-1.947,2.133-1.947,3.375v42.75
			c0,1.244,0.871,2.754,1.947,3.375l37.023,21.375c1.076,0.619,2.82,0.619,3.896,0l37.023-21.375
			c1.076-0.621,1.949-2.131,1.949-3.375v-42.75C1880.126,5360.814,1879.253,5359.303,1878.177,5358.682z M1867.035,5363.414
			l-9.721,40.033c-0.196,0.807-1.025,1.459-1.854,1.459h-6.199c-0.828,0-1.674-0.648-1.887-1.449l-7.783-29.211
			c-0.213-0.801-0.559-0.801-0.771,0l-7.754,29.211c-0.213,0.801-1.057,1.449-1.885,1.449h-6.404c-0.828,0-1.656-0.654-1.85-1.459
			l-9.557-40.031c-0.191-0.805,0.324-1.457,1.152-1.457h5.877c0.828,0,1.643,0.654,1.82,1.465l5.832,26.57
			c0.178,0.807,0.494,0.816,0.707,0.016l7.08-26.604c0.213-0.801,1.059-1.447,1.887-1.447h7.313c0.828,0,1.662,0.65,1.863,1.453
			l6.8,27.09c0.202,0.805,0.51,0.799,0.688-0.01l5.947-27.068c0.178-0.811,0.993-1.465,1.822-1.465h5.73
			C1866.718,5361.959,1867.232,5362.609,1867.035,5363.414z" style="stroke:black;fill:#f2f1f0"/><path id="278104716" parent_id="278104715" order="1472" structure_id="265505050" d="M3633.362,4613.894
			l-37.023-21.375c-1.076-0.623-2.82-0.623-3.896,0l-37.023,21.375c-1.076,0.621-1.947,2.133-1.947,3.375v42.75
			c0,1.244,0.871,2.754,1.947,3.375l37.023,21.375c1.076,0.619,2.82,0.619,3.896,0l37.023-21.375
			c1.076-0.621,1.949-2.131,1.949-3.375v-42.75C3635.311,4616.027,3634.438,4614.515,3633.362,4613.894z M3622.219,4618.626
			l-9.721,40.033c-0.195,0.807-1.025,1.459-1.854,1.459h-6.199c-0.828,0-1.674-0.648-1.887-1.449l-7.783-29.211
			c-0.213-0.801-0.559-0.801-0.771,0l-7.754,29.211c-0.213,0.801-1.057,1.449-1.885,1.449l22.521-14.404
			c-0.828,0-30.582,13.75-30.775,12.945l-9.557-40.031c-0.191-0.805,0.324-1.457,1.152-1.457h5.877c0.828,0,1.643,0.654,1.82,1.465
			l5.832,26.57c0.178,0.807,0.494,0.816,0.707,0.016l7.08-26.604c0.213-0.801,1.059-1.447,1.887-1.447h7.313
			c0.828,0,1.662,0.65,1.863,1.453l6.801,27.09c0.201,0.805,0.51,0.799,0.688-0.01l5.947-27.068
			c0.178-0.811,0.993-1.465,1.822-1.465h5.73C3621.903,4617.171,3622.417,4617.822,3622.219,4618.626z" style="stroke:black;fill:#f2f1f0"/><path id="278104720" parent_id="278104715" order="1550" structure_id="265505242" d="M3435.345,8283.268
			l-9.721,40.033c-0.195,0.807-1.025,1.459-1.854,1.459h-6.199c-0.828,0-1.674-0.648-1.887-1.449l-7.783-29.211
			c-0.213-0.801-0.559-0.801-0.771,0l-7.754,29.211c-0.213,0.801-1.057,1.449-1.885,1.449h-6.404c-0.828,0-1.656-0.654-1.85-1.459
			l-9.557-40.031c-0.191-0.805,0.324-1.457,1.152-1.457h5.877c0.828,0,1.643,0.654,1.82,1.465l5.832,26.57
			c0.178,0.807,0.494,0.816,0.707,0.016l7.08-26.604c0.213-0.801,1.059-1.447,1.887-1.447h7.313c0.828,0,1.662,0.65,1.863,1.453
			l6.801,27.09c0.201,0.805,0.51,0.799,0.688-0.01l5.947-27.068c0.178-0.811,0.993-1.465,1.822-1.465h5.73
			C3435.028,8281.813,3435.542,8282.463,3435.345,8283.268z M3446.487,8278.535l-37.023-21.375c-1.076-0.623-2.82-0.623-3.896,0
			l-37.023,21.375c-1.076,0.621-1.947,2.133-1.947,3.375v42.75c0,1.244,0.871,2.754,1.947,3.375l37.023,21.375
			c1.076,0.619,2.82,0.619,3.896,0l37.023-21.375c1.076-0.621,1.949-2.131,1.949-3.375v-42.75
			C3448.437,8280.668,3447.563,8279.156,3446.487,8278.535z" style="stroke:black;fill:#f2f1f0"/><path id="278104719" parent_id="278104715" order="1593" structure_id="9282" d="M5080.51,4881.29
			l-37.023-21.375c-1.076-0.623-2.82-0.623-3.896,0l-37.023,21.375c-1.076,0.621-1.947,2.133-1.947,3.375v42.75
			c0,1.244,0.871,2.754,1.947,3.375l37.023,21.375c1.076,0.619,2.82,0.619,3.896,0l37.023-21.375
			c1.076-0.621,1.949-2.131,1.949-3.375v-42.75C5082.459,4883.423,5081.586,4881.911,5080.51,4881.29z M5069.367,4886.022
			l-9.721,40.033c-0.195,0.807-1.025,1.459-1.854,1.459h-6.199c-0.828,0-1.674-0.648-1.887-1.449l-7.783-29.211
			c-0.213-0.801-0.559-0.801-0.771,0l-7.754,29.211c-0.213,0.801-1.057,1.449-1.885,1.449h-6.404c-0.828,0-1.656-0.654-1.85-1.459
			l-9.557-40.031c-0.191-0.805,0.324-1.457,1.152-1.457h5.877c0.828,0,1.643,0.654,1.82,1.465l5.832,26.57
			c0.178,0.807,0.494,0.816,0.707,0.016l7.08-26.604c0.213-0.801,1.059-1.447,1.887-1.447h7.313c0.828,0,1.662,0.65,1.863,1.453
			l6.801,27.09c0.201,0.805,0.51,0.799,0.688-0.01l5.947-27.068c0.178-0.811,0.993-1.465,1.822-1.465h5.73
			C5069.051,4884.567,5069.564,4885.218,5069.367,4886.022z" style="stroke:black;fill:#f2f1f0"/><path id="278104718" parent_id="278104715" order="1593" structure_id="9282" d="M3715.202,3275.388
			l-37.023-21.375c-1.076-0.623-2.82-0.623-3.896,0l-37.023,21.375c-1.076,0.621-1.947,2.133-1.947,3.375v42.75
			c0,1.244,0.871,2.754,1.947,3.375l37.023,21.375c1.076,0.619,2.82,0.619,3.896,0l37.023-21.375
			c1.076-0.621,1.949-2.131,1.949-3.375v-42.75C3717.151,3277.521,3716.278,3276.009,3715.202,3275.388z M3704.059,3280.12
			l-9.721,40.033c-0.195,0.807-1.025,1.459-1.854,1.459h-6.199c-0.828,0-1.674-0.648-1.887-1.449l-7.783-29.211
			c-0.213-0.801-0.559-0.801-0.771,0l-7.754,29.211c-0.213,0.801-1.057,1.449-1.885,1.449h-6.404c-0.828,0-1.656-0.654-1.85-1.459
			l-9.557-40.031c-0.191-0.805,0.324-1.457,1.152-1.457h5.877c0.828,0,1.643,0.654,1.82,1.465l5.832,26.57
			c0.178,0.807,0.494,0.816,0.707,0.016l7.08-26.604c0.213-0.801,1.059-1.447,1.887-1.447h7.313c0.828,0,1.662,0.65,1.863,1.453
			l6.801,27.09c0.201,0.805,0.51,0.799,0.688-0.01l5.947-27.068c0.178-0.811,0.993-1.465,1.822-1.465h5.73
			C3703.743,3278.665,3704.256,3279.315,3704.059,3280.12z" style="stroke:black;fill:#f2f1f0"/><path id="278104717" parent_id="278104715" order="1593" structure_id="9282" d="M2289.709,3321.979
			l-37.023-21.375c-1.076-0.623-2.82-0.623-3.896,0l-37.023,21.375c-1.076,0.621-1.947,2.133-1.947,3.375v42.75
			c0,1.244,0.871,2.754,1.947,3.375l37.023,21.375c1.076,0.619,2.82,0.619,3.896,0l37.023-21.375
			c1.076-0.621,1.949-2.131,1.949-3.375v-42.75C2291.659,3324.111,2290.786,3322.6,2289.709,3321.979z M2278.567,3326.711
			l-9.721,40.033c-0.195,0.807-1.025,1.459-1.854,1.459h-6.199c-0.828,0-1.674-0.648-1.887-1.449l-7.783-29.211
			c-0.213-0.801-0.559-0.801-0.771,0l-7.754,29.211c-0.213,0.801-1.057,1.449-1.885,1.449h-6.404c-0.828,0-1.656-0.654-1.85-1.459
			l-9.557-40.031c-0.191-0.805,0.324-1.457,1.152-1.457h5.877c0.828,0,1.643,0.654,1.82,1.465l5.832,26.57
			c0.178,0.807,0.494,0.816,0.707,0.016l7.08-26.604c0.213-0.801,1.059-1.447,1.887-1.447h7.313c0.828,0,1.662,0.65,1.863,1.453
			l6.801,27.09c0.201,0.805,0.51,0.799,0.688-0.01l5.947-27.068c0.178-0.811,0.993-1.465,1.822-1.465h5.73
			C2278.25,3325.256,2278.764,3325.906,2278.567,3326.711z" style="stroke:black;fill:#f2f1f0"/><path id="278104723" parent_id="278104715" order="1599" structure_id="9285" d="M4123.164,7027.351
			l-37.023-21.375c-1.076-0.623-2.82-0.623-3.896,0l-37.023,21.375c-1.076,0.621-1.947,2.133-1.947,3.375v42.75
			c0,1.244,0.871,2.754,1.947,3.375l37.023,21.375c1.076,0.619,2.82,0.619,3.896,0l37.023-21.375
			c1.076-0.621,1.949-2.131,1.949-3.375v-42.75C4125.113,7029.483,4124.24,7027.972,4123.164,7027.351z M4112.021,7032.083
			l-9.721,40.033c-0.195,0.807-1.025,1.459-1.854,1.459h-6.199c-0.828,0-1.674-0.648-1.887-1.449l-7.783-29.211
			c-0.213-0.801-0.559-0.801-0.771,0l-7.754,29.211c-0.213,0.801-1.057,1.449-1.885,1.449h-6.404c-0.828,0-1.656-0.654-1.85-1.459
			l-9.557-40.031c-0.191-0.805,0.324-1.457,1.152-1.457h5.877c0.828,0,1.643,0.654,1.82,1.465l5.832,26.57
			c0.178,0.807,0.494,0.816,0.707,0.016l7.08-26.604c0.213-0.801,1.059-1.447,1.887-1.447h7.313c0.828,0,1.662,0.65,1.863,1.453
			l6.801,27.09c0.201,0.805,0.51,0.799,0.688-0.01l5.947-27.068c0.178-0.811,0.993-1.465,1.822-1.465h5.73
			C4111.705,7030.628,4112.219,7031.278,4112.021,7032.083z" style="stroke:black;fill:#f2f1f0"/></g>
<g id="278104704" order="14" parent_id="" graphic_group_label_id="266932196" graphic_group_label="Atlas - Human Sulci" sub_image_id="102291571" transform=" scale(7.0, 7.0)"><path id="278104705" parent_id="278104704" order="1764" structure_id="9404" d="M1022.293,6406.49c0.273,0.522,15.436-38.258,15.436-38.258
			s-17.313-37.156-16.809-37.686c0.505-0.526,90.895,35.597,90.672,36.352C1111.37,6367.652,1022.02,6405.967,1022.293,6406.49z" style="stroke:black;fill:#6d6e70"/><path id="278104713" parent_id="278104704" order="1770" structure_id="9364" d="M924.68,4173.873c0.273,0.522,15.436-38.258,15.436-38.258
			s-17.313-37.157-16.809-37.685c0.505-0.527,90.895,35.596,90.672,36.351C1013.757,4135.035,924.407,4173.35,924.68,4173.873z" style="stroke:black;fill:#6d6e70"/><path id="278104712" parent_id="278104704" order="1770" structure_id="9364" d="M1108.102,8866.075c0.406,0.428,4.336-41.026,4.336-41.026
			s-26.853-30.972-26.513-31.618c0.34-0.645,97.175,9.263,97.168,10.049C1183.086,8804.266,1107.696,8865.647,1108.102,8866.075z" style="stroke:black;fill:#6d6e70"/><path id="278104708" parent_id="278104704" order="1773" structure_id="9357" d="M7656.883,4423.912c-0.258-0.531-16.521,37.802-16.521,37.802
			s16.246,37.635,15.728,38.147c-0.521,0.514-89.843-38.172-89.599-38.92S7657.141,4424.441,7656.883,4423.912z" style="stroke:black;fill:#6d6e70"/><path id="278104710" parent_id="278104704" order="1773" structure_id="9357" d="M7297.721,3715.178c-0.457-0.373,0.896,41.245,0.896,41.245
			s30.559,27.32,30.305,28.005c-0.256,0.683-97.566,3.123-97.658,2.342C7231.17,3785.988,7298.178,3715.55,7297.721,3715.178z" style="stroke:black;fill:#6d6e70"/><path id="278104709" parent_id="278104704" order="1773" structure_id="9357" d="M7795.717,5598.908c-0.4-0.432-4.825,40.972-4.825,40.972
			s26.478,31.291,26.132,31.935c-0.349,0.641-97.059-10.426-97.04-11.212C7720,5659.815,7796.117,5599.341,7795.717,5598.908z" style="stroke:black;fill:#6d6e70"/><path id="278104714" parent_id="278104704" order="1777" structure_id="9361" d="M2177.004,10412.885c0.497-0.316-39.441-12.094-39.441-12.094
			s-35.533,20.438-36.102,19.98c-0.569-0.457,27.659-93.613,28.43-93.457C2130.661,10327.473,2176.507,10413.201,2177.004,10412.885
			z" style="stroke:black;fill:#6d6e70"/><path id="278104707" parent_id="278104704" order="1778" structure_id="9360" d="M4143.178,9298.592c0.284-0.519-40.399,8.354-40.399,8.354
			s-21.333,35.003-22.053,34.876c-0.717-0.127-20.746-95.385-19.996-95.616C4061.481,9245.971,4142.896,9299.107,4143.178,9298.592z
			" style="stroke:black;fill:#6d6e70"/><path id="278104706" parent_id="278104704" order="1778" structure_id="9360" d="M6161.961,8592.007c0.284-0.519-40.399,8.354-40.399,8.354
			s-21.333,35.003-22.053,34.876c-0.717-0.127-20.746-95.385-19.996-95.616C6080.265,8539.386,6161.679,8592.522,6161.961,8592.007z
			" style="stroke:black;fill:#6d6e70"/><path id="278104711" parent_id="278104704" order="1782" structure_id="9356" d="M3774.798,1124.59c-0.565-0.169,16.661,37.74,16.661,37.74
			s38.706,13.497,38.733,14.227c0.026,0.729-88.893,40.336-89.277,39.65C3740.529,1215.522,3775.364,1124.758,3774.798,1124.59z" style="stroke:black;fill:#6d6e70"/></g>
</g>
</svg>