<svg width="454" height="678" xmlns="http://www.w3.org/2000/svg">
<g transform="scale(0.015625)">
<g id="278102948" order="11" parent_id="" graphic_group_label_id="265297119" graphic_group_label="Atlas - Human" sub_image_id="102339919" transform=" scale(7.0, 7.0)"><path id="278102950" parent_id="278102948" order="1426" structure_id="9219" d="
			M2156.984,1779.622c-35.405-18.976-77.649-17.681-116.772-18.39c-83.418-1.515-165.993-1.377-249.298,2.681
			c-20.518,1-40.294,2.177-60.91,1.17c-18.742-0.914-36.661,2.96-55.502,2.892c-20.787-0.076-41.255,0.767-61.891,3.203
			c-32.043,3.784-64.217,0.821-96.359,0.821c-35,0.001-67.224,3.172-100.749,8.003c-48.664,7.013-99.819-5.339-148.002-12
			c-14.048-1.941-28.537-2.375-42.427-5.262c-12.928-2.688-24.208-10.146-37.064-13.252c-24.477-5.916-44.15-9.741-66.559-21.235
			c-9.895-5.076-18.316-10.328-27.909-15.989c-18.41-10.868-37.552-20.01-54.136-34.293c-16.003-13.782-32.063-26.397-42.604-45.238
			c-10.953-19.577-14.624-44.31-18.812-66.238c-2.502-13.099-3.461-27.863-3.497-41.471c-0.106-40.019,18.656-77.156,33.73-113.018
			c10.559-25.116,24.699-48.337,37.023-73.063c24.552-49.261,57.672-90.591,88.996-135.163
			c17.502-24.904,57.141-61.883,52.048-95.57c-2.13-14.086-13.236-32.17-23.759-42.75c-13.191-13.264-32.771-19.981-47.169-32.395
			c-14.777-12.74-30.229-25.43-42.052-41.103c-10.878-14.418-17.002-32.108-29.768-45.147
			c-14.135-14.438-32.936-23.444-52.271-28.596c-26.502-7.063-48.354,0.133-62.778,23.784c-9.62,15.773-16.184,30.331-17.737,48.987
			c-3.172,38.093-1.45,78.374-8.75,115.504c-3.849,19.579-9.23,38.455-13.978,57.757c-4.377,17.803-13.063,33.692-18.425,51.333
			c-4.785,15.749-6.695,33.278-9.16,49.367c-2.932,19.127-4.759,38.396-6.97,57.612c-3.48,30.25-11.286,60.417-17.56,90.216
			c-4.086,19.413-5.799,38.47-14.298,56.758c-8.563,18.425-15.614,35.674-22.024,54.973
			c-14.945,44.993-24.836,90.921-38.033,136.545c-3.766,13.02-7.905,26.689-10.004,39.995c-5.266,33.391,1.557,66.934,13.076,98.302
			c6.27,17.072,11.315,35.344,21.995,50.342c10.506,14.755,30.352,23.949,47.32,29.37c18.359,5.865,34.344,9.671,53.735,10.701
			c12.159,0.646,25.938,2.875,38.813,2.228c34.634-1.739,70.319-3.406,104.604-8.313c29.646-4.242,58.438-13.249,88.236-16.556
			c28.294-3.139,57.496-1.125,85.938-1.125c11.229,0,23.946,0.507,34.998-1.222c10.075-1.575,18.218-7.792,28.725-8.815
			c36.663-3.573,74.201-2.396,111.073-3.252c39.155-0.911,78.431-1.403,117.453,2.521c80.864,8.128,163.602,10.775,244.973,6.717
			c56.906-2.838,113.973,1.083,170.988,1.054c41.623-0.021,83.392-0.466,123.037,8.002c35.293,7.535,67.247-4.342,101.456-12
			c14.515-3.248,29.029-8.923,40.636-19.031c12.252-10.671,22.205-21.035,10.937-36.098
			C2181.6,1793.244,2168.487,1785.787,2156.984,1779.622z" style="stroke:black;fill:#f2f1f0"/><path id="278102949" parent_id="278102948" order="1426" structure_id="9219" d="
			M3285.939,2573.491c-13.696-19.658-43.791-25.263-65.813-24.208c-19.942,0.955-37.799,5.813-56.685,12.709
			c-9.152,3.342-18.074,6.521-26.781,10.182c-9.354,3.934-17.586,10.23-26.755,14.284c-10.059,4.446-20.015,10.297-29.404,16.039
			c-12.366,7.56-22.979,16.707-35.169,24.518c-14.256,9.136-29.479,16.827-42.835,27.317c-9.114,7.158-18.185,14.383-27.476,21.665
			c-10.361,8.12-21.289,14.399-31.369,22.536c-11.78,9.507-25.598,16.306-39.235,22.697c-5.585,2.618-11.259,3.51-16.785,5.828
			c-7.026,2.949-12.844,8.465-19.946,11.443c-14.431,6.053-29.424,12.111-43.851,16.669c-20.685,6.532-42.027,12.368-62.229,19.678
			c-21.756,7.872-43.736,16.024-66.719,19.485c-6.796,1.022-13.432,2.521-20.4,2.854c-37.644,1.791-73.063,12.139-109.313,22.657
			c-18.799,5.456-37.975,12.793-57.063,16.877c-15.329,3.28-30.622,6.435-46.087,9.24c-28.508,5.172-55.95,13.185-84.521,18.095
			c-10.659,1.833-20.177,6.43-30.558,9.044c-11.856,2.987-24.155,3.682-36.278,4.885c-25.828,2.564-52.146,4.084-77.972,5.349
			c-6.364,0.312-12.783,0.651-19.002,0.334c-20.13-1.039-40.385,0.152-60.492,1.148c-14.525,0.719-29.594,0.005-44.025,1.434
			c-13.097,1.295-26.561,1.029-39.764,1.15c-26.977,0.246-53.962-0.145-80.912-1.402c-13.272-0.619-26.435-3.228-39.521-5.136
			c-13.24-1.931-27.194-0.289-40.696-1.748c-14.252-1.541-28.442-3.76-42.776-4.446c-10.002-0.479-19.703-2.99-29.637-3.908
			c-8.333-0.77-17.396-0.17-25.404-3.243c-9.078-3.485-16.057-8.382-25.634-10.32c-11.193-2.265-21.625-2.636-33.012-3.183
			c-30.317-1.457-60.132-10.485-89.985-15.348c-10.878-1.771-22.496-5.652-33.064-8.603c-12.198-3.405-23.942-7.534-36.251-10.65
			c-18.382-4.653-36.996-8.726-55.145-14.241c-26.358-8.01-52.637-15.321-79.351-22.051c-28.479-7.174-56.378-17.527-84.204-26.475
			c-17.696-5.688-34.75-11.641-52.075-18.486c-9.453-3.735-22.599-3.419-32.56-2.119c-20.181,2.635-47.429,21.036-38.409,44.62
			c5.662,14.804,22.229,25.603,33.4,36.024c7.936,7.402,17.33,12.644,25.66,19.646c17.032,14.318,33.146,30.07,49.668,44.982
			c6.261,5.649,9.854,12.644,16.3,18.168c16.362,14.023,31.198,35.034,43.708,52.491c8.587,11.982,17.191,24.035,24.475,36.664
			c7.135,12.373,16.208,26.8,19.338,40.541c10.364,45.481,18.004,93.034,8.533,139.493c-4.001,19.627-7.439,40.483-14.543,59.22
			c-6.672,17.602-22.084,32.045-33.645,46.509c-12.095,15.133-24.104,29.939-36.484,44.93
			c-8.903,10.778-18.745,20.238-27.864,30.856c-8.729,10.164-15.582,21.5-24.819,31.146c-15.162,15.834-31.104,30.461-46.679,46.031
			c-13.05,13.046-28.934,23.308-43.286,34.786c-10.912,8.728-21.79,16.353-33.033,24.852c-14.021,10.597-27.998,21.032-41.875,31.73
			c-18.688,14.406-38.852,28.67-60.735,37.99c-26.082,11.11-52.089,22.648-79.767,29.195c-22.767,5.385-44.861,12.829-66.412,21.92
			c-44.966,18.967-94.654,42.257-123.704,83.335c-19.346,27.354-12.009,57.912-5.973,87.486c1.746,8.554,3.313,16.998,5.646,25.165
			c7.7,26.938,15.438,53.605,20.456,81.199c4.854,26.697,6.683,55.188,8.032,82.321c2.033,40.893,5.755,81.438,8.106,122.278
			c0.946,16.434-0.073,32.837-0.109,49.318c-0.067,31.213,4.034,63.625-0.611,94.674c-5.875,39.256-14.867,78.154-28.228,115.563
			c-9.329,26.121-23.445,50.771-36.492,75.816c-19.738,37.894-34.598,76.902-49.187,117.004
			c-11.874,32.637-17.253,66.186-22.146,100.336c-1.093,7.617-1.273,15.488-2.003,22.998c-1.509,15.506-4.868,31.396-8.52,46.147
			c-3.271,13.222-2.925,25.341-5.003,38.5c-4.846,30.683-3.808,63.075-3.807,94.067c0.002,46.135,7.045,90.986,11.992,136.621
			c0.73,6.737,2.221,13.375,3.188,19.996c3.854,26.375,11.229,53.227,18.87,78.734c5.464,18.24,12.025,36.699,18.598,54.615
			c6.55,17.854,10.597,35.805,17.783,53.598c11.116,27.525,38.992,77.864,75.495,67.006c4.052-1.205,7.873-2.783,11.955-4.066
			c4.387-5.354,12.576-8.573,17.613-14.372c5.233-6.026,9.548-14.263,12.697-21.51c6.505-14.97,8.642-33.345,11.153-49.321
			c5.637-35.852,7.313-73.074,7.319-110.026c0.004-31.569,4.665-62.853,4.665-94.319c0-35.121,4.699-70.182,4.666-105.334
			c-0.023-23.205,2.178-48.644,7.498-71c2.537-10.664,4.066-23.006,5.171-33.998c0.888-8.838,1.893-18.203,3.184-26.811
			c2.707-18.046,4.718-36.863,8.866-54.908c5.818-25.307,12.187-51.458,19.926-76.309c7.029-22.57,16.873-45.813,26.019-67.955
			c10.018-24.256,19.573-48.73,31.654-71.655c14.311-27.153,30.3-49.992,49.949-73.384c13.628-16.225,27.854-31.32,42.382-46.625
			c6.905-7.273,14.063-14.4,21.233-21.555c11.104-11.076,22.311-21.785,32.776-33.471c23.114-25.803,45.188-51.82,67.687-78.002
			c22.396-26.064,42.164-55.38,60.322-84.666c9.447-15.238,15.698-30.821,22.843-47.071c7.375-16.775,9.959-34.996,15.013-52.491
			c5.271-18.246,15.938-32.868,24.119-49.752c8.95-18.471,21.786-36.266,33.556-53.356c10.197-14.812,20.891-29.228,30.654-44.468
			c21.316-33.272,47.675-62.525,76.514-89.52c10.479-9.809,20.859-19.994,32.31-28.646c19.056-14.398,36.437-36.873,59.639-44.568
			c7.562-2.508,15.75-2.862,22.856-5.964c14.277-6.231,27.871-13.976,40.053-23.711c1.436-1.147,3.065-1.685,4.442-2.829
			c1.481-1.232,2.477-3.021,3.813-4.4c1.822-1.878,3.438-3.941,4.858-6.146c2.621-4.064,4.807-8.392,6.394-12.825
			c3.037-8.487,2.523-18.344,2.291-27.257c-0.105-4.081-0.216-8.301-0.019-12.43c0.398-8.366,1.03-17.147,1.64-25.64
			c0.631-8.791,1.284-17.882,1.696-26.685c0.385-8.211,0.474-16.491,0.561-24.499c0.101-9.25,0.203-18.815,0.767-28.202
			c1.246-20.752,4.705-51.845,14.108-82.127c1.546-4.977,2.939-9.993,4.288-14.847c1.747-6.287,3.554-12.789,5.77-19.528
			c7.392-22.487,18.328-45.975,31.623-67.919c15.804-26.086,30.573-47.849,45.151-66.531c2.89-3.704,5.788-7.525,8.591-11.223
			c6.271-8.271,12.758-16.825,19.622-24.676c4.281-4.896,8.707-9.69,12.984-14.326c5.545-6.009,11.28-12.222,16.674-18.633
			c25.599-30.427,54.976-53.335,89.811-70.034c14.569-6.984,29.163-13.428,42.762-19.352c31.855-13.873,66.053-22.584,99.123-31.009
			c27.63-7.038,56.205-9.873,83.84-12.616l3.795-0.377c3.926-0.391,7.998-0.858,11.937-1.313c8.398-0.967,17.085-1.967,25.499-2.362
			c60.581-2.844,120.771-10.884,181.57-13.392c16.605-0.685,31.322-4.299,47.691-6.745c16.438-2.456,33.038-3.476,49.559-5.206
			c23.699-2.482,47.225-5.546,71.168-5.546c10.49,0,20.086,0.5,29.33,1.53c18.657,2.078,37.289,6.086,55.307,9.961
			c5.23,1.125,10.642,2.289,15.928,3.377c5.911,1.218,11.727,1.81,17.775,1.81c9.181,0,17.869-1.301,29.143-3.139
			c10.768-1.755,21.179-4.474,32.2-7.352l2.268-0.592c11.739-3.06,23.87-6.873,35.602-10.56
			c14.273-4.487,28.733-8.373,43.173-12.869c10.054-3.131,19-7.694,28.55-11.776c19.911-8.512,37.538-19.215,56.503-29.674
			c12.708-7.009,25.451-14.815,36.848-23.796c1.213-0.955,2.438-1.898,3.632-2.869c36.335-29.561,67.716-64.837,102.816-95.964
			c23.782-21.089,49.627-39.731,75.345-57.348c39.744-27.228,81.438-53.397,117.336-85.828
			c21.289-19.233,34.86-46.635,43.325-73.719C3290.845,2604.313,3295.066,2586.591,3285.939,2573.491z" style="stroke:black;fill:#f2f1f0"/><path id="278102951" parent_id="278102948" order="1426" structure_id="9219" d="
			M2983.167,3309.448c-0.774-14.914-1.926-28.837-2.66-43.788c-0.604-12.288-1.063-24.821-1.446-36.954
			c-0.286-9.03,2.504-19.88-7.121-25.083c-4.353-2.353-9.683-2.766-14.532-2.493c-5.189,0.291-10.856,1.397-15.418,4.007
			c-0.884,0.506-3.593,2.313-4.593,1.526c-0.098-0.077-0.177-0.159-0.242-0.244c-0.066-0.082-0.117-0.169-0.161-0.257
			c-9.476,7.697-18.402,16.059-26.471,25.232c-12.037,13.688-22.695,29.686-27.955,47.31c-2.423,8.116-3.281,16.698-5.269,24.938
			c-3.998,16.581-10.312,32.324-18.726,47.161c-19.438,34.271-41.097,66.033-64.767,97.487
			c-11.945,15.875-24.626,31.345-37.808,46.209c-7.943,11.59-18.167,21.7-28.365,31.287c-22.685,21.321-47.104,40.952-72.009,59.61
			c-10.297,7.713-20.755,15.195-31.081,22.861c-13.228,9.82-28.703,15.984-41.792,25.978c-5.621,4.292-11.891,8.768-15.01,15.337
			c-1.659,3.492-2.391,7.583-2.568,11.753c2.966,0.809,5.471,3.891,7.986,6.62c0.022,0.023,0.045,0.048,0.066,0.07
			c0.191,0.209,0.383,0.411,0.575,0.612c0.061,0.063,0.12,0.127,0.181,0.189c0.229,0.235,0.455,0.468,0.684,0.689
			c2.573,2.511,5.457,4.769,8.326,6.668c19.163,12.684,47.252,9.963,69.049,11.625c26.769,2.042,53.577,4.908,80.457,3.567
			c36.815-1.837,71.323,4.295,107.668,10.572c12.604,2.179,25.705,1.732,38.252-1.146c23.689-5.438,45.409-19.554,58.09-41.085
			c4.432-7.526,8.483-15.807,11.799-23.966c19.521-48.042,27.052-102.372,32.191-153.744c1.132-11.302,4.187-22.405,4.683-33.773
			c0.457-10.463-0.025-20.968,0.503-31.562c0.779-15.646,0.229-31.873-0.533-47.332
			C2984.164,3349.355,2984.203,3329.396,2983.167,3309.448z" style="stroke:black;fill:#f2f1f0"/></g>
<g id="278102952" order="12" parent_id="" graphic_group_label_id="266932194" graphic_group_label="Atlas - Human Gyri" sub_image_id="102339919" transform=" scale(7.0, 7.0)"><path id="278102953" parent_id="278102952" order="12" structure_id="4889" d="
			M3926.503,2342.998c-3.639-37.379-11.198-71.425-20.669-107.664c-7.386-28.26-17.143-56.184-28-83.333
			c-7.148-17.875-17.801-35.421-28.048-51.601c-8.095-12.778-24.211-25.166-36.132-34.235
			c-12.188-9.272-24.029-18.438-36.853-26.763c-20.478-13.293-43.556-16.732-64.323-30.105
			c-12.163-7.832-25.354-13.354-37.97-20.479c-25.844-14.596-43.152-45.966-44.649-75.508c-0.771-15.259,0.83-30.495-1.306-45.48
			c-2.146-15.053-1.562-30.697-3.204-45.862c-3.33-30.729-10.158-61.131-23.204-89.277c-13.135-28.34-23.841-57.684-36.229-86.357
			c-8.494-19.66-18.201-38.714-27.38-58.104c-9.701-20.493-20.903-40.338-34.201-58.725c-13.437-18.579-28.764-35.391-43.568-52.838
			c-15.037-17.721-29.485-35.771-47.63-50.515c-22.557-18.331-43.014-38.034-67.303-54.149c-7.637-5.063-15.633-8.443-23.972-11.842
			c-9.728-3.964-18.564-10.091-28.845-12.679c-13.772-3.467-25.943-4.476-38.683-11.999c-8.666-5.117-17.383-7.329-26.347-11.633
			c-4.914-2.358-10.03-4.51-14.653-6.709c-13.712-6.52-28.797-9.824-42.821-15.328c-34.754-13.639-72.422-26.418-108.664-35.145
			c-14.666-3.531-29.123-6.942-44.034-10.001c-17.261-3.54-34.296-5.564-51.55-8.53c-21.508-3.697-43.176-6.348-64.769-9.48
			c-13.222-1.918-26.692-4.806-39.992-5.321c-13.784-0.536-27.226-0.651-40.614-1.996c-15.068-1.515-30.246-2.009-45.396-3.513
			c-65.161-6.469-138.581,5.291-198.957,31.008c-18.107,7.713-37.324,12.003-54.718,21.451
			c-14.605,7.934-27.757,19.298-40.368,30.056c-20.607,17.582-47.852,26.594-72.203,37.256
			c-33.563,14.694-68.245,27.735-102.759,39.775c-22.578,7.877-48.353,13.438-72,18.465c-11.615,2.469-23.363,4.583-35,6.943
			c-34.252,6.95-69.095,12.098-103.869,15.845c-62.774,6.764-125.877,10.525-188.946,13.217
			c-31.658,1.352-63.577,2.509-95.154,2.993c-142.436-4.13-262.439,12.646-338.049,27.442
			c-81.933,16.036-130.828,33.27-131.312,33.441c-0.221,0.078-0.447,0.116-0.67,0.116c-0.822,0-1.593-0.511-1.884-1.331
			c-0.37-1.041,0.173-2.185,1.214-2.555c0.486-0.173,49.591-17.485,131.786-33.578c75.827-14.847,196.181-31.679,338.942-27.536
			c32.218-0.522,64.435-1.677,96.625-3.061c63.422-2.725,126.887-6.538,190.003-13.448c27.256-2.983,54.387-7.097,81.271-12.5
			c11.46-2.305,23.698-3.158,34.862-6.385c16.305-4.71,32.588-11.955,48.222-18.501c18.19-7.616,37.239-12.289,55.223-20.464
			c19.916-9.053,40.195-16.861,60.267-25.343c21.213-8.964,39.257-24.547,58.73-36.546c14.115-8.696,24.507-24.735,31.96-39.512
			c7.924-15.709,12.965-32.057,19.407-48.221c6.13-15.379,14.458-29.738,21.085-44.89c5.311-12.142,6.873-28.263,8.288-41.646
			c1.871-17.71,3.957-37.329,0.222-54.714c-0.573-2.671-1.509-5.464-1.998-8.01c-4.096-21.494-8.527-43.487-14.001-64.766
			c-4.434-17.234-10.27-33.106-16.251-49.971c-8.158-23.002-21.452-39.998-35.699-59.414c-15.384-20.963-30.44-42.519-50.247-59.643
			c-18.99-16.419-38.972-30.571-60.26-43.769c-17.72-10.985-38.954-25.517-36.771-49.203c1.957-21.24,9.904-41.534,11.782-62.997
			c1.91-21.84,4.177-43.327,5.218-65.498c2.424-51.738-14.09-93.49-46.992-132.015c-8.188-9.585-16.601-19.352-25.251-28.468
			c-22.705-23.922-46.917-48.039-71.278-70.394c-19.306-17.716-44.55-29.813-66.661-43.463
			c-32.127-19.837-72.64-34.4-110.311-38.168c-10.531-1.052-21.07-1.97-31.499-2.996c-33.596-3.305-63.167,0.275-95.275,10.001
			c-24.204,7.331-45.303,18.811-68.704,27.971c-37.049,14.501-72.487,33.662-110.018,46.781
			c-24.245,8.474-50.359,18.376-76.008,22.473c-15.481,2.475-32.077,3.367-47.419,5.854c-21.45,3.476-42.794,7.527-63.563-1.104
			c-26.31-10.934-50.087-27.315-75.979-39.254c-28.161-12.982-55.107-34.455-80.663-52.239
			c-58.429-40.659-109.339-88.424-163.884-133.486c-19.092-15.771-37.025-34.491-57.704-47.808
			c-23.234-14.963-50.978-21.339-76.249-32.65c-31.2-13.965-58.916-25.043-93.02-26.734c-24.382-1.209-47.422-1.985-72.076-0.806
			c-20.208,0.967-40.229,3.146-60.431,5.505c-10.885,1.271-21.661,2.49-32.521,3.493c-25.209,2.326-49.038,4.681-73.473,10.058
			c-46.523,10.237-94.881,25.442-134.513,54.443c-26.904,19.688-54.778,41.142-77.269,65.754
			c-22.817,24.973-41.567,48.842-59.487,77.494c-41.708,66.685-62.813,143.122-73.994,221.015
			c-2.526,17.598-5.372,35.964-10.021,52.989c-7.836,28.699-11.744,59.532-14.735,89.257c-2.593,25.774-8.831,51.101-10.023,76.991
			c-2.48,53.824-5.718,107.138-2.998,162.009c1.732,34.937,6.992,69.643,8.982,104.532c1.028,18.025,3.206,37.099,5.041,55.459
			c3.857,38.604,1.874,80.283-2.001,119.005c-1.039,10.384-0.931,21.414-2.006,31.996c-3.711,36.491-16.393,69.11-25.774,104.218
			c-6.544,24.491-16.49,47.698-24.196,71.742c-12.438,38.806-15.435,78.675-24.244,118.046c-4.688,20.951-3.341,44.044-3.667,65.276
			c-0.313,20.368-8.177,39.822-7.112,60.721c2.062,40.463,3,81.021,3,121.498c0,38.043,5.13,74.77,7.916,111.961
			c1.028,13.73,1.942,26.31,3.999,40.043c4.854,32.406,8.776,64.035,17.084,95.498c2.113,8.003,4.141,15.372,6.056,22.944
			c3.075,12.163,2.081,25.457,4.846,37.854c3.188,14.292,9.006,27.855,12.127,42.17c1.997,9.158,3.691,19.103,7.213,28.002
			c7.381,18.647,17.401,35.417,24.549,54.562c7.982,21.382,16.205,42.989,29.305,61.858c12.574,18.111,24.249,36.861,37.499,54.5
			c12.01,15.988,25.2,28.029,39.433,41.84c28.139,27.307,54.924,54.843,89.015,74.766c21.513,12.572,45.271,17.191,68.952,23.506
			c23.152,6.173,46.778,5.877,70.002-0.029c6.667-1.695,13.038-2.814,19.778-5.207c13.482-4.786,26.147-12.118,38.455-19.484
			c24.743-14.809,48.808-30.479,73.059-45.038c42.266-25.371,83.476-53.397,122.956-83.02
			c13.359-10.024,27.937-18.152,41.462-27.856c17.95-12.878,36.03-20.932,56.818-27.891c23.419-7.84,46.367-20.323,70.399-25.536
			c24.836-5.388,50.244-11.627,75.577-13.978c28.761-2.666,58.339-3.507,87.501-4.963c18.465-0.922,34.744-0.823,52.996,1.006
			c19.174,1.922,38.149-3.158,57.172-1.827c17.293,1.21,34.742,5.059,52.253,5.819c19.815,0.859,39.554,3.508,59.161,4.004
			c22.168,0.563,45.924,7.196,67.411,11.496c11.139,2.228,21.807,4.736,32.594,7.592c54.743,14.488,112.059,26.792,168.306,33.57
			c27.564,3.322,56.922,11.203,85.332,15.404c29.095,4.303,58.265,7.383,87.188,12.901c23.229,4.433,45.655,13.911,68.955,16.937
			c22.457,2.916,45.23,0.123,67.634-1.927c8.135-0.744,15.592,0.79,23.002,0.014c8.591-0.898,17.036-3.349,25.747-4.044
			c18.396-1.468,36.773-1.242,55.247-1.947c9.658-0.369,18.299,0.336,28.005,1.778c28.591,4.25,57.542,5.233,86.507,5.233
			c27.896,0,54.5-1.239,81.993-3.973c9.727-0.968,19.813-0.891,29.547-1.984c46.098-5.186,89.57-8.457,134.49-20.932
			c22.078-6.13,44.991-9.471,66.455-17.878c34.521-13.522,68.87-27.802,100.468-45.744c26.336-14.954,53.11-27.51,78.808-43.25
			c11.45-7.014,22.989-14.802,34.468-21.517c22.135-12.947,47.185-19.24,72.258-21.733c21.776-2.167,40.813-4.983,62.461-0.909
			c8.006,1.508,38.353,6.71,29.803,20.965c-5.094,8.493-25.716,9.795-34.173,10.996c-12.743,1.81-25.663,3.231-38.093,4.964
			c-10.125,1.409-20.081,2.792-30.032,4.461c-9.165,1.537-21.813,0.604-27.23,9.53c-2.908,4.793-4.158,11.184-5.629,16.512
			c-1.621,5.869-2.517,10.581-3.088,16.986c-1.373,15.375,1.937,30.961,1.983,46.457c0.047,15.214-6.045,33.685-13.006,46.648
			c-7.792,14.507-9.954,20.079-25.295,27.111c-13.819,6.335-28.944,9.086-43.209,14.181c-24.662,8.808-48.273,18.21-71.456,29.851
			c-26.227,13.166-55.041,23.903-82.842,33.701c-29.201,10.292-58.635,20.024-87.191,32.045
			c-18.239,7.678-39.999,11.747-59.023,17.471c-10.492,3.157-20.867,4.889-31.724,7.754c-21.129,5.58-42.039,11.604-63.299,16.664
			c-18.999,4.522-39.338,3.629-58.903,4.614c-26.862,1.354-53.594,3.673-80.498,4.994c-34.646,1.702-68.418-0.529-102.531,2.998
			c-36.835,3.812-72.163,0.889-109.055,1.009c-62.054,0.203-122.357-7.094-183.189-19.246c-21.269-4.249-43.437-6.117-64-11.531
			c-21.632-5.696-44.651-6.297-66.58-11.975c-21.146-5.477-41.099-16.291-63.238-15.148c-30.532,1.574-57.339-12.218-86.95-18.131
			c-14.857-2.967-29.892-5.619-44.51-7.931c-34.968-5.528-70.785-4.385-105.468-11.366c-35.257-7.099-71.13-7.248-106.898-9.291
			c-29.687-1.696-59.209-2.379-88.927-2.384c-38.169-0.006-75.468,0.179-113.077,6.827c-38.997,6.893-78.163,7.554-116.701,16.171
			c-15.885,3.552-31.908,6.228-47.673,10.362c-18.976,4.976-38.826,6.044-57.948,10.861c-15.945,4.019-31.307,9.942-46.97,14.414
			c-16.618,4.742-33.333,8.427-48.865,16.354c-19.7,10.053-41.854,22.61-58.818,37.309c-26.012,22.539-38.694,48.202-45.338,81.982
			c-3.208,16.314-1.379,31.85,0.21,48.417c2.735,28.511,6.295,57.19,11.979,85.29c3,14.835,8.286,31.989,14.451,46.001
			c12.097,27.496,25.588,56.411,42.021,81.976c7.043,10.955,15.906,20.642,25.394,29.519c4.718,4.416,8.807,9.522,13.936,13.494
			c8.89,6.884,21.233,10.284,31.106,15.743c16.319,9.023,32.642,18.045,48.963,27.067c19.917,11.011,39.833,19.022,59.75,30.032
			c17.268,9.546,34.534,19.092,51.802,28.638c8.383,4.636,17.577,11.543,25.15,16.904c0.107,0.077,0.232,0.128,0.349,0.193
			c0.967,0.534,1.318,1.751,0.783,2.719c-0.359,0.649-1.027,1.021-1.72,1.032c-0.338,0.005-0.682-0.075-0.998-0.25
			c-5.794-3.203-10.321-7.389-17.321-11.721c-14.017-8.677-29.41-17.113-43.835-25.09c-17.643-9.754-35.284-16.507-52.928-26.26
			c-15.81-8.74-31.619-17.48-47.43-26.221c-11.429-6.318-23.211-14.272-35.563-18.495c-3.637-1.243-7.39-2.102-11.057-3.242
			c-7.782-2.422-16.07-6.34-23.192-10.496c-8.008-4.673-13.261-11.849-19.47-18.401c-6.473-6.83-12.75-13.885-18.195-21.711
			c-4.742-6.815-10.908-13.082-16.312-19.5c-4.709-5.595-10.329-11.549-16.663-15.229c-18.436-10.71-39.662-15.362-60.441-18.001
			c-3.521-0.447-6.879-0.993-10.423-1.345c-6.166-0.612-12.396-1.307-18.62-1.008c-8.834,0.426-17.698,0.977-26.411,2.575
			c-17.983,3.3-36.657,8.265-50.369,21.091c-10.076,9.427-13.926,21.543-20.774,33.125c-2.843,4.81-5.29,9.907-7.553,14.957
			c-5.611,12.526-13.529,23.768-19.759,35.916c-2.625,5.117-5.231,10.375-7.762,15.58c-4.519,9.293-9.945,18.521-14.665,27.741
			c-4.65,9.084-9.73,18.183-13.338,27.693c-1.742,4.594-4.056,8.731-5.907,13.336c-1.706,4.242-2.873,8.813-4.919,13.065
			c-8.252,17.154-14.605,36.351-20.102,54.586c-4.393,14.571-9.554,28.336-13.499,43.168c-2.525,9.492-6.292,18.532-8.844,28.014
			c-2.737,10.168-5.28,20.391-8.296,30.48c-3.97,13.282-8.46,27.063-11.759,40.327c-2.854,11.476-7.414,21.44-11.412,32.473
			c-4.152,11.457-6.501,23.477-8.424,35.479c-1.069,6.675-1.991,13.372-3.01,20.055c-0.688,4.513-1.068,9.148-1.347,13.646
			c-0.329,5.307-1.933,10.409-2.651,15.69c-0.93,6.835-1.835,13.68-2.408,20.665c-0.938,11.425-1.587,23.434-3.646,34.665
			c-2.2,12.001-4.604,23.596-6.332,35.674c-1.301,9.099-2.396,18.408-3.519,27.493c-1.699,13.743-4.221,27.549-5.502,41.334
			c-0.997,10.727-1.525,21.391-2.688,32.077c-1.248,11.466-3.722,22.771-4.645,34.276c-0.597,7.443-0.727,15.357-1.973,22.646
			c-2.481,14.521-4.643,29.77-5.36,44.488c-0.484,9.947-1.083,19.902-1.653,29.84c-0.432,7.527,0.415,15.143,0.655,22.664
			c0.338,10.593,0.001,21.25-0.001,31.925c-0.005,22.529,0.904,44.942,2.006,67.229c1.016,20.537,4.801,40.315,7.671,60.521
			c2.437,17.15,5.312,34.159,6.992,51.663c1.8,18.743,4.586,38.201,3.675,57.359c-0.231,4.867-0.679,9.746-0.679,14.642
			c0,3.819,0.188,7.69,0.004,11.505c-0.334,6.935-0.633,14.071-0.993,21.135c-0.873,17.111-1.653,34.377-1.678,51.524
			c-0.024,16.902,0.173,34.159,0.984,51.084c0.855,17.837,0.735,35.926,0.016,53.759c-0.564,14.016-0.495,28.043-0.41,42.064
			c0.039,6.394,0.724,13.166,0.244,19.508c-0.332,4.385-1.116,8.84-2.135,13.117c-2.182,9.15-3.514,18.514-5.11,27.803
			c-5.228,30.43-17.464,59.441-15.464,90.969c0.614,9.672,1.548,19.332,1.542,29.031c-0.006,10.415-2.914,20.037-6.834,29.667
			c-2.455,6.03-5.209,11.888-8.039,17.865c-5.563,11.754-9.333,24.024-13.471,36.127c-4.581,13.394-8.846,26.052-11.656,40.004
			c-1.621,8.045-3.587,15.897-5.167,23.842c-1.566,7.869-3.594,15.801-4.501,23.833c-0.976,8.641-0.887,17.16-1.316,25.992
			c-0.828,17.047,0.986,33.908,0.985,51.079c-0.002,18.117-1,35.897-1,53.954c-0.001,16.527,1.099,32.573,2.653,48.725
			c0.117,1.215,0.283,2.326,0.348,3.576c0.492,9.676,3.046,18.595,4.737,28.086c1.562,8.771,3.72,16.812,4.602,25.59
			c1.893,18.851,0.146,38.006-0.752,56.773c-0.308,6.441-1.629,12.792-1.554,19.18c0.086,7.312,0.339,14.619,0.843,21.912
			c0.572,8.285,0.479,16.806,1.444,25.103c1.281,11.015,2.917,21.985,4.013,33.021c1.524,15.35,5.104,30.42,7.651,45.689
			c1.578,9.46,3.214,18.619,4.37,28.202c0.906,7.507,3.557,14.492,4.636,21.978c1.25,8.668,3.34,17.586,5.434,26.153
			c1.833,7.498,3.325,15.571,4.239,23.233c0.858,7.192,2.806,14.285,4.003,21.492c3.222,19.396,6.981,38.945,12.837,57.793
			c2.669,8.588,6.108,17.233,9.487,25.475c2.956,7.211,7.634,13.195,11.407,19.979c8.124,14.604,9.265,28.016,9.268,44.515
			c0.001,5.81,0.078,11.923-0.813,17.662c-0.873,5.619-3.319,10.783-4.488,16.323c-1.585,7.512-4.756,14.986-7.456,22.262
			c-5.762,15.524-12.671,30.418-17.244,46.405c-1.024,3.58-2.341,6.974-3.343,10.515c-3.29,11.633-6.809,23.408-10.315,34.998
			c-2.268,7.496-4.855,14.935-7.177,22.504c-4.243,13.83-6.912,27.691-8.997,41.996c-1.221,8.379-3.04,16.625-4.163,25
			c-0.548,4.088-0.618,8.418-1.015,12.502c-0.991,10.194-2.452,20.592-2.986,30.994c-0.989,19.273,0.249,38.127,1.986,57.086
			c0.792,8.643,1.465,17.295,2.131,25.946c0.671,8.706,1.358,17.411,2.108,26.11c2.56,29.713,6.944,59.121,11.359,88.524
			c2.398,15.972,4.809,31.946,7.807,47.817c3.51,18.582,7.91,37.174,12.195,55.594c1.844,7.929,4.084,16.272,6.411,23.908
			c6.195,20.324,13.516,41.113,22.094,60.59c7.291,16.551,16.029,32.545,24.83,48.436c4.425,7.988,9.322,15.271,14.155,23.001
			c4.345,6.949,10.184,12.737,15.554,18.872c2.169,2.479,4.082,5.127,6.481,7.375c10.258,9.609,22.225,17.916,33.604,26.139
			c12.404,8.959,25.613,18.656,40.101,23.906c9.795,3.549,20.227,4.066,30.495,5.115c16.4,1.674,32.512,0.856,48.824,1.57
			c6.035,0.266,12.229,0.586,18.192,0.939c10.848,0.645,21.638,0.53,32.487,1.406c7.503,0.604,15.003,0.067,22.507,0.351
			c7.143,0.269,14.201,1.638,21.341,1.983c8.733,0.426,17.601,0,26.349,0c18.102,0,36.07-0.504,54.15-1.363
			c14.535-0.689,29.596-2.171,44.167-3.633c15.698-1.575,30.996-4.676,46.5-7.031c5.994-0.91,12.188-2.274,18.086-3.629
			c5.009-1.148,9.759-1.147,14.734-1.727c6.277-0.729,12.591-2.545,18.849-3.566c10.37-1.691,20.316-4.192,30.752-5.645
			c12.644-1.758,25.335-3.141,38.038-4.395c6.424-0.635,12.668-2.369,19.083-3.004c6.801-0.67,13.634-0.672,20.456-0.979
			c12.857-0.581,25.5-2.223,38.385-2.555c6.469-0.168,13.063-1.736,19.483-2.844c25.049-4.316,49.621-10.619,74.557-15.371
			c9.707-1.851,20.013-3.406,29.448-6.345c10.892-3.392,21.787-7.103,32.877-9.571c2.405-0.535,4.762-1.015,7.218-1.512
			c1.098-0.223,2.193-0.46,3.288-0.703l0.004-0.027v0.028c4.952-1.097,9.888-2.331,14.899-3.138
			c11.047-1.776,22.42-3.717,32.841-7.485c4.996-1.808,10.406-2.866,15.476-4.378c5.047-1.504,9.725-3.725,14.688-5.463
			c6.071-2.125,11.952-4.589,18.006-6.75c10.65-3.802,21.178-7.928,31.799-11.811c22.547-8.24,44.383-17.492,67.362-24.74
			c13.583-4.283,26.702-10.658,39.826-16.265c6.204-2.649,12.313-5.881,17.63-9.97c5.066-3.896,10.772-6.33,16.23-9.604
			c6.656-3.996,12.938-9.246,19.643-12.994c12.68-7.088,25.455-14.729,38.144-21.199c7.344-3.746,14.265-8.853,21.24-13.321
			c5.297-3.396,10.573-6.313,16.129-9c13.248-6.406,25.656-13.873,39.401-19.76c3.979-1.705,7.814-3.688,11.646-5.578
			c4.314-2.127,8.561-3.903,12.98-5.557c4.525-1.691,8.257-5.107,12.461-7.408c6.256-3.424,12.628-7.012,19.009-10.376
			c12.174-6.418,25.686-11.265,38.339-16.5c12.995-5.379,23.854-18.282,34.322-27.345c6.5-5.629,12.584-11.516,18.84-17.353
			c13.096-12.22,26.595-24.118,39.893-36.165c7.214-6.534,13.943-13.775,21.354-20.066c6.437-5.467,12.592-11.135,20.069-15.174
			c7.412-4.006,13.692-10.004,20.851-14.524c10.105-6.384,19.641-12.287,30.333-17.706c7.517-3.811,14.503-8.587,22.001-12.404
			c5.537-2.818,11.877-5.443,16.801-9.248c5.009-3.873,10.325-7.564,15.433-11.09c10.502-7.248,20.195-15.334,29.358-24.024
			c8.838-8.382,18.746-15.354,27.84-23.425c9.603-8.521,18.9-17.389,28.815-25.552c14.038-11.558,29.783-20.526,43.76-32.089
			c5.268-4.357,9.945-8.975,14.991-13.628c12.196-11.248,24.46-21.853,37.501-32.039c9.18-7.17,17.563-15.759,25.983-23.731
			c10.945-10.364,22.569-20.054,32.936-31.017c12.644-13.372,26.903-25.175,40.251-37.929c8.938-8.541,18.169-16,26.029-25.656
			c7.652-9.402,14.645-19.381,23.133-28.077c7.33-7.51,14.66-15.64,21.229-23.788c6.074-7.534,13.677-14.262,20.114-21.541
			c6.824-7.716,11.232-17.371,19.337-23.834c8.326-6.641,13.876-15.873,20.321-24.248c6.889-8.952,14.458-17.639,20.999-26.512
			c4.737-6.43,9.713-12.679,14.728-18.894c5.674-7.032,11.321-14.086,16.854-21.229c9.471-12.23,17.635-25.201,25.763-38.379
			c7.835-12.701,14.895-26.28,23-38.666c4.736-7.236,8.154-15.099,11.898-22.98c3.416-7.193,8.221-13.415,10.756-21.018
			c1.303-3.908,3.076-7.729,4.811-11.479c3.301-7.138,6.364-13.808,10.452-20.612c4.688-7.804,10.696-14.787,17.64-20.668
			c5.783-4.897,11.288-9.797,18.092-13.334c8.481-4.41,16.584-7.67,25.678-10.654c7.895-2.591,16.129-4.236,24.165-6.585
			c13.687-3.997,27.683-8.703,41.839-10.836c20.633-3.108,40.188-11.241,60.744-14.573c9.566-1.551,18.724-3.202,28.122-5.555
			c6.208-1.553,11.137-2.039,17.575-2.039c19.973-0.002,39.098-2.34,58.468-6.664c8.105-1.81,16.598-2.146,24.802-3.481
			c8.467-1.38,16.896-2.998,25.39-4.216c16.656-2.389,33.38-5.064,49.837-8.973c26.418-6.271,53.389-9.136,80.475-11.33
			c12.864-1.041,25.162-2.351,37.928-4.349c8.535-1.337,16.957-2.332,25.39-4.249c16.657-3.785,32.185-11.164,48.616-15.325
			c10.503-2.659,20.104-5.369,29.977-9.813c10.378-4.672,20.987-8.811,31.348-13.521c12.77-5.811,25.887-11.082,38.865-16.368
			c11.522-4.69,22.895-8.938,34.208-14.132c6.656-3.055,13.831-4.988,20.433-8.115c10.986-5.204,22.239-10.236,33.736-14.462
			c11.312-4.158,22.021-10.739,33.074-15.666c5.689-2.536,10.377-5.806,15.678-8.731c10.717-5.916,21.703-12.568,31.601-19.692
			c10.597-7.63,20.862-15.642,31.229-23.565c5.929-4.533,12.063-8.721,18.013-13.014c5.359-3.868,10.386-7.759,15.518-11.921
			c7.015-5.688,15.523-10.97,21.634-17.405c4.286-4.514,9.357-8.761,14.35-12.502c3.771-2.824,7.439-5.763,10.935-9
			c7.401-6.856,15.353-12.84,23.596-18.668c14.959-10.574,30.09-21.584,43.295-34.32c7.955-7.674,15.73-15.627,24.767-22.061
			c6.979-4.97,12.347-11.391,18.575-17.283c6.16-5.828,13.009-10.867,19.251-16.658c6.86-6.365,14.252-11.849,21.059-18.34
			c4.23-4.035,8.569-7.717,12.435-12.041c3.759-4.205,8.599-7.031,12.184-11.463c2.561-3.166,5.172-6.483,7.907-9.668
			c7.262-8.449,12.633-18.783,19.171-27.812c7.518-10.381,15.326-20.552,22.586-31.117c5.302-7.716,10.132-15.808,14.673-24.069
			c4.39-7.99,9.823-15.394,14.227-23.353c3.702-6.692,6.51-13.019,9.015-20.315c3.089-8.992,7.093-18.289,8.927-27.416
			c1.911-9.504,3.37-19.094,4.584-28.709c1.076-8.522,2.936-17.479,3.153-26.054c0.346-13.966,4.016-27.438,2.646-41.509
			c-0.528-5.418-1.791-10.557-2.825-15.986c-1.991-10.459-4.119-20.91-7.577-30.986c-8.071-23.521-19.288-44.75-30.085-67.012
			c-3.037-6.263-6.84-12.082-10.766-17.812c-13.11-19.138-30.573-35.063-51.775-44.735c-23.098-10.539-46.874-20.79-72.729-20.782
			c-12.373,0.004-23.361,1.443-35.06,5.302c-3.797,1.25-7.818,2.364-11.796,3.521c-3.69,1.072-7.485,2.508-11.058,3.846
			c-7.801,2.923-16.008,6.278-23.315,10.25c-7.122,3.87-14.632,7.386-22,10.953c-23.015,11.144-44.621,24.66-66.675,37.478
			c-7.991,4.645-15.58,9.766-23.748,14.074c-3.877,2.045-7.508,4.185-11.354,6.337c-7.095,3.97-14.617,7.242-21.147,12.24
			c-4.301,3.291-9.096,5.701-13.021,9.423c-3.866,3.666-7.17,7.988-11.735,10.854c-21.408,13.426-47.355,18.985-70.99,27.14
			c-14.853,5.124-29.253,11.483-43.926,16.667c-14.138,4.995-29.589,7.191-44.232,10.342c-9.739,2.096-19.698,2.998-29.412,5.227
			c-16.016,3.672-32.034,7.56-48.391,9.399c-16.146,1.817-33.48,3.131-48.826,5.759c-14.327,2.453-28.752,3.814-43.213,5.191
			c-18.667,1.778-37.129,4.184-55.747,5.985c-14.054,1.36-27.784,0.42-41.754,0.676c-6.763,0.124-13.664-1.206-20.419-1.733
			c-15.153-1.186-30.101-1.949-45.412-2.267c-27.92-0.577-55.822-1.567-83.665-3.324c-34.221-2.159-68.667-2.767-103-4.36
			c-12.635-0.588-25.807-1.65-38.333-3.551c-10.146-1.539-20.385-2.729-30.726-3.781c-22.916-2.333-46.195-0.18-68.771,2.188
			c-24.13,2.53-48.826,6.64-73.088,9.18c-28.742,3.009-57.944,2.381-86.463,6.402c-13.339,1.883-26.551,2.463-39.78,5.5
			c-6.398,1.47-12.566,3.729-18.833,5.662c-6.403,1.976-12.918,2.444-19.327,4.014c-13.506,3.307-26.925,5.508-40.793,7.206
			c-8.104,0.992-16.209,2.017-24.236,3.528c-26.786,5.047-53.295,12.424-79.721,19.086c-7.754,1.955-15.435,4.186-23.104,6.443
			c-25.624,7.546-51.48,15.316-76.999,22.729c-27.615,8.021-51.683,21.599-76.159,36.082c-3.175,1.881-5.917,4.313-9.069,6.312
			c-4.464,2.828-9.447,4.951-13.847,7.991c-10.687,7.384-21.479,13.8-31.976,21.518c-11.639,8.559-23.129,17.318-34.486,26.246
			c-10.536,8.283-20.661,17.25-31.103,25.768c-10.947,8.927-21.359,18.129-31.999,27.408c-4.671,4.075-9.464,8.008-14.315,11.866
			c-3.833,3.049-6.982,6.761-10.828,9.841c-4.168,3.339-8.615,6.344-12.511,10.016c-7.62,7.181-15.999,13.396-24.381,19.567
			c-8.683,6.394-17.063,12.673-25.251,19.763c-9.337,8.084-18.627,16.229-28.329,23.877
			c-60.264,47.492-122.706,91.697-171.925,151.193c-16.014,19.357-33.892,36.771-45.73,59.207
			c-25.459,48.246-34.432,100.88-31.754,155.275c0.779,15.83-1.081,34.944-2.581,51.063c-1.344,14.442-3.589,29.177-6.691,42.647
			c-5.364,23.289-12.06,47.088-18.253,70.248c-3.571,13.354-7.207,26.139-12.971,39.528l-1.78,5.91
			c-8.022,27.696-22.315,49.903-37.243,74.144c-5.635,9.148-12.962,19.226-18.477,28.446c-2.968,4.965-4.357,9.427-6.772,14.919
			c-2.224,5.057-3.511,9.357-4.478,9.081c-0.024-0.007-0.048-0.015-0.072-0.021l-0.01,0.035l0.005-0.037
			c-0.291-0.082-0.565-0.162-0.803-0.229c-0.483-0.139-0.282-4.727,1.584-9.925c4.556-12.688,13.678-24.776,20.373-35.801
			c16.164-26.619,33.431-51.731,42.136-82.03l0.533-3.494c1.783-15.662,5.098-31.682,3.499-47.5
			c-2.989-29.576-7.938-56.508,1.069-85.797c6.677-21.715,23.353-41.646,24.98-64.799c1.35-19.188,7.104-40.41,4.151-60.283
			c-2.858-19.239-16.993-36.813-27.715-52.594c-9.971-14.674-20.699-25.754-32.487-39.024c-8.536-9.608-23.251-20.39-24.001-34.168
			c-0.633-11.621,7.646-21.576,19.802-20.019c23.523,3.016,48.133,7.15,71.629,1.754c23.973-5.506,45.937-20.715,64.458-36.295
			c9.115-7.668,20.162-13.099,29.889-20.039c17.177-12.26,36.946-19.637,53.552-32.867c10.586-8.434,21.348-16.926,32.038-25.39
			c24.126-19.101,48.251-38.205,72.377-57.308c7.848-6.215,17.16-11.465,24.864-18.24c9.486-8.345,10.299-15.353,14.175-26.484
			c2.781-7.982,11.078-12.079,16.977-17.336c5.774-5.146,10.953-12.104,15.747-18.262c16.409-21.08,31.277-42.705,46.827-64.697
			c11.186-15.818,19.808-33.402,32.007-48.51c5.993-7.421,13.531-12.802,19.974-19.566c6.336-6.653,11.409-13.125,19.166-18.203
			c10.561-6.914,23.226-9.813,33.75-16.353c21.329-13.254,47.379-13.06,71.591-16.724c37.548-5.681,75.215-12.877,111.352-23.322
			c26.785-7.742,52.783-17.602,79.528-25.262c53.026-15.188,109.813-25.771,164.777-30.703c21.698-1.945,43.378-4.281,65.023-7.309
			c36.365-5.084,73.528-10.451,110.392-8.709c25.021,1.182,50.346,1.457,75.611,2.674c21.161,1.02,42.433,0.666,64,0.666
			c25.518,0.002,50.563,3.346,76.146,3.334c19.526-0.01,39.214,4.34,58.972,5.273c20.063,0.948,39.469,4.791,59.217,6.721
			c31.957,3.121,61.85-1.182,93.668-2.658c19.789-0.92,39.492-3.146,59.33-5.371c25.334-2.846,50.76-6.18,75.721-11.394
			c13.123-2.741,26.297-5.267,39.277-8.636c18.341-4.763,36.221-10.896,54.961-14.627c12.637-2.515,24.412-8.404,36.961-10.929
			c7.702-1.549,21.799-4.204,27.258-10.194c9.968-10.938,20.348-20.39,32.634-29.342c15.195-11.07,30.896-19.932,47.254-28.436
			c34.897-18.143,66.438-39.434,97.548-62.413c29.842-22.045,54.307-52.735,76.563-82.515c14.447-19.33,24.106-39.72,35.656-60.295
			c11.97-21.325,19.75-46.271,26.004-69.854c2.802-10.563,3.57-20.465,4.682-31.483c1.131-11.219,4.736-21.436,7.503-32.517
			c3.093-12.394,6.063-23.06,11.148-34.695c6.288-14.391,13.356-28.502,18.649-43.307c6.24-17.455,10.973-33.231,14.248-51.387
			c3.1-17.186,4.195-34.722,7.288-51.946c3.009-16.76,5.843-33.584,10.727-49.666c4.634-15.257,5.524-30.576,7.896-46.331
			c3.311-21.985,7.856-43.163,10.021-65.333c4.901-50.153,0.701-99.977-1.664-150.327c-0.702-14.966-2.267-30.467-4.375-45.342
			c-3.679-25.951-5.362-51.646-7.952-77.604c-1.261-12.639-2.789-24.613-4.843-37.073c-4.12-25.007-9.969-49.681-14.539-74.411
			c-4.087-22.113-17.821-49.093-11.059-71.918c7.05-23.794,33.579-30.498,50.61-44.029c22.291-17.709,47.554-31.557,70.127-49.135
			c17.232-13.419,31.809-29.188,46.8-45.03c12.208-12.899,24.342-25.872,36.714-38.616c8.508-8.764,16.035-18.241,24.341-27.158
			c4.821-5.176,9.979-9.848,15.013-14.861c10.279-10.245,20.103-21.245,30.18-31.669c12.226-12.646,25.07-25.457,34.476-40.338
			c12.989-20.554,20.17-43.153,27.58-66.065c4.597-14.211,8.388-28.388,12.757-42.442c8.117-26.104,15.039-52.429,19.807-79.007
			c1.261-7.026,2.449-14.123,2.697-21.639C3927.396,2395.605,3929.143,2370.12,3926.503,2342.998z M2178.616,1839.972
			c-11.606,10.109-26.121,15.783-40.636,19.032c-34.209,7.658-66.166,19.535-101.457,11.999
			c-39.646-8.467-81.414-8.022-123.037-8.002c-57.016,0.029-114.081-3.891-170.988-1.053c-81.371,4.058-164.108,1.411-244.973-6.717
			c-39.022-3.923-78.298-3.432-117.452-2.521c-36.873,0.857-74.411-0.319-111.074,3.252c-10.507,1.024-18.649,7.241-28.724,8.816
			c-11.053,1.728-23.771,1.222-34.998,1.222c-28.443,0-57.646-2.014-85.938,1.125c-29.798,3.307-58.591,12.313-88.236,16.555
			c-34.284,4.906-69.97,6.573-104.604,8.313c-12.876,0.647-26.655-1.582-38.813-2.228c-19.392-1.03-35.376-4.837-53.735-10.701
			c-16.969-5.422-36.813-14.614-47.32-29.37c-10.679-14.998-15.726-33.271-21.995-50.343c-11.52-31.367-18.342-64.91-13.076-98.302
			c2.1-13.305,6.238-26.975,10.004-39.995c13.197-45.624,23.088-91.552,38.033-136.545c6.41-19.297,13.462-36.546,22.024-54.972
			c8.499-18.289,10.211-37.346,14.298-56.758c6.273-29.8,14.079-59.966,17.56-90.216c2.211-19.218,4.038-38.485,6.97-57.612
			c2.465-16.089,4.375-33.618,9.16-49.367c5.361-17.64,14.047-33.531,18.425-51.333c4.746-19.302,10.128-38.178,13.978-57.757
			c7.299-37.13,5.577-77.411,8.75-115.504c1.555-18.656,8.117-33.214,17.737-48.987c14.425-23.652,36.276-30.847,62.779-23.785
			c19.334,5.151,38.136,14.158,52.271,28.597c12.766,13.038,18.891,30.729,29.768,45.147c11.823,15.672,27.274,28.362,42.052,41.103
			c14.396,12.411,33.978,19.131,47.169,32.395c10.521,10.58,21.629,28.664,23.759,42.75c5.093,33.688-34.546,70.666-52.048,95.57
			c-31.324,44.571-64.444,85.901-88.996,135.163c-12.324,24.727-26.466,47.946-37.023,73.063
			c-15.074,35.861-33.837,72.999-33.73,113.018c0.036,13.607,0.995,28.371,3.497,41.471c4.188,21.929,7.858,46.661,18.812,66.238
			c10.541,18.841,26.6,31.457,42.604,45.238c16.584,14.283,35.726,23.424,54.136,34.292c9.592,5.662,18.015,10.914,27.909,15.99
			c22.408,11.495,42.083,15.32,66.559,21.235c12.857,3.106,24.137,10.564,37.064,13.252c13.89,2.888,28.379,3.319,42.427,5.262
			c48.183,6.662,99.338,19.013,148.002,12c33.525-4.831,65.75-8.002,100.749-8.003c32.143,0,64.314,2.963,96.359-0.821
			c20.636-2.438,41.104-3.279,61.891-3.203c18.841,0.068,36.76-3.806,55.502-2.892c20.616,1.006,40.392-0.171,60.91-1.17
			c83.305-4.058,165.88-4.195,249.298-2.682c39.123,0.71,81.367-0.585,116.772,18.391c11.502,6.165,24.613,13.622,32.566,24.253
			C2200.82,1818.938,2190.867,1829.301,2178.616,1839.972z M2985.685,3416.666c-0.528,10.594-0.046,21.098-0.503,31.561
			c-0.496,11.369-3.551,22.473-4.682,33.774c-5.142,51.372-12.671,105.702-32.192,153.743c-3.313,8.159-7.366,16.439-11.799,23.967
			c-12.68,21.531-34.399,35.646-58.089,41.085c-12.549,2.88-25.649,3.325-38.252,1.146c-36.346-6.278-70.854-12.409-107.668-10.573
			c-26.88,1.342-53.689-1.524-80.457-3.566c-21.797-1.662-49.887,1.059-69.049-11.625c-2.871-1.9-5.754-4.158-8.326-6.668
			c-3.047-2.972-5.938-7.213-9.492-8.183c-0.001,0-0.001-0.001-0.001-0.001c0.179-4.17,0.909-8.262,2.568-11.753
			c3.12-6.569,9.389-11.045,15.01-15.337c13.089-9.992,28.565-16.156,41.792-25.978c10.326-7.666,20.784-15.148,31.081-22.862
			c24.905-18.656,49.325-38.289,72.009-59.609c10.198-9.586,20.423-19.697,28.365-31.287c13.182-14.864,25.862-30.334,37.809-46.209
			c23.67-31.454,45.326-63.217,64.766-97.487c8.414-14.837,14.729-30.58,18.727-47.161c1.986-8.238,2.846-16.822,5.268-24.938
			c5.26-17.624,15.918-33.62,27.955-47.31c8.068-9.175,16.996-17.534,26.471-25.232c0,0,0,0,0-0.001
			c0.089,0.18,0.213,0.35,0.403,0.5c1,0.787,3.709-1.021,4.593-1.525c4.562-2.609,10.229-3.716,15.418-4.007
			c4.851-0.271,10.181,0.142,14.531,2.493c9.626,5.202,6.835,16.053,7.121,25.082c0.385,12.134,0.844,24.666,1.447,36.955
			c0.734,14.95,1.886,28.873,2.66,43.787c1.035,19.948,0.997,39.907,1.983,59.887
			C2985.916,3384.793,2986.465,3401.02,2985.685,3416.666z M3286.472,2618.307c-8.465,27.084-22.037,54.485-43.325,73.719
			c-35.896,32.432-77.592,58.603-117.336,85.828c-25.718,17.616-51.563,36.26-75.345,57.349
			c-34.377,30.483-65.186,64.948-100.573,94.127l-2.256,1.849c-1.188,0.966-2.409,1.907-3.617,2.858
			c-11.396,8.981-24.14,16.787-36.848,23.796c-18.965,10.459-36.592,21.162-56.503,29.674c-9.55,4.083-18.496,8.646-28.55,11.776
			c-14.438,4.498-28.898,8.382-43.173,12.868c-11.73,3.688-23.861,7.502-35.602,10.561l-2.268,0.592
			c-11.021,2.878-21.434,5.596-32.2,7.352c-11.271,1.838-19.962,3.139-29.143,3.139c-6.051,0-11.864-0.592-17.775-1.809
			c-5.286-1.088-10.696-2.252-15.928-3.377c-18.019-3.877-36.648-7.884-55.307-9.963c-9.244-1.029-18.84-1.529-29.33-1.529
			c-23.943,0-47.469,3.063-71.168,5.546c-16.521,1.729-33.121,2.75-49.559,5.206c-16.369,2.445-31.086,6.061-47.691,6.745
			c-60.801,2.507-120.989,10.548-181.57,13.392c-8.414,0.396-17.101,1.396-25.499,2.362c-3.938,0.454-8.011,0.922-11.937,1.313
			l-3.795,0.377c-27.635,2.742-56.21,5.577-83.84,12.615c-33.07,8.424-67.267,17.135-99.123,31.01
			c-13.599,5.923-28.192,12.366-42.762,19.351c-34.835,16.699-64.212,39.606-89.811,70.034c-5.394,6.41-11.128,12.624-16.674,18.633
			c-4.279,4.636-8.704,9.431-12.984,14.326c-6.864,7.851-13.351,16.404-19.622,24.676c-2.804,3.696-5.701,7.52-8.591,11.223
			c-14.579,18.684-29.349,40.445-45.151,66.531c-13.295,21.945-24.231,45.432-31.623,67.919c-2.215,6.739-4.021,13.241-5.77,19.528
			c-1.348,4.854-2.741,9.871-4.288,14.847c-9.403,30.282-12.862,61.375-14.108,82.127c-0.563,9.387-0.667,18.952-0.767,28.202
			c-0.086,8.008-0.175,16.288-0.561,24.499c-0.413,8.803-1.064,17.894-1.696,26.685c-0.609,8.491-1.239,17.272-1.64,25.641
			c-0.197,4.129-0.087,8.348,0.019,12.429c0.232,8.913,0.746,18.77-2.291,27.257c-1.586,4.436-3.771,8.761-6.394,12.825
			c-0.406,0.63-0.832,1.243-1.271,1.85c-0.02,0.027-0.041,0.054-0.061,0.081c-0.428,0.591-0.875,1.166-1.335,1.73
			c-0.697,0.856-1.421,1.689-2.189,2.482c-1.337,1.379-2.332,3.168-3.813,4.4c-1.377,1.146-3.007,1.682-4.441,2.828
			c-12.183,9.736-25.775,17.479-40.054,23.711c-7.104,3.103-15.295,3.457-22.855,5.965c-23.202,7.695-40.583,30.17-59.639,44.568
			c-11.45,8.65-21.832,18.836-32.311,28.646c-28.838,26.993-55.196,56.246-76.513,89.519c-9.765,15.24-20.457,29.657-30.654,44.469
			c-11.771,17.092-24.604,34.887-33.556,53.355c-8.183,16.885-18.85,31.508-24.119,49.752c-5.055,17.496-7.639,35.717-15.014,52.492
			c-7.144,16.25-13.395,31.833-22.843,47.07c-18.159,29.287-37.926,58.602-60.321,84.666c-22.5,26.183-44.572,52.199-67.687,78.002
			c-10.466,11.686-21.673,22.395-32.777,33.472c-7.171,7.153-14.327,14.28-21.232,21.554c-14.529,15.305-28.754,30.4-42.382,46.625
			c-19.649,23.393-35.641,46.229-49.949,73.385c-12.081,22.924-21.638,47.398-31.655,71.654
			c-9.145,22.143-18.988,45.385-26.018,67.956c-7.739,24.851-14.108,51.001-19.927,76.308c-4.147,18.045-6.159,36.862-8.865,54.908
			c-1.291,8.606-2.297,17.973-3.185,26.811c-1.104,10.993-2.633,23.334-5.171,33.999c-5.32,22.356-7.521,47.795-7.498,71
			c0.034,35.151-4.666,70.213-4.666,105.334c0,31.467-4.661,62.749-4.665,94.319c-0.005,36.951-1.682,74.176-7.318,110.026
			c-2.513,15.978-4.648,34.353-11.153,49.321c-3.149,7.246-7.463,15.481-12.698,21.51c-5.037,5.799-13.226,9.02-17.613,14.371
			c-4.083,1.285-7.902,2.862-11.954,4.067c-36.504,10.858-64.38-39.479-75.495-67.006c-7.188-17.794-11.233-35.745-17.783-53.599
			c-6.572-17.916-13.134-36.375-18.599-54.615c-7.641-25.508-15.017-52.358-18.869-78.733c-0.969-6.622-2.457-13.259-3.188-19.997
			c-4.948-45.634-11.99-90.486-11.993-136.621c-0.001-30.992-1.039-63.385,3.808-94.066c2.077-13.16,1.73-25.278,5.003-38.5
			c3.65-14.754,7.011-30.643,8.519-46.147c0.73-7.51,0.912-15.382,2.003-22.999c4.895-34.15,10.273-67.699,22.147-100.336
			c14.589-40.102,29.447-79.109,49.186-117.003c13.046-25.047,27.164-49.696,36.493-75.817
			c13.36-37.408,22.352-76.308,28.227-115.563c4.646-31.049,0.544-63.46,0.612-94.673c0.036-16.481,1.056-32.886,0.109-49.319
			c-2.353-40.84-6.073-81.387-8.107-122.277c-1.35-27.136-3.178-55.625-8.032-82.322c-5.017-27.594-12.756-54.262-20.456-81.199
			c-2.334-8.167-3.899-16.611-5.646-25.165c-6.036-29.574-13.373-60.133,5.972-87.486c29.05-41.077,78.739-64.368,123.704-83.335
			c21.55-9.091,43.646-16.535,66.413-21.92c27.677-6.547,53.684-18.085,79.766-29.195c21.886-9.32,42.048-23.584,60.736-37.99
			c13.876-10.698,27.853-21.135,41.874-31.73c11.245-8.499,22.122-16.124,33.034-24.852c14.352-11.479,30.235-21.74,43.286-34.786
			c15.574-15.57,31.517-30.197,46.678-46.031c9.238-9.646,16.089-20.981,24.82-31.146c9.119-10.618,18.961-20.078,27.863-30.856
			c12.381-14.989,24.391-29.797,36.484-44.93c11.561-14.463,26.973-28.907,33.645-46.508c7.104-18.736,10.543-39.593,14.543-59.22
			c9.472-46.459,1.832-94.013-8.532-139.494c-3.131-13.74-12.204-28.167-19.338-40.54c-7.283-12.629-15.888-24.683-24.476-36.665
			c-12.509-17.457-27.345-38.467-43.708-52.491c-6.446-5.524-10.039-12.519-16.3-18.168c-16.521-14.912-32.635-30.664-49.668-44.981
			c-8.33-7.002-17.724-12.243-25.66-19.646c-11.172-10.422-27.738-21.221-33.4-36.023c-9.02-23.584,18.229-41.985,38.409-44.621
			c9.962-1.3,23.107-1.616,32.561,2.119c17.325,6.846,34.379,12.799,52.075,18.486c27.826,8.947,55.726,19.301,84.203,26.475
			c26.715,6.729,52.992,14.041,79.352,22.052c18.147,5.515,36.762,9.587,55.144,14.241c12.311,3.115,24.055,7.246,36.251,10.649
			c10.57,2.95,22.188,6.831,33.065,8.603c29.853,4.861,59.668,13.891,89.985,15.348c11.388,0.547,21.817,0.918,33.012,3.183
			c9.577,1.938,16.556,6.834,25.633,10.32c8.007,3.074,17.072,2.474,25.405,3.243c9.933,0.917,19.634,3.43,29.636,3.908
			c14.333,0.688,28.524,2.905,42.777,4.446c13.502,1.459,27.456-0.183,40.695,1.748c13.088,1.908,26.249,4.518,39.522,5.136
			c26.95,1.258,53.935,1.648,80.912,1.402c13.202-0.121,26.667,0.146,39.763-1.15c14.434-1.428,29.501-0.713,44.025-1.434
			c20.108-0.996,40.362-2.188,60.492-1.148c6.219,0.318,12.639-0.022,19.002-0.334c25.825-1.264,52.145-2.784,77.973-5.348
			c12.123-1.203,24.422-1.898,36.277-4.886c10.381-2.614,19.897-7.212,30.559-9.044c28.568-4.91,56.013-12.923,84.52-18.095
			c15.465-2.806,30.758-5.96,46.087-9.24c19.091-4.084,38.267-11.422,57.064-16.877c36.25-10.518,71.669-20.866,109.312-22.657
			c6.971-0.332,13.605-1.83,20.401-2.854c22.98-3.46,44.963-11.613,66.719-19.485c20.202-7.31,41.546-13.145,62.229-19.678
			c14.427-4.557,29.42-10.616,43.851-16.669c7.103-2.979,12.919-8.495,19.946-11.443c5.525-2.318,11.199-3.21,16.785-5.828
			c13.638-6.393,27.455-13.19,39.234-22.697c10.081-8.137,21.008-14.416,31.369-22.536c9.292-7.282,18.361-14.507,27.477-21.665
			c13.356-10.49,28.578-18.181,42.834-27.316c12.188-7.812,22.804-16.959,35.17-24.519c9.391-5.742,19.347-11.592,29.403-16.039
			c9.169-4.054,17.4-10.351,26.755-14.284c8.707-3.66,17.629-6.84,26.781-10.182c18.886-6.896,36.742-11.754,56.686-12.709
			c22.021-1.054,52.115,4.55,65.813,24.208C3295.066,2586.591,3290.845,2604.313,3286.472,2618.307z" style="stroke:black;fill:#e8c359"/></g>
</g>
</svg>