<svg width="777" height="907" xmlns="http://www.w3.org/2000/svg">
<g transform="scale(0.015625)">
<g id="278103149" order="11" parent_id="" graphic_group_label_id="265297119" graphic_group_label="Atlas - Human" sub_image_id="102339949" transform=" scale(7.0, 7.0)"><path id="278103150" parent_id="278103149" order="1426" structure_id="9219" d="M5879.01,4127.47c-10.059-27.2-32.677-53.783-52.507-74.96
			c-24.246-25.893-49.089-50.086-75.72-73.743c-25.039-22.243-54.107-42.608-85.799-53.756c-7.271-2.553-15.082-3.403-22.41-5.813
			c-8.225-2.707-14.766-7.354-23.156-9.229c-9.098-2.033-18.962-2.754-28.215-4.156c-19.4-2.938-38.916-4.07-56.717,5.701
			c-28.475,15.627-38.48,51.201-41.436,80.939c-4.302,43.285,0.34,87.041-4.099,129.998c-1.735,16.778-2.935,31.151-6.978,46.527
			c-8.678,33.009-25.975,62.66-40.369,93.339c-6.172,13.155-10.358,26.269-15.226,39.679c-4.709,12.975-14.965,23.029-21.274,35.131
			c-9.594,18.408-16.411,38.424-27.381,56.103c-13.451,21.677-27.02,43.297-41.512,64.299
			c-17.719,25.679-39.309,48.767-58.354,73.403c-13.254,17.144-24.742,34.785-37.084,52.518
			c-11.799,16.952-25.906,32.109-40.265,47.038c-6.985,7.262-13.649,13.635-20.76,20.737
			c-22.343,22.315-45.475,42.744-66.696,66.508c-11.319,12.676-21.61,25.178-30.73,39.174
			c-7.408,11.369-19.262,19.011-27.575,29.596c-10.724,13.657-21.597,26.918-31.702,41.202
			c-35.275,49.858-70.25,99.966-104.297,150.565c-7.072,10.512-12.154,22.318-18.032,33.229
			c-13.813,25.64-31.682,48.478-47.444,73.194c-27.468,43.073-53.938,84.793-81.054,127.646
			c-6.78,10.714-13.156,21.732-20.972,32.188c-3.598,4.809-6.766,10.36-10.25,14.979c-9.223,12.222-20.807,23.11-29.756,35.285
			c-9.582,13.034-17.326,26.915-27.795,39.545c-18.814,22.696-37.875,44.009-57.668,65.853
			c-11.315,12.487-23.487,24.185-34.027,37.313c-37.383,46.561-80.096,91.902-133.244,120.506
			c-29.074,15.645-55.289,34.85-83.557,51.246c-30.762,17.844-65.41,28.985-97.914,43.536
			c-34.303,15.356-68.664,31.011-104.84,41.511c-29.412,8.537-59.246,15.358-88.225,25.234
			c-31.548,10.751-64.686,20.516-96.746,27.717c-15.748,3.537-31.435,8.129-46.724,11.262
			c-50.946,10.438-103.113,15.743-154.534,25.945c-33.326,6.611-67.202,6.138-100.945,9.984
			c-74.168,8.455-150.152,11.551-225.454,15.041c-19.03,0.881-37.157-3.004-56.159-1.961c-19.433,1.066-38.858,5.177-58.377,3.947
			c-13.982-0.881-28.281-1.561-42.524-0.959c-14.511,0.615-29.808,3.634-44.283,1.018c-25.847-4.672-49.866-3.703-75.739-6.031
			c-16.054-1.444-36.445-3.832-52.271-9.209c-13.759-4.678-29.72-6.602-41.988-14.724c-9.642-6.384-19.608-12.243-29.383-18.626
			c-23.817-15.555-38.437-34.628-45.69-60.166c-1.271-4.477-2.32-9.146-3.148-14.036c-5.47-32.291-2.28-65.762,4.007-97.694
			c3.486-17.707,8.736-33.801,9.952-51.408c1.138-16.475,11.296-31.014,17.928-45.672c8.971-19.82,24.801-35.477,37.904-52.477
			c31.104-40.358,70.835-71.498,111.273-101.469c17.326-12.844,36.043-24.629,52.979-37.766
			c37.044-28.729,74.901-56.057,116.003-80.023c32.904-19.188,68.051-37.985,103.167-52.729
			c22.407-9.406,44.68-20.014,67.422-28.503c35.432-13.226,71.474-27.937,107.334-41.495c10.556-3.99,21.078-8.794,32.049-12.021
			c10.968-3.225,18.671-8.057,29.265-12.151c12.517-4.839,25.931-6.81,38.703-10.819c18.521-5.813,36.898-10.514,55.238-16.78
			c20.104-6.87,40.573-12.05,60.686-17.688c22.893-6.42,46.654-12.615,69.918-17.455c23.253-4.836,48.219-11.836,69.794-23.354
			c14.856-7.933,24.159-24.188,38.821-33.175c29.323-17.976,55.389-38.2,80.396-62.095c34.828-33.278,64.168-70.988,92.924-109.707
			c14.462-19.474,20.521-43.438,31.936-64.556c9.795-18.122,21.772-34.438,32.287-52.19c10.873-18.357,23.123-35.257,35.606-52.514
			c24.001-33.178,51.485-63.97,74.649-97.259c7.756-11.147,16.275-18.89,25.75-28.226c11.621-11.455,19.674-26.174,30.625-38.207
			c11.176-12.279,25.114-21.672,36.404-33.83c15.932-17.158,33.502-33.963,49.354-51.551
			c36.336-40.312,75.199-76.592,113.563-114.613c26.077-25.848,54.113-48.855,80.303-74.828
			c11.438-11.342,25.979-24.175,34.097-38.212c7.062-12.206,11.418-24.878,19.879-36.989c7.519-10.762,19.621-23.688,20.317-37.502
			c1.16-22.974-25.119-11.922-38.28-11.293c-14.646,0.698-28.532,0.907-41.737,7.819c-16.488,8.628-31.551,20.746-45.309,33.17
			c-19.9,17.972-40.954,36.269-61.725,53.55c-11.283,9.387-19.746,20.457-30.489,30.276c-23.402,21.388-48.806,42.048-71.013,64.615
			c-25.85,26.271-52.51,52.067-77.236,79.337c-12.242,13.501-26.197,24.17-39.553,36.527c-7.688,7.111-13.396,16.002-20.6,23.554
			c-6.346,6.651-13.462,9.162-20.458,14.422c-18.852,14.17-34.749,36.083-51.321,52.94c-23.787,24.195-45.739,50.017-68.629,75.088
			c-28.223,30.912-57.448,59.938-84.633,91.938c-18.066,21.269-34.633,42.638-52.279,64.005
			c-8.816,10.675-18.154,19.816-28.278,29.248c-19.226,17.91-39.355,34.65-59.008,52.082c-4.803,4.262-9.757,7.404-15.572,10.325
			c-12.444,6.236-22.005,9.976-35.522,14.14c-7.665,2.361-15.547,4.643-23.367,6.051c-18,3.243-34.996,4.963-54.005,5.863
			c-36.401,1.727-69.403-0.979-102.66-11.732c-30.327-9.807-63.153-19.977-89.079-39.938c-13.43-10.341-21.365-23.531-31.541-36.589
			c-22.667-29.087-46.83-60.208-56.117-96.058c-5.395-20.824-11.164-43.17-12.134-64.625c-1.81-39.957-3.95-79.996-6.002-119.992
			c-1.95-38.037-4.643-76.924-0.948-114.6c6.01-61.257,14.926-129.081,45.953-183.38c20.614-36.072,42.665-72.731,69.018-105.022
			c9.242-11.326,18.83-22.104,28.752-33.023c39.699-43.689,70.248-95.174,110.463-138.744
			c33.423-36.211,57.671-80.885,79.769-124.74c5.483-10.881,11.505-21.864,17.476-32.489c12.085-21.507,27.469-39.962,38.377-62.416
			c11.259-23.173,20.666-47.224,32.673-70.036c20.054-38.104,43.35-73.553,71.492-106.571c7.448-8.739,14.989-17.461,22.973-25.987
			c5.043-5.389,10.185-10.865,15.479-15.95c19.922-19.127,40.926-36.841,62.002-55.519c18.018-15.967,39.111-30.962,59.279-43.529
			c41.191-25.668,81.83-48.474,129.041-60.744c39.082-10.159,78.7-10.362,118.209-16.245c12.309-1.832,24.91-4.403,37.014-6.927
			c22.748-4.741,52.08-7.409,71.765-21.301c30.274-21.368,11.815-55.609-3.026-79.767c-12.176-19.814-23.207-41.097-41.504-55.88
			c-20.486-16.553-40.604-33.219-59.217-51.908c-21.299-21.386-46.617-39.132-67.25-61.21
			c-19.638-21.015-34.07-43.022-57.641-60.271c-13.307-9.736-23.186-21.145-35.684-31.812
			c-28.805-24.59-60.318-44.466-90.442-67.142c-30.45-22.922-64.303-33.045-97.317-51.52
			c-21.998-12.311-43.845-21.143-67.692-28.989c-27.06-8.905-53.419-19.211-81.06-26.247
			c-34.461-8.772-68.731-18.754-103.947-24.122c-33.098-5.045-66.504-4.835-99.616-9.823c-21.275-3.205-46.599-2.186-68.002-0.094
			c-39.233,3.834-76.604,10.156-115.067,17.913c-18.939,3.819-38.373,8.081-57.358,11.045c-27.254,4.255-55.02,5.687-82.367,9.089
			c-30.379,3.781-60.503,10.136-91.169,11.266c-28.835,1.063-57.568-0.232-86.419,2.654c-15.821,1.582-30.707-1.811-46.997-1
			c-16.455,0.818-32.954,1.24-48.96-0.988c-22.997-3.202-46.907-6.643-70.044-6.991c-20.714-0.313-46.29-7.394-66.072-13.471
			c-25.185-7.737-48.62-20.189-71.663-32.752c-16.483-8.987-31.073-20.798-46.257-31.757c-32.484-23.444-62.626-43.53-83.992-78.5
			c-2.402-3.934-5.092-7.742-7.856-11.525c-7.83-10.709-16.288-21.201-20.744-33.667c-10.507-29.395-23.43-57.444-34.907-86.411
			c-19.674-49.656-36.15-97.518-33.479-151.897c0.974-19.837-1.935-39.636-0.015-59.472c1.994-20.591,4.791-41.323,9.692-60.949
			c10.612-42.498,32.712-85.895,56.903-121.896c25.316-37.678,48.397-70.537,85.96-97.641
			c20.645-14.897,42.647-28.472,65.429-40.301c28.339-14.718,54.255-33.169,81.551-49.212c14.561-8.558,29.213-16.81,43.664-25.27
			c10.945-6.406,23.475-9.372,34.496-15.458c10.723-5.921,20.753-12.809,31.969-18.313c24.789-12.165,50.621-22.396,77.324-29.511
			c36.711-9.783,75.687-15.826,113.001-21.021c20.976-2.921,43.81-3.851,65.003-4.955c32.483-1.694,64.987,0.299,97.496-3.003
			c28.068-2.853,56.066-6.042,83.976-10.953c20.927-3.683,47.453-4.982,66.55-15.06c23.178-12.232,24.202-39.875,13.646-61.178
			c-12.819-25.872-35.189-29.749-61.168-34.807c-16.17-3.148-32.504-5.192-48.504-10.009c-32.813-9.877-64.576-15.413-97.992-20.771
			c-26.925-4.317-53.075-12.949-79.505-19.308c-11.774-2.833-23.577-5.241-35.472-8.135c-24.391-5.931-49.982-11.006-73.811-18.826
			c-18.708-6.139-38.141-7.076-57.258-12.467c-43.212-12.182-81.546-36.498-120.96-57.21c-24.716-12.989-50.824-26.497-76.865-36.5
			c-10.793-4.146-21.406-8.7-32.162-12.844c-25.043-9.646-51.274-15.426-78.297-17.968c-38.148-3.587-76.956-2.926-114.704,3.993
			c-16.428,3.011-35.781,6.057-50.504,13.788c-29.907,15.707-57.76,36.234-87.489,52.658
			c-23.004,12.708-48.351,20.813-71.981,31.825c-25.832,12.038-53.879,17.706-80.836,26.535c-22.86,7.486-46.043,6.945-70.164,7.238
			c-61.582,0.746-116.391-25.893-162.489-65.938c-13.558-11.776-30.499-22.56-42.126-36.494
			c-19.139-22.936-36.877-43.709-52.543-69.292c-18.693-30.524-30.486-64.148-48.366-94.754
			c-8.349-14.288-17.638-28.908-25.226-43.75c-10.985-21.485-21.916-45.684-35.972-64.979c-10.832-14.87-26.462-32.671-41.323-43.57
			c-28.902-21.196-68.254-38.471-105.033-35.232c-33.168,2.922-68.045,9.762-89.823,37.617
			c-11.179,14.301-20.966,30.615-27.305,47.312c-8.825,23.248-7.205,44.628-4.792,68.579c3.699,36.731,5.939,73.418,10.507,109.496
			c2.282,18.035,4.609,36.509,5.495,55.002c1.953,40.802,7.958,80.587,10.001,121.505c1.245,24.956,5.77,49.858,7.038,75.493
			c1.299,26.244-3.113,52.474-4.032,78.509c-0.983,27.835-0.585,56.167-3.016,83.494c-1.156,13.018-2.021,25.758-1.988,39.001
			c0.055,22.9-8.898,44.065-11.026,66.526c-1.929,20.37-4.993,41.027-8.013,61.446c-3.199,21.635-7.769,43.985-7.983,65.512
			c-0.387,38.799,5.471,78.172,27.291,110.29c15.815,23.277,44.551,36.174,69.949,46.859c29.709,12.497,61.047,20.807,90.343,34.339
			c18.443,8.52,35.3,18.095,52.654,28.513c18.356,11.021,38.813,17.858,57.735,27.763c25.982,13.6,53.474,24.468,79.81,37.972
			c15.452,7.923,33.548,16.071,47.312,26.675c19.714,15.189,37.182,30.314,55.672,47.349c16.185,14.912,33.08,30.425,46.253,47.753
			c16.969,22.322,32.864,42.493,43.204,69.223c5.966,15.428,12.754,30.476,18.422,46.021c5.03,13.795,5.308,26.368,7.325,40.758
			c2.896,20.661,6.04,40.271,7.052,61.51c1.755,36.841-8.64,75.629-15.783,111.49c-6.089,30.569-17.353,64.132-30.197,92.575
			c-21.771,48.207-50.996,92.889-83.922,133.937c-32.564,40.599-74.121,78.397-119.502,103.989
			c-14.551,8.206-28.552,16.25-43.779,23.774c-19.457,9.615-39.077,19.502-58.717,28.736c-18.09,8.505-37.147,14.386-55.505,22.207
			c-33.13,14.114-65.22,30.603-98.524,44.52c-23.366,9.763-47.381,19.015-69.978,30.386c-9.756,4.909-19.815,9.136-29.499,13.197
			c-9.33,3.913-14.099,10.07-21.621,16.748c-9.426,8.366-18.167,16.639-25.552,26.962c-19.311,26.996-36.409,62.727-45.141,94.758
			c-9.02,33.081-24.548,60.779-24.595,95.452c-0.046,34.306-0.168,69.023-7.745,102.705c-5.916,26.297-30.931,123.871,26.978,103.7
			c23.532-8.197,39.772-25.793,56.649-43.264c31.386-32.487,65.252-61.175,101.835-87.883
			c65.446-47.781,146.335-71.759,222.189-98.238c40.586-14.166,81.358-24.4,123.383-34.162
			c40.041-9.301,81.078-13.053,121.964-16.431c28.633-2.366,57.184-6.256,85.946-6.79c32.961-0.611,64.664,5.51,97.063,10.319
			c27.83,4.13,54.492,3.292,82.596,10.18c65.006,15.933,126.147,44.718,184.949,76.123c35.382,18.897,67.656,45.249,99.812,67.888
			c69.832,49.168,101.759,160.65,69.957,239.461c-18.033,44.693-51.006,84.572-94.459,106.371
			c-14.433,7.239-29.159,14.299-43.703,21.033c-23.618,10.939-51.092,12.544-75.51,21.478
			c-40.245,14.725-85.178,22.894-127.491,32.767c-34.267,7.994-66.728,17.665-100.03,29.417
			c-16.631,5.87-34.686,12.099-51.468,17.06c-38.2,11.292-69.172,34.531-103.972,52.783c-25.421,13.334-48.334,29.808-73.029,44.262
			c-16.123,9.437-31.982,20.845-47.581,31.406c-28.603,19.363-54.517,42.338-80.408,64.862
			c-12.108,10.535-24.882,18.821-36.59,29.808c-12.002,11.26-24.364,24.153-37.563,34.008
			c-31.663,23.637-114.842,134.215-40.972,112.361c19.06-5.639,89.647-30.628,121.083-44.209
			c26.794-11.578,53.05-22.587,81.044-29.225c35.213-8.351,69.601-23.016,104.896-32.02c26.801-6.838,52.052-11.668,78.14-20.993
			c22.614-8.084,47.138-11.97,71.008-13.997c31.333-2.664,63.41-3.535,94.951-2.018c70.876,3.408,143.332,17.058,200.47,61.267
			c15.57,12.048,29.661,25.949,41.753,41.493c24.492,31.482,46.423,70.294,58.736,108.229
			c10.216,31.477,18.144,66.724,23.084,100.013c3.61,24.325,8.13,49.69,1.965,74.008c-2.185,8.618-4.722,17.032-7.503,25.61
			c-5.988,18.475-12.536,37.373-20.264,55.396c-13.742,32.048-22.937,65.356-38.719,97.483
			c-17.036,34.67-51.892,66.225-84.377,86.373c-12.137,7.526-25.133,11.883-37.066,19.695
			c-13.199,8.641-26.373,17.339-40.066,25.189c-10.816,6.201-20.766,13.076-32.05,18.998c-12.413,6.516-24.278,12.33-36.047,20.01
			c-16.103,10.483-34.078,14.822-51.233,23.477c-19.271,9.725-37.581,21.979-53.608,36.459
			c-30.416,27.481-41.32,51.895-35.083,92.366c4.9,31.8,14.136,61.571,20.773,92.899c6.582,31.072,6.91,68.43,5.223,101.028
			c-1.045,20.175-5.219,39.697-10.014,59.019c-4.594,18.51-12.068,38.467-21.73,55.045c-7.307,12.531-16.722,27.768-27.238,37.953
			c-18.416,17.836-40.561,33.875-61.639,48.295c-11.986,8.201-24.512,15.367-37.48,21.812c-2.627,1.306-5.266,2.592-7.93,3.84
			c-46.099,21.565-89.979,40.957-139.97,51.021c-15.67,3.153-29.058,6.485-44.979,4.193c-29.537-4.252-57.748-14.48-87.304-19.641
			c-32.684-5.707-63.375-13.94-94.313-26.535c-25.216-10.264-54.97-16.998-77.364-32.619
			c-20.009-13.959-42.477-27.131-64.668-37.354c-40.208-18.521-81.58-25.458-115.182-56.735
			c-21.463-19.98-56.866-59.957-88.4-56.351c-23.115,2.646-20.647,23-14.918,42.024c17.66,58.63,38.452,113.022,44.538,174.785
			c4.847,49.195,14.323,101.672,38.709,146.244c17.646,32.258,40.655,64.726,74.071,82.06
			c37.85,19.634,82.494,24.968,123.771,33.994c10.696,2.339,22.034,3.101,33.052,4.901c22.261,3.642,45.256,9.871,67.484,14.562
			c57.136,12.056,115.946,26.161,168.288,51.556c17.904,8.686,35.492,18.064,52.499,28.41
			c33.226,20.212,64.981,44.232,89.631,74.574c15.892,19.56,30.76,41.578,42.767,63.981c18.938,35.341,36.588,70.722,40.955,110.97
			c3.591,33.097,2.914,65.824-3.468,97.762c-3.066,15.351-6.905,31.035-12.782,46.279c-4.011,10.4-9.067,20.004-14.765,29.172
			c-10.644,17.127-23.562,32.703-36.33,48.903c-7.353,9.329-15.333,18.158-22.085,27.953c-18.79,27.257-49.66,47.359-77.523,64.72
			c-17.482,10.891-34.496,21.587-51.803,32.574c-37.021,23.51-75.146,42.326-101.45,78.701
			c-11.987,16.578-15.069,31.5-16.048,51.438c-0.548,11.143,0.792,21.425,3.013,31.507c4.296,19.497,15.098,39.003,28.247,54.745
			c32.609,39.039,66.641,80.945,87.756,127.189c22.396,49.047,40.336,107.355,43.012,161.566
			c0.713,14.456-3.676,28.954-5.603,43.043c-2.161,15.807-6.722,31.301-11.62,46.447c-9.404,29.076-24.721,57.193-42.328,82.181
			c-9.771,13.868-20.426,26.298-29.959,40.806c-13.177,20.055-33.204,46.111-52.969,60.059
			c-32.527,22.953-62.776,41.662-90.527,58.953c-38.149,23.77-86.398,61.285-161,101c-33.705,17.943-70.495,61.461-73,102
			c-2.361,38.209,27,53,60,66c30.961,12.197,57-2,86.861-12.73c25.547-9.182,49.789-27.699,70.967-44.037
			c22.636-17.465,45.669-35.029,68.568-52.221c15.652-11.75,38.166-25.606,54.604-37.012
			c37.359-25.924,71.224-44.018,110.066-68.071c43.886-27.177,96.106-46.483,139.934-73.929c19.785-12.392,39.946-27.982,49-50.002
			c16.357-39.778,7.925-85.906,9.991-128.008c1.321-26.942,5.003-52.573,5.007-79.986c0.008-53.314,3.163-108.291,11.213-160.781
			c8.877-57.891,30.73-113.078,55.063-165.994c19.618-42.662,44.75-81.051,68.756-121.217c11.918-19.941,25.406-37.521,39.93-56.563
			c4.866-6.379,9.82-12.703,14.85-18.974c27.557-34.353,57.67-66.863,91.514-95.245c38.017-31.881,75.679-58.553,120.779-79.234
			c20.592-9.443,41.556-18.184,62.935-25.974c22.797-8.308,46.243-17.896,70.303-21.375c21.739-3.146,45.486-7.473,66.642-13.612
			c16.164-4.691,33.184-8.896,50.111-7.707c32.872,2.306,67.339,13.334,98.701,22.895c34.598,10.547,69.348,21.167,105.203,26.543
			c34.783,5.216,77.005,20.766,111.999,9.005c27.833-9.353,49.724-21.276,73.717-38.022c10.278-7.176,19.603-14.314,29.294-22.506
			c18.925-15.994,37.516-32.605,55.988-48.746c18.674-16.318,39.798-29.832,58.513-45.494c20.001-16.74,41.019-30.414,63.49-43.269
			c12.272-7.021,24.909-13.205,38.002-18.476c38.903-15.666,78.084-23.217,120-25.256c29.391-1.428,60.526-3.029,90.437-4.502
			c31.205-1.537,61.607-4.696,93.063-5.502c24.996-0.641,50.251-4.068,75.553-4c50.695,0.14,101.359-1.998,151.957-1.996
			c16.71,0,31.304,2.709,46.966-1.479c35.797-9.571,71.1-30.079,96.989-55.474c11.555-11.334,21.019-23.611,30.653-36.558
			c13.51-18.159,27.003-35.746,41.878-53.019c16.71-19.406,32.3-40.771,49.738-59.222c7.19-7.606,15.153-14.03,22.76-21.26
			c8.991-8.543,13.996-20.034,22.961-29.008c16.428-16.438,30.63-34.112,47.64-50.022c12.263-11.471,27.384-20.496,41.36-29.223
			c22.199-13.859,46.285-26.063,70.041-36.98c56.33-25.888,112.151-45.928,174.233-52.701c30.129-3.289,60.925-1.057,91.724-1.059
			c33.673-0.004,67.261,4.696,100.949,2.684c24.656-1.471,64.414-4.565,81.824-24.691c8.57-9.908,13.238-22.908,19.084-34.475
			c11.795-23.33,19.357-47.571,23.188-73.502c4.034-27.316,8.002-56.389,8.002-84.018c0-22.169-2.884-43.218-4-65.002
			c-2.654-51.813-4.495-103.262-1.999-154.993c0.708-14.66,0.491-28.442,1.22-43.002c1.444-28.896,4.558-56.951,7.727-85.063
			c4.811-42.672,15.777-84.547,25.836-126.162c7.32-30.293,12.693-60.44,22.086-90.244c9.338-29.619,20.988-59.641,31.909-88.756
			c7.552-20.135,17.089-39.908,25.474-59.777c16.645-39.438,34.144-78.221,52.998-116.751c4.967-10.149,8.416-20.603,14-31.026
			c5.996-11.192,13.082-20.478,18.242-32.142c5.916-13.371,12.92-26.356,19.986-39.147c14.193-25.688,29.87-50.545,46.297-74.858
			c33.777-49.996,74.634-98.128,120.943-136.334c11.209-9.247,20.214-20.841,31.221-30.31c10.266-8.83,21.875-11.791,33.003-18.906
			c27.468-17.568,56.375-32.76,87.562-42.602c37.426-11.811,76.64-8.771,114.92-18.416c28.356-7.143,51.504-15.464,53.588-48.498
			C5885.057,4158.955,5884.506,4142.336,5879.01,4127.47z M3490.855,3048.128c14.885-13.884,34.18-24.128,52.061-33.525
			c36.072-18.958,75.303-32.26,110.085-53.627c38.099-23.405,67.806-59.884,107.47-80.075c7.966-4.055,16.569-8.211,25.586-12.149
			c32.396-14.15,70.131-25.484,102.858-19.159c35.614,6.883,76.839,31.859,103.093,55.902
			c39.072,35.787,41.284,71.188,33.098,122.083c-3.098,19.257-6.861,47.201-17.272,63.985c-10.848,17.486-31.963,20.5-50.197,28.955
			c-26.47,12.271-42.205,39.037-67.229,55.419c-7.93,5.19-16.298,9.974-25.032,14.364c-84.435,42.437-203.14,48.136-290.935,29.729
			c-37.25-7.811-87.109-12.866-112.521-45.021C3431.084,3135.986,3458.965,3077.875,3490.855,3048.128z" style="stroke:black;fill:#f2f1f0"/></g>
<g id="278103151" order="12" parent_id="" graphic_group_label_id="266932194" graphic_group_label="Atlas - Human Gyri" sub_image_id="102339949" transform=" scale(7.0, 7.0)"><path id="278103152" parent_id="278103151" order="12" structure_id="4889" d="
			M6504.216,4532.591c-6.126-54.735-9.006-109.489-21.856-163.24c-12.349-51.642-27.549-102.479-42.797-153.317
			c-13.153-43.862-19.147-88.304-34.574-132.629c-17.896-51.42-36.373-102.531-65.943-150.262
			c-50.963-82.256-112.381-159.084-190.045-217.646c-30.215-22.784-57.906-50.459-90.057-71.506
			c-15.168-9.931-30.498-19.682-46-29.998c-37.944-25.254-79.233-43.918-123.877-53.324c-22.176-4.672-45.121-7.563-67.793-5.631
			c-17.336,1.477-34.254,7.395-51.426,10.127c-18.951,3.016-38.17,4.215-57.35,4.215c-26.257,0-51.521-2.307-73.154-5.273
			c-17.75-2.434-35.402-5.599-52.914-9.388c-16.906-3.659-33.703-8.711-51.192-7.269c-19.946,1.646-40.269,1.527-59.642,7.181
			c-2.984,0.871-6.123,2.114-9.256,2.407c-9.687,0.903-19.598,2.371-29.457,2.646c-13.135,0.365-26.362-0.832-39.615,0.345
			c-9.342,0.83-18.537,2.226-27.865,3.026c-13.197,1.134-26.332-0.171-39.479,1.881c-6.581,1.027-13.485,0.634-20.422,0.074
			c-69.956,515.679-251.535,793.683-302.04,862.653c5.089,3.779,1.611,13.225-2.706,17.576
			c-13.726,13.836-30.987,18.166-46.033,28.985c-7.626,5.483-15.201,10.806-22.763,16.375
			c-18.326,13.498-34.662,30.028-51.039,45.759c-9.892,9.501-20.119,19.325-30.592,28.637
			c-18.537,16.475-38.117,32.905-57.055,48.797c-11.355,9.528-23.1,19.383-34.417,29.08c-5.185,4.441-10.483,8.924-15.61,13.258
			c-20.688,17.49-42.076,35.576-61.051,55.498c-20.526,21.555-41.645,47.678-61.07,75.547c-6.742,9.674-13.077,19.883-19.203,29.754
			c-5.93,9.554-10.926,19.599-15.743,29.738c-4.188,8.816-8.242,17.704-12.655,26.4c-6.291,12.399-15.015,23.297-21.746,35.43
			c-10.021,18.063-19.649,36.293-30.53,54.029c-12.918,21.058-30.909,40.322-45.991,60.023
			c-11.115,14.52-26.416,26.091-40.259,37.714c-13.42,11.269-25.537,23.446-37.085,36.104
			c-17.15,18.799-33.045,38.654-50.084,58.148c-38.426,43.962-86.032,78.932-137.566,106.145
			c-26.438,13.959-53.172,27.301-81.388,37.307c-15.526,5.506-31.368,10.148-46.753,16.051
			c-10.491,4.025-21.256,8.818-31.907,13.793c-8.68,4.055-17.284,8.229-25.604,12.207c-26.91,12.904-53.705,24.2-83.053,31.426
			c-29.91,7.363-57.15,17.566-86.096,28.116c-37.839,13.79-75.841,27.153-113.324,42.135c-19.541,7.812-40.845,8.679-60.914,15.052
			c-27.202,8.639-52.861,18.365-80.012,27.626c-9.484,3.235-49.988,18.479-51.228-1.942l-540.828,220.338
			c7.253,25.537,21.873,44.611,45.69,60.166c9.773,6.383,19.74,12.242,29.383,18.625c12.268,8.123,28.229,10.047,41.988,14.724
			c15.824,5.378,36.217,7.765,52.27,9.21c25.874,2.328,49.893,1.359,75.74,6.031c14.475,2.615,29.771-0.403,44.283-1.018
			c14.242-0.602,28.541,0.077,42.524,0.959c19.519,1.229,38.944-2.881,58.376-3.948c19.003-1.043,37.129,2.843,56.16,1.961
			c75.302-3.49,151.285-6.586,225.454-15.04c33.743-3.848,67.618-3.373,100.944-9.984c51.422-10.203,103.588-15.508,154.534-25.945
			c15.289-3.133,30.977-7.725,46.724-11.262c32.061-7.201,65.198-16.967,96.746-27.717c28.979-9.877,58.813-16.697,88.225-25.234
			c36.177-10.5,70.538-26.154,104.841-41.512c32.504-14.551,67.151-25.691,97.914-43.535c28.267-16.396,54.481-35.602,83.556-51.246
			c53.149-28.604,95.861-73.946,133.244-120.506c10.541-13.129,22.713-24.826,34.027-37.313
			c19.794-21.844,38.854-43.157,57.668-65.854c10.469-12.629,18.214-26.511,27.796-39.545c8.949-12.174,20.532-23.063,29.755-35.285
			c3.484-4.619,6.652-10.17,10.25-14.979c7.816-10.454,14.191-21.474,20.973-32.187c27.115-42.854,53.586-84.573,81.054-127.647
			c15.763-24.716,33.63-47.554,47.444-73.194c5.877-10.91,10.959-22.717,18.031-33.229c34.047-50.6,69.021-100.707,104.297-150.566
			c10.106-14.283,20.979-27.545,31.703-41.201c8.313-10.586,20.166-18.228,27.574-29.597c9.121-13.996,19.412-26.498,30.73-39.173
			c21.223-23.764,44.354-44.193,66.697-66.509c7.109-7.103,13.774-13.476,20.76-20.737c14.357-14.929,28.465-30.086,40.265-47.037
			c12.341-17.733,23.83-35.375,37.083-52.519c19.046-24.636,40.635-47.724,58.354-73.403c14.492-21.002,28.062-42.621,41.512-64.299
			c10.971-17.678,17.787-37.694,27.382-56.102c6.31-12.102,16.565-22.157,21.274-35.132c4.867-13.409,9.054-26.522,15.226-39.679
			c14.394-30.678,31.69-60.33,40.369-93.338c4.042-15.377,5.242-29.75,6.978-46.527c4.438-42.957-0.203-86.713,4.099-129.998
			c2.955-29.739,12.96-65.313,41.435-80.939c17.801-9.771,37.317-8.641,56.717-5.701c9.254,1.402,19.117,2.123,28.215,4.156
			c8.392,1.875,14.933,6.521,23.156,9.229c7.329,2.41,15.139,3.26,22.411,5.813c31.69,11.148,60.759,31.514,85.799,53.757
			c26.631,23.657,51.474,47.85,75.72,73.743c19.83,21.177,42.447,47.76,52.506,74.959c5.498,14.869,6.049,31.488,5.004,48.041
			c-2.084,33.035-25.231,41.356-53.588,48.498c-38.28,9.646-77.494,6.605-114.92,18.416c-31.187,9.842-60.094,25.033-87.562,42.602
			c-11.128,7.116-22.737,10.077-33.003,18.907c-11.007,9.468-20.012,21.062-31.221,30.31
			c-46.31,38.205-87.166,86.338-120.943,136.334c-16.427,24.313-32.104,49.17-46.297,74.858
			c-7.066,12.791-14.07,25.776-19.986,39.147c-5.16,11.664-12.246,20.949-18.242,32.141c-5.584,10.425-9.033,20.878-14,31.027
			c-18.854,38.53-36.354,77.313-52.998,116.75c-8.385,19.869-17.922,39.644-25.474,59.777
			c-10.921,29.116-22.571,59.137-31.909,88.757c-9.393,29.804-14.766,59.95-22.086,90.244
			c-10.059,41.615-21.025,83.49-25.836,126.162c-3.169,28.112-6.282,56.168-7.727,85.063c-0.729,14.56-0.512,28.342-1.22,43.002
			c-2.496,51.73-0.655,103.181,1.999,154.992c1.116,21.785,4,42.834,4,65.002c0,27.629-3.968,56.701-8.002,84.018
			c-3.83,25.932-11.393,50.172-23.188,73.503c-5.846,11.565-10.514,24.565-19.084,34.474c-17.41,20.127-57.168,23.221-81.824,24.692
			c-33.688,2.013-67.276-2.688-100.949-2.685c-30.799,0.002-61.595-2.229-91.724,1.059c-62.082,6.773-117.903,26.814-174.233,52.702
			c-23.756,10.918-47.842,23.121-70.041,36.979c-13.977,8.727-29.098,17.752-41.36,29.224c-17.01,15.91-31.212,33.583-47.64,50.022
			c-8.965,8.974-13.97,20.465-22.961,29.008c-7.606,7.229-15.569,13.652-22.76,21.26c-17.438,18.449-33.028,39.814-49.738,59.221
			c-14.875,17.273-28.368,34.859-41.878,53.02c-9.635,12.946-19.099,25.224-30.653,36.558
			c-25.89,25.394-61.192,45.901-96.989,55.474c-15.662,4.188-30.256,1.479-46.966,1.479c-50.598-0.001-101.262,2.137-151.957,1.997
			c-25.302-0.069-50.557,3.358-75.553,3.999c-31.455,0.807-61.857,3.966-93.063,5.502c-29.91,1.473-61.046,3.074-90.437,4.503
			c-41.916,2.038-81.097,9.59-120,25.255c-13.093,5.271-25.729,11.455-38.002,18.477c-22.472,12.854-43.489,26.528-63.49,43.268
			c-18.715,15.663-39.839,29.177-58.513,45.494c-18.473,16.141-37.063,32.753-55.988,48.747c-9.691,8.19-19.016,15.33-29.294,22.505
			c-23.993,16.747-45.884,28.67-73.717,38.023c-34.994,11.761-77.216-3.789-111.999-9.006
			c-35.855-5.375-70.605-15.996-105.203-26.543c-31.362-9.561-65.829-20.588-98.701-22.895c-16.928-1.188-33.947,3.016-50.111,7.707
			c-21.155,6.141-44.902,10.467-66.642,13.613c-24.06,3.479-47.506,13.067-70.303,21.375c-21.379,7.789-42.343,16.529-62.935,25.973
			c-45.101,20.682-82.763,47.354-120.779,79.234c-33.843,28.382-63.955,60.892-91.511,95.243l0-0.001
			c-5.033,6.275-9.988,12.6-14.854,18.979c-14.523,19.041-28.011,36.621-39.93,56.563c-24.005,40.166-49.137,78.556-68.755,121.217
			c-24.333,52.916-46.187,108.104-55.063,165.994c-8.05,52.49-11.205,107.467-11.213,160.781
			c-0.004,27.413-3.685,53.044-5.007,79.986c-2.065,42.102,6.366,88.229-9.991,128.008c-9.054,22.02-29.215,37.61-49,50.002
			c-43.826,27.445-96.048,46.752-139.933,73.929c-38.843,24.054-72.708,42.147-110.067,68.071
			c-16.438,11.405-38.951,25.262-54.603,37.012c-22.9,17.191-45.934,34.756-68.569,52.221
			c-21.178,16.338-45.42,34.855-70.967,44.037c-29.861,10.73-55.9,24.928-86.861,12.73c-33-13-62.36-27.791-60-66
			c2.505-40.539,39.295-84.057,73-102c74.603-39.715,122.852-77.23,161-101c27.751-17.291,58-36,90.527-58.953
			c19.765-13.947,39.792-40.004,52.969-60.059c9.533-14.508,20.188-26.938,29.959-40.806c17.607-24.987,32.924-53.104,42.328-82.181
			c4.898-15.146,9.459-30.641,11.62-46.447c1.927-14.089,6.315-28.587,5.603-43.043c-2.676-54.211-20.614-112.52-43.012-161.566
			c-21.115-46.244-55.146-88.15-87.756-127.189c-13.148-15.742-23.951-35.248-28.247-54.745c-2.221-10.082-3.56-20.364-3.013-31.507
			c0.979-19.938,4.061-34.859,16.048-51.438c26.304-36.375,64.429-55.191,101.451-78.701c17.306-10.987,34.319-21.684,51.802-32.574
			c27.864-17.36,58.734-37.463,77.523-64.72c6.752-9.795,14.732-18.624,22.086-27.953c12.768-16.2,25.686-31.776,36.33-48.903
			l-259.797-157.381c-3.223,1.582-6.972,2.373-10.223,2.91c-12.142,1.998-23.889,2.653-36.65,2.652
			c-20.526-0.002-39.771-0.083-60.149,3.148c-21.276,3.377-42.291,8.187-63.488,12.004c-30.832,5.551-61.582,11.649-91.97,19.299
			c-33.325,8.389-60.885,19.02-88.302,40.412c-14.364,11.207-28.255,22.767-41.524,35.19
			c-11.101,10.394-23.142,21.603-32.976,33.381c-9.462,11.335-16.005,25.424-23.839,38.187c-6.068,9.887-12.213,19.213-17.47,29.732
			c-14.277,28.561-32.461,54.762-45.103,84.419c-8.125,19.063-17.24,39.169-21.409,58.952
			c-4.012,19.034-13.021,36.893-18.553,55.575c-6.429,21.709-11.862,43.722-16.013,65.981c-3.442,18.463-5.536,37.731-4.596,56.685
			c0.776,15.638,0.224,32.51,5.775,46.871c5.949,15.39,9.657,31.321,17.582,45.908c7.671,14.117,15.902,27.174,25.309,40.285
			c8.303,11.573,17.188,22.664,25.642,34.086c15.92,21.515,38.281,40.819,59.822,56.834c23.542,17.502,52.78,26.468,80.157,35.187
			c26.146,8.326,53.273,16.062,80.342,21.819c14.562,3.097,27.891,6.479,41.86,11.026c9.097,2.961,19.409,7.025,25.779,14.508
			c5.274,6.194,8.396,21.908-2.974,23.688c-12.396,1.934-20.838-6.837-31.961-9.352c-6.911-1.563-14.507-1.94-21.693-2.658
			c-7.238-0.722-12.744-1.047-18.855-4.67c-9.377-5.558-17.099-13.652-26.831-18.617c-9.588-4.894-20.821-6.689-31.038-10.062
			c-10.738-3.544-21.059-4.132-31.97-6c-5.85-1.001-11.771-0.625-17.621-1.724c-11.326-2.129-20.815-4.817-32.493-4.119
			c-12.954,0.772-25.719,3.357-38.551,5.146c-8.28,1.153-15.944,3.548-23.976,6.108c-15.073,4.804-29.337,11.754-42.691,20.26
			c-20.869,13.287-40.104,26.004-58.701,42.354c-27.353,24.048-50.323,53.148-71.866,82.678
			c-14.604,20.019-24.767,43.141-36.114,65.207c-11.439,22.246-23.289,44.342-32.628,67.582
			c-4.092,10.183-6.188,20.668-10.002,31.015c-3.528,9.578-5.069,19.767-8.256,29.325c-3.604,10.813-6.785,21.602-8.861,32.829
			c-4.154,22.464-4.851,45.547-2.555,68.263c1.961,19.394,3.247,38.912,5.862,58.037c2.501,18.293,5.738,36.244,7.484,54.697
			c3.517,37.166,15.455,73.785,20.676,111.071c4.875,34.815,10.367,70.892,11.993,106.056c1.597,34.531,10.086,66.789,17.943,99.459
			c3.36,13.973,0.869,28.369,2.938,42.47c2.118,14.442,7.746,26.013,13.806,39.028c3.391,7.279,8.453,13.727,14.639,19.385
			c16.112,14.74,38.733,23.754,58.851,30.89c13.954,4.95,29.927,8.485,44.546,10.731c19.16,2.944,37.298,7.629,56.974,8.031
			c19.032,0.389,38.514,3.26,57.5,3.502c31.293,0.398,58.442-0.168,89.457-1.674c32.521-1.576,63.146-9.471,95.543-10.333
			c34.139-0.909,68.756-5.226,103.5-13.009c33.5-7.504,60.832-14.729,92.457-21.714c40.304-8.903,78.623-24.88,117.834-37.537
			c13.213-4.265,26.364-8.722,39.422-13.442c5.801-2.097,11.57-4.83,17.649-5.853c5.318-0.896,10.673-1.026,15.729-3.302
			c5.12-2.305,9.805-5.359,14.88-7.77c11.38-5.404,23.105-10.349,34.491-15.748c21.971-10.418,44.242-19.283,66.354-29.012
			c18.939-8.331,36.865-18.807,56.03-27.275c20.965-9.266,41.427-20.123,61.616-30.98c14.811-7.964,27.632-20.889,43.187-27.262
			c15.647-6.412,30.495-15.348,45.594-23.256c18.052-9.459,33.63-19.893,50.665-30.933c18.583-12.041,36.086-23.705,53.729-36.937
			c13.827-10.371,28.61-19.783,42.668-29.854c15.422-11.048,29.516-23.775,45.024-34.667c16.601-11.658,32.098-25.131,47.619-38.172
			c8.262-6.94,17.658-13.198,25.194-20.733c11.042-11.041,22.485-20.729,33.678-31.664c8.39-8.199,18.167-15.643,26.149-24.179
			c16.764-17.924,32.396-37.088,48-56.045c20.313-24.679,42.168-49.53,58.177-77.339c10.705-18.598,21.377-37.214,31.666-56.046
			c8.454-15.476,14.271-32.185,21.282-48.319c6.688-15.39,15.404-29.608,23.369-44.261c8.146-14.983,15.629-30.771,23.65-45.681
			c6.948-12.914,10.923-28.054,16.123-41.601c5.432-14.151,10.145-29.937,14.714-44.315c9.833-30.946,17.837-62.961,13.698-95.535
			c-5.01-39.42-28.568-75.908-60.025-99.772c-29.188-22.142-54.105-42.271-86.486-59.413c-16.1-8.521-38.816-15.82-55.651-22.748
			c-14.726-6.063-28.56-7.618-43.989-10.798c-20.433-4.212-41.35-7.985-60.549-16.474c-11.412-5.047-23.365-13.1-24.04-26.737
			c-0.255-5.153,1.123-11.054,3.831-16.209l0,0c3.195-6.081,8.243-11.124,14.666-12.669c11.858-2.852,21.916,9.626,30.064,17.102
			c19.556,17.937,38.604,36.799,60.699,51.656c21.611,14.531,52.545,22.219,75.421,34.328
			c27.911,14.775,49.037,31.051,75.235,48.689c20.484,13.793,42.498,21.34,65.338,29.983c20.327,7.688,45.449,8.625,67.668,9.7
			c74.637,3.611,145.02-26.08,211.946-55.475c53.716-23.59,109.046-43.236,163.025-66.192
			c81.188-34.526,158.046-78.53,239.952-111.458c120.502-48.439,256.261-53.596,383.326-74.659
			c39.586-6.563,78.981-16.365,118.061-25.449c24.93-5.795,49.84-11.604,73.682-21.214c43.084-17.363,84.254-39.741,122.842-65.561
			c34.869-23.332,64.604-53.492,99.471-76.488c50.823-33.521,108.833-53.135,163.255-79.686
			c54.458-26.564,100.707-66.939,156.219-91.44c34.422-15.192,71.455-15.188,106.224-27.878
			c68.334-24.938,130.821-64.05,198.182-91.83c35.391-14.596,72.271-25.459,107.52-40.438c7.799-3.313,15.857-8.28,23.304-12.389
			c97.008-53.52,186.782-139.296,254.117-226.688c64.292-83.442,101.006-177.379,118.3-280.658
			c3.128-18.685,7.779-37.574,8.932-56.472c3.354-55.081,7.071-110.653,1.174-165.698c-5.131-47.893-25.35-87.534-25.861-136.021
			c-0.585-55.309-3.055-110.623-8.176-165.703c-2.584-27.793-6.241-55.395-9.913-83.056c-3.622-27.292-2.624-54.823-3.978-82.252
			c-1.236-25.046-9.076-44.913,0.244-68.88c4.479-11.516,9.334-22.314,13.321-34.158c1.935-5.746,4.208-10.727,5.681-16.523
			c2.896-11.416,5.813-21.69,6.76-33.467c0.93-11.586,3.25-23.592,2.701-35.295c-1.063-22.59-1.773-46.373-3.982-68.828
			c-0.797-8.061-3.177-15.906-2.967-24.096c0.371-14.453,12.042-11.936,17.416-0.518c20.646,43.889,8.746,93.295,2.385,138.69
			c-2.688,19.19-2.545,38.446-3.477,58.37c-0.938,20.016-3.97,39.836-4.004,59.704c-0.03,18.86-0.084,39.724,2.701,58.037
			c1.348,8.862,0.844,19.099-0.041,28.01c-1.396,14.067,0.188,29.217-0.16,43.478c-0.426,17.545-1.647,35.06-2.502,52.586
			c-1.069,21.932-0.267,44.263-1.334,66.092c-0.994,20.352-2.39,41.256-1.332,61.98c1.008,19.729,3.572,38.352,7.345,57.38
			c19.099,96.376,60.331,210.437,160.165,249.656c35.032,13.763,70.212,28.558,108.07,28.12
			c39.816-0.458,79.264-8.279,117.862-17.529c132.231-31.705,215.478-174.474,275.896-285.145
			c23.701-43.414,44.211-88.404,67.063-132.236c29.045-55.711,60.059-117.961,66.355-181.418
			c4.688-47.307,2.853-98.359,3.838-146.143C6516.521,4684.788,6512.427,4605.955,6504.216,4532.591z" style="stroke:black;fill:#e8c359"/><path id="278103157" parent_id="278103151" order="45" structure_id="4029" d="
			M3574.439,3220.029c96.877,20.312,231.39,11.271,315.965-44.092c25.024-16.383,40.761-43.146,67.229-55.42
			c18.234-8.455,39.351-11.469,50.197-28.955c10.411-16.783,14.176-44.728,17.272-63.984c8.188-50.896,5.976-86.296-33.098-122.083
			c-26.254-24.042-67.479-49.02-103.093-55.902c-41.836-8.085-91.856,12.685-128.442,31.308
			c-39.664,20.191-69.371,56.67-107.47,80.075c-34.782,21.367-74.013,34.669-110.085,53.627
			c-17.881,9.397-37.176,19.642-52.061,33.525c-31.891,29.747-59.771,87.858-28.938,126.881
			C3487.33,3207.163,3537.189,3212.219,3574.439,3220.029z" style="stroke:black;fill:#e8cd59"/><path id="278103154" parent_id="278103151" order="45" structure_id="4029" d="
			M3553.982,5482.434c-0.009-0.153-0.022-0.304-0.027-0.461c-0.432-14.328,25.443-23.408,35.33-28.438
			c13.498-6.865,27.766-13.117,42.277-17.536c74.293-22.612,152.729-46.345,229.839-57.508
			c38.787-5.615,72.87-22.362,110.515-32.115c14.202-3.679,29.122-5.069,42.74-10.558C4075,5311.5,4114,5298.5,4181.627,5272.96
			c47.564-17.963,89.357-48.638,128.016-81.778c23.301-19.977,43.023-43.588,62.627-67.084
			c23.506-28.174,51.804-54.424,73.444-83.818c19.685-26.738,46.949-54.65,60.192-85.372c3.737-8.673,4.238-17.412,9.317-26.159
			c8.931-15.375,19.438-29.583,29.78-44.232c17.498-24.781,41.401-43.726,57.519-69.693c6.153-9.916,12.519-20.17,19.321-29.932
			c19.539-28.035,40.791-54.32,61.455-76.019c19.123-20.079,40.598-38.235,61.363-55.794c5.122-4.331,10.418-8.809,15.591-13.241
			c11.335-9.712,23.085-19.571,34.449-29.108c18.915-15.871,38.476-32.285,56.967-48.723c10.417-9.258,20.616-19.057,30.479-28.529
			c15.015-14.422,30.541-29.336,47.301-42.816c16.655-13.396,33.914-26.658,49.795-40.91c6.084-5.46,15.205-24.964,24.463-23.534
			c1.576,0.243,2.811,0.749,3.752,1.448c50.506-68.971,232.084-346.973,302.041-862.652c-6.672-0.539-13.373-1.232-19.838-0.968
			c-7.045,0.289-14.15,0.673-21.184,1c-7.729,0.358-15.014,0.708-22.613,1.5c-19.072,1.988-37.984,3.89-57.021,6.352
			c-11.111,1.437-22.204,1.752-33.323,3.137c-23.278,2.899-46.126,9.383-69.269,13.286c-17.862,3.013-36.228,6.213-53.77,10.731
			c-17.568,4.526-34.605,10.115-52.379,14.024c-19.63,4.318-39.163,8.742-58.945,11.748c-18,2.733-36.101,6.326-54.037,9.292
			c-11.025,1.821-21.908,4.438-32.637,7.562c-15.932,4.641-31.482,10.467-47.352,15.31c-13.385,4.084-26.867,7.84-40.297,11.771
			c-12.567,3.681-24.636,8.862-37.223,12.447c-35.202,10.024-69.302,24.618-104.218,35.932
			c-15.845,5.134-31.425,11.708-46.728,18.254c-6.238,2.67-12.428,5.714-18.674,8.192c-3.76,1.492-7.315,2.908-10.918,4.908
			c-13.861,7.697-27.897,15.284-42.373,21.97c-13.269,6.129-27.293,11.364-40.17,18.049c-13.941,7.237-27.189,15.731-41.004,23.202
			c-10.362,5.604-19.975,12.88-29.27,19.916c-6.275,4.75-12.766,9.663-19.477,14.062c-34.342,22.509-68.402,49.79-107.191,85.854
			c-17.164,15.958-35.316,31.865-52.872,47.249c-6.394,5.601-12.776,11.196-19.12,16.796c-11.98,10.579-24.725,20.931-37.047,30.94
			c-22.52,18.295-45.804,37.212-65.643,58.454c-13.216,14.151-25.896,28.932-38.77,45.184l-0.5,0.633
			c-30.818,38.914-59.928,75.67-85.718,117.08c-18.726,30.065-32.599,53.984-44.984,77.557c-3.27,6.223-6.862,12.504-9.452,19.048
			c-2.17,5.49-0.396,10.976-0.108,16.585c0.258,5.041-0.845,9.982-2.737,14.631c-3.709,9.105-10.064,16.798-14.545,25.496
			c-5.027,9.764-7.709,19.909-10.466,30.477c-3.142,12.047-8.422,23.254-11.337,35.324c-2.825,11.699-5.655,23.4-9.068,34.944
			c-2.581,8.729-6.972,17.16-8.259,26.231c-0.694,4.891-0.062,13.748-5.99,15.742c-6.437,2.164-4.255-13.84-3.971-16.474
			c1.078-10.005,1.794-20.399,3.297-30.308c1.884-12.416,7.586-24.744,11.511-36.633c6.447-19.533,14.202-38.194,22.938-56.805
			c12.333-26.282,23.796-53.016,37.306-78.727c12.397-23.596,26.282-47.535,45.021-77.619
			c25.82-41.461,54.947-78.237,85.783-117.174l0.5-0.631c12.89-16.275,25.588-31.076,38.822-45.246
			c19.885-21.293,43.197-40.231,65.742-58.547c12.314-10.004,25.049-20.35,37.016-30.916c6.344-5.601,12.729-11.196,19.123-16.799
			c17.549-15.378,35.696-31.279,52.85-47.228c38.832-36.104,72.936-63.417,107.325-85.958c6.685-4.38,13.158-9.282,19.421-14.022
			c9.325-7.059,18.967-14.357,29.396-19.999c11.59-6.268,24.289-14.089,38.824-23.91c0.744-0.502,1.479-0.984,2.205-1.463
			c2.444-1.608,4.756-3.127,7.088-5.158l6.252-5.734c7.274-8.833,11.947-20.124,13.537-31.12
			c4.623-31.971-24.441-52.009-48.992-64.778c-14.399-7.489-27.064-18.08-37.138-30.793c-4.933-6.228-10.464-12.121-14.408-19.063
			c-1.567-2.76-6.44-12.62-4.367-15.872c3.991-6.259,11.06,8.711,12.304,11.676c3.063,7.307,5.014,15.098,10.069,21.395
			c9.634,11.994,21.729,22.008,35.381,29.107c17.617,9.162,33.377,22.667,52.47,28.822c23.472,7.566,46.267-0.636,69.51-4.916
			c32.936-6.064,64.92-16.26,96.652-26.786c15.111-5.012,30.221-10.034,45.406-14.817c37.951-11.952,75.584-21.773,113.97-31.859
			c48.961-12.865,97.851-27.313,147.979-34.85c24.684-3.711,47.353-5.543,70.516-15.326c9.335-3.943,17.9-10.247,25.188-17.512
			c10.943-10.909,20.228-20.282,28.006-33.996c11.721-20.664,22.883-43.063,31.526-65.203c4.364-11.178,6.563-23.765,10.801-35.368
			c3.921-10.737,6.545-21.229,8.924-32.351c3.351-15.665,8.354-30.982,8.699-47.544c0.405-19.417-2.524-38.782-2.454-58.208
			c0.048-12.675,1.994-24.822,1.997-37.678c0.009-32.66-3.958-62.386-13.31-93.751c-9.518-31.922-16.832-65.078-24.543-97.512
			c-5.289-22.259-14.266-44.162-19.98-66.559c-2.796-10.955-4.193-17.764-6.832-28.684c-6.87-28.425-17.193-62.169-31.184-88.054
			c-4.098-7.58-8.627-14.604-12.487-22.344c-5.382-10.787-9.44-17.4-14.329-28.354c-3.156-7.073-5.875-14.51-9.333-21.346
			c-11.897-23.528-24.728-49.027-39.847-70.855c-20.883-30.148-39.672-61.303-61.006-91.059
			c-8.125-11.332-18.125-21.375-27.328-32.034c-4.393-5.087-8.844-9.354-13.672-14.175c-9.582-9.563-21.106-16.842-31.457-25.496
			c-11.508-9.623-16.811-21.168-25.926-32.476c-4.008-4.974-9.076-9.514-13.535-14.204c-8.969-9.438-18.369-19.9-29.229-27.218
			c-15.944-10.738-33.226-24.714-48.667-36.021c-27.333-20.012-51.629-40.864-80-60.036
			c-51.333-34.688-92.246-69.021-144.667-117.403c-18.905-17.448-36.667-34.021-62-49.362
			c-13.828-8.374-32.457-15.321-47.333-21.346c-22.409-9.076-47.83-18.674-71.271-24.521c-28.651-7.145-60.681-8.836-90.393-8.833
			c-20.861,0.001-41.676,1.723-62.532,1.979c-18.258,0.224-35.507-1.592-53.808-0.645c-24.174,1.251-48.459,2.544-72.685,3.969
			c-10.909,0.641-22.596,2.096-33.297,2.719c-12.604,0.731-23.309,0.662-35.454,3.445c-14.874,3.406-31.385,3.699-46.563,6.024
			c-39.433,6.039-78.59,11.728-118.147,17.344c-11.447,1.626-23.109,3.991-34.852,4.528c-22.988,1.051-45.494,2.789-68.479,4.679
			c-25.519,2.097-50.057,7.539-75.19,9.951c-11.183,1.073-21.552,3.49-32.819,4.042c-17.778,0.872-35.024,2.434-52.852,2.675
			c-21.902,0.295-42.78,1.091-64.604,3.319c-17.219,1.758-33.195,6.059-49.865,9.875c-10.526,2.409-21.154,5.202-31.863,8.288
			c-18.073,5.208-38.088,8.313-56.663,11.215c-5.889,0.919-12.346,1.666-18.334,1.649c-16.327-0.045-32.496,2.351-48.719,3.027
			c-25.252,1.052-50.446-2.961-75.741-1.364c-12.091,0.763-23.212,2.028-35.21,2.667c-14.926,0.794-27.676,4.254-41.978,6.688
			c-17.426,2.969-36.619,6.496-52.359-3.215l-218.51,257.729c2.766,3.783,5.455,7.593,7.857,11.526
			c21.366,34.969,51.508,55.055,83.992,78.5c15.184,10.959,29.772,22.769,46.257,31.756c23.043,12.563,46.478,25.015,71.663,32.752
			c19.782,6.077,45.357,13.158,66.072,13.472c23.137,0.349,47.047,3.789,70.044,6.99c16.006,2.229,32.505,1.807,48.96,0.988
			c16.29-0.811,31.176,2.583,46.997,1c28.85-2.886,57.584-1.591,86.419-2.654c30.666-1.13,60.79-7.483,91.169-11.265
			c27.348-3.403,55.112-4.834,82.366-9.089c18.985-2.965,38.42-7.227,57.359-11.045c38.463-7.758,75.834-14.079,115.066-17.913
			c21.404-2.093,46.728-3.111,68.002,0.094c33.112,4.988,66.52,4.778,99.616,9.823c35.216,5.367,69.487,15.349,103.948,24.122
			c27.64,7.036,54,17.342,81.059,26.247c23.849,7.847,45.694,16.678,67.693,28.988c33.014,18.476,66.866,28.599,97.316,51.521
			c30.125,22.675,61.639,42.551,90.443,67.142c12.497,10.666,22.376,22.074,35.684,31.812
			c23.569,17.248,38.002,39.255,57.641,60.271c20.632,22.077,45.951,39.823,67.25,61.209c18.613,18.69,38.73,35.356,59.216,51.908
			c18.298,14.784,29.329,36.066,41.504,55.88c14.843,24.157,33.301,58.399,3.026,79.768c-19.684,13.891-49.016,16.559-71.764,21.301
			c-12.104,2.522-24.706,5.094-37.014,6.926c-39.51,5.884-79.127,6.086-118.209,16.245c-47.211,12.271-87.851,35.076-129.041,60.744
			c-20.168,12.568-41.262,27.563-59.279,43.53c-21.076,18.678-42.081,36.391-62.003,55.518c-5.294,5.085-10.437,10.563-15.479,15.95
			c-7.982,8.527-15.523,17.249-22.973,25.988c-28.142,33.018-51.438,68.468-71.492,106.57
			c-12.007,22.813-21.414,46.863-32.673,70.036c-10.907,22.454-26.292,40.91-38.377,62.416c-5.97,10.625-11.991,21.609-17.475,32.49
			c-22.099,43.854-46.347,88.529-79.77,124.74c-40.215,43.569-70.764,95.055-110.463,138.743
			c-9.922,10.92-19.509,21.697-28.752,33.024c-26.352,32.291-48.403,68.95-69.017,105.022
			c-31.027,54.299-39.944,122.123-45.953,183.379c-3.695,37.676-1.003,76.563,0.948,114.601
			c2.052,39.996,4.191,80.034,6.002,119.991c0.97,21.455,6.739,43.802,12.133,64.626c9.287,35.849,33.451,66.97,56.118,96.058
			c10.175,13.057,18.111,26.248,31.541,36.588c25.926,19.961,58.752,30.131,89.079,39.938
			c33.256,10.754,66.258,13.458,102.659,11.731c19.01-0.899,36.006-2.619,54.006-5.862c7.819-1.409,15.701-3.69,23.366-6.051
			c13.519-4.164,23.078-7.903,35.523-14.14c5.814-2.922,10.769-6.063,15.571-10.326c19.652-17.432,39.782-34.172,59.009-52.082
			c10.124-9.431,19.462-18.572,28.278-29.248c17.646-21.367,34.213-42.735,52.279-64.004c27.184-32,56.41-61.027,84.632-91.938
			c22.89-25.071,44.843-50.894,68.63-75.089c16.572-16.857,32.469-38.77,51.32-52.939c6.996-5.26,14.112-7.771,20.459-14.422
			c7.203-7.553,12.912-16.442,20.599-23.555c13.356-12.357,27.312-23.025,39.554-36.527c24.727-27.269,51.386-53.065,77.235-79.336
			c22.207-22.567,47.61-43.228,71.013-64.615c10.744-9.819,19.207-20.891,30.489-30.277c20.771-17.281,41.824-35.577,61.726-53.549
			c13.758-12.424,28.819-24.542,45.308-33.17c13.206-6.912,27.093-7.121,41.737-7.82c13.162-0.629,39.441-11.68,38.281,11.294
			c-0.697,13.813-12.8,26.74-20.318,37.502c-8.461,12.11-12.817,24.782-19.879,36.989c-8.117,14.037-22.658,26.869-34.097,38.211
			c-26.188,25.973-54.226,48.981-80.302,74.828c-38.363,38.022-77.227,74.303-113.563,114.614
			c-15.852,17.587-33.422,34.392-49.354,51.55c-11.29,12.158-25.229,21.552-36.404,33.83
			c-10.951,12.033-19.004,26.752-30.625,38.207c-9.475,9.337-17.994,17.079-25.75,28.227c-23.164,33.289-50.648,64.08-74.649,97.258
			c-12.483,17.258-24.733,34.156-35.606,52.514c-10.515,17.752-22.492,34.068-32.287,52.191
			c-11.414,21.117-17.474,45.082-31.936,64.555c-28.756,38.719-58.096,76.43-92.924,109.707
			c-25.008,23.895-51.073,44.12-80.396,62.096c-14.662,8.987-23.965,25.242-38.821,33.174
			c-21.575,11.519-46.541,18.519-69.794,23.354c-23.264,4.839-47.025,11.035-69.918,17.454
			c-20.112,5.639-40.581,10.818-60.686,17.689c-18.34,6.267-36.717,10.967-55.238,16.78c-12.772,4.01-26.187,5.979-38.703,10.819
			c-10.594,4.095-18.297,8.926-29.265,12.151c-10.971,3.228-21.493,8.03-32.049,12.021c-35.86,13.559-71.902,28.271-107.334,41.496
			c-22.742,8.488-45.015,19.096-67.422,28.502c-35.116,14.744-70.263,33.541-103.167,52.729
			c-41.102,23.966-78.959,51.294-116.003,80.022c-16.937,13.137-35.653,24.922-52.979,37.766
			c-40.438,29.971-80.17,61.111-111.273,101.469c-13.104,17-28.934,32.656-37.904,52.478c-6.632,14.658-16.79,29.196-17.928,45.672
			c-1.216,17.606-6.466,33.701-9.952,51.408c-6.287,31.933-9.477,65.403-4.007,97.694c0.828,4.89,1.878,9.56,3.148,14.035
			L3553.982,5482.434L3553.982,5482.434z" style="stroke:black;fill:#e8cd59"/><path id="278103156" parent_id="278103151" order="45" structure_id="4029" d="
			M6003.645,3164.703c-9.098-81.43-40.193-165.12-74.127-231.038c-21.791-42.328-48.685-84.507-76.52-123.166
			c-23.355-32.44-52.588-61.111-69.58-97.268c-20.148-42.873-37.566-89.81-49.029-135.552
			c-11.455-45.71-17.309-95.496-32.097-139.066c-19.065-56.173-45.458-106.863-72.888-159.356
			c-32.982-63.124-71.035-123.896-115.742-179.417c-28.441-35.324-59.088-75.5-92.449-106.311
			c-37.515-34.646-73.656-68.201-115.271-98.808c-26.703-19.64-51.474-41.461-83.511-51.169
			c-30.434-9.222-59.975-22.404-89.459-35.37c-13.543-5.955-27.393-11.21-41.561-15.481c-13.375-4.033-27.604-4.965-40.775-9.178
			c-48.754-15.59-98.701-28.527-149.646-26.021c-24.408,1.201-50.316-5.545-74.24,1.577c-24.318,7.24-44.251,25.023-71.488,23.506
			c-28.465-1.586-56.703-5.989-85.254-2.932c-96.313,10.316-142.021,100.52-142.802,190.14c-0.332,38.181,0.835,81.288,18.76,115.96
			c18.427,35.646,61.22,59.203,91.881,83.579c79.657,63.328,151.317,135.935,225.153,207.115
			c8.276,7.979,16.86,15.629,24.181,24.219c14.405,16.905,23.808,33.981,33.735,53.916c11.875,23.842,27.043,45.772,38.668,69.976
			c49.851,103.785,115.277,199.593,164.756,303.879c5.988,12.625,10.576,24.938,13.344,38.397
			c6.488,31.581,8.354,62.212,18.352,93.387c10.328,32.214,23.447,63.496,31.97,96.288c16.699,64.262,25.188,126.649,53.364,187.915
			c9.681,21.048,27.701,31.886,40.125,50.925c30.398,46.584,50.912,99.575,87.893,141.795
			c32.79,37.438,76.139,74.021,123.893,89.086c11.752,3.707,23.099,7.313,35.414,9.248c37.975,5.968,74.932,17.217,113.26,22.465
			c53.354,7.305,128.976,10.586,186.227-15.27c46.473-20.984,94.512-54.707,117.066-101.93
			c26.246-54.948,33.791-112.33,55.555-168.972C6015.384,3233.819,6008.172,3205.23,6003.645,3164.703z" style="stroke:black;fill:#e8cd59"/><path id="278103155" parent_id="278103151" order="82" structure_id="4022" d="
			M3661.962,2071.372c144.883-35.234,291.937-52.063,425.423-123.551c73.588-39.408,147.766-93.474,189.627-166.979
			c22.183-38.949,20.5-86.146,20.773-129.301c0.346-54.063-8.57-107.578-16.99-160.811
			c-12.033-76.084-54.066-126.781-113.611-171.202c-16.801-12.532-34.285-24.953-53.701-33.121
			c-17.617-7.411-36.471-8.888-53.668-16.899c-18.194-8.477-36.899-16.018-55.705-23.313
			c-33.207-12.886-68.207-26.715-102.373-37.084c-19.464-5.908-38.068-11.529-56.623-18.702
			c-34.264-13.246-69.395-22.179-97.936-45.794c-41.936-34.698-77.854-77.006-123.009-108.001
			c-36.347-24.942-72.662-52.078-109.042-76.489c-30.967-20.778-62.892-40.387-96.784-56.059
			c-31.58-14.603-61.242-32.814-92.992-47.059c-31.173-13.984-64.561-22.986-97.597-31.179
			c-58.883-14.603-123.227-11.281-180.781-29.085c-20.939-6.479-40.146-17.332-59.799-26.834
			c-18.92-9.148-38.128-17.874-55.452-29.901c-26.877-18.661-51.373-40.511-78.245-59.183
			c-15.147-10.524-30.165-21.896-45.826-31.708c-54.477-34.129-105.029-75.396-162.078-105.285
			c-32.398-16.977-65.868-23.361-99.743-35.421c-46.77-16.649-91.148-34.336-140.695-41.802
			c-39.636-5.974-78.619-1.242-118.019-1.242c-202.095,0-407.648-8.648-607.039,31.646
			c-53.426,10.797-106.041,25.846-156.174,47.396c-34.179,14.693-67.898,34.525-95.773,59.398
			c-10.395,9.275-20.532,18.367-30.974,27.654c-73.716,65.573-139.041,157.27-179.484,247.33
			c-7.081,15.768-12.381,32.773-19.827,48.042c-15.623,32.038-27.12,66.271-36.168,100.72c-6.127,23.325-8.873,46.932-13.164,71.351
			c-4.328,24.631-3.039,50.401-4.179,76.039c-1.154,25.948-1.964,51.688-0.668,77.704c1.247,25.024,2.194,50.598,3.372,75.398
			c1.14,24.03,8.403,46.98,13.01,70.349c5.739,29.113,7.176,59.968,14.525,88.493c4.807,18.66,9.311,37.402,13.078,56.304
			c9.81,49.208,13.386,100.619,8.178,150.887c-2.396,23.11-2.824,47.253-2.826,70.549c-0.002,17.306,1.336,33.894,1.336,51.407
			c-0.006,133.318,9.545,262.132,27.994,394.004c3.94,28.173,11.631,54.852,17.333,82.716c5.051,24.684,9.336,49.354,15.288,74.115
			c26.585,110.619,70.528,199.562,167.025,263.88c20.441,13.625,48.788,41.105,74.354,42.23c6.788,0.3,18.816,3.524,25.333,6.004
			c10.777,4.102,18.722,7.309,29.333,12.008c16.931,7.5,35.775,10.91,53.333,16.677c8.971,2.946,19.277,3.083,28.672,4.002
			c34.105,3.335,66.399-6.97,99.929-11.163l0.194-0.015c35.663-0.964,71.565-7.062,106.857-11.809
			c48.223-6.487,96.368-13.536,144.486-20.753c7.091-1.063,13.998-1.601,20.381-4.365c6.146-2.662,12.212-5.441,18.48-7.93
			c8.055-3.195,15.963-4.291,24.417-2.887c3.64,0.598,15.337-1.472,14.675,4.219c-0.854,7.342-28.822,7.561-33.818,8.324
			c-55.513,8.491-111.063,16.754-166.694,24.436c-27.301,3.77-54.623,7.436-82.002,10.588c-10.24,1.18-20.491,2.311-30.765,3.175
			c-14.296,1.202-30.59,1.969-44.116,5.386c-9.847,2.488-19.332,4.553-28.914,8.546c-19.468,8.108-37.799,19.319-55.114,31.603
			c-11.819,8.384-23.13,18.74-35.381,26.332c-43.736,27.097-87.809,44.422-138.822,52.022
			c-106.183,15.823-181.175,143.728-209.13,237.166c-12.489,41.744-27.788,82.622-29.334,126.744
			c-1.416,40.301-4.608,81.28-8.667,121.405c-3.489,34.461,0.967,73.875,4.667,107.394c6.065,54.957,1.729,117.124-7.77,171.619
			c-6.102,35.005-15.984,69.147-19.917,104.544c-4.407,39.691-4.517,79.681-4.518,119.566c0,31.102-0.44,61.063,3.311,91.389
			c9.745,78.805,21.931,157.142,34.698,235.494c10.825,66.428,23.794,132.051,46.987,195.416
			c14.065,38.43,28.989,76.856,48.507,112.902c14.891,27.501,31.843,64.775,68.218,64.57c6.247-0.035,13.438-1.601,19.613-2.713
			c16.636-2.998,29.505-14.519,40.877-26.274c13.339-13.789,25.488-38.673,38.729-52.551c14.727-15.433,35.502-36.815,50.279-52.196
			c77.292-80.451,146.616-134.281,221.736-238.549c53.587-74.381,110.247-127.912,163.005-177.203
			c11.603-10.841,22.822-22.507,35.327-34.203c30.899-28.904,63.541-55.857,97.412-81.197c8.74-6.539,17.792-13.998,25.578-22.1
			c8.299-8.635,14.276-18.791,21.93-27.906c8.725-10.395,17.716-24.553,27.324-34.126c27.466-27.371,63.041-40.626,96.31-59.868
			c52.183-30.181,86.29-40.477,128.178-49.528c13.688-2.958,27.608-4.545,41.579-5.33c5.077-0.284,48.038-2.763,41.123,10.237
			c-3.974,7.47-16.896,7.172-24.01,8.125c-19.395,2.597-51.928,5.549-70.768,10.923c-12.855,3.667-26.262,7.003-39.013,11.56
			c-12.883,4.604-24.427,11.335-36.596,17.451c-17.322,8.707-33.59,18.992-49.001,30.621
			c-21.577,16.279-42.507,33.414-64.609,48.916c-14.478,10.155-28.039,20.539-43.142,29.899
			c-15.875,9.839-31.794,20.241-46.789,31.386c-35.397,26.311-71.212,52.781-102.702,83.791
			c-12.22,12.033-23.762,23.399-35.402,34.275c-52.611,49.154-109.83,102.031-162.603,176.765
			c-69.753,98.778-144.629,158.317-221.985,238.836c-14.164,14.742-34.326,35.487-48.444,50.274
			c-15.916,16.67-31.808,41.842-44.62,61.599c-4.975,7.671-11.102,14.14-16.747,21.282c-4.429,5.604-7.99,12.032-11.635,18.16
			c-12.593,21.168-23.375,44.423-27.692,68.824c-3.577,20.216-7.237,46.781,2.422,65.76c15.387,30.229,53.485,45.077,82.051,59.986
			c36.379,18.985,73.727,36.275,112.729,49.197c59.755,19.799,122.234,26.541,182.122,45.561
			c27.205,8.641,55.427,21.532,84.598,19.514c32.259-2.233,64.69-23.266,93.084-37.432c16.582-8.271,31.443-19.523,47.748-28.293
			c35.05-18.85,70.643-39.977,106.281-58.854c19.997-10.595,39.119-24.597,59.622-33.951c15.189-6.929,29.971-14.135,45.064-21.267
			c15.67-7.405,31.879-14.125,47.591-21.345c28.37-13.037,59.884-28.881,90.862-34.199c38.549-6.617,77.821-23.892,114.318-37.469
			c32.778-12.191,68.481-13.592,101.185-25.741c15.254-5.667,24.473-18.164,39.187-24.825c8.115-3.673,17.36-5.811,25.686-2.014
			c21.542,9.842-5.971,30.885-15.797,36.017c-12.59,6.575-24.654,11.925-38.531,15.379c-8.167,2.032-16.497,3.735-24.523,6.296
			c-10.018,3.195-20.195,6.075-30.275,8.669c-24.69,6.349-49.272,17.149-73.049,26.707c-21.054,8.464-43.047,15.886-64.182,24.681
			c-46.773,19.461-94.826,37.381-139.165,62.043c-22.128,12.309-45.522,22.094-67.78,34.01
			c-28.425,15.221-55.121,33.354-83.644,48.613c-45.025,24.089-93.142,42.957-134.569,73.313
			c-19.479,14.272-41.44,26.186-57.832,44.283c-43.623,48.164,21.229,123.094,53.193,157.508
			c33.287,35.836,69.201,71.621,100.844,108.877c6.537,7.696,15.236,13.513,20.601,22.26c1.479,2.412,4.521,7.711,3.228,11.023
			l280.333,319.544c12.968-6.444,25.494-13.61,37.48-21.812c21.077-14.42,43.223-30.459,61.639-48.295
			c10.517-10.186,19.932-25.422,27.238-37.953c9.662-16.578,17.137-36.535,21.729-55.045c4.796-19.321,8.969-38.844,10.014-59.019
			c1.688-32.599,1.36-69.956-5.223-101.028c-6.637-31.328-15.872-61.1-20.772-92.899c-6.237-40.472,4.667-64.885,35.083-92.366
			c16.027-14.48,34.337-26.734,53.608-36.459c17.155-8.654,35.13-12.993,51.233-23.477c11.769-7.68,23.634-13.494,36.047-20.01
			c11.284-5.922,21.232-12.797,32.05-18.998c13.693-7.851,26.867-16.549,40.066-25.189c11.934-7.813,24.93-12.169,37.066-19.695
			c32.485-20.148,67.341-51.703,84.376-86.373c15.783-32.127,24.978-65.436,38.719-97.483c7.729-18.022,14.276-36.921,20.265-55.396
			c2.78-8.578,5.317-16.992,7.503-25.61c6.165-24.317,1.645-49.683-1.965-74.008c-4.94-33.289-12.868-68.536-23.084-100.013
			c-12.313-37.935-34.244-76.746-58.736-108.229c-12.092-15.544-26.184-29.445-41.753-41.493
			c-57.138-44.209-129.595-57.858-200.47-61.267c-31.541-1.518-63.618-0.646-94.951,2.018c-23.87,2.027-48.395,5.913-71.008,13.997
			c-26.088,9.325-51.34,14.155-78.141,20.993c-35.294,9.004-69.682,23.669-104.895,32.02c-27.994,6.638-54.25,17.646-81.044,29.225
			c-31.436,13.581-102.024,38.57-121.083,44.209c-73.87,21.854,9.309-88.725,40.972-112.361
			c13.199-9.854,25.562-22.748,37.563-34.008c11.707-10.986,24.481-19.272,36.59-29.808c25.891-22.524,51.806-45.499,80.408-64.862
			c15.599-10.562,31.457-21.97,47.58-31.406c24.696-14.454,47.609-30.928,73.029-44.262c34.801-18.252,65.772-41.491,103.973-52.783
			c16.782-4.961,34.836-11.189,51.468-17.06c33.303-11.752,65.764-21.423,100.03-29.417c42.313-9.873,87.246-18.042,127.491-32.767
			c24.417-8.934,51.892-10.538,75.509-21.478c14.545-6.734,29.271-13.794,43.703-21.033c43.454-21.799,76.426-61.678,94.46-106.371
			c31.802-78.811-0.126-190.293-69.958-239.461c-32.154-22.639-64.429-48.99-99.811-67.888
			c-58.803-31.405-119.943-60.19-184.949-76.123c-28.104-6.888-54.766-6.05-82.596-10.18c-32.399-4.81-64.103-10.931-97.063-10.319
			c-28.763,0.534-57.313,4.424-85.946,6.79c-40.887,3.378-81.922,7.13-121.965,16.431c-42.023,9.762-82.797,19.996-123.382,34.162
			c-75.854,26.479-156.743,50.457-222.19,98.238c-36.582,26.708-70.448,55.396-101.834,87.883
			c-16.877,17.471-33.117,35.066-56.649,43.264c-57.908,20.171-32.895-77.403-26.979-103.7c7.577-33.682,7.7-68.399,7.746-102.705
			c0.046-34.673,15.575-62.371,24.595-95.452c8.731-32.031,25.829-67.762,45.141-94.758c7.385-10.323,16.126-18.596,25.552-26.962
			c7.522-6.678,12.291-12.835,21.621-16.748c9.683-4.062,19.743-8.288,29.499-13.197c22.596-11.371,46.611-20.623,69.977-30.386
			c33.306-13.917,65.396-30.405,98.525-44.52c18.357-7.821,37.415-13.702,55.504-22.207c19.641-9.234,39.26-19.121,58.717-28.736
			c15.229-7.524,29.229-15.568,43.78-23.774c45.38-25.592,86.938-63.391,119.501-103.989
			c32.926-41.048,62.152-85.729,83.922-133.937c12.846-28.443,24.109-62.006,30.198-92.575
			c7.144-35.861,17.538-74.649,15.783-111.49c-1.012-21.238-4.155-40.849-7.052-61.51c-2.018-14.39-2.295-26.963-7.325-40.758
			c-5.668-15.546-12.456-30.594-18.422-46.021c-10.339-26.729-26.235-46.9-43.204-69.223
			c-13.172-17.328-30.068-32.841-46.253-47.753c-18.49-17.034-35.958-32.159-55.673-47.349
			c-13.763-10.604-31.858-18.752-47.311-26.675c-26.336-13.504-53.827-24.372-79.809-37.972
			c-18.924-9.904-39.379-16.742-57.736-27.763c-17.354-10.418-34.211-19.993-52.654-28.513
			c-29.296-13.532-60.634-21.842-90.343-34.339c-25.398-10.686-54.134-23.582-69.949-46.859
			c-21.819-32.118-27.678-71.491-27.291-110.29c0.215-21.526,4.784-43.877,7.983-65.512c3.02-20.419,6.084-41.076,8.013-61.446
			c2.128-22.461,11.081-43.626,11.026-66.526c-0.032-13.243,0.832-25.983,1.988-39.001c2.431-27.327,2.032-55.659,3.016-83.494
			c0.919-26.035,5.331-52.265,4.031-78.509c-1.268-25.635-5.791-50.537-7.037-75.493c-2.043-40.918-8.049-80.703-10.001-121.505
			c-0.886-18.493-3.212-36.967-5.495-55.002c-4.567-36.078-6.808-72.765-10.507-109.496c-2.413-23.951-4.033-45.331,4.792-68.579
			c6.339-16.696,16.126-33.011,27.305-47.312c21.778-27.855,56.655-34.695,89.823-37.617c36.778-3.238,76.131,14.036,105.034,35.232
			c14.86,10.899,30.49,28.7,41.322,43.57c14.057,19.295,24.986,43.493,35.973,64.979c7.588,14.842,16.877,29.462,25.225,43.75
			c17.88,30.605,29.673,64.229,48.366,94.754c15.666,25.583,33.405,46.356,52.543,69.292c11.627,13.935,28.567,24.718,42.126,36.494
			c46.099,40.045,100.906,66.684,162.488,65.938c24.123-0.293,47.305,0.248,70.164-7.238c26.959-8.829,55.004-14.497,80.838-26.535
			c23.629-11.012,48.977-19.117,71.98-31.825c29.729-16.424,57.582-36.951,87.489-52.658c14.723-7.731,34.077-10.777,50.504-13.788
			c37.748-6.919,76.556-7.58,114.704-3.993c27.022,2.542,53.254,8.322,78.297,17.968c10.756,4.144,21.369,8.698,32.162,12.844
			c26.041,10.003,52.148,23.511,76.865,36.5c39.414,20.712,77.748,45.028,120.96,57.21c19.118,5.391,38.55,6.328,57.258,12.467
			c23.828,7.82,49.42,12.896,73.81,18.826c11.896,2.894,23.698,5.302,35.473,8.135c26.43,6.358,52.58,14.99,79.505,19.308
			c33.416,5.357,65.18,10.894,97.993,20.771c16,4.816,32.334,6.86,48.502,10.009c25.979,5.058,48.35,8.935,61.168,34.807
			c10.557,21.303,9.532,48.945-13.646,61.178c-19.097,10.077-45.623,11.377-66.55,15.06c-27.909,4.911-55.907,8.101-83.976,10.953
			c-32.509,3.302-65.013,1.309-97.496,3.003c-21.194,1.104-44.028,2.034-65.003,4.955c-37.314,5.195-76.29,11.238-113.001,21.021
			c-26.702,7.115-52.534,17.346-77.323,29.511c-11.217,5.504-21.246,12.392-31.97,18.313c-11.021,6.086-23.551,9.052-34.496,15.458
			c-14.452,8.46-29.104,16.712-43.664,25.27c-27.296,16.043-53.212,34.494-81.551,49.212
			c-22.781,11.829-44.784,25.403-65.429,40.301c-37.563,27.104-60.644,59.963-85.96,97.641
			c-24.191,36.002-46.291,79.398-56.903,121.896c-4.9,19.626-7.698,40.358-9.691,60.949c-1.922,19.836,0.987,39.635,0.014,59.472
			c-2.671,54.38,13.806,102.241,33.479,151.897c11.478,28.967,24.4,57.017,34.907,86.411c4.456,12.466,12.914,22.958,20.744,33.667
			l218.509-257.729c-1.076-0.664-2.137-1.389-3.179-2.181c-15.832-12.041-3.318-41.008,6.977-52.941
			c23.737-27.515,64.027-42.49,97.211-54.444c125.363-45.158,259.967-46.882,389.621-72.273
			C3584.438,2090.239,3623.209,2080.796,3661.962,2071.372z" style="stroke:black;fill:#e8d959"/><path id="278103153" parent_id="278103151" order="89" structure_id="4898" d="
			M2364.982,6320.543c5.877-15.244,9.716-30.93,12.782-46.279c6.382-31.938,7.059-64.666,3.468-97.763
			c-4.367-40.247-22.017-75.628-40.955-110.97c-12.007-22.403-26.875-44.422-42.767-63.981
			c-24.649-30.341-56.405-54.362-89.631-74.574c-17.007-10.345-34.595-19.724-52.499-28.41
			c-52.342-25.394-111.152-39.5-168.288-51.556c-22.229-4.689-45.224-10.92-67.484-14.561c-11.018-1.802-22.355-2.563-33.052-4.902
			c-41.277-9.025-85.922-14.36-123.771-33.994c-33.416-17.334-56.426-49.801-74.071-82.059
			c-24.386-44.573-33.862-97.05-38.709-146.245c-6.086-61.763-26.878-116.155-44.538-174.785
			c-5.729-19.024-8.197-39.379,14.918-42.024c31.534-3.606,66.938,36.371,88.4,56.351c33.602,31.278,74.974,38.216,115.182,56.735
			c22.191,10.224,44.659,23.396,64.668,37.354c22.395,15.622,52.148,22.356,77.364,32.62c30.938,12.594,61.629,20.828,94.313,26.535
			c29.556,5.16,57.767,15.389,87.304,19.641c15.922,2.291,29.31-1.041,44.979-4.194c49.99-10.063,93.871-29.454,139.97-51.021
			c2.664-1.248,5.303-2.533,7.93-3.84l-280.332-319.543c-0.209,0.537-0.521,1.025-0.985,1.438
			c-4.16,3.695-10.313-3.314-13.511-5.372c-46.666-30.019-66.31-59.661-84.039-78.685c-27.795-29.82-51.647-61.405-79.961-90.75
			c-37.471-38.836-78.312-65.783-124.823-92.844c-47.817-27.82-97.949-52.212-151.845-65.691
			c-29.97-7.496-61.212-10.83-92.111-8.959c-27.608,1.67-59.058,8.726-83.742,21.676c-41.697,21.875-83.509,52.588-113.102,89.471
			c-16.306,20.32-31.151,44.785-40.745,69.075c-8.051,20.381-15.466,41.71-19.4,63.325c-13.896,76.339-17.677,157.925-7.104,234.956
			c10.508,76.544,22.84,153.571,37.316,229.469c17.51,91.799,26.369,185.313,38.246,277.952
			c3.468,27.049,7.586,54.048,13.746,80.629c4.771,20.596,9.493,41.447,14.83,62.604c5.271,20.903,11.33,41.51,16.296,62.449
			c5.208,21.957,10.43,44.756,18.446,65.992c13.797,36.551,28.303,80.265,65.489,99.438c8.576,4.422,18.085,7.994,27.053,11.44
			c9.952,3.826,20.465,3.219,30.577,5.252c20.589,4.142,37.182,16.818,55.782,26.254c8.28,4.199,16.561,8.51,25.276,11.761
			c53.523,19.949,119.689-8.858,170.943-24.715c21.121-6.537,42.943-11.431,64.392-16.813c17.656-4.435,35.39-8.557,53.189-12.367
			c31.149-6.67,62.496-12.41,93.979-17.272c14.659-2.265,29.538-3.672,44.129-6.288c13.952-2.503,27.264-9.341,40.589-12.637
			c7.426-1.838,26.485-8.604,34.045-5.305c5.33,2.325,5.717,8.24,3.408,12.352c-1.384,2.463-3.583,4.186-6.105,5.424
			l259.797,157.379C2355.916,6340.547,2360.973,6330.941,2364.982,6320.543z" style="stroke:black;fill:#e8db59"/></g>
<g id="278103162" order="13" parent_id="" graphic_group_label_id="266932197" graphic_group_label="Atlas - Human Hotspots" sub_image_id="102339949" transform=" scale(7.0, 7.0)"><path id="278103163" parent_id="278103162" order="1472" structure_id="265505050" d="M3234.045,3463.644
			l-37.023-21.376c-1.076-0.622-2.82-0.622-3.896,0l-37.023,21.376c-1.076,0.621-1.947,2.133-1.947,3.375v42.75
			c0,1.243,0.871,2.754,1.947,3.375l37.023,21.374c1.076,0.62,2.82,0.62,3.896,0l37.023-21.374c1.076-0.621,1.949-2.132,1.949-3.375
			v-42.75C3235.994,3465.776,3235.121,3464.265,3234.045,3463.644z M3222.902,3468.376l-9.721,40.033
			c-0.195,0.807-1.025,1.458-1.854,1.458h-6.199c-0.828,0-1.674-0.648-1.887-1.449l-7.783-29.21c-0.213-0.801-0.559-0.801-0.771,0
			l-7.754,29.21c-0.213,0.801-1.057,1.449-1.885,1.449h-6.404c-0.828,0-1.656-0.653-1.85-1.458l-9.557-40.031
			c-0.191-0.806,0.324-1.458,1.152-1.458h5.877c0.828,0,1.643,0.654,1.82,1.465l5.832,26.57c0.178,0.808,0.494,0.816,0.707,0.017
			l7.08-26.604c0.213-0.801,1.059-1.448,1.887-1.448h7.313c0.828,0,1.662,0.65,1.863,1.454l6.801,27.09
			c0.201,0.804,0.51,0.798,0.688-0.011l5.947-27.068c0.178-0.811,0.993-1.465,1.822-1.465h5.73
			C3222.586,3466.92,3223.1,3467.571,3222.902,3468.376z" style="stroke:black;fill:#f2f1f0"/><path id="278103164" parent_id="278103162" order="1599" structure_id="9285" d="M4196.643,5989.458
			l-37.023-21.376c-1.076-0.622-2.82-0.622-3.896,0l-37.023,21.376c-1.076,0.621-1.947,2.133-1.947,3.375v42.75
			c0,1.243,0.871,2.754,1.947,3.375l37.023,21.374c1.076,0.62,2.82,0.62,3.896,0l37.023-21.374c1.076-0.621,1.949-2.132,1.949-3.375
			v-42.75C4198.592,5991.591,4197.719,5990.079,4196.643,5989.458z M4185.5,5994.19l-9.721,40.033
			c-0.195,0.807-1.025,1.458-1.854,1.458h-6.199c-0.828,0-1.674-0.648-1.887-1.449l-7.783-29.21c-0.213-0.801-0.559-0.801-0.771,0
			l-7.754,29.21c-0.213,0.801-1.057,1.449-1.885,1.449h-6.404c-0.828,0-1.656-0.653-1.85-1.458l-9.557-40.031
			c-0.191-0.806,0.324-1.458,1.152-1.458h5.877c0.828,0,1.643,0.654,1.82,1.465l5.832,26.57c0.178,0.808,0.494,0.816,0.707,0.017
			l7.08-26.604c0.213-0.801,1.059-1.448,1.887-1.448h7.313c0.828,0,1.662,0.65,1.863,1.454l6.801,27.09
			c0.201,0.804,0.51,0.798,0.688-0.011l5.947-27.068c0.178-0.811,0.993-1.465,1.822-1.465h5.73
			C4185.184,5992.734,4185.697,5993.386,4185.5,5994.19z" style="stroke:black;fill:#f2f1f0"/><path id="278103165" parent_id="278103162" order="1599" structure_id="9285" d="M3478.461,6134.913
			l-37.023-21.376c-1.076-0.622-2.82-0.622-3.896,0l-37.023,21.376c-1.076,0.621-1.947,2.133-1.947,3.375v42.75
			c0,1.243,0.871,2.754,1.947,3.375l37.023,21.374c1.076,0.62,2.82,0.62,3.896,0l37.023-21.374c1.076-0.621,1.949-2.132,1.949-3.375
			v-42.75C3480.411,6137.046,3479.538,6135.534,3478.461,6134.913z M3467.319,6139.646l-9.721,40.033
			c-0.195,0.807-1.025,1.458-1.854,1.458h-6.199c-0.828,0-1.674-0.648-1.887-1.449l-7.783-29.21c-0.213-0.801-0.559-0.801-0.771,0
			l-7.754,29.21c-0.213,0.801-1.057,1.449-1.885,1.449h-6.404c-0.828,0-1.656-0.653-1.85-1.458l-9.557-40.031
			c-0.191-0.806,0.324-1.458,1.152-1.458h5.877c0.828,0,1.643,0.654,1.82,1.465l5.832,26.57c0.178,0.808,0.494,0.816,0.707,0.017
			l7.08-26.604c0.213-0.801,1.059-1.448,1.887-1.448h7.313c0.828,0,1.662,0.65,1.863,1.454l6.801,27.09
			c0.201,0.804,0.51,0.798,0.688-0.011l5.947-27.068c0.178-0.811,0.993-1.465,1.822-1.465h5.73
			C3467.002,6138.189,3467.516,6138.841,3467.319,6139.646z" style="stroke:black;fill:#f2f1f0"/></g>
<g id="278103158" order="14" parent_id="" graphic_group_label_id="266932196" graphic_group_label="Atlas - Human Sulci" sub_image_id="102339949" transform=" scale(7.0, 7.0)"><path id="278103161" parent_id="278103158" order="1778" structure_id="9360" d="M5806.923,5617.167c0.781-0.067,68.943,69.259,69.33,68.813
			S5835,5685.5,5835,5685.5s-28.327,29.629-29.002,29.352C5805.324,5714.572,5806.141,5617.234,5806.923,5617.167" style="stroke:black;fill:#6d6e70"/><path id="278103159" parent_id="278103158" order="1782" structure_id="9356" d="M4414.007,1825.224c0.597,0.513,70.528-67.196,70.254-67.874
			c-0.274-0.676-41.263-0.072-41.263-0.072s-27.568-28.053-28.572-29.655C4414.938,1730.675,4413.42,1824.721,4414.007,1825.224z" style="stroke:black;fill:#6d6e70"/><path id="278103160" parent_id="278103158" order="1783" structure_id="9366" d="M1473.84,6436.46c0.404,0.427,4.408-41.02,4.408-41.02
			s-26.795-31.021-26.454-31.667c0.343-0.646,97.159,9.439,97.151,10.226C1548.937,6374.784,1473.434,6436.031,1473.84,6436.46z" style="stroke:black;fill:#6d6e70"/></g>
</g>
</svg>