<svg width="578" height="784" xmlns="http://www.w3.org/2000/svg">
<g transform="scale(0.015625)">
<g id="278102971" order="11" parent_id="" graphic_group_label_id="265297119" graphic_group_label="Atlas - Human" sub_image_id="102339937" transform=" scale(7.0, 7.0)"><path id="278102972" parent_id="278102971" order="1426" structure_id="9219" d="
			M4018.077,4467.508c-30.153,24.322-51.336,69.367-73.165,101.07c-30.637,44.488-67.543,97.42-109.359,132.312
			c-43.704,36.467-81.834,78.114-122.623,117.556c-52.094,50.373-112.563,88.89-171.479,130.557
			c-24.701,17.471-48.532,37.038-73.924,54.496c-34.345,23.613-75.039,43.006-112.556,60.984
			c-76.007,36.424-151.207,44.256-234.879,52.506c-93.653,9.233-186.212,7.987-281.539,8.004
			c-63.354,0.013-126.668-2.469-189.987-4.231c-54.291-1.513-101.103,6.672-155.025-1.808
			c-54.745-8.605-92.232,0.322-143.586,22.517c-25.357,10.959-48.753,23.513-72.395,38.028
			c-38.633,23.721-81.018,40.717-119.953,64.554c-52.804,32.326-114.051,53.438-172.161,75
			c-24.571,9.116-49.243,22.451-74.431,31.46c-38.738,13.855-82.389,20.893-122.25,32.098
			c-48.43,13.612-97.602,24.396-146.915,34.262c-146.051,29.221-294.85-37.752-357.109-176.627
			c-25.852-57.66-31.521-114.029-6.093-172.71c24.866-57.38,66.726-105.946,107.407-152.644
			c33.2-38.106,72.228-73.399,109.526-107.849c73.231-67.635,146.984-125.937,230.154-180.795
			c40.455-26.685,78.025-59.185,117.777-87.233c79.545-56.127,171.598-96.977,265.983-121.965
			c76.161-20.166,152.414-50.047,232.122-50.045c27.986,0.002,54.426-3.405,81.865-6.461c84.684-9.431,177.682-1.074,260.698,18.453
			c68.316,16.068,133.729,38.558,202.499,51.965c58.676,11.439,127.846,18.918,173.604-28.164
			c14.329-14.742,32.446-45.033,19.478-64.617c-11.504-17.373-40.341-16.715-58.374-21.168
			c-27.284-6.734-56.913-6.336-83.901-14.457c-58.779-17.687-122.236-38.849-173.974-72.75c-26.718-17.51-48.14-40.392-68.06-65.853
			c-40.777-52.122-61.246-111.789-67.85-176.082c-9.667-94.122,36.525-175.618,76.946-256.798
			c12.438-24.984,25.661-47.688,39.513-71.965c12.783-22.406,27.943-44.062,40.972-66.563
			c26.746-46.198,51.663-90.838,83.937-133.979c33.218-44.406,66.07-90.176,102.656-132.679
			c38.539-44.771,83.108-83.836,126.846-123.811c73.012-66.732,143.186-127.595,199.02-210.07
			c21.212-31.333,39.773-63.469,61.068-94.994c41.688-61.715,87.514-121.417,131.99-181.857
			c11.109-15.099,21.854-29.811,35.029-43.184c32.849-33.341,69.607-62.978,104.695-93.897
			c41.351-36.438,80.021-65.86,111.26-111.834c13.86-20.4,23.656-29.689,20.678-56.017c-5.978-52.813-35.576-97.944-76.852-130.323
			c-27.332-21.44-46.251-21.437-77.898-6.897c-24.676,11.335-48.895,19.655-72.242,33.832
			c-28.025,17.019-52.754,38.653-80.083,56.955c-52.864,35.404-107.703,67.938-164.144,97.308
			c-25.228,13.127-53.616,18.661-79.189,31.573c-52.324,26.419-110.402,43.486-165.477,63.896
			c-57.494,21.307-115.959,41.009-176.825,49.991c-26.187,3.863-52.059,10.193-78.004,13.998c-27.813,4.08-55.15,0.439-83.533,0.446
			c-49.881,0.013-97.103,8.14-147.954,6.103c-58.061-2.326-116.025-6.648-173.871-12.092c-35.157-3.31-68.389-8.81-102.625-15.436
			c-26.629-5.156-50.475-13.583-74.411-25.048c-29.256-14.013-61.537-17.604-91.497-29.52
			c-29.214-11.616-56.535-23.354-84.959-36.229c-55.438-25.113-108.176-47.991-161.167-79.233
			c-86.603-51.059-212.688-149.833-184.646-265.506c11.4-47.025,47.851-103.79,89.087-130.501
			c55.638-36.052,105.054-51.906,171.632-58.621c30.222-3.048,60.711-5.201,91.104-4.215c38.613,1.252,82.887,17.226,121.168,25.354
			c44.225,9.392,88.468,18.852,133.236,25.391c40.51,5.916,87.036,5.281,127.621,2.627c42.914-2.805,88.938-3.794,125.096-30.397
			c27.785-20.441,22.215-61.554-10.598-70.387c-37.576-10.115-80.701-0.382-119.686-2.292
			c-44.362-2.174-86.123-7.496-129.078-13.923c-46.667-6.982-90.876-11.366-136.438-24.104
			c-25.269-7.065-51.688-18.597-75.475-29.987c-45.948-22.003-90.092-48.086-129.479-80.54
			c-28.91-23.822-54.712-49.063-75.189-77.211c-44.044-60.542-62.052-135.719-48.209-209.464
			c14.01-74.635,60.094-124.974,109.807-179.171c47.786-52.096,109.441-103.011,173.27-133.178
			c43.387-20.506,87.548-39.296,131.584-58.385c34.482-14.943,80.266-20.858,104.945-52.113
			c24.373-30.865-0.44-75.479-35.845-84.506c-31.042-7.915-64.14-6.937-95.89-5.411c-22.341,1.074-44.971,5.797-68.014,7.944
			c-102.643,9.563-200.34,32.631-301.924,50.977c-75.649,13.662-151.938,27.976-229.067,28.67
			c-81.895,0.739-143.044-30.225-219.345-50.172c-50.519-13.207-85.126-36.734-131.061-57.105
			c-46.444-20.598-99.025-32.396-140.356-58.996c-46.788-30.113-121.144-33.28-130.369,36.531
			c-8.335,63.074,23.778,141.401,40.04,201.258c16.191,59.602,32.33,102.693,61.064,157.772
			c29.713,56.953,48.363,92.14,99.793,131.786c63.085,48.633,135.71,99.176,171.452,172.087
			c8.162,16.648,13.261,37.327,19.777,55.147c13.427,36.725,24.276,72.647,32.009,109.107c9.118,42.975,8,87.619,1.835,130.871
			c-5.707,40.039-29.931,73.156-48.334,108.118c-22.343,42.448-50.768,76.852-82.707,111.951
			c-35.994,39.56-82.665,81.097-130.321,105.99c-79.662,41.612-164.783,72.153-242.324,117.936
			c-69.735,41.173-127.196,100.406-145.455,180.405c-9.522,41.723-25.427,91.74-15.911,134.711
			c19.021,85.896,116.407,18.722,157.434-2.075c100.726-51.057,201.184-75.235,309.972-100.573
			c196.522-45.773,365.194-1.75,555.812,41.659c83.334,18.979,160.051,59.698,241.337,88.14
			c92.833,32.48,185.856,65.939,272.563,112.877c65.367,35.387,127.649,79.137,180.819,130.305
			c43.002,41.383,103.77,75.244,135.274,124.62c23.396,36.666,27.382,84.664,21.031,127.055
			c-8.483,56.644-37.771,71.248-76.178,107.454c-102.334,96.469-244.383,112.742-380.831,119.544
			c-11.457,0.571-22.903,0.845-34.333,0.829c-16.175-0.023-32.313-0.643-48.396-1.814c-1.398-0.103-2.795-0.203-4.192-0.314
			c-62.028-4.906-123.181-18.218-182.208-39.003c-46.454-16.356-116.007-43.127-193.404-67.075
			c-11.68-4.315-23.036-8.257-34.709-11.451c-0.241-0.053-0.482-0.095-0.724-0.145c-0.759-0.157-1.518-0.313-2.279-0.451
			c-1.005-0.182-2.013-0.347-3.021-0.492c-0.01,0-0.021-0.002-0.03-0.004c-0.66-0.095-1.32-0.182-1.98-0.259
			c-0.08-0.01-0.16-0.016-0.24-0.024c-0.592-0.068-1.186-0.131-1.778-0.186c-0.167-0.015-0.335-0.023-0.503-0.039
			c-0.506-0.042-1.013-0.084-1.521-0.115c-0.289-0.018-0.579-0.025-0.868-0.039c-0.389-0.02-0.776-0.043-1.165-0.055
			c-0.679-0.021-1.358-0.031-2.038-0.031c-11.475,0.01-22.807-1.532-34.034-2.985c-11.866-1.536-23.182-3.248-34.849-5.936
			c-5.858-1.349-11.92-1.739-17.834-2.745c-4.955-0.843-9.989-1.675-14.98-2.251c-10.986-1.268-21.777-2.95-32.833-4.077
			c-16.421-1.672-33.035-3.352-49.581-3.338c-14.634,0.013-29.188,0.326-43.84,0.332c-26.646,0.01-53.124,3.946-79.214,7.323
			c-17.273,2.236-35.841,4.249-51.841,11.632c-7.885,3.639-15.858,6.852-23.531,10.969c-1.137,0.609-2.238,1.268-3.317,1.954
			c-0.171,0.108-0.347,0.211-0.517,0.321c-0.494,0.322-0.979,0.657-1.461,0.993c-0.123,0.086-0.25,0.167-0.372,0.253
			c-0.388,0.274-0.766,0.562-1.146,0.846c-0.212,0.156-0.427,0.308-0.636,0.468c-0.271,0.208-0.535,0.425-0.803,0.637
			c-0.31,0.245-0.624,0.486-0.929,0.737c-0.232,0.19-0.458,0.39-0.688,0.584c-0.333,0.281-0.668,0.558-0.996,0.845
			c-0.214,0.187-0.422,0.382-0.633,0.571c-0.337,0.303-0.677,0.603-1.01,0.91c-0.115,0.107-0.228,0.219-0.341,0.326
			c-0.423,0.397-0.846,0.795-1.26,1.201c-0.5,0.51-0.99,1.032-1.484,1.549c-0.361,0.378-0.728,0.75-1.085,1.133
			c-0.049,0.053-0.096,0.105-0.146,0.157c-1.643,1.759-3.255,3.558-4.826,5.404c-0.811,0.952-1.61,1.916-2.399,2.894
			c-29.568,36.616-13.202,55.957,21.514,74.358c44.552,23.616,94.921,15.589,142.875,18.356
			c54.71,3.157,107.064-8.205,160.339,12.136c34.728,13.259,73.885,31.694,106.606,50.12c0.014,0.008,0.028,0.016,0.042,0.022
			c46.145,26.048,76.823,80.968,111.726,118.804c39.408,42.722,72.078,95.375,79.656,154.506
			c8.346,65.118-25.954,144.008-59.761,197.599c-35.87,56.858-99.225,72.59-152.62,104.976
			c-91.886,55.73-227.878,66.08-234.424,203.096c-3.92,82.047,25.688,135.393-54.124,191.33
			c-54.775,38.391-125.624,54.216-190.776,63.75c-51.437,7.527-110.124,10.662-161.833,5.71
			c-24.244-2.321-50.312-14.188-72.841-23.217c-68.259-27.353-110.4-93.39-171.425-132.587
			c-13.382-8.596-31.828-22.063-47.021-26.927c-10.938-3.501-10.838-7.002-21.497,5.938c-12.084,14.67-14.974,32.797-11.863,50.826
			c7.164,41.553,36.677,75.599,54.043,112.982c0.009,0.02,0.018,0.038,0.026,0.059c37.464,79.457,70.155,150.717,75.177,239.27
			c1.519,26.766-3.241,57.219-11.69,82.563c-17.062,51.16-28.99,104.902-59.052,150.537c-22.473,34.112-86.722,83.553-54.47,129.938
			c26.497,38.105,90.792,36.262,131.745,42.823c57.063,9.144,120.717,19.301,168.605,54.006c31.816,23.062,69.517,53.892,82.96,91.5
			c11.724,32.796,38.956,63.155,45.914,96.571c10.929,52.485-10.306,119.168-37.765,163.928
			c-21.211,34.575-49.313,67.213-76.605,97.049c-34.031,37.201-77.28,68.191-119.818,93.41c-1.754,1.04-3.504,2.1-5.249,3.175
			c-0.088,0.054-0.177,0.108-0.266,0.163c-1.706,1.055-3.405,2.126-5.097,3.215c-0.11,0.07-0.222,0.145-0.332,0.215
			c-1.688,1.091-3.368,2.199-5.037,3.326c-0.093,0.063-0.184,0.125-0.275,0.188c-1.691,1.146-3.372,2.311-5.036,3.494
			c-0.037,0.027-0.074,0.054-0.111,0.08c-1.234,0.881-2.463,1.771-3.68,2.674c-0.625,0.463-1.248,0.931-1.868,1.398
			c-0.83,0.628-1.652,1.264-2.473,1.9c-0.202,0.158-0.404,0.314-0.605,0.473c-0.816,0.643-1.63,1.286-2.437,1.938
			c-0.072,0.06-0.142,0.117-0.213,0.176c-0.746,0.604-1.486,1.215-2.224,1.828c-0.195,0.164-0.393,0.328-0.588,0.492
			c-0.783,0.658-1.563,1.321-2.334,1.992c-0.115,0.101-0.229,0.203-0.345,0.304c-0.687,0.601-1.368,1.203-2.045,1.813
			c-0.18,0.16-0.359,0.32-0.538,0.482c-0.754,0.686-1.503,1.373-2.244,2.068c-0.134,0.125-0.267,0.252-0.399,0.379
			c-0.648,0.611-1.29,1.229-1.927,1.851c-0.161,0.155-0.321,0.313-0.481,0.47c-0.72,0.709-1.434,1.422-2.139,2.143
			c-0.147,0.15-0.294,0.305-0.44,0.455c-0.615,0.633-1.223,1.27-1.825,1.912c-0.136,0.145-0.272,0.288-0.408,0.434
			c-0.685,0.735-1.359,1.479-2.027,2.227c-0.152,0.17-0.303,0.341-0.453,0.512c-0.591,0.668-1.173,1.34-1.748,2.016
			c-0.106,0.125-0.215,0.249-0.321,0.375c-0.646,0.768-1.284,1.54-1.912,2.318c-0.146,0.184-0.294,0.367-0.439,0.551
			c-0.573,0.719-1.14,1.44-1.695,2.17c-0.07,0.092-0.143,0.184-0.212,0.274c-0.606,0.799-1.2,1.606-1.786,2.419
			c-0.139,0.193-0.277,0.389-0.415,0.581c-0.565,0.793-1.123,1.592-1.667,2.396c-0.025,0.037-0.051,0.074-0.076,0.111
			c-0.563,0.836-1.109,1.68-1.649,2.527c-0.127,0.201-0.255,0.401-0.38,0.604c-0.536,0.854-1.063,1.713-1.575,2.581
			c-0.021,0.035-0.04,0.069-0.062,0.104c-0.493,0.84-0.972,1.688-1.44,2.539c-0.113,0.203-0.226,0.406-0.336,0.611
			c-0.479,0.88-0.947,1.768-1.4,2.661c-0.046,0.092-0.09,0.187-0.137,0.276c-0.414,0.824-0.815,1.656-1.207,2.492
			c-0.095,0.205-0.191,0.408-0.285,0.611c-0.418,0.908-0.825,1.822-1.216,2.745c-0.059,0.138-0.112,0.274-0.169,0.411
			c-0.347,0.828-0.682,1.663-1.005,2.503c-0.076,0.196-0.153,0.396-0.229,0.592c-0.354,0.938-0.697,1.885-1.022,2.838
			c-0.06,0.171-0.114,0.345-0.172,0.517c-0.284,0.847-0.558,1.699-0.817,2.558c-0.058,0.187-0.116,0.371-0.171,0.558
			c-0.289,0.972-0.563,1.949-0.821,2.936c-0.052,0.199-0.101,0.398-0.151,0.598c-0.226,0.883-0.438,1.771-0.639,2.666
			c-0.037,0.164-0.076,0.326-0.111,0.488c-0.219,1.007-0.421,2.021-0.608,3.044c-0.04,0.22-0.078,0.44-0.116,0.662
			c-0.165,0.935-0.316,1.874-0.453,2.819c-0.019,0.131-0.041,0.26-0.059,0.392c-0.146,1.044-0.272,2.099-0.385,3.157
			c-0.024,0.236-0.048,0.475-0.07,0.711c-0.1,1.012-0.187,2.027-0.253,3.052c-0.005,0.075-0.013,0.149-0.018,0.228
			c-0.068,1.082-0.114,2.176-0.146,3.275c-0.008,0.253-0.014,0.507-0.02,0.762c-0.021,1.013-0.028,2.03-0.021,3.058
			c0.007,0.921,0.023,1.847,0.059,2.778c1.896,51.588,55.491,90.53,71.158,136.457c31.143,91.289,5.223,195.321-16.868,285.664
			c-15.111,61.791-16.94,130.25-41.82,189.066c-0.335,0.792-0.709,1.607-1.1,2.436c-0.105,0.226-0.216,0.453-0.326,0.682
			c-0.336,0.693-0.688,1.398-1.057,2.113c-0.08,0.154-0.154,0.307-0.235,0.461c-0.444,0.854-0.914,1.726-1.398,2.606
			c-0.132,0.241-0.271,0.485-0.405,0.729c-0.386,0.692-0.781,1.394-1.188,2.103c-0.146,0.257-0.291,0.513-0.44,0.771
			c-0.509,0.881-1.029,1.771-1.563,2.674c-0.188,0.317-0.381,0.642-0.57,0.961c-0.366,0.617-0.736,1.236-1.111,1.861
			c-0.307,0.512-0.616,1.025-0.927,1.543c-0.036,0.061-0.071,0.118-0.107,0.178c-1.104,1.832-2.227,3.688-3.36,5.578
			c-2.738,8.789-5.332,17.691-8.668,26.311c-2.605,6.73-7.631,18.7-7.887,28.859c0.003,0.012,0.006,0.021,0.009,0.033
			c0.198,0.804,0.41,1.571,0.63,2.321c0.049,0.169,0.099,0.338,0.148,0.504c0.229,0.752,0.464,1.485,0.714,2.185
			c0.007,0.021,0.016,0.039,0.022,0.059c0.247,0.688,0.506,1.341,0.771,1.977c0.053,0.125,0.104,0.25,0.157,0.373
			c0.281,0.647,0.569,1.276,0.871,1.873c0.006,0.013,0.012,0.022,0.018,0.033c0.3,0.59,0.609,1.148,0.929,1.688
			c0.048,0.082,0.096,0.165,0.146,0.246c0.332,0.55,0.672,1.078,1.024,1.577c0.003,0.003,0.005,0.007,0.008,0.01
			c0.35,0.494,0.711,0.959,1.08,1.402c0.042,0.053,0.085,0.104,0.128,0.155c0.379,0.448,0.766,0.875,1.164,1.272
			c0.002,0.002,0.004,0.004,0.005,0.006c18.573,9.992,39.229-11.418,51.102-22.345c13.087-12.046,28.094-21.804,40.47-34.51
			c18.756-19.258,38.613-37.39,57.938-56.065c10.15-9.812,22.688-18.217,31.433-29.272c2.773-3.506,5.549-6.983,8.32-10.444
			c2.697-3.635,5.37-7.287,8.028-10.951c0.22-0.305,0.439-0.606,0.66-0.91c5.37-7.418,10.666-14.895,15.906-22.414
			c0.145-0.205,0.287-0.41,0.431-0.617c5.297-7.605,10.54-15.254,15.748-22.929c0.089-0.131,0.178-0.263,0.267-0.394
			c5.241-7.726,10.447-15.475,15.639-23.229c0.087-0.13,0.175-0.261,0.263-0.392c2.573-3.846,5.145-7.691,7.714-11.537
			c16.392-24.539,32.752-49.041,49.731-72.934c0.077-0.109,0.151-0.221,0.229-0.329c0.199-0.278,0.399-0.558,0.598-0.836
			c1.059-1.485,2.12-2.967,3.184-4.446c0.015-0.021,0.027-0.041,0.043-0.062c0.452-0.629,0.9-1.259,1.354-1.888
			c0.008-0.012,0.017-0.021,0.024-0.033c1.48-2.056,2.967-4.104,4.458-6.149c0.035-0.048,0.068-0.097,0.104-0.144
			c0.001-0.002,0.001-0.002,0.002-0.004c0.009-0.011,0.017-0.021,0.024-0.031c1.566-2.146,3.139-4.285,4.718-6.418
			c0.377-0.51,0.758-1.019,1.137-1.526c1.167-1.571,2.339-3.142,3.514-4.706c0.005-0.008,0.011-0.016,0.017-0.021
			c0.542-0.723,1.087-1.441,1.631-2.162c0.012-0.017,0.024-0.031,0.037-0.049c1.012-1.338,2.025-2.676,3.043-4.01
			c0.01-0.013,0.02-0.024,0.029-0.037c0.595-0.779,1.19-1.559,1.789-2.336c0.012-0.017,0.024-0.033,0.037-0.049
			c1.003-1.307,2.011-2.609,3.021-3.91c0.598-0.771,1.195-1.541,1.796-2.31c1.053-1.349,2.112-2.69,3.172-4.033
			c0.036-0.045,0.072-0.091,0.108-0.138c0.312-0.394,0.623-0.787,0.934-1.181c0.214-0.272,0.429-0.544,0.646-0.815
			c1.621-2.037,3.25-4.069,4.888-6.092c2.701-3.33,5.423-6.647,8.162-9.953c0.05-0.061,0.101-0.121,0.151-0.182
			c0.213-0.257,0.426-0.514,0.639-0.771c0.482-0.582,0.975-1.156,1.459-1.736c1.827-2.189,3.66-4.376,5.504-6.553
			c0.383-0.453,0.76-0.91,1.145-1.362c0.209-0.246,0.418-0.49,0.628-0.735c0.483-0.567,0.977-1.129,1.462-1.695
			c1.599-1.869,3.205-3.73,4.816-5.59c0.48-0.555,0.954-1.113,1.437-1.666c0.423-0.484,0.846-0.973,1.271-1.456
			c0.148-0.169,0.299-0.336,0.447-0.505c2.483-2.835,4.979-5.66,7.495-8.466c0.003-0.004,0.006-0.008,0.01-0.013
			c0.384-0.426,0.769-0.851,1.151-1.276c0.01-0.011,0.02-0.021,0.03-0.033c2.506-2.784,5.028-5.554,7.567-8.308
			c0.262-0.283,0.522-0.564,0.783-0.849c0.088-0.095,0.176-0.19,0.264-0.286c0.104-0.111,0.207-0.225,0.311-0.336
			c2.729-2.947,5.479-5.876,8.248-8.785c0.271-0.284,0.542-0.566,0.813-0.852c0.089-0.092,0.18-0.187,0.269-0.279
			c0.016-0.018,0.031-0.033,0.048-0.05c2.719-2.845,5.456-5.669,8.213-8.474c0.108-0.109,0.216-0.221,0.324-0.33
			c0.16-0.164,0.321-0.328,0.48-0.49c0.009-0.008,0.018-0.017,0.024-0.024c2.986-3.028,5.997-6.032,9.029-9.01
			c0.001-0.001,0.001-0.001,0.001-0.001c0.071-0.07,0.142-0.143,0.213-0.213c0.094-0.093,0.19-0.184,0.285-0.275
			c0.01-0.01,0.021-0.02,0.03-0.028c2.982-2.923,5.986-5.819,9.015-8.69c0.007-0.008,0.014-0.015,0.021-0.021
			c0.102-0.096,0.2-0.189,0.301-0.286c0.011-0.011,0.022-0.021,0.033-0.03c3.059-2.896,6.14-5.763,9.245-8.602
			c0.086-0.079,0.173-0.157,0.259-0.236c0.162-0.146,0.324-0.295,0.486-0.441c0.009-0.008,0.018-0.016,0.026-0.023
			c2.927-2.668,5.876-5.31,8.846-7.924c0.171-0.149,0.341-0.301,0.512-0.451c0.132-0.117,0.265-0.234,0.397-0.352
			c0.007-0.006,0.014-0.012,0.021-0.018c3.047-2.672,6.118-5.314,9.212-7.93c0.01-0.007,0.019-0.016,0.026-0.021
			c0.146-0.123,0.288-0.25,0.434-0.373c10.264-8.65,19.823-18.254,30.951-25.83c3.007-2.049,6.179-3.789,9.415-5.404
			c0.002-0.001,0.004-0.002,0.006-0.004c1.982-1.398,3.977-2.779,5.978-4.152c0.39-0.268,0.779-0.533,1.17-0.799
			c1.971-1.345,3.947-2.68,5.937-3.996c0.012-0.008,0.023-0.018,0.035-0.024c2.014-1.333,4.038-2.647,6.069-3.954
			c0.413-0.266,0.826-0.529,1.239-0.794c2.002-1.278,4.011-2.549,6.031-3.8c0.016-0.01,0.029-0.02,0.045-0.027
			c2.041-1.265,4.096-2.511,6.156-3.746c0.44-0.265,0.881-0.526,1.323-0.789c2.029-1.209,4.063-2.408,6.112-3.588
			c0.021-0.013,0.045-0.025,0.067-0.039c2.071-1.192,4.154-2.365,6.243-3.528c0.471-0.263,0.942-0.522,1.414-0.783
			c2.052-1.133,4.11-2.256,6.18-3.358c0.035-0.02,0.07-0.039,0.105-0.059c2.101-1.119,4.215-2.219,6.335-3.307
			c0.496-0.256,0.993-0.51,1.49-0.763c2.081-1.06,4.168-2.108,6.268-3.138c0.045-0.021,0.089-0.045,0.134-0.066
			c2.133-1.044,4.278-2.066,6.432-3.081c0.521-0.245,1.044-0.489,1.566-0.733c2.118-0.985,4.241-1.963,6.379-2.918
			c0.046-0.021,0.093-0.043,0.139-0.063c2.169-0.97,4.352-1.917,6.541-2.854c0.543-0.231,1.087-0.463,1.632-0.693
			c2.174-0.92,4.354-1.83,6.55-2.718c0.027-0.011,0.055-0.022,0.081-0.033c2.213-0.896,4.44-1.767,6.673-2.627
			c0.56-0.215,1.118-0.431,1.678-0.644c2.242-0.854,4.491-1.695,6.755-2.516c110.419-39.961,231.301-45.768,337.987-96.979
			c4.217-2.023,8.453-4.029,12.702-6.023c0.262-0.123,0.521-0.246,0.782-0.369c4.301-2.016,8.616-4.02,12.943-6.012
			c0.025-0.014,0.053-0.025,0.079-0.037c51.284-27.679,107.691-47.34,159.595-74.095c4.234-2.19,8.455-4.401,12.65-6.649
			c0.12-0.064,0.242-0.129,0.363-0.193c3.67-1.969,7.324-3.959,10.96-5.975c0.011-0.006,0.021-0.013,0.031-0.019
			c1.391-0.771,2.781-1.546,4.167-2.325c0.012-0.007,0.025-0.014,0.037-0.021c0.845-0.476,1.688-0.953,2.533-1.431
			c1.418-0.804,2.834-1.614,4.246-2.427c0.832-0.479,1.666-0.956,2.494-1.438c0.063-0.037,0.125-0.072,0.188-0.109
			c2.159-1.253,4.311-2.516,6.456-3.787c2.177-1.294,4.349-2.596,6.51-3.91c60.079-36.563,111.319-85.459,173.581-122.322
			c91.948-54.438,162.4-135.789,249.418-196.645c87.454-61.158,188.215-98.45,292.331-119.555
			c57.464-11.646,122.19,0.881,181.295,1.356c70.249,0.567,140.55,0.608,210.728-3.032c137.451-7.133,275.695-28.409,402.14-85.105
			c184.83-82.879,381.367-242.24,477.851-420.916c10.839-20.07,13.861-43.012,21.336-64.609
			c8.819-25.48,19.646-50.324,26.496-76.458c10.395-39.651,20.316-82.622,26.132-124.082
			C4049.086,4522.75,4072.664,4423.479,4018.077,4467.508z" style="stroke:black;fill:#f2f1f0"/></g>
<g id="278102973" order="12" parent_id="" graphic_group_label_id="266932194" graphic_group_label="Atlas - Human Gyri" sub_image_id="102339937" transform=" scale(7.0, 7.0)"><path id="278102976" parent_id="278102973" order="12" structure_id="4889" d="
			M5064.404,3366.829c-2.408-27.282-14.416-55.55-22.586-81.88c-14.114-45.49-39.562-80.752-68.912-116.859
			c-26.684-32.825-48.979-70.28-85.332-93.666c-20.16-12.968-32.225-29.394-50.773-45.244
			c-19.609-16.756-43.374-30.398-65.178-44.088c-53.986-33.896-110.971-43.277-172.226-56.146
			c-30.437-6.394-62.737-15.882-93.612-7.231c-38.814,10.873-76.746,33.739-111.151,54.412
			c-94.931,57.041-138.626,149.601-217.808,223.551c-43.898,40.999-69.778,85.594-99.893,138.107
			c-34.023,59.333-79.889,111.438-114.029,170.928c-42.084,73.332-88.904,141.237-137.521,210.438
			c-24.563,34.963-50.814,69.176-73.646,104.99c-21.287,33.395-50.369,61.139-70.43,95.375
			c-23.568,40.22-48.809,85.549-55.997,132.343c-11.865,77.244-11.854,154.409-29.375,231.525
			c-16.501,72.623-31.333,146.14-66.466,212.924c-32,60.83-67.432,113.113-119.528,158.67
			c-59.593,52.11-123.269,93.354-199.254,116.213c-45.353,13.644-90.178,26.375-135.465,40.301
			c-41.282,12.692-94.271,15.717-136.646,17.502c-15.142,0.64-30.931,0.729-46.058-0.217c-10.449-0.653-21.582-1.41-32.022-2.992
			c-31.344-4.748-60.807-18.188-91.667-25.283c-72.5-16.668-125.069-29.705-188.805-35.957c-23.069-2.263-46.063-3.879-69.031-6.543
			c-8.332-0.967-16.667-2.074-24.999-2.998c-13.055-1.446-25.808-5.345-39.046-3.629c-14.852,1.924-29.886,2.737-44.935,3.953
			c-34.499,2.785-68.936,7.414-102.604,15.568c-85.732,20.766-163.125,61.734-231.467,116.634
			c-29.146,23.414-58.539,43.961-86.5,68.958c-27.844,24.893-55.259,56.775-87.779,74.695
			c-37.354,20.584-77.785,34.853-115.694,54.324c-14.452,7.424-28.276,16.008-42.814,23.276
			c-11.793,5.896-24.961,10.089-37.675,13.408c-7.193,1.879-15.682,4.437-23.206,3.812c-2.884-0.238-7-1.65-10.06-3.799
			l-354.046,164.014c71.813,107.313,202.807,156.434,331.675,130.65c49.313-9.865,98.484-20.647,146.914-34.262
			c39.861-11.204,83.512-18.24,122.25-32.098c25.188-9.008,49.859-22.344,74.431-31.459c58.11-21.563,119.358-42.674,172.161-75
			c38.936-23.838,81.32-40.834,119.953-64.555c23.642-14.518,47.037-27.068,72.395-38.027
			c51.354-22.193,88.842-31.123,143.586-22.517c53.924,8.479,100.735,0.294,155.025,1.808c63.319,1.764,126.633,4.244,189.987,4.231
			c95.327-0.017,187.886,1.229,281.539-8.004c83.673-8.25,158.872-16.082,234.879-52.507
			c37.517-17.979,78.211-37.371,112.556-60.984c25.392-17.457,49.223-37.025,73.924-54.496
			c58.916-41.666,119.385-80.183,171.479-130.556c40.789-39.44,78.919-81.089,122.623-117.556
			c41.816-34.893,78.725-87.822,109.359-132.313c21.829-31.703,43.012-76.748,73.165-101.07
			c54.587-44.027,31.009,55.242,27.478,80.428c-5.813,41.46-15.736,84.432-26.131,124.082
			c-6.852,26.134-17.677,50.977-26.496,76.458c-7.475,21.599-10.498,44.539-21.337,64.61
			c-96.481,178.674-293.021,338.035-477.851,420.914c-126.442,56.697-264.688,77.975-402.14,85.106
			c-70.177,3.642-140.478,3.601-210.728,3.032c-59.104-0.477-123.83-13.004-181.295-1.355
			c-104.114,21.104-204.877,58.396-292.33,119.554c-87.019,60.854-157.471,142.205-249.418,196.646
			c-62.263,36.862-113.502,85.758-173.582,122.321c-2.16,1.315-4.332,2.616-6.51,3.91c-2.145,1.271-4.297,2.534-6.456,3.787
			c-0.063,0.037-0.125,0.073-0.187,0.108c-0.83,0.481-1.662,0.959-2.494,1.438c-1.413,0.813-2.828,1.623-4.247,2.427
			c-0.844,0.479-1.688,0.955-2.533,1.432c-0.012,0.006-0.024,0.014-0.037,0.021c-1.386,0.778-2.775,1.554-4.167,2.325
			c-0.01,0.006-0.021,0.012-0.03,0.018c-3.637,2.017-7.29,4.006-10.96,5.976c-0.121,0.065-0.243,0.129-0.364,0.194
			c-4.195,2.246-8.416,4.459-12.65,6.648c-51.901,26.755-108.31,46.416-159.595,74.094c-0.026,0.013-0.053,0.024-0.079,0.037
			c-4.327,1.992-8.642,3.996-12.942,6.013c-0.262,0.123-0.521,0.246-0.782,0.369c-4.249,1.994-8.486,4-12.703,6.024
			c-106.687,51.211-227.568,57.017-337.987,96.978c-2.263,0.819-4.512,1.662-6.755,2.517c-0.56,0.213-1.119,0.428-1.677,0.643
			c-2.233,0.861-4.459,1.732-6.673,2.627c-0.027,0.012-0.054,0.021-0.081,0.033c-2.194,0.889-4.375,1.798-6.551,2.718
			c-0.543,0.229-1.088,0.462-1.632,0.694c-2.188,0.937-4.37,1.883-6.541,2.854c-0.046,0.021-0.093,0.042-0.139,0.063
			c-2.137,0.957-4.26,1.934-6.378,2.92c-0.523,0.244-1.045,0.487-1.567,0.732c-2.151,1.014-4.298,2.037-6.431,3.081
			c-0.045,0.022-0.089,0.045-0.134,0.065c-2.101,1.029-4.188,2.08-6.269,3.139c-0.497,0.253-0.994,0.507-1.49,0.762
			c-2.12,1.088-4.233,2.188-6.334,3.308c-0.035,0.021-0.07,0.039-0.105,0.058c-2.07,1.104-4.128,2.228-6.18,3.359
			c-0.473,0.262-0.943,0.521-1.414,0.783c-2.089,1.163-4.172,2.336-6.243,3.527c-0.022,0.015-0.045,0.027-0.068,0.041
			c-2.048,1.18-4.083,2.379-6.112,3.586c-0.44,0.264-0.882,0.525-1.322,0.791c-2.062,1.234-4.115,2.48-6.157,3.746
			c-0.015,0.008-0.029,0.018-0.044,0.026c-2.021,1.251-4.03,2.521-6.032,3.8c-0.413,0.266-0.826,0.527-1.239,0.794
			c-2.03,1.306-4.056,2.621-6.068,3.954c-0.012,0.008-0.023,0.018-0.036,0.023c-1.989,1.317-3.965,2.652-5.937,3.998
			c-0.391,0.266-0.779,0.53-1.17,0.799c-2,1.371-3.994,2.754-5.977,4.151c-0.002,0.002-0.004,0.003-0.006,0.004
			c-3.235,1.616-6.407,3.354-9.415,5.403c-11.128,7.578-20.688,17.181-30.951,25.83c-0.146,0.123-0.288,0.25-0.435,0.373
			c-0.009,0.008-0.018,0.017-0.025,0.022c-3.094,2.614-6.165,5.257-9.212,7.929c-0.007,0.006-0.015,0.013-0.021,0.019
			c-0.133,0.116-0.265,0.233-0.396,0.351c-0.17,0.151-0.341,0.303-0.513,0.453c-2.646,2.328-5.268,4.687-7.879,7.058l0.003,0.005
			c-0.318,0.289-0.64,0.57-0.958,0.859c-0.009,0.008-0.018,0.016-0.026,0.023c-0.162,0.146-0.323,0.295-0.485,0.441
			c-0.086,0.079-0.174,0.157-0.26,0.236c-3.105,2.838-6.187,5.705-9.244,8.601c-0.012,0.01-0.022,0.021-0.034,0.03
			c-0.101,0.097-0.2,0.191-0.301,0.287c-0.007,0.006-0.014,0.014-0.021,0.021c-3.027,2.871-6.031,5.769-9.014,8.69
			c-0.011,0.01-0.021,0.021-0.031,0.029c-0.094,0.093-0.191,0.184-0.285,0.275c-0.071,0.069-0.141,0.142-0.212,0.211
			c0,0-0.001,0.002-0.002,0.002c-3.033,2.979-6.043,5.981-9.029,9.01c-0.008,0.01-0.017,0.018-0.024,0.024
			c-0.16,0.163-0.32,0.327-0.48,0.49c-0.108,0.11-0.216,0.222-0.324,0.33c-2.757,2.806-5.495,5.63-8.213,8.474
			c-0.016,0.018-0.032,0.033-0.048,0.051c-0.089,0.094-0.179,0.188-0.269,0.279c-0.271,0.283-0.543,0.566-0.813,0.852
			c-2.769,2.908-5.518,5.838-8.248,8.785c-0.104,0.11-0.207,0.224-0.31,0.336c-0.089,0.096-0.177,0.189-0.265,0.285
			c-0.261,0.283-0.521,0.565-0.783,0.85c-2.538,2.753-5.063,5.521-7.567,8.307c-0.01,0.013-0.021,0.022-0.03,0.033
			c-0.384,0.428-0.769,0.853-1.151,1.277c-0.003,0.004-0.007,0.008-0.01,0.012c-2.517,2.808-5.012,5.631-7.495,8.467
			c-0.147,0.168-0.299,0.336-0.446,0.504c-0.425,0.484-0.849,0.972-1.271,1.457c-0.48,0.553-0.955,1.111-1.436,1.666
			c-1.612,1.856-3.219,3.721-4.817,5.59c-0.485,0.566-0.979,1.127-1.462,1.695c-0.209,0.245-0.419,0.488-0.628,0.734
			c-0.385,0.453-0.762,0.91-1.145,1.362c-1.844,2.177-3.678,4.36-5.504,6.554c-0.484,0.58-0.978,1.154-1.459,1.736
			c-0.213,0.257-0.426,0.514-0.639,0.771c-0.052,0.061-0.102,0.121-0.151,0.182c-2.739,3.305-5.461,6.622-8.162,9.953
			c-1.639,2.021-3.267,4.055-4.888,6.092c-0.216,0.271-0.431,0.543-0.646,0.814c-0.311,0.395-0.621,0.787-0.934,1.182
			c-0.036,0.046-0.072,0.092-0.108,0.137c-1.06,1.342-2.118,2.686-3.172,4.033c-0.601,0.769-1.198,1.539-1.796,2.311
			c-1.01,1.3-2.017,2.604-3.021,3.91c-0.013,0.016-0.025,0.032-0.037,0.048c-0.598,0.778-1.193,1.558-1.789,2.336
			c-0.009,0.013-0.02,0.024-0.029,0.038c-1.018,1.333-2.031,2.671-3.043,4.01c-0.013,0.018-0.024,0.032-0.037,0.049
			c-0.544,0.721-1.089,1.439-1.631,2.161c-0.006,0.008-0.011,0.015-0.017,0.022c-1.176,1.563-2.346,3.133-3.514,4.705
			c-0.379,0.51-0.759,1.018-1.137,1.526c-1.579,2.133-3.151,4.272-4.718,6.418c-0.005,0.007-0.011,0.015-0.016,0.021
			c-0.003,0.004-0.007,0.008-0.01,0.013c-0.001,0.001-0.001,0.002-0.002,0.003c-0.034,0.048-0.068,0.096-0.104,0.145
			c-1.492,2.045-2.979,4.095-4.458,6.149c-0.008,0.011-0.016,0.021-0.024,0.033c-0.453,0.628-0.901,1.258-1.354,1.888
			c-0.016,0.02-0.028,0.039-0.043,0.061c-1.063,1.48-2.125,2.962-3.184,4.447c-0.198,0.278-0.398,0.557-0.598,0.836
			c-0.078,0.108-0.152,0.219-0.229,0.328c-16.979,23.893-33.34,48.395-49.731,72.934c-2.569,3.846-5.14,7.691-7.714,11.537
			c-0.087,0.131-0.176,0.262-0.262,0.393c-5.192,7.756-10.398,15.504-15.64,23.229c-0.089,0.131-0.178,0.263-0.267,0.394
			c-5.208,7.674-10.45,15.321-15.748,22.929c-0.145,0.206-0.287,0.412-0.43,0.617c-5.241,7.521-10.537,14.996-15.907,22.414
			c-0.22,0.304-0.439,0.604-0.66,0.909c-2.534,3.495-5.085,6.977-7.655,10.441c-0.157,0.213-0.314,0.422-0.472,0.633
			c-2.74,3.422-5.481,6.857-8.222,10.321c-8.746,11.056-21.283,19.462-31.434,29.272c-19.325,18.676-39.182,36.809-57.938,56.065
			c-12.376,12.707-27.383,22.464-40.47,34.51c-11.872,10.927-32.528,32.337-51.102,22.345c-0.001-0.002-0.003-0.004-0.005-0.006
			c-0.398-0.397-0.785-0.824-1.164-1.272c-0.043-0.051-0.085-0.104-0.128-0.155c-0.369-0.443-0.73-0.908-1.08-1.402
			c-0.003-0.003-0.005-0.007-0.008-0.01c-0.353-0.499-0.692-1.027-1.024-1.577c-0.049-0.081-0.097-0.164-0.146-0.246
			c-0.318-0.539-0.629-1.099-0.929-1.688c-0.006-0.011-0.012-0.021-0.018-0.033c-0.302-0.597-0.59-1.226-0.871-1.873
			c-0.053-0.123-0.104-0.248-0.157-0.373c-0.267-0.636-0.525-1.289-0.771-1.977c-0.007-0.02-0.015-0.038-0.022-0.059
			c-0.25-0.699-0.485-1.433-0.714-2.185c-0.05-0.166-0.1-0.335-0.148-0.504c-0.22-0.75-0.433-1.519-0.629-2.321
			c-0.003-0.012-0.007-0.021-0.01-0.033c0.255-10.16,5.28-22.129,7.887-28.859c3.336-8.618,5.93-17.521,8.668-26.311
			c1.134-1.89,2.258-3.746,3.36-5.578c0.036-0.06,0.071-0.117,0.107-0.178c0.311-0.518,0.62-1.032,0.927-1.543
			c0.375-0.625,0.745-1.245,1.111-1.861c0.189-0.319,0.384-0.644,0.571-0.961c0.532-0.901,1.054-1.793,1.563-2.674
			c0.149-0.258,0.294-0.514,0.441-0.771c0.405-0.709,0.801-1.409,1.187-2.103c0.135-0.244,0.273-0.487,0.405-0.729
			c0.484-0.882,0.955-1.753,1.398-2.606c0.081-0.154,0.155-0.307,0.235-0.461c0.37-0.715,0.721-1.42,1.057-2.113
			c0.11-0.229,0.221-0.456,0.326-0.682c0.392-0.828,0.766-1.644,1.101-2.436c24.879-58.816,26.709-127.275,41.819-189.066
			c22.091-90.342,48.012-194.375,16.868-285.664c-15.667-45.926-69.263-84.869-71.158-136.457c-0.033-0.934-0.052-1.857-0.059-2.778
			c-0.008-1.026-0.002-2.045,0.021-3.058c0.005-0.254,0.012-0.508,0.02-0.762c0.032-1.1,0.078-2.193,0.146-3.275
			c0.005-0.076,0.013-0.151,0.018-0.228c0.066-1.024,0.153-2.041,0.253-3.052c0.022-0.236,0.046-0.475,0.071-0.711
			c0.111-1.061,0.237-2.113,0.384-3.157c0.018-0.131,0.04-0.26,0.059-0.392c0.137-0.945,0.289-1.887,0.453-2.819
			c0.039-0.222,0.076-0.442,0.116-0.662c0.188-1.022,0.39-2.037,0.608-3.044c0.036-0.163,0.075-0.325,0.111-0.488
			c0.2-0.895,0.414-1.783,0.639-2.666c0.052-0.199,0.101-0.397,0.151-0.598c0.259-0.984,0.532-1.964,0.821-2.936
			c0.055-0.187,0.114-0.371,0.171-0.558c0.261-0.858,0.534-1.711,0.818-2.558c0.058-0.172,0.112-0.346,0.171-0.517
			c0.325-0.953,0.668-1.897,1.022-2.838c0.075-0.196,0.152-0.396,0.229-0.592c0.323-0.84,0.659-1.675,1.005-2.503
			c0.057-0.137,0.111-0.273,0.169-0.411c0.391-0.923,0.798-1.837,1.216-2.745c0.094-0.204,0.19-0.407,0.285-0.611
			c0.392-0.836,0.793-1.668,1.207-2.492c0.046-0.092,0.09-0.186,0.137-0.276c0.453-0.896,0.922-1.78,1.4-2.661
			c0.11-0.205,0.223-0.408,0.336-0.611c0.47-0.853,0.948-1.699,1.44-2.539c0.021-0.035,0.041-0.069,0.062-0.104
			c0.512-0.868,1.039-1.728,1.575-2.581c0.126-0.201,0.253-0.402,0.38-0.604c0.54-0.849,1.087-1.691,1.649-2.527
			c0.025-0.037,0.052-0.074,0.076-0.111c0.544-0.805,1.103-1.604,1.667-2.396c0.139-0.192,0.276-0.388,0.415-0.581
			c0.586-0.813,1.18-1.62,1.786-2.419c0.07-0.092,0.142-0.183,0.212-0.274c0.556-0.729,1.122-1.451,1.695-2.17
			c0.146-0.185,0.293-0.367,0.439-0.551c0.628-0.778,1.266-1.553,1.912-2.318c0.106-0.126,0.214-0.25,0.321-0.375
			c0.575-0.676,1.158-1.348,1.748-2.016c0.15-0.17,0.301-0.342,0.453-0.512c0.667-0.748,1.343-1.49,2.027-2.227
			c0.136-0.146,0.272-0.289,0.408-0.434c0.603-0.643,1.21-1.279,1.825-1.912c0.147-0.15,0.293-0.305,0.441-0.455
			c0.704-0.721,1.417-1.434,2.138-2.143c0.16-0.156,0.321-0.313,0.481-0.47c0.637-0.621,1.278-1.237,1.927-1.851
			c0.134-0.127,0.266-0.254,0.399-0.379c0.741-0.695,1.49-1.385,2.244-2.068c0.179-0.162,0.358-0.323,0.538-0.482
			c0.677-0.609,1.358-1.213,2.045-1.813c0.115-0.101,0.229-0.203,0.345-0.304c0.772-0.67,1.552-1.334,2.334-1.992
			c0.195-0.164,0.393-0.328,0.589-0.492c0.735-0.613,1.477-1.225,2.223-1.828c0.071-0.059,0.142-0.117,0.213-0.176
			c0.806-0.65,1.62-1.295,2.438-1.938c0.2-0.157,0.402-0.314,0.604-0.473c0.819-0.639,1.644-1.272,2.473-1.9
			c0.62-0.469,1.242-0.936,1.868-1.398c1.217-0.901,2.445-1.793,3.681-2.674c0.036-0.026,0.073-0.053,0.11-0.08
			c1.665-1.185,3.346-2.348,5.036-3.494c0.092-0.063,0.185-0.125,0.275-0.188c1.669-1.127,3.349-2.234,5.037-3.326
			c0.11-0.07,0.222-0.145,0.333-0.215c1.69-1.089,3.391-2.161,5.096-3.215c0.088-0.055,0.177-0.109,0.266-0.163
			c1.745-1.076,3.495-2.135,5.249-3.175c42.538-25.218,85.787-56.209,119.818-93.41c15.163-16.575,30.571-34.02,44.912-52.174
			l0.006,0.002c11.474-14.525,22.266-29.506,31.693-44.873c27.458-44.76,48.691-111.441,37.764-163.928
			c-6.958-33.416-34.19-63.775-45.914-96.572c-13.444-37.608-51.144-68.438-82.96-91.5
			c-47.889-34.705-111.542-44.861-168.605-54.006c-40.952-6.563-105.249-4.717-131.744-42.822
			c-32.252-46.387,31.996-95.826,54.469-129.938c30.062-45.634,41.991-99.377,59.052-150.536
			c8.449-25.344,13.208-55.798,11.691-82.563c-5.022-88.553-37.714-159.813-75.178-239.271c-0.009-0.021-0.018-0.038-0.026-0.058
			c-17.366-37.385-46.878-71.432-54.043-112.982c-3.109-18.029-0.221-36.156,11.863-50.827c10.659-12.94,10.561-9.438,21.497-5.938
			c15.191,4.864,33.639,18.332,47.021,26.928c61.023,39.197,103.166,105.233,171.425,132.586
			c22.53,9.028,48.599,20.896,72.841,23.217c51.71,4.953,110.397,1.817,161.833-5.709c30.207-4.42,61.636-10.199,92.122-18.945
			l-200.056-236.874c-0.978,1.106-2.603,1.487-4.112,0.587c-12.368-7.375-20.575-31.133-27.629-41.305
			c-14.088-20.314-28.939-40.111-43.432-60.139c-28.026-38.727-55.628-77.849-79.185-119.506
			c-14.582-25.787-33.954-51.721-55.838-70.931c-62.234-54.624-174.606-101.789-258.606-91.978
			c-52.743,6.16-115.593,22.908-158.412,55.507c-25.359,19.306-48.377,37.113-67.852,62.68
			c-27.11,35.591-56.106,79.396-74.495,120.317c-28.595,63.64-63.768,128.019-73.462,197.086
			c-20.397,145.324,22.425,288.527,7.866,433.416c-10.302,102.533-34.614,198.604-30.003,302.994
			c3.596,81.417,10.209,169.143,37.496,244.457c7.875,21.734,17.729,43.113,28.511,63.674
			c18.387,35.063,28.486,85.965,67.303,106.172c28.334,14.75,64.332-7.294,94.123-8.25c44.791-1.438,90.414,7.54,134.929,11.695
			c8.454,0.789,16.952,1.015,25.439,0.912c7.892-0.097,15.61,0.222,23.485,0.278c8.512,0.062,17.019,0.504,25.541,0.558
			c9.022,0.057,18.004,1.228,27.013,1.293c9.201,0.067,18.381,0.785,27.577,1.101c5.709,0.194,11.895,0.379,17.51,1.308
			c2.236,0.371,4.688,1.465,6.224,3.054c1.367,1.413,1.786,2.983,1.531,4.37l157.172,58.992l-157.172-58.991
			c-0.151,0.827-0.543,1.59-1.115,2.214c-1.087,1.186-2.823,1.872-4.809,1.57c-2.895-0.441-5.763,0.166-8.688,0.418
			c-3.498,0.301-7.005,0.535-10.476,1.095c-13.003,2.097-25.119,2.069-38.261,1.415c-24.759-1.234-49.543,0.764-74.308-0.154
			c-23.712-0.879-47.026-4.395-70.459-8.277c-28.126-4.662-57.747-9.686-86.083-3.771c-36.697,7.66-44.336,23.771-62.957,53.304
			c-14.424,22.876-24.691,45.573-32.227,71.665c-10.405,36.023-18.588,69.954-25.502,107.708
			c-20.479,111.83-3.328,230.209,9.362,341.729c4.397,38.647,9.948,78.742,18.285,116.517
			c8.991,40.741,19.485,80.616,15.395,122.787c-6.67,68.765-23.583,128.618-39.262,194.908
			c-11.485,48.556-12.062,97.804-12.001,149.878c0.061,52.589,4.032,99.188,9.012,150.823c4.335,44.953,2.462,97.585,11.974,141.731
			c6.08,28.217,12.968,58.596,27.805,83.664c20.99,35.463,77.04,33.897,112.327,39.166c46.095,6.879,91.738,2.912,138.105,2.914
			c58.394,0,116.281-9.463,173.252-21.562c61.016-12.957,121.345-22.241,181.078-39.646
			c63.723-18.565,127.822-35.836,191.236-55.453c22.26-6.887,46.213-17.33,67.665-26.959c15.599-7.002,30.063-14.614,45.144-22.133
			c26.477-13.196,51.199-25.862,74.99-43.865c53.649-40.595,106.727-78.615,151.1-129.711
			c29.047-33.445,44.09-80.189,54.454-122.639c3.614-14.805,12.307-34.355,8.185-50.221c-4.503-17.326-17.371-24.258-28.806-34.203
			c-7.977-6.938-53.646-36.222-40.243-47.775c0.163-0.141,0.34-0.252,0.509-0.377l-0.002-0.004
			c10.233-7.517,32.059,13.016,39.359,18.251c17.335,12.433,37.181,20.752,57.55,27.796c34.259,11.848,68.478,23.563,105.117,12.82
			c25.651-7.52,50.757-22.729,75.42-33.174c47.957-20.314,97.968-45.637,140.695-76.109c47.229-33.686,98.313-62.678,144.935-97.164
			c33.147-24.518,71.167-44.002,103.2-69.656c26.001-20.821,52.881-40.918,82.06-57.115c27.42-15.221,57.362-24.903,84.394-40.955
			c51.888-30.81,105.885-59.779,154.507-95.104c20.284-14.735,39.1-31.974,57.101-49.396c14.881-14.401,31.27-23.446,47.847-35.68
			c25.826-19.063,52.411-36.791,77.971-55.285c13.482-9.756,27.187-20.448,40.225-31.027c33.662-27.316,57.069-64.978,68.93-106.324
			c8.62-30.055,4.256-101.769,54.002-56.318c21.183,19.354,55.511,45.081,82.167,55.824c21.547,8.686,45.105,16.459,68.257,21.741
			c21.104,4.815,38.986,12.837,59.893,16.489c44.506,7.773,87.992,4.486,132.818,4.492c22.611,0,44.898,1.646,67.262,1.756
			c23.957,0.119,47.09-7.99,70.699-10.832c38.268-4.605,79.14-10.742,117.096-19.52c32.307-7.471,65.272-13.385,95.04-23.904
			c28.54-10.086,54.568-22.857,82.681-34.179c109.617-44.142,221.112-80.108,327.257-133.362
			c24.31-12.196,49.52-23.192,73.25-36.439c11.752-6.561,23.362-14.121,35.028-21.004c24.784-14.624,50.375-29.613,73.451-46.686
			c31.254-23.121,63.688-42.713,94.44-66.905c33.763-26.562,67.715-52.942,99.61-81.757
			c52.842-47.734,98.97-104.339,141.006-161.695c18.484-25.226,43.599-50.569,55.658-79.763
			c12.608-30.524,26.015-57.757,41.832-87.089c12.321-22.852,22.771-49.727,33.733-74.208c19.985-44.63,48.034-90.106,63.759-136.95
			c10.188-30.352,22.052-60.152,31.997-90.631c21.325-65.359,30.752-134.777,46.705-201.762
			c11.836-49.697,24.865-99.605,29.712-150.973c6.504-68.932,22.576-137.064,31.477-205.938
			c6.639-51.373,14.485-102.838,30.264-152.319c15.29-47.954,34.605-95.173,64.714-135.888
			c60.759-82.166,119.19-162.886,168.009-252.938C5063.529,3521.952,5070.873,3440.045,5064.404,3366.829z" style="stroke:black;fill:#e8c359"/><path id="278102974" parent_id="278102973" order="45" structure_id="4029" d="
			M4425.627,2325.919c-14.621-48.545-35.495-96.251-60.1-140.998c-31.348-56.998-72.709-91.424-115.699-139.868
			c-31.988-36.046-61.252-71.81-99.229-106.933c-77.467-71.644-154.196-141.57-242.226-202.09
			c-81.816-56.25-182.597-116.747-278.981-142.86c-82.546-22.364-171.007-4.348-245.396,34.944
			c-70.543,37.261-103.595,66.602-132.67,144.757c-31.258,84.021-18.283,200.099-76.832,271.143
			c-26.73,32.438-66.666,47.301-99.795,72.063c-40.158,30.018-75.854,65.694-119.104,90.083
			c-72.494,40.877-150.14,97.703-230.409,120.51c-85.254,24.223-182.803,39.923-271.11,46.891
			c-82.588,6.518-166.772-17.19-246.616-35.457c-15.311-3.502-122.814-21.513-120.134-41.892
			c2.485-18.836,49.191,3.929,59.882,6.788c35.95,9.615,71.386,21.25,107.948,28.441c60.272,11.854,116.369,27.555,180.343,27.557
			c102.807,0.003,213.257-17.335,309.061-55.946c67.983-27.397,126.604-61.573,187.46-103.558
			c56.226-38.789,92.101-98,110.892-162.813c19.399-66.917,40.265-135.746,51.881-204.237
			c12.13-71.516,10.774-144.939-26.106-209.445c-20.009-34.995-72.926-62.621-106.433-82.997
			c-29.732-18.082-62.515-33.587-94.482-46.478c-29.318-11.822-62.873-3.989-92.061-0.685
			c-70.27,7.956-138.848,26.375-207.108,44.195c-43.351,11.316-87.551,24.002-132.247,19.915
			c-48.353-4.422-98.095-5.982-146.874-5.953c-50.323,0.028-104.614,3.222-153.332-5.953c-14.537-2.738-21.79-8.565-21.299-14.763
			l-293.594,51.688c7.258,40.479,23.798,79.188,48.586,113.261c20.479,28.148,46.28,53.39,75.19,77.211
			c39.386,32.454,83.53,58.537,129.478,80.54c23.787,11.392,50.206,22.921,75.476,29.987c45.56,12.739,89.77,17.123,136.437,24.104
			c42.955,6.428,84.717,11.75,129.078,13.924c38.984,1.91,82.109-7.823,119.686,2.292c32.813,8.833,38.383,49.944,10.599,70.387
			c-36.158,26.603-82.184,27.592-125.097,30.396c-40.584,2.654-87.11,3.288-127.621-2.627
			c-44.769-6.538-89.012-15.999-133.235-25.39c-38.282-8.129-82.556-24.104-121.169-25.355c-30.394-0.985-60.882,1.168-91.104,4.216
			c-66.578,6.715-115.995,22.568-171.632,58.62c-41.236,26.711-77.686,83.477-89.087,130.502
			c-28.042,115.674,98.044,214.446,184.647,265.506c52.989,31.242,105.728,54.12,161.166,79.232
			c28.424,12.875,55.746,24.612,84.959,36.229c29.961,11.915,62.241,15.506,91.498,29.519c23.936,11.465,47.78,19.893,74.41,25.049
			c34.235,6.625,67.467,12.125,102.625,15.435c57.846,5.444,115.812,9.767,173.871,12.092c50.853,2.038,98.073-6.09,147.954-6.102
			c28.384-0.007,55.72,3.632,83.533-0.446c25.946-3.805,51.818-10.135,78.004-13.999c60.866-8.981,119.331-28.685,176.825-49.991
			c55.074-20.41,113.152-37.477,165.477-63.896c25.573-12.912,53.963-18.446,79.189-31.573
			c56.439-29.369,111.279-61.904,164.144-97.309c27.329-18.302,52.058-39.936,80.083-56.955
			c23.35-14.177,47.567-22.496,72.242-33.832c31.648-14.537,50.566-14.543,77.898,6.897c41.274,32.379,70.875,77.511,76.852,130.324
			c2.979,26.325-6.816,35.616-20.678,56.016c-31.239,45.974-69.909,75.396-111.26,111.834
			c-35.088,30.921-71.848,60.558-104.694,93.898c-13.177,13.374-23.92,28.085-35.03,43.183
			c-44.477,60.441-90.304,120.144-131.99,181.858c-21.295,31.524-39.855,63.662-61.068,94.993
			c-55.834,82.477-126.008,143.338-199.02,210.07c-43.736,39.976-88.306,79.038-126.845,123.812
			c-36.586,42.502-69.439,88.271-102.657,132.678c-32.271,43.144-57.189,87.783-83.936,133.979
			c-13.028,22.504-28.188,44.157-40.973,66.563c-13.852,24.278-27.072,46.979-39.513,71.965
			c-40.42,81.181-86.613,162.677-76.946,256.798c6.604,64.293,27.071,123.961,67.851,176.082
			c19.919,25.461,41.341,48.344,68.059,65.853c51.736,33.901,115.193,55.063,173.974,72.751c26.988,8.12,56.617,7.723,83.901,14.457
			c18.033,4.452,46.87,3.795,58.374,21.167c12.969,19.584-5.148,49.875-19.479,64.618c-45.759,47.082-114.928,39.604-173.604,28.164
			c-68.771-13.408-134.184-35.896-202.499-51.965c-83.017-19.527-176.015-27.884-260.698-18.454
			c-27.439,3.056-53.88,6.463-81.865,6.462c-79.709-0.002-155.961,29.879-232.123,50.044
			c-94.386,24.989-186.438,65.838-265.982,121.966c-39.752,28.049-77.322,60.549-117.777,87.232
			c-83.17,54.859-156.923,113.16-230.154,180.795c-37.3,34.449-76.326,69.742-109.526,107.85
			c-40.683,46.695-82.541,95.264-107.407,152.643c-25.43,58.682-19.759,115.051,6.092,172.711
			c7.325,16.338,15.861,31.668,25.437,45.976l354.046-164.013c-4.032-2.832-6.223-6.94-1.313-11.338
			c8.543-7.64,26.666-6.766,37.297-10.441c35.144-12.156,69.396-32.963,101.865-50.961c41.461-22.984,85.206-46.77,121.557-78.139
			c41.308-35.649,85.327-67.318,125.841-102.328c21.007-18.15,43.459-36.316,63.157-55.806
			c18.057-17.865,39.968-24.922,64.373-31.276c35.349-9.203,70.872-19.4,106.598-26.801c36.371-7.533,75.845-13.967,112.371-19.678
			c18.491-2.891,36.717-1.772,54.822,2.084c8.063,1.719,16.314,3.397,24.654,5.119c10.793,2.229,22.313,6.248,33.057,6.861
			c24.334,1.393,48.127,5.303,71.996,7.491c16.724,1.534,33.531,2.636,50.113,5.385c15.463,2.563,31.041,7.383,46.057,11.954
			c11.039,3.359,22.506,5.046,33.609,7.777c6.732,1.658,13.779,3.16,20.502,4.601c13.834,2.963,27.484,6.646,41.389,8.956
			c40.154,6.669,79.767,11.68,120.475,14.092c11.613,0.688,23.234,1.248,34.858,1.709c141.811,5.619,287.837-44.789,408.749-116.404
			c65.798-38.973,111.506-101.293,152.357-163.953c26.958-41.351,56.463-93.121,68.892-141.11
			c9.775-37.751,11.474-76.681,15.44-115.292c3.438-33.43,10.01-63.009,16.613-95.697c4.576-22.646,7.896-45.418,11.891-67.979
			c4.981-28.146,1.274-41.749-13.469-66.475c-3.197-5.36-5.436-11.35-8.982-16.334c-4.313-6.059-11.657-10.036-12.486-18.235
			c-1.271-12.595,12.181-21.898,18.467-31.404c6.86-10.375,14.231-20.405,21.728-30.328
			c51.123-67.678,120.626-146.801,65.381-233.297c-40.728-63.764-115.721-101.519-189.417-110.329
			c-33.253-3.977-75.984-7.584-107.38,4.954c-33.508,13.381-61.869,40.757-86.793,64.61
			c-41.312,39.537-84.263,81.813-114.481,130.779c-12.998,21.062-23.289,48.552-39.998,66.606
			c-8.377,9.052-18.155,14.551-28.496,19.479c-29.498,14.064-61.468,22.89-91.017,36.2c-24.846,11.192-40.049,35.601-62.533,50.192
			c-11.184,7.26-48.383,29.484-35.024,0.963c8.082-17.258,31.839-24.046,47.369-31.628c27.021-13.201,45.241-39.71,68.783-57.79
			c16.621-12.768,30.17-28.805,46.394-41.944c25.843-20.933,47.702-47.173,71.764-70.031c15.202-14.442,30.584-28.905,42.84-45.685
			c11.74-16.071,24.028-31.827,36.277-47.514c24.157-30.938,49.896-61.198,81.043-85.363c17.197-13.342,35.957-24.664,56.08-33.012
			c39.874-16.539,88.604-12.031,130.866-11.202c22.865,0.448,38.074,4.329,59.656-5.168c30.021-13.211,50.511-36.653,77.039-54.681
			c21.877-14.866,45.51-30.412,64.476-49.28c57.79-57.5,119.296-112.47,172.964-174.05c20.787-23.854,43.467-45.938,65.076-69.025
			c17.7-18.912,28.025-43.374,47.58-60.375c20.127-17.498,40.831-35.781,61.496-53.21c46.939-39.589,98.009-73.955,144.949-113.551
			c51.438-43.388,78.578-94.275,113.418-149.853c16.305-26.008,30.029-53.103,42.451-80.509
			c22.861-50.44,41.975-102.701,55.55-156.423c11.926-47.193,30.131-96.036,32.459-145.124
			C4437.314,2404.066,4436.734,2362.801,4425.627,2325.919z" style="stroke:black;fill:#e8cd59"/><path id="278102975" parent_id="278102973" order="82" structure_id="4022" d="
			M3111.027,955.065c-23.435-51.824-39.894-104.011-69.631-153.321c-33.229-55.097-73.434-105.532-115.854-153.771
			c-59.303-67.433-126.469-127.2-192.964-187.333c-61.916-55.99-124.012-111.174-201.07-145.63
			c-85.225-38.104-198.718-57.354-291.906-48.183c-71.398,7.025-139.958,29.695-210.18,43.204
			c-61.804,11.888-124.193,27.581-178.653,60.238c-53.96,32.358-99.627,76.002-157.273,102.717
			c-31.321,14.515-63.013,30.094-96.896,37.683c-40.357,9.039-79.139-7.5-119.091,0.339c-10.176,1.998-36.052,19.923-42.218,4.461
			c-4.08-10.417,27.511-44.399,32.935-54.991c21.577-42.129,44.319-71.146,38.514-120.648
			c-5.427-46.245-26.313-87.241-61.27-118.323c-55.408-49.25-140.589-87.106-212.423-102.055
			c-71.188-14.812-149.298-20.052-222.602-24.458c-74.073-4.453-144.336,1.53-216.831,16.547
			c-41.094,8.512-75.671,29.255-114.406,43.318c-31.523,11.444-60.356,25.449-87.823,44.195
			c-69.965,47.753-147.133,91.181-183.921,170.905c-12.54,27.174-17.177,57.513-25.433,87.059
			c-16.507,59.074-30.261,121.893-36.605,182.909c-3.935,37.853-2.954,76.984-4.837,114.806c-2.212,44.431-5.013,88.83-7.086,133.27
			c-3.759,80.581,3.796,160.09,19.929,238.998c8.4,41.086,14.854,82.533,22.556,123.75c6.676,35.73,5.184,70.773,10.255,106.883
			c13.803,98.294,53.627,198.405,104.307,283.393c31.994,53.649,78.142,111.174,132.83,142.448
			c74.832,42.796,154.875,63.541,241.122,63.531c50.058-0.006,98.41-13.303,148.46-13.49c19.625-0.072,59.99-2.743,77.532,7.444
			c13.875,8.058-1.999,14.409-11.175,16.867c-13.712,3.673-25.268-2.976-38.975-2.813c-21.825,0.26-43.849-1.066-65.639-0.037
			c-38.017,1.795-76.076,2.366-114.102,3.926c-41.292,1.691-82.604,4.866-123.438,11.394
			c-51.049,8.159-100.812,23.146-146.921,46.692c-46.531,23.763-78.836,59.256-114.024,97.15
			c-20.191,21.745-44.271,37.938-62.937,60.541c-30.502,36.935-52.151,81.771-67.984,126.674
			c-16.286,46.188-37.837,93.756-47.868,141.759c-10.744,51.416-20.688,100.59-25.887,152.903
			c-15.285,153.816-22.008,317.617,9.895,469.92c22.546,107.635,66.408,187.236,166.118,239.059
			c30.496,15.85,65.919,19.123,101.472,22.488c73.764,6.98,165.027-23.772,225.925-65.025c30.11-20.396,58.66-42.008,88.794-62.483
			c49.783-33.832,98.851-65.52,150.732-95.896c45.169-26.446,87.774-51.966,133.758-77.294
			c69.936-38.52,138.89-55.163,217.268-63.783c98.377-10.821,186.388,22.584,281.998,38.011
			c57.843,9.333,114.349,23.829,170.935,38.913c69.183,18.44,135.391,37.245,202.227,62.839
			c21.837,8.362,49.698,17.069,65.962,36.292c1.783,2.107,1.396,5.639-1.31,6.189c-17.336,3.528-67.448-22.737-80.636-28.393
			c-30.974-13.283-62.965-29.001-95.557-37.328c-53.526-13.675-106.696-28.888-160.417-41.788
			c-48.974-11.759-100.033-27.049-149.767-34.79c-54.551-8.49-111.271-24.193-167.332-23.937
			c-42.913,0.196-88.711,0.263-130.424,11.645c-33.066,9.023-64.613,30.771-98.143,42.795c-23.51,8.431-43.694,21.475-65.534,33.533
			c-35.828,19.783-73.658,37.325-108.622,58.165c-36.947,22.021-68.826,53.336-104.421,77.634
			c-41.367,28.237-78.527,65.933-116.961,97.77c-79.537,65.884-126.097,144.004-160.97,240.604
			c-10.593,29.342-22.517,60.917-27.101,91.83c-7.462,50.317-2.958,114.685,14.566,161.959
			c17.153,46.274,60.293,77.323,101.093,101.606c20.852,12.409,46.743,20.508,65.223,35.961
			c17.968,15.024,37.479,35.819,61.58,40.014c26.385,4.591,58.029-6.878,83.095-13.979c53.814-15.252,108.172-29.248,161.651-42.703
			c50.01-12.581,100.303-15.522,150.296-29.988c49.316-14.271,100.108-16.832,149.85-29.217
			c28.711-7.149,58.015-12.902,86.579-21.022c16.392-4.659,34.992-12.921,52.275-10.546c24.031,3.303,18.46,13.538-1.396,17.721
			c-18.126,3.817-37.042,3.404-55.577,6.254c-85.354,13.117-167.775,36.886-252.057,54.731
			c-83.356,17.651-167.806,32.126-248.304,60.845c-51.811,18.483-106.567,21.546-91.066,91.88
			c10.41,47.24,47.811,84.595,73.577,123.021c20.612,30.737,43.681,59.712,64.977,89.962c11.292,16.038,35.516,46.318,35.75,68.29
			c0.011,1.004-0.338,1.87-0.896,2.501l200.057,236.874c35.269-10.119,69.274-24.214,98.654-44.806
			c79.812-55.938,50.203-109.283,54.123-191.33c6.547-137.015,142.538-147.363,234.425-203.095
			c53.396-32.386,116.75-48.116,152.62-104.976c33.807-53.592,68.106-132.479,59.761-197.6
			c-7.579-59.129-40.249-111.783-79.656-154.504c-34.903-37.838-65.581-92.758-111.726-118.805
			c-0.015-0.008-0.028-0.016-0.042-0.022c-32.724-18.425-71.88-36.861-106.606-50.12c-53.275-20.342-105.628-8.979-160.339-12.137
			c-47.954-2.767-98.323,5.261-142.875-18.355c-34.716-18.402-51.082-37.742-21.514-74.357c0.79-0.979,1.589-1.942,2.398-2.895
			c1.572-1.848,3.185-3.646,4.827-5.404c0.049-0.052,0.096-0.104,0.146-0.156c0.357-0.383,0.724-0.754,1.085-1.134
			c0.494-0.517,0.984-1.039,1.484-1.549c0.415-0.406,0.836-0.804,1.26-1.201c0.113-0.107,0.226-0.219,0.341-0.325
			c0.333-0.31,0.673-0.608,1.01-0.911c0.211-0.189,0.419-0.384,0.633-0.571c0.328-0.287,0.664-0.564,0.996-0.845
			c0.229-0.194,0.456-0.394,0.688-0.584c0.306-0.251,0.618-0.492,0.929-0.737c0.268-0.212,0.532-0.429,0.803-0.637
			c0.209-0.16,0.424-0.312,0.635-0.469c0.38-0.283,0.759-0.569,1.146-0.845c0.122-0.086,0.249-0.167,0.372-0.253
			c0.481-0.336,0.967-0.671,1.461-0.992c0.17-0.11,0.346-0.213,0.517-0.322c1.079-0.687,2.181-1.344,3.317-1.954
			c7.672-4.117,15.646-7.33,23.531-10.968c16-7.385,34.567-9.396,51.841-11.633c26.09-3.377,52.566-7.313,79.214-7.324
			c14.65-0.004,29.206-0.317,43.84-0.33c16.546-0.015,33.16,1.666,49.581,3.338c11.056,1.125,21.847,2.809,32.833,4.076
			c4.992,0.576,10.025,1.409,14.979,2.251c5.914,1.007,11.977,1.396,17.834,2.745c11.667,2.688,22.983,4.399,34.85,5.936
			c11.228,1.453,22.56,2.995,34.034,2.986c0.68,0,1.358,0.01,2.037,0.03c0.39,0.013,0.776,0.035,1.166,0.054
			c0.288,0.015,0.578,0.022,0.867,0.041c0.508,0.03,1.015,0.072,1.521,0.114c0.168,0.015,0.336,0.023,0.503,0.039
			c0.594,0.054,1.187,0.117,1.778,0.186c0.08,0.009,0.16,0.016,0.239,0.024c0.661,0.078,1.321,0.165,1.981,0.26
			c0.01,0,0.02,0.002,0.03,0.004c1.009,0.146,2.017,0.31,3.021,0.491c0.761,0.138,1.521,0.294,2.279,0.451
			c0.241,0.05,0.481,0.092,0.723,0.144c11.673,3.195,23.03,7.137,34.709,11.452c77.397,23.948,146.951,50.718,193.405,67.075
			c59.027,20.785,120.179,34.097,182.208,39.003c1.397,0.111,2.794,0.212,4.192,0.313c16.082,1.174,32.222,1.791,48.396,1.815
			c11.429,0.017,22.876-0.257,34.333-0.829c136.448-6.802,278.497-23.075,380.831-119.544
			c38.407-36.206,67.693-50.812,76.178-107.454c6.351-42.393,2.363-90.39-21.031-127.055
			c-31.506-49.376-92.272-83.237-135.274-124.62c-53.169-51.168-115.452-94.918-180.82-130.306
			c-86.706-46.937-179.728-80.396-272.562-112.877c-81.286-28.439-158.002-69.16-241.337-88.139
			c-190.616-43.408-359.288-87.433-555.813-41.66c-108.788,25.338-209.246,49.518-309.971,100.574
			c-41.027,20.796-138.412,87.971-157.435,2.075c-9.515-42.971,6.389-92.988,15.911-134.711
			c18.259-79.999,75.72-139.231,145.455-180.405c77.542-45.781,162.663-76.324,242.325-117.936
			c47.656-24.895,94.327-66.432,130.321-105.99c31.938-35.102,60.362-69.503,82.707-111.951
			c18.402-34.961,42.627-68.079,48.334-108.118c6.165-43.252,7.282-87.896-1.835-130.872c-7.733-36.458-18.582-72.382-32.01-109.106
			c-6.516-17.82-11.614-38.499-19.776-55.147c-35.742-72.912-108.367-123.454-171.452-172.087
			c-51.431-39.646-70.081-74.833-99.793-131.786c-28.735-55.08-44.873-98.171-61.064-157.772
			c-16.262-59.856-48.375-138.184-40.04-201.258c9.226-69.812,83.581-66.645,130.368-36.531
			c41.331,26.601,93.912,38.398,140.357,58.996c45.934,20.371,80.542,43.898,131.061,57.105
			c76.301,19.947,137.45,50.911,219.345,50.172c77.13-0.695,153.418-15.008,229.066-28.67
			c101.583-18.346,199.282-41.413,301.925-50.977c23.043-2.147,45.673-6.87,68.014-7.944c31.75-1.524,64.848-2.504,95.89,5.411
			c35.404,9.026,60.218,53.64,35.845,84.506c-24.68,31.255-70.462,37.17-104.945,52.113
			c-44.037,19.089-88.198,37.879-131.584,58.385c-63.828,30.167-125.483,81.083-173.27,133.179
			c-49.713,54.196-95.797,104.535-109.807,179.17c-6.053,32.241-6.017,64.757-0.377,96.203l293.593-51.688
			c0.444-5.616,7.245-11.534,20.792-15.733c21.041-6.521,46.875-10.335,69.693-11.592c64.992-3.578,128.51,8.282,193.189,2.049
			c79.02-7.615,159.498-13.632,235.554-38.586c51.207-16.801,104.87-28.171,157.382-41.383
			c87.566-22.034,182.289-43.099,240.53-119.539c22.993-30.177,39.119-64.599,56.862-97.927
			c15.318-28.772,35.911-59.782,40.652-92.561C3137.199,1061.808,3133.396,1004.539,3111.027,955.065z" style="stroke:black;fill:#e8d959"/></g>
<g id="278102977" order="14" parent_id="" graphic_group_label_id="266932196" graphic_group_label="Atlas - Human Sulci" sub_image_id="102339937" transform=" scale(7.0, 7.0)"><path id="278102978" parent_id="278102977" order="1782" structure_id="9356" d="M3136.553,1405.996c-0.305-0.506-13.101,39.119-13.101,39.119
			s19.521,36.044,19.051,36.602c-0.472,0.558-92.875-30.049-92.699-30.813C3049.98,1450.136,3136.855,1406.501,3136.553,1405.996z" style="stroke:black;fill:#6d6e70"/></g>
</g>
</svg>